<svg width="12" height="18" viewBox="0 0 12 18" fill="none" xmlns="http://www.w3.org/2000/svg">
<g clip-path="url(#clip0_539_27479)">
<path d="M6 9.00071C6 7.36075 7.32946 6.03125 8.96946 6.03125C10.6094 6.03125 11.9389 7.36075 11.9389 9.00071C11.9389 10.6407 10.6094 11.9702 8.96946 11.9702C7.32946 11.9702 6 10.6407 6 9.00071Z" fill="#1ABCFE"/>
<path d="M0.0605469 14.9402C0.0605469 13.3002 1.39002 11.9707 3.03 11.9707H5.99946V14.9402C5.99946 16.5802 4.67 17.9096 3.03 17.9096C1.39002 17.9096 0.0605469 16.5802 0.0605469 14.9402Z" fill="#0ACF83"/>
<path d="M6 0.0917969V6.03069H8.96946C10.6095 6.03069 11.9389 4.70124 11.9389 3.06125C11.9389 1.42127 10.6095 0.0917969 8.96946 0.0917969H6Z" fill="#FF7262"/>
<path d="M0.0605469 3.06125C0.0605469 4.70124 1.39002 6.0307 3.03 6.0307H5.99946V0.0917969H3.03C1.39002 0.0917969 0.0605469 1.42127 0.0605469 3.06125Z" fill="#F24E1E"/>
<path d="M0.0605469 9.00071C0.0605469 10.6407 1.39002 11.9702 3.03 11.9702H5.99946V6.03125H3.03C1.39002 6.03125 0.0605469 7.36075 0.0605469 9.00071Z" fill="#A259FF"/>
</g>
<defs>
<clipPath id="clip0_539_27479">
<rect width="12" height="18" fill="white"/>
</clipPath>
</defs>
</svg>
