<svg width="18" height="18" viewBox="0 0 18 18" fill="none" xmlns="http://www.w3.org/2000/svg">
<path d="M5.34645 8.30992C5.07352 8.00969 4.66417 8.03699 4.4731 8.39182L0.0515619 17.2348C-0.112193 17.5897 0.133447 17.9991 0.515549 17.9991H6.65655C6.84765 17.9991 7.03867 17.8899 7.12057 17.6989C8.4579 14.9695 7.66642 10.7936 5.34645 8.30992Z" fill="url(#paint0_linear_539_27495)"/>
<path d="M8.56772 0.286582C6.11132 4.18954 6.27512 8.52923 7.88537 11.7771C9.52299 15.0251 10.7512 17.536 10.8604 17.6998C10.9423 17.8908 11.1333 18 11.3243 18H17.4654C17.8475 18 18.1204 17.5906 17.9294 17.2358C17.9294 17.2358 9.65949 0.695985 9.44109 0.286582C9.27737 -0.0955275 8.81334 -0.0955275 8.56772 0.286582Z" fill="#2684FF"/>
<defs>
<linearGradient id="paint0_linear_539_27495" x1="7.7592" y1="9.67784" x2="3.09937" y2="17.749" gradientUnits="userSpaceOnUse">
<stop stop-color="#0052CC"/>
<stop offset="0.9228" stop-color="#2684FF"/>
</linearGradient>
</defs>
</svg>
