<svg width="18" height="18" viewBox="0 0 18 18" fill="none" xmlns="http://www.w3.org/2000/svg">
<path d="M1.09623 0.776467L11.0777 0.0288629C12.2893 -0.086153 12.6066 0.000108957 13.3855 0.546435L16.5876 2.78925C17.1069 3.16305 17.28 3.27806 17.28 3.70937V15.9873C17.28 16.7637 16.9915 17.2237 16.0107 17.2813L4.41376 17.9714C3.66371 18.0001 3.31753 17.9138 2.9425 17.425L0.60581 14.4059C0.173088 13.8308 0 13.4282 0 12.9394V2.01289C0 1.3803 0.288481 0.833975 1.09623 0.776467Z" fill="white"/>
<path fill-rule="evenodd" clip-rule="evenodd" d="M11.0777 0.0282506L1.09623 0.775854C0.288481 0.833362 0 1.37969 0 2.01228V12.9388C0 13.4276 0.173088 13.8589 0.60581 14.4052L2.9425 17.4532C3.31753 17.942 3.69255 18.057 4.41376 17.9995L16.0107 17.3094C16.9915 17.2519 17.28 16.7918 17.28 16.0155V3.70876C17.28 3.30621 17.1358 3.19119 16.6453 2.84614C16.6165 2.81739 16.5876 2.81739 16.5588 2.78863L13.3855 0.574576C12.6355 -0.000503392 12.3181 -0.0580114 11.0777 0.0282506ZM4.67339 3.50748C3.7214 3.56499 3.51947 3.59375 2.97135 3.13368L1.61549 2.06978C1.47125 1.92601 1.52895 1.75349 1.90397 1.72474L11.5104 1.03464C12.3181 0.977132 12.722 1.23592 13.0393 1.4947L14.6837 2.67362C14.7702 2.70237 14.9433 2.90365 14.7125 2.90365L4.78878 3.50748H4.67339ZM3.57716 15.9005V5.46276C3.57716 5.00269 3.7214 4.80141 4.12528 4.77266L15.5203 4.11132C15.8953 4.08256 16.0684 4.3126 16.0684 4.77266V15.1241C16.0684 15.5842 15.9818 15.958 15.376 15.9867L4.47145 16.6193C3.86564 16.6768 3.57716 16.4468 3.57716 15.9005ZM14.3375 6.03784C14.3952 6.35413 14.3375 6.67042 14.0202 6.69918L13.5009 6.81419V14.5203C13.0393 14.779 12.6355 14.8941 12.2893 14.8941C11.7412 14.8941 11.5969 14.7215 11.1642 14.204L7.70244 8.79822V14.0027L8.79867 14.2615C8.79867 14.2615 8.79867 14.8941 7.93322 14.8941L5.50998 15.0378C5.45229 14.8941 5.50998 14.549 5.74077 14.4915L6.37543 14.319V7.41803L5.50998 7.33177C5.45229 7.01547 5.62538 6.55541 6.11579 6.52665L8.71212 6.35413L12.2893 11.8174V6.98672L11.3661 6.8717C11.3084 6.4979 11.5681 6.21036 11.9143 6.18161L14.3375 6.03784Z" fill="black"/>
</svg>
