<svg width="26" height="18" viewBox="0 0 26 18" fill="none" xmlns="http://www.w3.org/2000/svg">
<g clip-path="url(#clip0_543_27765)">
<mask id="mask0_543_27765" style="mask-type:luminance" maskUnits="userSpaceOnUse" x="0" y="0" width="26" height="18">
<path d="M0.00488281 0.0488281H25.6482V17.9961H0.00488281V0.0488281Z" fill="white"/>
</mask>
<g mask="url(#mask0_543_27765)">
<path fill-rule="evenodd" clip-rule="evenodd" d="M10.6735 2.00687C11.5007 1.14513 12.6524 0.610409 13.9261 0.610409C15.6191 0.610409 17.0964 1.55451 17.8829 2.95625C18.5865 2.64182 19.3487 2.47977 20.1195 2.48071C23.1733 2.48071 25.649 4.978 25.649 8.05873C25.649 11.1395 23.1733 13.6369 20.1195 13.6369C19.7466 13.6369 19.3824 13.5993 19.0301 13.5283C18.3376 14.7637 17.0173 15.5986 15.5022 15.5986C14.8895 15.5994 14.2846 15.4602 13.7338 15.1915C13.0317 16.8435 11.3953 18.0017 9.48873 18.0017C7.5028 18.0017 5.81023 16.7453 5.16101 14.9832C4.87165 15.0442 4.57671 15.0749 4.28098 15.0748C1.91658 15.0748 0 13.1381 0 10.7492C0 9.14806 0.860984 7.75019 2.14068 7.00239C1.86955 6.37806 1.73003 5.70455 1.73083 5.0239C1.73083 2.2763 3.96122 0.0488281 6.71249 0.0488281C8.32778 0.0488281 9.76335 0.816703 10.6735 2.00687Z" fill="#00A1E0"/>
</g>
<path fill-rule="evenodd" clip-rule="evenodd" d="M3.71481 9.35733C3.6987 9.39936 3.72056 9.40812 3.72574 9.41557C3.7739 9.45044 3.82281 9.47569 3.8722 9.50406C4.13371 9.6425 4.38091 9.68312 4.63913 9.68312C5.16527 9.68312 5.4921 9.40341 5.4921 8.95294V8.94408C5.4921 8.52754 5.12315 8.37619 4.77738 8.26696L4.73224 8.25235C4.47147 8.16772 4.24643 8.0945 4.24643 7.9227V7.91393C4.24643 7.76682 4.37799 7.65873 4.58183 7.65873C4.80848 7.65873 5.07706 7.73403 5.25028 7.82968C5.25028 7.82968 5.30136 7.86267 5.31992 7.81338C5.33001 7.78671 5.41756 7.55092 5.42689 7.52538C5.43688 7.49777 5.41935 7.47694 5.40135 7.4662C5.20354 7.34566 4.93033 7.26367 4.64751 7.26367L4.59502 7.26386C4.11345 7.26386 3.7772 7.55506 3.7772 7.9718V7.98075C3.7772 8.41991 4.14813 8.56269 4.4956 8.66192L4.55139 8.67926C4.80443 8.75692 5.02297 8.82402 5.02297 9.00204V9.0109C5.02297 9.17393 4.88095 9.29503 4.65223 9.29503C4.56355 9.29503 4.28045 9.29353 3.97454 9.10005C3.9375 9.07847 3.91639 9.06292 3.88784 9.04548C3.87276 9.03634 3.83506 9.01985 3.81867 9.06923L3.71481 9.35733ZM11.4171 9.35733C11.401 9.39936 11.4229 9.40812 11.4282 9.41557C11.4762 9.45044 11.5252 9.47569 11.5745 9.50406C11.8361 9.6425 12.0833 9.68312 12.3414 9.68312C12.8676 9.68312 13.1945 9.40341 13.1945 8.95294V8.94408C13.1945 8.52754 12.8256 8.37619 12.4798 8.26696L12.4346 8.25235C12.1739 8.16772 11.9487 8.0945 11.9487 7.9227V7.91393C11.9487 7.76682 12.0804 7.65873 12.2843 7.65873C12.5109 7.65873 12.7794 7.73403 12.9526 7.82968C12.9526 7.82968 13.0037 7.86267 13.0223 7.81338C13.0323 7.78671 13.12 7.55092 13.1292 7.52538C13.1393 7.49777 13.1216 7.47694 13.1037 7.4662C12.9058 7.34566 12.6327 7.26367 12.3499 7.26367L12.2973 7.26386C11.8159 7.26386 11.4796 7.55506 11.4796 7.9718V7.98075C11.4796 8.41991 11.8504 8.56269 12.198 8.66192L12.2537 8.67926C12.5068 8.75692 12.7254 8.82402 12.7254 9.00204V9.0109C12.7254 9.17393 12.5833 9.29503 12.3547 9.29503C12.2658 9.29503 11.9827 9.29353 11.6769 9.10005C11.6399 9.07847 11.6182 9.06358 11.5901 9.04548C11.5806 9.03945 11.5362 9.02211 11.5211 9.06923L11.4171 9.35733ZM16.6753 8.47486C16.6753 8.72931 16.6278 8.93023 16.5345 9.07187C16.4418 9.21229 16.3018 9.28061 16.1066 9.28061C15.9115 9.28061 15.7723 9.21238 15.681 9.07206C15.589 8.93032 15.5422 8.72931 15.5422 8.47486C15.5422 8.22059 15.589 8.02033 15.681 7.8801C15.7723 7.7411 15.9115 7.67362 16.1066 7.67362C16.3018 7.67362 16.4418 7.74119 16.5345 7.8802C16.628 8.02033 16.6753 8.22059 16.6753 8.47486ZM17.1146 8.00299C17.0714 7.85701 17.0042 7.72856 16.9147 7.62141C16.8251 7.51398 16.7118 7.42756 16.5774 7.36498C16.4432 7.30231 16.2848 7.27055 16.1066 7.27055C15.9284 7.27055 15.77 7.30231 15.6357 7.36498C15.5015 7.42756 15.388 7.51398 15.2984 7.6216C15.2091 7.72894 15.1417 7.8572 15.0986 8.00299C15.0558 8.14784 15.034 8.30664 15.034 8.47486C15.034 8.64317 15.0558 8.80206 15.0986 8.94672C15.1417 9.09242 15.2089 9.22077 15.2985 9.3283C15.3881 9.43592 15.5019 9.52159 15.6359 9.58266C15.7703 9.64372 15.9286 9.67482 16.1066 9.67482C16.2847 9.67482 16.4429 9.64372 16.5772 9.58266C16.7114 9.52159 16.8249 9.43592 16.9147 9.3283C17.0042 9.22115 17.0714 9.0926 17.1146 8.94672C17.1574 8.80178 17.1792 8.64298 17.1792 8.47486C17.1792 8.30682 17.1574 8.14793 17.1146 8.00299ZM20.7209 9.21248C20.7065 9.16979 20.6649 9.1859 20.6649 9.1859C20.6011 9.21031 20.5332 9.23293 20.4607 9.24424C20.3875 9.25573 20.3066 9.26148 20.22 9.26148C20.0076 9.26148 19.8385 9.19825 19.7178 9.07328C19.5965 8.94823 19.5283 8.74617 19.5291 8.47288C19.5297 8.22446 19.5899 8.03729 19.6977 7.89461C19.8046 7.75288 19.9678 7.68012 20.1848 7.68012C20.366 7.68012 20.5043 7.70114 20.6491 7.74656C20.6491 7.74656 20.6835 7.76155 20.7 7.71622C20.7386 7.60944 20.767 7.53348 20.8081 7.41615C20.8198 7.3827 20.7912 7.36856 20.7807 7.36451C20.7238 7.34227 20.5893 7.3058 20.4878 7.29044C20.3929 7.27592 20.282 7.26838 20.1582 7.26838C19.9738 7.26838 19.8094 7.29995 19.6687 7.36253C19.5284 7.42501 19.4094 7.51134 19.3151 7.61868C19.2207 7.72621 19.1489 7.85466 19.1014 8.00035C19.0538 8.14529 19.0298 8.30437 19.0298 8.47306C19.0298 8.83731 19.1281 9.13162 19.3219 9.34724C19.5165 9.56362 19.8082 9.6735 20.1891 9.6735C20.414 9.6735 20.6448 9.62799 20.811 9.56258C20.811 9.56258 20.8427 9.54732 20.8289 9.51037L20.7209 9.21248ZM21.4894 8.23087C21.5104 8.08941 21.5491 7.97189 21.6095 7.8801C21.7007 7.7411 21.8394 7.66448 22.0346 7.66448C22.2298 7.66448 22.3585 7.74119 22.4512 7.8802C22.5125 7.97208 22.5392 8.0945 22.5497 8.23105L21.4894 8.23087ZM22.9679 7.92015C22.9305 7.77936 22.8384 7.63715 22.7778 7.57212C22.6821 7.46902 22.5884 7.39683 22.4954 7.35697C22.3608 7.29976 22.216 7.27036 22.0697 7.27055C21.8842 7.27055 21.7156 7.30193 21.5788 7.36602C21.4419 7.43029 21.3268 7.51812 21.2366 7.62725C21.1463 7.73629 21.0785 7.86606 21.0352 8.01326C20.9919 8.15962 20.97 8.31917 20.97 8.48767C20.97 8.659 20.9927 8.81874 21.0374 8.96236C21.0826 9.10721 21.155 9.23434 21.2528 9.34017C21.3506 9.44638 21.4764 9.52969 21.6267 9.58775C21.7763 9.6457 21.958 9.67577 22.1663 9.67511C22.5959 9.67369 22.8218 9.57794 22.9151 9.52639C22.9316 9.51716 22.9471 9.50123 22.9277 9.45534L22.8304 9.18317C22.8155 9.14255 22.7745 9.15725 22.7745 9.15725C22.6679 9.19702 22.517 9.26799 22.1642 9.26723C21.9336 9.26686 21.7629 9.19872 21.6555 9.09232C21.5457 8.98347 21.4918 8.82364 21.4827 8.59784L22.9691 8.59897C22.9691 8.59897 23.0083 8.59859 23.0123 8.56033C23.0139 8.5445 23.0633 8.25499 22.9679 7.92015ZM9.5831 8.23087C9.60411 8.08941 9.64294 7.97189 9.70325 7.8801C9.79448 7.7411 9.93301 7.66448 10.1284 7.66448C10.3236 7.66448 10.4523 7.74119 10.545 7.8802C10.6062 7.97208 10.6329 8.0945 10.6434 8.23105L9.5831 8.23087ZM11.0616 7.92015C11.0243 7.77936 10.9321 7.63715 10.8716 7.57212C10.7759 7.46902 10.6823 7.39683 10.5892 7.35697C10.4546 7.29979 10.3098 7.27039 10.1635 7.27055C9.97796 7.27055 9.80937 7.30193 9.67262 7.36602C9.53569 7.43029 9.42062 7.51812 9.33025 7.62725C9.24006 7.73629 9.1723 7.86606 9.12886 8.01326C9.0856 8.15962 9.06383 8.31917 9.06383 8.48767C9.06383 8.659 9.08635 8.81874 9.1313 8.96236C9.17635 9.10721 9.24892 9.23434 9.34655 9.34017C9.44437 9.44638 9.57009 9.52969 9.72041 9.58775C9.87006 9.6457 10.0516 9.67577 10.2601 9.67511C10.6896 9.67369 10.9156 9.57794 11.0089 9.52639C11.0253 9.51716 11.0409 9.50123 11.0214 9.45534L10.9242 9.18317C10.9093 9.14255 10.8682 9.15725 10.8682 9.15725C10.7617 9.19702 10.6108 9.26799 10.2579 9.26723C10.0274 9.26686 9.85658 9.19872 9.74924 9.09232C9.63955 8.98347 9.58555 8.82364 9.5764 8.59784L11.0629 8.59897C11.0629 8.59897 11.1021 8.59859 11.1061 8.56033C11.1077 8.5445 11.1571 8.25499 11.0616 7.92015ZM6.36977 9.20437C6.31143 9.15782 6.30333 9.14642 6.28401 9.11616C6.25451 9.07065 6.23943 9.00581 6.23943 8.92278C6.23943 8.79226 6.28278 8.69821 6.37212 8.63506C6.37118 8.63525 6.50029 8.52367 6.80327 8.52763C6.93844 8.53003 7.07329 8.54152 7.20691 8.56203V9.23773H7.2071C7.2071 9.23773 7.01814 9.27835 6.80544 9.29117C6.50312 9.30936 6.36882 9.20409 6.36977 9.20437ZM6.96132 8.15962C6.901 8.15519 6.82288 8.15302 6.7292 8.15302C6.60188 8.15302 6.47871 8.16886 6.36308 8.19995C6.24697 8.23124 6.14255 8.27968 6.05274 8.34386C5.96298 8.40798 5.88918 8.49188 5.83702 8.58908C5.78434 8.68718 5.75748 8.80244 5.75748 8.93164C5.75748 9.06348 5.78038 9.1777 5.82562 9.271C5.86988 9.36351 5.9365 9.44351 6.01947 9.50378C6.10212 9.5639 6.20409 9.60801 6.32236 9.63496C6.43913 9.66163 6.57144 9.67511 6.71601 9.67511C6.86868 9.67511 7.0205 9.66229 7.16761 9.6375C7.29292 9.61591 7.41775 9.59166 7.54203 9.56475C7.5916 9.55335 7.64626 9.53836 7.64626 9.53836C7.68301 9.52903 7.68019 9.48973 7.68019 9.48973L7.67934 8.13022C7.67934 7.83204 7.5998 7.61114 7.44308 7.47392C7.28711 7.33737 7.05744 7.26838 6.7603 7.26838C6.64872 7.26838 6.46947 7.28346 6.36185 7.30504C6.36185 7.30504 6.03728 7.368 5.90365 7.4727C5.90365 7.4727 5.87425 7.49079 5.89027 7.53179L5.99554 7.81451C6.00864 7.85117 6.04435 7.83864 6.04435 7.83864C6.04435 7.83864 6.05557 7.83421 6.06876 7.82638C6.35469 7.67089 6.71648 7.6755 6.71648 7.6755C6.87706 7.6755 7.0008 7.70802 7.08392 7.77163C7.16506 7.83392 7.20625 7.92769 7.20625 8.12588V8.18874C7.07874 8.17027 6.96132 8.15962 6.96132 8.15962ZM18.952 7.39372C18.9542 7.38875 18.9553 7.3834 18.9553 7.37799C18.9554 7.37258 18.9543 7.36722 18.9522 7.36222C18.9502 7.35723 18.9471 7.3527 18.9432 7.34892C18.9393 7.34514 18.9348 7.34217 18.9297 7.3402C18.9044 7.33058 18.778 7.30391 18.6805 7.29788C18.4937 7.2862 18.3901 7.31767 18.2972 7.35951C18.205 7.40107 18.1029 7.46827 18.046 7.54489L18.0458 7.36357C18.0458 7.33869 18.0282 7.31861 18.0031 7.31861H17.622C17.5973 7.31861 17.5794 7.33869 17.5794 7.36357V9.58124C17.5795 9.59321 17.5842 9.60467 17.5927 9.61313C17.6011 9.62159 17.6126 9.62636 17.6246 9.62638H18.0152C18.0272 9.62636 18.0386 9.62159 18.0471 9.61313C18.0555 9.60467 18.0602 9.5932 18.0602 9.58124V8.47344C18.0602 8.32464 18.0766 8.17639 18.1093 8.08319C18.1416 7.99093 18.1854 7.91742 18.2397 7.86455C18.2911 7.81352 18.3541 7.77564 18.4233 7.7541C18.4881 7.73549 18.5552 7.72604 18.6227 7.72602C18.7004 7.72602 18.786 7.746 18.786 7.746C18.8146 7.7492 18.8306 7.73167 18.8403 7.70585C18.8658 7.6379 18.9382 7.43425 18.952 7.39372Z" fill="#FFFFFE"/>
<path fill-rule="evenodd" clip-rule="evenodd" d="M15.2861 6.36699C15.2378 6.35241 15.1888 6.34077 15.1391 6.33212C15.0724 6.32097 15.0048 6.31574 14.9371 6.31647C14.6682 6.31647 14.4563 6.39243 14.3075 6.54246C14.1597 6.69136 14.0591 6.9182 14.0087 7.21666L13.9905 7.31741H13.6531C13.6531 7.31741 13.6119 7.31571 13.6032 7.36066L13.5478 7.66977C13.5439 7.69936 13.5567 7.71783 13.5962 7.71765H13.9248L13.5914 9.57824C13.5653 9.72809 13.5354 9.85135 13.5024 9.94475C13.4698 10.0369 13.4379 10.106 13.3987 10.1561C13.3607 10.2047 13.3247 10.2404 13.2626 10.2612C13.2114 10.2785 13.1524 10.2864 13.0877 10.2864C13.0517 10.2864 13.0038 10.2803 12.9685 10.2733C12.9332 10.2663 12.9148 10.2584 12.8883 10.2473C12.8883 10.2473 12.8498 10.2326 12.8346 10.2712C12.8222 10.3028 12.7347 10.5436 12.7243 10.5733C12.7138 10.6027 12.7286 10.6259 12.7472 10.6326C12.7909 10.6483 12.8235 10.6582 12.883 10.6723C12.9658 10.6918 13.0355 10.693 13.1008 10.693C13.2376 10.693 13.3623 10.6738 13.4657 10.6365C13.5698 10.5989 13.6603 10.5334 13.7404 10.4447C13.827 10.349 13.8815 10.2489 13.9336 10.1122C13.9852 9.97679 14.0291 9.80866 14.0642 9.61274L14.3992 7.71765H14.8888C14.8888 7.71765 14.9301 7.71915 14.9387 7.67439L14.9941 7.36528C14.998 7.33569 14.9853 7.31722 14.9456 7.31741H14.4703C14.4727 7.30666 14.4943 7.13948 14.5488 6.9821C14.5721 6.9149 14.6159 6.86071 14.653 6.82349C14.6877 6.78804 14.7304 6.76146 14.7775 6.74602C14.8292 6.73005 14.883 6.72229 14.9371 6.72303C14.9819 6.72303 15.0258 6.7284 15.0592 6.73537C15.1053 6.74518 15.1232 6.75036 15.1353 6.75394C15.1837 6.76874 15.1902 6.75441 15.1997 6.73095L15.3134 6.41882C15.3251 6.38527 15.2966 6.37113 15.2861 6.36699ZM8.64454 9.5822C8.64454 9.60708 8.62682 9.62734 8.60194 9.62734H8.20773C8.18276 9.62734 8.16504 9.60708 8.16504 9.5822V6.4093C8.16504 6.38452 8.18276 6.36444 8.20773 6.36444H8.60194C8.62682 6.36444 8.64454 6.38452 8.64454 6.4093V9.5822Z" fill="#FFFFFE"/>
</g>
<defs>
<clipPath id="clip0_543_27765">
<rect width="25.7277" height="18" fill="white"/>
</clipPath>
</defs>
</svg>
