<svg width="18" height="18" viewBox="0 0 18 18" fill="none" xmlns="http://www.w3.org/2000/svg">
<path d="M18.0001 8.99978C18.0001 13.9705 13.971 18 9.00022 18C4.02948 18 0 13.9705 0 8.99978C0 4.02935 4.02954 0 9.00022 0C13.971 0 18.0001 4.02929 18.0001 8.99978Z" fill="#E95420"/>
<path d="M4.33009 9.00134C4.33009 9.64041 3.81199 10.1586 3.17247 10.1586C2.53372 10.1586 2.01562 9.64047 2.01562 9.00134C2.01562 8.36253 2.53372 7.84443 3.17247 7.84443C3.81199 7.84443 4.33009 8.36253 4.33009 9.00134ZM10.9134 14.6279C11.233 15.1809 11.9404 15.3706 12.4939 15.0514C13.0473 14.7318 13.2369 14.024 12.9174 13.4706C12.5978 12.9172 11.8904 12.7279 11.337 13.0475C10.7835 13.3671 10.5939 14.0744 10.9134 14.6279ZM12.9173 4.53244C13.2368 3.9789 13.0476 3.27132 12.4938 2.9521C11.9407 2.63257 11.233 2.82218 10.9134 3.37546C10.5938 3.92887 10.7834 4.63639 11.3369 4.95592C11.8904 5.27546 12.5981 5.08584 12.9173 4.53244ZM9.00111 5.70167C10.7253 5.70167 12.1402 7.02337 12.288 8.7093L13.9626 8.68288C13.8831 7.43021 13.3397 6.30359 12.5024 5.47288C12.0592 5.64388 11.5449 5.62064 11.1012 5.36429C10.6572 5.10794 10.3799 4.67398 10.3065 4.20382C9.89037 4.09079 9.4526 4.03028 9.00111 4.03028C8.2092 4.03028 7.46065 4.21544 6.79593 4.54482L7.61077 6.00806C8.03305 5.81184 8.50466 5.70167 9.00111 5.70167ZM5.70106 9.00134C5.70106 7.88519 6.25567 6.89814 7.10423 6.3013L6.24443 4.86404C5.24849 5.52914 4.50662 6.54368 4.19362 7.73317C4.56402 8.03143 4.80132 8.48864 4.80132 9.0014C4.80132 9.51448 4.56396 9.97169 4.19362 10.27C4.50662 11.4594 5.24849 12.474 6.24443 13.1395L7.10423 11.7022C6.25567 11.1049 5.70106 10.1182 5.70106 9.00134ZM9.00111 12.3016C8.50473 12.3016 8.03311 12.1915 7.61077 11.9949L6.79593 13.4582C7.46065 13.7878 8.20913 13.9728 9.00111 13.9728C9.45253 13.9728 9.89037 13.9127 10.3065 13.7995C10.3798 13.329 10.6571 12.8951 11.1012 12.6391C11.5449 12.3828 12.0592 12.3595 12.5024 12.5305C13.3398 11.6994 13.8831 10.5728 13.9626 9.32011L12.288 9.29414C12.1401 10.9796 10.7253 12.3016 9.00111 12.3016Z" fill="white"/>
</svg>
