<svg width="1440" height="832" viewBox="0 0 1440 832" fill="none" xmlns="http://www.w3.org/2000/svg">
<g clip-path="url(#clip0_5803_23743)">
<rect width="1440" height="832" fill="#E8EFF1"/>
<g clip-path="url(#clip1_5803_23743)">
<g opacity="0.8">
<mask id="mask0_5803_23743" style="mask-type:alpha" maskUnits="userSpaceOnUse" x="-21" y="98" width="1435" height="1128">
<g clip-path="url(#clip2_5803_23743)">
<path d="M1124.11 588.646C1124.11 713.658 1041.59 815 939.798 815C838.003 815 202 376.535 202 251.523C202 126.511 1115.81 298.613 1217.61 298.613C1319.4 298.613 1124.11 463.634 1124.11 588.646Z" fill="url(#paint0_linear_5803_23743)"/>
<path d="M1277 543.201C1277 676.19 1169.06 784 1035.91 784C902.76 784 161 753.001 161 620.011C161 487.022 215.83 172 348.98 172C482.13 172 1277 410.211 1277 543.201Z" fill="url(#paint1_radial_5803_23743)"/>
<path d="M667.465 627.403C934.071 844.444 812.962 733.105 1086.54 678.246C1127.8 678.566 1200.25 666.169 1159.9 614.024C1109.47 548.843 1140.27 491.107 1074.97 421.914C1009.68 352.721 976.181 276.638 878.844 165.441C781.506 54.2439 751.925 165.245 616.47 179.07C481.015 192.894 540.628 198.322 315.526 424.175C90.4234 650.027 400.859 410.362 667.465 627.403Z" fill="#D9D9D9"/>
<path d="M750.525 410.777C404.939 457.215 571.704 442.882 430.054 637.807C402.092 662.65 362.946 713.139 430.054 716.35C513.939 720.363 537.547 769.667 634.492 766.801C731.437 763.934 812.308 784 963 784C1113.69 784 1048.39 707.177 1128.76 617.741C1209.13 528.305 1164.93 561.557 1142.83 305.288C1120.72 49.019 1096.11 364.339 750.525 410.777Z" fill="#D9D9D9"/>
</g>
</mask>
<g mask="url(#mask0_5803_23743)">
<g opacity="0.09">
<line x1="-104.977" y1="786.441" x2="1601.71" y2="786.441" stroke="#092A31" stroke-width="1.42343"/>
<line x1="-104.977" y1="422.046" x2="1601.71" y2="422.046" stroke="#092A31" stroke-width="1.42343"/>
<line x1="-104.977" y1="604.241" x2="1601.71" y2="604.241" stroke="#092A31" stroke-width="1.42343"/>
<line x1="-104.977" y1="239.843" x2="1601.71" y2="239.843" stroke="#092A31" stroke-width="1.42343"/>
<line x1="-104.977" y1="695.343" x2="1601.71" y2="695.343" stroke="#092A31" stroke-width="1.42343"/>
<line x1="-104.977" y1="330.945" x2="1601.71" y2="330.945" stroke="#092A31" stroke-width="1.42343"/>
<line x1="-104.977" y1="513.14" x2="1601.71" y2="513.14" stroke="#092A31" stroke-width="1.42343"/>
<line x1="-104.977" y1="148.745" x2="1601.71" y2="148.745" stroke="#092A31" stroke-width="1.42343"/>
<line x1="677.196" y1="25.6211" x2="677.196" y2="1343.71" stroke="#092A31" stroke-width="1.42343"/>
<line x1="312.798" y1="25.6211" x2="312.798" y2="1343.71" stroke="#092A31" stroke-width="1.42343"/>
<line x1="1041.59" y1="25.6211" x2="1041.59" y2="1343.71" stroke="#092A31" stroke-width="1.42343"/>
<line x1="1355.99" y1="25.6211" x2="1355.99" y2="1343.71" stroke="#092A31" stroke-width="1.42343"/>
<line x1="130.602" y1="25.6211" x2="130.602" y2="1343.71" stroke="#092A31" stroke-width="1.42343"/>
<line x1="859.391" y1="25.6211" x2="859.391" y2="1343.71" stroke="#092A31" stroke-width="1.42343"/>
<line x1="495.001" y1="25.6211" x2="495.001" y2="1343.71" stroke="#092A31" stroke-width="1.42343"/>
<line x1="1223.79" y1="25.6211" x2="1223.79" y2="1343.71" stroke="#092A31" stroke-width="1.42343"/>
<line x1="40.2586" y1="25.8438" x2="40.2585" y2="1343.94" stroke="#092A31" stroke-width="1.42343"/>
<line x1="768.298" y1="25.6211" x2="768.298" y2="1343.71" stroke="#092A31" stroke-width="1.42343"/>
<line x1="403.899" y1="25.6211" x2="403.899" y2="1343.71" stroke="#092A31" stroke-width="1.42343"/>
<line x1="1132.7" y1="25.6211" x2="1132.7" y2="1343.71" stroke="#092A31" stroke-width="1.42343"/>
<line x1="221.696" y1="25.6211" x2="221.696" y2="1343.71" stroke="#092A31" stroke-width="1.42343"/>
<line x1="950.493" y1="25.6211" x2="950.493" y2="1343.71" stroke="#092A31" stroke-width="1.42343"/>
<line x1="586.095" y1="25.6211" x2="586.094" y2="1343.71" stroke="#092A31" stroke-width="1.42343"/>
</g>
<g opacity="0.5">
<rect x="1224.38" y="331.918" width="90.5818" height="89.2877" fill="#006837" fill-opacity="0.2"/>
<rect x="494.547" y="604.898" width="90.5818" height="89.2877" fill="#006837" fill-opacity="0.1"/>
<rect x="1132.5" y="422.5" width="90.5818" height="89.2877" fill="#006837" fill-opacity="0.2"/>
<rect x="403.797" y="331.918" width="90.5818" height="89.2877" fill="#006837" fill-opacity="0.1"/>
<rect x="1132.5" y="331.918" width="90.5818" height="89.2877" fill="#006837" fill-opacity="0.2"/>
<rect x="403.797" y="604.898" width="90.5818" height="89.2877" fill="#006837" fill-opacity="0.1"/>
<rect x="1041.92" y="149.461" width="90.5818" height="90.5818" fill="#006837" fill-opacity="0.1"/>
<rect x="950.344" y="58.3594" width="90.5818" height="89.7688" fill="#006837" fill-opacity="0.1"/>
<rect x="950.344" y="148.977" width="90.5818" height="90.3585" fill="#006837" fill-opacity="0.1"/>
<rect x="403.969" y="57.582" width="91.8758" height="90.5818" fill="#006837" fill-opacity="0.2"/>
<rect x="130.922" y="421.203" width="90.5818" height="91.8758" fill="#006837" fill-opacity="0.15"/>
</g>
</g>
</g>
</g>
</g>
<defs>
<linearGradient id="paint0_linear_5803_23743" x1="642.221" y1="314.132" x2="1027.69" y2="519.097" gradientUnits="userSpaceOnUse">
<stop stop-color="white"/>
<stop offset="1" stop-color="white" stop-opacity="0"/>
</linearGradient>
<radialGradient id="paint1_radial_5803_23743" cx="0" cy="0" r="1" gradientTransform="matrix(750.522 -344.405 726.638 1050.8 514.598 548.853)" gradientUnits="userSpaceOnUse">
<stop stop-color="white"/>
<stop offset="1" stop-color="white" stop-opacity="0"/>
</radialGradient>
<clipPath id="clip0_5803_23743">
<rect width="1440" height="832" fill="white"/>
</clipPath>
<clipPath id="clip1_5803_23743">
<rect width="1435" height="1051" fill="white" transform="translate(-21 98)"/>
</clipPath>
<clipPath id="clip2_5803_23743">
<rect width="1434.81" height="1127.35" fill="white" transform="translate(-21 98.2148)"/>
</clipPath>
</defs>
</svg>
