<svg width="1440" height="669" viewBox="0 0 1440 669" fill="none" xmlns="http://www.w3.org/2000/svg">
<g clip-path="url(#clip0_5307_26238)">
<rect width="1440" height="669" fill="#092A31"/>
<g filter="url(#filter0_f_5307_26238)">
<circle cx="96.5" cy="729.5" r="88.5" fill="#D79F40"/>
</g>
<g filter="url(#filter1_f_5307_26238)">
<circle cx="1324.5" cy="124.5" r="88.5" fill="#D79F40"/>
</g>
<g opacity="0.5">
<g clip-path="url(#clip1_5307_26238)">
<g opacity="0.8">
<mask id="mask0_5307_26238" style="mask-type:alpha" maskUnits="userSpaceOnUse" x="0" y="-152" width="1435" height="1128">
<g clip-path="url(#clip2_5307_26238)">
<path d="M808.504 191.26C808.504 357.528 698.571 492.315 562.963 492.315C427.354 492.315 -419.914 -90.8516 -419.914 -257.12C-419.914 -423.388 797.445 -194.489 933.054 -194.489C1068.66 -194.489 808.504 24.9918 808.504 191.26Z" fill="url(#paint0_linear_5307_26238)"/>
<path d="M903.873 903.738C903.873 1070.01 793.94 1204.79 658.331 1204.79C522.723 1204.79 -232.734 1166.04 -232.734 999.769C-232.734 833.501 -176.892 439.65 -41.2834 439.65C94.3253 439.65 903.873 737.47 903.873 903.738Z" fill="url(#paint1_radial_5307_26238)"/>
<path d="M1182.41 191.717C1548.3 522.186 1379.28 356.112 1693.56 347.745C1742.86 357.242 1826.55 357.693 1766.92 283.522C1692.38 190.809 1716.41 125.324 1623.26 24.3123C1530.1 -76.6997 1473.37 -179.326 1332.74 -339.983C1192.11 -500.64 1181.29 -368.205 1022.74 -380.76C864.197 -393.314 936.51 -373.378 717.758 -140.271C499.005 92.8352 816.513 -138.752 1182.41 191.717Z" fill="#D9D9D9"/>
<path d="M836.981 711.525C347.322 769.174 583.611 751.381 382.908 993.364C343.289 1024.2 287.823 1086.88 382.908 1090.87C501.764 1095.85 535.214 1157.06 672.575 1153.5C809.936 1149.94 924.522 1174.85 1138.04 1174.85C1351.55 1174.85 1259.03 1079.48 1372.9 968.454C1486.78 857.426 1424.14 898.706 1392.83 580.57C1361.51 262.434 1326.64 653.876 836.981 711.525Z" fill="#D9D9D9"/>
</g>
</mask>
<g mask="url(#mask0_5307_26238)">
<g opacity="0.09">
<line x1="-83.9766" y1="536.441" x2="1622.71" y2="536.441" stroke="white" stroke-width="1.42343"/>
<line x1="-83.9766" y1="172.044" x2="1622.71" y2="172.044" stroke="white" stroke-width="1.42343"/>
<line x1="-83.9766" y1="354.241" x2="1622.71" y2="354.241" stroke="white" stroke-width="1.42343"/>
<line x1="-83.9766" y1="445.341" x2="1622.71" y2="445.341" stroke="white" stroke-width="1.42343"/>
<line x1="-83.9766" y1="80.9443" x2="1622.71" y2="80.9443" stroke="white" stroke-width="1.42343"/>
<line x1="-83.9766" y1="263.142" x2="1622.71" y2="263.142" stroke="white" stroke-width="1.42343"/>
<line x1="-83.9766" y1="627.54" x2="1622.71" y2="627.54" stroke="white" stroke-width="1.42343"/>
<line x1="698.196" y1="-224.381" x2="698.196" y2="1093.71" stroke="white" stroke-width="1.42343"/>
<line x1="333.798" y1="-224.381" x2="333.798" y2="1093.71" stroke="white" stroke-width="1.42343"/>
<line x1="1062.59" y1="-224.381" x2="1062.59" y2="1093.71" stroke="white" stroke-width="1.42343"/>
<line x1="1376.99" y1="-224.381" x2="1376.99" y2="1093.71" stroke="white" stroke-width="1.42343"/>
<line x1="151.602" y1="-224.381" x2="151.602" y2="1093.71" stroke="white" stroke-width="1.42343"/>
<line x1="880.391" y1="-224.381" x2="880.391" y2="1093.71" stroke="white" stroke-width="1.42343"/>
<line x1="516.001" y1="-224.381" x2="516.001" y2="1093.71" stroke="white" stroke-width="1.42343"/>
<line x1="1244.79" y1="-224.381" x2="1244.79" y2="1093.71" stroke="white" stroke-width="1.42343"/>
<line x1="61.2586" y1="-224.156" x2="61.2585" y2="1093.94" stroke="white" stroke-width="1.42343"/>
<line x1="789.298" y1="-224.381" x2="789.298" y2="1093.71" stroke="white" stroke-width="1.42343"/>
<line x1="424.899" y1="-224.381" x2="424.899" y2="1093.71" stroke="white" stroke-width="1.42343"/>
<line x1="1153.7" y1="-224.381" x2="1153.7" y2="1093.71" stroke="white" stroke-width="1.42343"/>
<line x1="242.696" y1="-224.381" x2="242.696" y2="1093.71" stroke="white" stroke-width="1.42343"/>
<line x1="971.493" y1="-224.381" x2="971.493" y2="1093.71" stroke="white" stroke-width="1.42343"/>
<line x1="607.095" y1="-224.381" x2="607.094" y2="1093.71" stroke="white" stroke-width="1.42343"/>
</g>
<g opacity="0.5">
<rect x="1245.38" y="81.9141" width="90.5818" height="89.2877" fill="#006837" fill-opacity="0.2"/>
<rect x="515.547" y="354.898" width="90.5818" height="89.2877" fill="#006837" fill-opacity="0.1"/>
<rect x="1153.5" y="172.496" width="90.5818" height="89.2877" fill="#006837" fill-opacity="0.2"/>
<rect x="424.797" y="81.9141" width="90.5818" height="89.2877" fill="#006837" fill-opacity="0.1"/>
<rect x="1153.5" y="81.9141" width="90.5818" height="89.2877" fill="#006837" fill-opacity="0.2"/>
<rect x="424.797" y="354.898" width="90.5818" height="89.2877" fill="#006837" fill-opacity="0.1"/>
<rect x="151.922" y="627.992" width="90.5818" height="90.5818" fill="#006837" fill-opacity="0.15"/>
<rect x="151.922" y="171.203" width="90.5818" height="91.8758" fill="#006837" fill-opacity="0.15"/>
</g>
</g>
</g>
</g>
</g>
</g>
<defs>
<filter id="filter0_f_5307_26238" x="-346" y="287" width="885" height="885" filterUnits="userSpaceOnUse" color-interpolation-filters="sRGB">
<feFlood flood-opacity="0" result="BackgroundImageFix"/>
<feBlend mode="normal" in="SourceGraphic" in2="BackgroundImageFix" result="shape"/>
<feGaussianBlur stdDeviation="177" result="effect1_foregroundBlur_5307_26238"/>
</filter>
<filter id="filter1_f_5307_26238" x="882" y="-318" width="885" height="885" filterUnits="userSpaceOnUse" color-interpolation-filters="sRGB">
<feFlood flood-opacity="0" result="BackgroundImageFix"/>
<feBlend mode="normal" in="SourceGraphic" in2="BackgroundImageFix" result="shape"/>
<feGaussianBlur stdDeviation="177" result="effect1_foregroundBlur_5307_26238"/>
</filter>
<linearGradient id="paint0_linear_5307_26238" x1="166.538" y1="-173.849" x2="679.684" y2="99.4491" gradientUnits="userSpaceOnUse">
<stop stop-color="white"/>
<stop offset="1" stop-color="white" stop-opacity="0"/>
</linearGradient>
<radialGradient id="paint1_radial_5307_26238" cx="0" cy="0" r="1" gradientUnits="userSpaceOnUse" gradientTransform="translate(127.393 910.805) rotate(-29.3932) scale(877.316 1507.85)">
<stop stop-color="white"/>
<stop offset="1" stop-color="white" stop-opacity="0"/>
</radialGradient>
<clipPath id="clip0_5307_26238">
<rect width="1440" height="669" fill="white"/>
</clipPath>
<clipPath id="clip1_5307_26238">
<rect width="1435" height="1051" fill="white" transform="translate(0 -152)"/>
</clipPath>
<clipPath id="clip2_5307_26238">
<rect width="1434.81" height="1127.35" fill="white" transform="translate(0 -151.785)"/>
</clipPath>
</defs>
</svg>
