<svg width="120" height="120" viewBox="0 0 120 120" fill="none" xmlns="http://www.w3.org/2000/svg">
<path opacity="0.2" d="M99.8841 80.8501C96.2483 87.8048 90.8568 93.6878 84.2449 97.9151C77.633 102.142 70.0305 104.567 62.192 104.948L63.6779 97.2422C63.7884 96.6637 63.7612 96.0673 63.5983 95.5014C63.4354 94.9354 63.1415 94.4157 62.7404 93.9844L53.4873 84.4547C52.9885 83.9163 52.6586 83.2434 52.5387 82.5193C52.4187 81.7952 52.5138 81.0518 52.8123 80.3813L59.2341 65.9719C59.5643 65.2315 60.1255 64.6179 60.8337 64.2233C61.5419 63.8286 62.3589 63.6741 63.1623 63.7829L73.8592 65.2266C74.3773 65.2976 74.8751 65.4747 75.3216 65.7469L99.8841 80.8501ZM54.706 44.5313L60.467 41.3626C60.7212 41.2251 60.9573 41.0566 61.1701 40.861L73.7841 29.4563C74.412 28.8853 74.8276 28.1181 74.9629 27.2803C75.0983 26.4425 74.9455 25.5835 74.5295 24.8438L69.6076 16.0266C66.4502 15.3427 63.2288 14.9985 59.9982 15.0001C49.7264 14.9844 39.761 18.4976 31.7701 24.9516L26.2482 38.0063C25.8752 38.8901 25.8551 39.8832 26.192 40.7813L31.5826 55.1579C31.8041 55.7453 32.1695 56.2677 32.6453 56.6772C33.1212 57.0867 33.6922 57.3701 34.306 57.5016L35.567 57.7735L41.8107 46.8751C42.1403 46.3042 42.6146 45.8303 43.1857 45.5011C43.7568 45.1719 44.4046 44.9991 45.0638 45.0001H52.8966C53.5299 45.0011 54.1529 44.8397 54.706 44.5313Z" fill="#B6CFD4"/>
<path d="M60 11.25C50.3582 11.25 40.9329 14.1091 32.916 19.4659C24.8991 24.8226 18.6507 32.4363 14.9609 41.3442C11.2711 50.2521 10.3057 60.0541 12.1867 69.5107C14.0678 78.9672 18.7108 87.6536 25.5286 94.4715C32.3464 101.289 41.0328 105.932 50.4894 107.813C59.9459 109.694 69.7479 108.729 78.6558 105.039C87.5637 101.349 95.1774 95.1009 100.534 87.084C105.891 79.0671 108.75 69.6418 108.75 60C108.736 47.0749 103.596 34.6831 94.4564 25.5436C85.317 16.4042 72.9251 11.2636 60 11.25ZM101.25 60C101.254 65.2921 100.235 70.5351 98.25 75.4406L77.2969 62.5547C76.406 62.0049 75.4094 61.6488 74.3719 61.5094L63.675 60.0656C62.201 59.8734 60.7031 60.1205 59.369 60.7759C58.0348 61.4313 56.9238 62.4659 56.175 63.75H52.0875L50.3063 60.0656C49.8138 59.0397 49.0932 58.1401 48.1994 57.4357C47.3057 56.7312 46.2626 56.2407 45.15 56.0016L41.4 55.1906L45.0656 48.75H52.8985C54.1659 48.7475 55.4123 48.425 56.5219 47.8125L62.2641 44.6437C62.7686 44.3625 63.2402 44.0261 63.6703 43.6406L76.2844 32.2313C77.5491 31.0979 78.3897 29.5673 78.6675 27.8919C78.9453 26.2165 78.6437 24.4965 77.8125 23.0156L77.6438 22.7109C84.7022 26.0578 90.6667 31.3378 94.8451 37.9381C99.0235 44.5384 101.244 52.1883 101.25 60ZM67.1766 19.3781L71.25 26.6719L58.636 38.0812L52.8985 41.25H45.0656C43.7472 41.2481 42.4516 41.5937 41.3094 42.252C40.1671 42.9104 39.2186 43.8582 38.5594 45L34.4672 52.1391L29.7094 39.4641L34.8375 27.3375C39.3766 23.8303 44.5982 21.3098 50.1679 19.9376C55.7375 18.5654 61.5324 18.3716 67.1813 19.3687L67.1766 19.3781ZM18.75 60C18.7438 53.8688 20.1117 47.8142 22.7531 42.2812L28.0688 56.4703C28.5118 57.6451 29.2426 58.6899 30.1942 59.5089C31.1459 60.3279 32.2879 60.8949 33.5156 61.1578L43.561 63.3188L45.3469 67.0312C45.9667 68.2939 46.9272 69.3581 48.12 70.1036C49.3128 70.8491 50.6903 71.2462 52.0969 71.25H52.7906L49.4016 78.8578C48.8044 80.1974 48.6132 81.6827 48.8515 83.1299C49.0897 84.577 49.7471 85.9226 50.7422 87L50.8078 87.0656L60 96.5344L59.0906 101.222C48.318 100.971 38.0698 96.5202 30.5331 88.8189C22.9964 81.1175 18.7679 70.7756 18.75 60ZM66.8344 100.678L67.3641 97.9547C67.5818 96.7977 67.5256 95.6057 67.2 94.4743C66.8744 93.3429 66.2885 92.3034 65.4891 91.4391C65.4661 91.4184 65.4441 91.3965 65.4235 91.3734L56.25 81.9094L62.6719 67.5L73.3688 68.9438L94.8 82.125C91.6951 87.0011 87.6019 91.1717 82.7849 94.3675C77.9678 97.5633 72.534 99.7131 66.8344 100.678Z" fill="#B6CFD4"/>
</svg>
