<svg width="87" height="80" viewBox="0 0 87 80" fill="none" xmlns="http://www.w3.org/2000/svg">
<path d="M53.3333 36.6667C53.3333 37.5507 52.9821 38.3986 52.357 39.0237C51.7319 39.6488 50.8841 40 50 40H36.6667C35.7826 40 34.9348 39.6488 34.3096 39.0237C33.6845 38.3986 33.3333 37.5507 33.3333 36.6667C33.3333 35.7826 33.6845 34.9348 34.3096 34.3096C34.9348 33.6845 35.7826 33.3333 36.6667 33.3333H50C50.8841 33.3333 51.7319 33.6845 52.357 34.3096C52.9821 34.9348 53.3333 35.7826 53.3333 36.6667ZM86.6667 20V73.3333C86.6667 75.1014 85.9643 76.7971 84.714 78.0474C83.4638 79.2976 81.7681 80 80 80H6.66667C4.89856 80 3.20286 79.2976 1.95262 78.0474C0.702379 76.7971 0 75.1014 0 73.3333V20C0 18.2319 0.702379 16.5362 1.95262 15.286C3.20286 14.0357 4.89856 13.3333 6.66667 13.3333H23.3333V10C23.3333 7.34784 24.3869 4.8043 26.2623 2.92893C28.1376 1.05357 30.6812 0 33.3333 0H53.3333C55.9855 0 58.529 1.05357 60.4044 2.92893C62.2798 4.8043 63.3333 7.34784 63.3333 10V13.3333H80C81.7681 13.3333 83.4638 14.0357 84.714 15.286C85.9643 16.5362 86.6667 18.2319 86.6667 20ZM30 13.3333H56.6667V10C56.6667 9.11595 56.3155 8.2681 55.6904 7.64298C55.0652 7.01786 54.2174 6.66667 53.3333 6.66667H33.3333C32.4493 6.66667 31.6014 7.01786 30.9763 7.64298C30.3512 8.2681 30 9.11595 30 10V13.3333ZM80 37.3375V20H6.66667V37.3375C17.9176 43.4616 30.5237 46.669 43.3333 46.6667C56.143 46.669 68.7491 43.4616 80 37.3375Z" fill="#B6CFD4"/>
</svg>
