<svg width="66" height="80" viewBox="0 0 66 80" fill="none" xmlns="http://www.w3.org/2000/svg">
<path d="M62.2222 5.92593H53.3333V2.96296C53.3333 2.17714 53.0212 1.42349 52.4655 0.867832C51.9098 0.312168 51.1562 0 50.3704 0C49.5845 0 48.8309 0.312168 48.2752 0.867832C47.7196 1.42349 47.4074 2.17714 47.4074 2.96296V5.92593H35.5556V2.96296C35.5556 2.17714 35.2434 1.42349 34.6877 0.867832C34.1321 0.312168 33.3784 0 32.5926 0C31.8068 0 31.0531 0.312168 30.4975 0.867832C29.9418 1.42349 29.6296 2.17714 29.6296 2.96296V5.92593H17.7778V2.96296C17.7778 2.17714 17.4656 1.42349 16.9099 0.867832C16.3543 0.312168 15.6006 0 14.8148 0C14.029 0 13.2753 0.312168 12.7197 0.867832C12.164 1.42349 11.8519 2.17714 11.8519 2.96296V5.92593H2.96296C2.17714 5.92593 1.4235 6.23809 0.867832 6.79376C0.312169 7.34942 0 8.10306 0 8.88889V68.1481C0 71.2915 1.24867 74.306 3.47133 76.5287C5.69398 78.7513 8.70854 80 11.8519 80H53.3333C56.4766 80 59.4912 78.7513 61.7139 76.5287C63.9365 74.306 65.1852 71.2915 65.1852 68.1481V8.88889C65.1852 8.10306 64.873 7.34942 64.3174 6.79376C63.7617 6.23809 63.008 5.92593 62.2222 5.92593ZM29.6296 14.8148C29.6296 14.029 29.9418 13.2753 30.4975 12.7197C31.0531 12.164 31.8068 11.8519 32.5926 11.8519C33.3784 11.8519 34.1321 12.164 34.6877 12.7197C35.2434 13.2753 35.5556 14.029 35.5556 14.8148V17.7778C35.5556 18.5636 35.2434 19.3172 34.6877 19.8729C34.1321 20.4286 33.3784 20.7407 32.5926 20.7407C31.8068 20.7407 31.0531 20.4286 30.4975 19.8729C29.9418 19.3172 29.6296 18.5636 29.6296 17.7778V14.8148ZM14.8148 20.7407C14.029 20.7407 13.2753 20.4286 12.7197 19.8729C12.164 19.3172 11.8519 18.5636 11.8519 17.7778V14.8148C11.8519 14.029 12.164 13.2753 12.7197 12.7197C13.2753 12.164 14.029 11.8519 14.8148 11.8519C15.6006 11.8519 16.3543 12.164 16.9099 12.7197C17.4656 13.2753 17.7778 14.029 17.7778 14.8148V17.7778C17.7778 18.5636 17.4656 19.3172 16.9099 19.8729C16.3543 20.4286 15.6006 20.7407 14.8148 20.7407ZM44.4444 56.2963H20.7407C19.9549 56.2963 19.2013 55.9841 18.6456 55.4285C18.0899 54.8728 17.7778 54.1192 17.7778 53.3333C17.7778 52.5475 18.0899 51.7939 18.6456 51.2382C19.2013 50.6825 19.9549 50.3704 20.7407 50.3704H44.4444C45.2303 50.3704 45.9839 50.6825 46.5396 51.2382C47.0952 51.7939 47.4074 52.5475 47.4074 53.3333C47.4074 54.1192 47.0952 54.8728 46.5396 55.4285C45.9839 55.9841 45.2303 56.2963 44.4444 56.2963ZM44.4444 44.4444H20.7407C19.9549 44.4444 19.2013 44.1323 18.6456 43.5766C18.0899 43.021 17.7778 42.2673 17.7778 41.4815C17.7778 40.6957 18.0899 39.942 18.6456 39.3864C19.2013 38.8307 19.9549 38.5185 20.7407 38.5185H44.4444C45.2303 38.5185 45.9839 38.8307 46.5396 39.3864C47.0952 39.942 47.4074 40.6957 47.4074 41.4815C47.4074 42.2673 47.0952 43.021 46.5396 43.5766C45.9839 44.1323 45.2303 44.4444 44.4444 44.4444ZM53.3333 17.7778C53.3333 18.5636 53.0212 19.3172 52.4655 19.8729C51.9098 20.4286 51.1562 20.7407 50.3704 20.7407C49.5845 20.7407 48.8309 20.4286 48.2752 19.8729C47.7196 19.3172 47.4074 18.5636 47.4074 17.7778V14.8148C47.4074 14.029 47.7196 13.2753 48.2752 12.7197C48.8309 12.164 49.5845 11.8519 50.3704 11.8519C51.1562 11.8519 51.9098 12.164 52.4655 12.7197C53.0212 13.2753 53.3333 14.029 53.3333 14.8148V17.7778Z" fill="#B6CFD4"/>
</svg>
