<svg width="115" height="80" viewBox="0 0 115 80" fill="none" xmlns="http://www.w3.org/2000/svg">
<path d="M110.476 72.381H106.667V7.61905C106.667 5.59835 105.864 3.66042 104.435 2.23157C103.006 0.802718 101.068 0 99.0476 0H15.2381C13.2174 0 11.2795 0.802718 9.85061 2.23157C8.42177 3.66042 7.61905 5.59835 7.61905 7.61905V72.381H3.80952C2.79918 72.381 1.83021 72.7823 1.11578 73.4967C0.401359 74.2112 0 75.1801 0 76.1905C0 77.2008 0.401359 78.1698 1.11578 78.8842C1.83021 79.5986 2.79918 80 3.80952 80H110.476C111.487 80 112.456 79.5986 113.17 78.8842C113.884 78.1698 114.286 77.2008 114.286 76.1905C114.286 75.1801 113.884 74.2112 113.17 73.4967C112.456 72.7823 111.487 72.381 110.476 72.381ZM99.0476 72.381H64.7619V64.7619C64.7619 63.7516 65.1633 62.7826 65.8777 62.0682C66.5921 61.3537 67.5611 60.9524 68.5714 60.9524H95.2381C96.2484 60.9524 97.2174 61.3537 97.9318 62.0682C98.6463 62.7826 99.0476 63.7516 99.0476 64.7619V72.381ZM99.0476 49.5238C99.0476 50.5342 98.6463 51.5031 97.9318 52.2175C97.2174 52.932 96.2484 53.3333 95.2381 53.3333C94.2277 53.3333 93.2588 52.932 92.5443 52.2175C91.8299 51.5031 91.4286 50.5342 91.4286 49.5238V15.2381H22.8571V68.5714C22.8571 69.5818 22.4558 70.5507 21.7414 71.2652C21.0269 71.9796 20.058 72.381 19.0476 72.381C18.0373 72.381 17.0683 71.9796 16.3539 71.2652C15.6395 70.5507 15.2381 69.5818 15.2381 68.5714V11.4286C15.2381 10.4182 15.6395 9.44926 16.3539 8.73483C17.0683 8.02041 18.0373 7.61905 19.0476 7.61905H95.2381C96.2484 7.61905 97.2174 8.02041 97.9318 8.73483C98.6463 9.44926 99.0476 10.4182 99.0476 11.4286V49.5238Z" fill="#B6CFD4"/>
</svg>
