<svg width="929" height="610" viewBox="0 0 929 610" fill="none" xmlns="http://www.w3.org/2000/svg">
<g clip-path="url(#clip0_7809_108687)">
<path d="M344.741 529.961C325.091 550.531 307.4 555.801 297.9 557.461C290.07 558.841 280.5 559.051 266.66 559.361C253.66 559.651 243.48 559.261 238.35 559.021C221.79 558.241 208.35 556.561 204.46 556.021C194.69 554.761 189.46 553.721 178.55 552.901C167.85 552.101 162.19 552.291 156.03 554.551C151.85 556.081 151.58 557.051 146.31 558.781C141.91 560.221 135.94 562.111 128.63 561.001C125.69 560.551 121.87 560.001 118.12 557.001C115.323 554.782 113.203 551.823 112 548.461C110.631 548.923 109.179 549.09 107.74 548.951C102.9 548.471 100.13 544.651 99.3305 543.551C97.9431 541.818 97.1009 539.713 96.9105 537.501C96.7954 535.857 97.0802 534.21 97.7405 532.701C95.56 531.741 93.8137 530.006 92.8405 527.831C92.2497 526.286 92.0772 524.613 92.3405 522.981C92.8605 519.071 95.1605 515.981 98.8905 512.271C103.4 507.851 107.58 503.751 114.7 500.771C121.2 498.061 126.26 497.901 135.94 497.611C149.54 497.201 153.94 499.251 169.2 498.211C170.1 498.141 172.85 497.951 177.38 497.411C200.82 494.651 226.74 488.201 238.63 485.641C255.406 482.066 272.482 480.081 289.63 479.711" fill="#76261A"/>
<path d="M593.451 402.341C595.321 382.421 606.141 364.461 623.021 354.621C646.801 340.761 671.761 349.301 679.471 352.571C700.211 369.281 718.951 377.361 732.321 381.681C780.531 397.301 820.151 395.981 820.151 395.981C824.811 395.831 832.611 395.371 842.151 398.541C845.451 399.641 857.151 403.891 874.831 423.541C886.631 436.641 886.361 440.191 895.761 451.111C905.156 461.918 916.244 471.127 928.591 478.381C925.421 487.891 917.961 504.581 901.381 513.921C894.231 517.921 887.631 519.391 878.381 521.311C859.911 525.141 845.521 524.541 834.461 524.131C780.691 522.131 789.751 524.411 771.141 522.601C739.741 519.551 721.991 517.891 700.671 508.811C678.411 499.331 664.931 487.411 638.881 464.391C623.084 450.413 608.143 435.496 594.141 419.721C593.153 413.983 592.921 408.139 593.451 402.341Z" fill="url(#paint0_linear_7809_108687)"/>
<path d="M895.7 451.129C886.3 440.209 886.57 436.659 874.77 423.559C857.05 403.889 845.39 399.639 842.09 398.559C832.59 395.389 824.79 395.849 820.09 395.999H819.53C814.42 404.999 812.13 415.909 815.53 423.569C819.31 432.179 828.22 432.079 830.85 441.439C834 452.649 822.63 457.879 823.7 471.059C824.9 485.719 839.64 487.439 841.06 500.669C842.15 510.779 834.39 517.669 828.44 523.949L834.44 524.159C845.5 524.569 859.89 525.159 878.36 521.339C887.58 519.419 894.18 517.979 901.36 513.949C917.94 504.609 925.36 487.949 928.57 478.409C916.211 471.153 905.11 461.94 895.7 451.129Z" fill="#FDF7EF"/>
<path d="M302.85 429.68C303.85 405.06 316.74 387.47 325.32 376.07C346.85 347.47 375.2 335.68 431.02 313.26C495.08 287.53 529.78 283.58 539.28 282.62C583.73 278.13 604.81 285.71 611.28 288.24C639.78 299.38 656.83 318.9 663.87 328.07C681.87 351.48 686.43 374.69 688.38 385.26C690.48 396.6 698.19 442.26 671.02 484.32C665.44 492.96 650.6 515.32 623.02 526.71C615.644 529.716 607.915 531.772 600.02 532.83C530.67 543.28 473.92 538.45 473.92 538.45C405.79 532.6 371.73 529.68 349.32 512.92C341.43 507.01 301.01 475.28 302.85 429.68Z" fill="url(#paint1_linear_7809_108687)"/>
<path d="M688.38 385.278C685.609 368.486 679.598 352.394 670.68 337.898C676.75 350.077 681.426 362.901 684.62 376.128C685.93 381.558 690.31 400.798 689.62 419.748C688.22 460.368 663.95 491.748 653.37 503.998C642.61 477.818 636.66 472.998 633.19 473.618C627.79 474.548 629.62 488.298 620.94 500.678C610.32 515.838 589.57 520.258 570.94 521.108C548.33 520.618 523.71 521.048 497.41 522.898C469.96 524.826 442.627 528.164 415.52 532.898C431.65 534.898 450.819 536.508 473.919 538.488C473.919 538.488 530.669 543.358 600.039 532.868C607.934 531.811 615.663 529.755 623.039 526.748C630.434 523.664 637.396 519.63 643.75 514.748C644.06 514.518 644.34 514.278 644.64 514.048L645.82 513.118C646.44 512.618 647.04 512.118 647.64 511.618L648.64 510.788C649.38 510.148 650.089 509.518 650.789 508.878C650.919 508.748 651.07 508.628 651.21 508.498C658.818 501.303 665.476 493.163 671.02 484.278C698.19 442.278 690.48 396.598 688.38 385.278Z" fill="#76261A"/>
<path d="M697.58 497.851C705.17 508.461 710.82 517.451 714.68 523.851C719.36 531.661 722.68 537.851 729.75 545.041C735.1 550.481 739.88 553.741 745.58 555.511C749.341 556.853 753.386 557.197 757.32 556.511C761.659 555.827 765.628 553.661 768.55 550.381C770.704 547.858 772.129 544.794 772.67 541.521L772.98 541.441C774.28 541.141 778.72 539.931 780.81 536.001C782.9 532.071 781.36 527.661 780.13 524.421C778.014 519.028 774.629 514.226 770.26 510.421C766.97 507.421 756.49 489.501 735.53 453.561C733.826 450.381 731.22 447.775 728.04 446.071C725.389 444.804 722.464 444.22 719.53 444.371C710.36 444.521 703.68 450.431 701.53 452.541" fill="#76261A"/>
<path d="M590.189 473.392C591.299 478.952 597.629 507.942 624.919 524.792C629.849 527.792 657.509 544.922 685.169 532.282C703.509 523.902 711.169 507.282 713.089 503.002C720.319 486.712 723.089 462.002 711.089 448.192C707.509 444.102 704.499 443.132 701.279 439.932C700.049 438.551 698.894 437.106 697.819 435.602C691.389 426.602 684.669 405.072 684.229 403.602" fill="#76261A"/>
<path d="M591.189 471.392C592.299 476.952 598.629 505.942 625.919 522.792C630.849 525.792 658.509 542.922 686.169 530.282C704.509 521.902 712.169 505.282 714.089 501.002C721.319 484.712 724.089 460.002 712.089 446.192C708.509 442.102 705.499 441.132 702.279 437.932C701.05 436.551 699.895 435.105 698.819 433.602C692.589 424.862 685.119 405.922 684.229 403.602" fill="url(#paint2_linear_7809_108687)"/>
<path d="M282.211 245.281C289.121 216.041 296.051 189.451 302.611 165.781C306.881 150.381 313.511 127.111 329.761 101.331C342.531 81.0707 350.441 76.4008 357.511 75.4908C370.511 73.8108 382.061 84.5908 390.871 94.0608C441.221 148.151 458.871 220.851 458.871 220.851C466.624 252.941 470.058 285.922 469.081 318.921" fill="url(#paint3_linear_7809_108687)"/>
<path d="M411.471 265.47C421.44 252.875 428.161 238.022 431.041 222.22C438.881 177.22 410.301 142.28 403.401 133.84C391.379 119.254 376.31 107.478 359.251 99.3398C345.548 119.608 337.233 143.032 335.088 167.403C332.943 191.774 337.039 216.29 346.991 238.64" fill="#785925"/>
<path d="M381.951 153.391C377.193 156.863 372.959 161.002 369.381 165.681C366.949 168.861 364.839 172.274 363.081 175.871C360.842 160.681 363.84 145.181 371.581 131.921C367.572 134.392 363.849 137.3 360.481 140.591C358.891 142.151 357.481 143.711 356.201 145.231C356.721 136.575 358.469 128.036 361.391 119.871C356.067 123.737 351.172 128.162 346.791 133.071C344.19 136.003 341.775 139.096 339.561 142.331C330.87 174.332 333.495 208.352 346.991 238.641L374.181 249.951C373.457 239.62 374.755 229.246 378.001 219.411C378.661 217.411 379.411 215.411 380.281 213.411C383.857 205.087 388.851 197.447 395.041 190.831C391.384 189.189 387.382 188.465 383.381 188.721C381.255 188.86 379.158 189.295 377.151 190.011C375.845 177.597 377.49 165.049 381.951 153.391Z" fill="#F5E3C4"/>
<path d="M233.11 262.279C204.47 253.199 178.11 245.499 154.41 238.979C139 234.739 115.62 228.489 85.1602 229.209C61.1602 229.769 53.1602 234.159 48.7402 239.759C40.6402 250.039 43.9502 265.499 47.5502 277.919C68.1402 348.919 121.45 401.379 121.45 401.379C145.012 424.506 171.556 444.381 200.38 460.479" fill="url(#paint4_linear_7809_108687)"/>
<path d="M184.121 383.63C168.196 385.721 152.001 383.867 136.961 378.23C94.3208 361.87 78.9608 319.4 75.2908 309.15C68.9264 291.35 66.5371 272.372 68.2908 253.55C92.7217 252.194 117.096 257.082 139.114 267.755C161.132 278.427 180.07 294.532 194.141 314.55" fill="#785925"/>
<path d="M103.081 300.769C108.502 298.465 114.228 296.956 120.081 296.289C124.065 295.83 128.085 295.773 132.081 296.119C120.199 286.39 105.356 281.004 90.0006 280.849C94.181 278.673 98.5918 276.973 103.151 275.779C105.187 275.239 107.25 274.805 109.331 274.479C105.021 272.25 100.544 270.361 95.9406 268.829C92.321 267.631 88.6306 266.659 84.8906 265.919C90.9394 263.332 97.2491 261.404 103.711 260.169C107.545 259.435 111.423 258.951 115.321 258.719C122.094 260.615 128.719 263.008 135.141 265.879C158.798 276.532 179.171 293.327 194.141 314.519L189.891 343.659C181.408 337.75 171.857 333.545 161.771 331.279C159.771 330.832 157.664 330.455 155.451 330.149C146.456 328.945 137.321 329.311 128.451 331.229C128.917 327.248 130.348 323.441 132.621 320.139C133.836 318.388 135.286 316.814 136.931 315.459C126.951 307.959 115.338 302.929 103.041 300.779L103.081 300.769Z" fill="#F5E3C4"/>
<path d="M395.08 529.078C374.65 540.798 338.08 557.408 291.87 555.808C267.45 554.968 230.73 554.258 210.58 527.748C201.81 516.198 199.05 503.578 198.08 495.228C201.71 485.858 208.54 472.938 221.63 466.648C236.03 459.728 247.4 466.098 267.63 463.298C277.7 461.898 292.05 458.068 308.75 446.678C309.659 440.739 311.555 434.992 314.36 429.678C319.084 420.833 326.121 413.437 334.72 408.278C344.022 404.494 354.176 403.305 364.1 404.838C370.045 405.79 375.79 407.723 381.1 410.558C400.24 404.048 411.92 394.878 419.1 387.668C433.47 373.188 435.2 360.268 449.38 352.918C462.28 346.218 476.71 348.528 486.38 351.248C492.47 357.048 500.9 366.828 504.87 380.778C513.97 412.778 492.48 442.588 478.49 462.628C451.97 500.518 416.73 519.778 395.08 529.078Z" fill="#775625"/>
<path d="M249.22 241.499C287.86 225.439 319.58 225.849 336.04 227.319C349.79 228.549 407.51 233.699 446.9 273.659C456.76 283.659 465.21 295.569 483.16 301.979C501.11 308.389 518.66 305.729 530.85 302.389C529.896 307.115 528.575 311.759 526.9 316.279C525.022 321.327 522.703 326.199 519.97 330.839C522.697 330.16 525.371 329.281 527.97 328.209C531.135 326.907 534.175 325.317 537.049 323.459C535.064 344.999 526.861 365.497 513.44 382.459C517.732 380.758 521.77 378.473 525.44 375.669C527.953 373.757 530.277 371.607 532.38 369.249C530.58 373.429 527.93 379.249 524.38 386.029C510.738 411.638 492.901 434.778 471.609 454.489C438.539 485.159 410.88 508.489 388.07 519.489C367.74 530.079 330.3 539.239 285.91 547.259C257.359 552.428 228.144 552.773 199.48 548.279C191.93 547.049 185.68 545.669 181.26 544.599C189.057 543.932 196.59 541.453 203.26 537.359C181.639 537.903 160.327 532.157 141.91 520.819C145.123 519.632 148.222 518.156 151.17 516.409C153.58 514.979 155.883 513.375 158.06 511.609C152.708 511.016 147.42 509.946 142.26 508.409C137.635 507.057 133.124 505.342 128.77 503.279C138.77 495.539 151.41 483.099 157.08 464.899C162.75 446.699 158.29 432.799 156.21 418.899C147.92 363.409 178.47 314.159 185.74 302.429C194.45 288.359 213.17 262.749 249.22 241.499Z" fill="#76261A"/>
<path d="M527.849 296.391L530.849 302.391L520.77 307.771L527.849 296.391Z" fill="#76261A"/>
<path d="M534.029 317.41L537.029 323.41L531.359 336.24L529.449 324.36L534.029 317.41Z" fill="#76261A"/>
<path d="M529.389 363.188L532.389 369.188L525.239 380.788L515.789 376.827L523.579 371.987L529.389 363.188Z" fill="#76261A"/>
<path d="M125.779 497.25L128.779 503.25L138.259 500.25L125.779 497.25Z" fill="#76261A"/>
<path d="M138.879 514.809L141.879 520.809H150.849L151.129 516.409L138.879 514.809Z" fill="#76261A"/>
<path d="M178.26 538.599L181.26 544.599H196.3L198.85 537.379L178.26 538.599Z" fill="#76261A"/>
<path d="M246.22 235.499C284.86 219.439 316.58 219.849 333.04 221.319C346.79 222.549 404.51 227.699 443.9 267.659C453.76 277.659 462.21 289.569 480.16 295.979C498.11 302.389 515.66 299.729 527.85 296.389C526.896 301.115 525.575 305.759 523.9 310.279C522.022 315.327 519.703 320.199 516.97 324.839C519.697 324.16 522.371 323.281 524.97 322.209C528.135 320.907 531.175 319.317 534.049 317.459C532.064 338.999 523.861 359.497 510.44 376.459C514.732 374.758 518.77 372.473 522.44 369.669C524.953 367.757 527.277 365.607 529.38 363.249C527.58 367.429 524.93 373.249 521.38 380.029C507.738 405.638 489.901 428.778 468.609 448.489C435.539 479.159 407.88 502.489 385.07 513.489C364.74 524.079 327.3 533.239 282.91 541.259C254.359 546.428 225.144 546.773 196.48 542.279C188.93 541.049 182.68 539.669 178.26 538.599C186.057 537.932 193.59 535.453 200.26 531.359C178.639 531.903 157.327 526.157 138.91 514.819C142.123 513.632 145.222 512.156 148.17 510.409C150.58 508.979 152.883 507.375 155.06 505.609C149.708 505.016 144.42 503.946 139.26 502.409C134.635 501.057 130.124 499.342 125.77 497.279C135.77 489.539 148.41 477.099 154.08 458.899C159.75 440.699 155.29 426.799 153.21 412.899C144.92 357.409 175.47 308.159 182.74 296.429C191.45 282.359 210.17 256.749 246.22 235.499Z" fill="url(#paint5_linear_7809_108687)"/>
<path d="M392.48 524.9C392.21 525.02 391.96 525.15 391.7 525.29C371.2 537 334.81 553.4 288.87 551.81C264.45 550.97 227.73 550.26 207.58 523.75C199.58 513.2 196.58 501.75 195.37 493.48C195.152 492 195.346 490.488 195.93 489.11C199.75 479.99 206.5 468.48 218.63 462.65C233.03 455.73 244.4 462.1 264.63 459.3C274.09 457.99 287.32 454.53 302.73 444.67C303.64 444.09 304.427 443.335 305.044 442.449C305.662 441.564 306.099 440.565 306.33 439.51C307.36 434.694 309.042 430.042 311.33 425.68C315.921 417.062 322.715 409.816 331.02 404.68C331.479 404.392 331.965 404.147 332.47 403.95C341.566 400.397 351.44 399.313 361.09 400.81C365.928 401.585 370.638 403.015 375.09 405.06C377.098 405.989 379.393 406.082 381.47 405.32C398.6 398.92 409.32 390.41 416.05 383.64C430.42 369.16 432.15 356.24 446.33 348.89C458.33 342.68 471.57 344.21 481.16 346.64C482.598 346.999 483.909 347.746 484.95 348.8C490.84 354.73 498.2 364 501.83 376.8C510.93 408.8 489.44 438.61 475.45 458.65C449.13 496.28 414.16 515.54 392.48 524.9Z" fill="#FDF7EF"/>
<path d="M394.02 308.129L357.77 393.399" stroke="black" stroke-width="11" stroke-linecap="round" stroke-linejoin="round"/>
<path d="M333.26 332.129L418.53 370.429" stroke="black" stroke-width="11" stroke-linecap="round" stroke-linejoin="round"/>
<path d="M265.849 369.172L230.619 453.942" stroke="black" stroke-width="11" stroke-linecap="round" stroke-linejoin="round"/>
<path d="M209.17 395.211L290.36 430.961" stroke="black" stroke-width="11" stroke-linecap="round" stroke-linejoin="round"/>
<path d="M317.321 426.401C317.163 429.269 317.859 432.119 319.321 434.591C323.321 441.211 331.951 441.741 333.931 441.871C339.371 442.211 343.411 440.391 346.931 438.791C350.451 437.191 355.581 434.901 359.441 429.431C361.231 426.891 364.731 421.931 363.531 415.741C362.441 410.061 358.051 406.811 356.701 405.901C348.701 400.531 338.701 404.281 335.411 405.521C330.31 407.465 325.821 410.739 322.411 415.001C320.321 417.641 317.491 421.181 317.321 426.401Z" fill="url(#paint6_radial_7809_108687)"/>
<path d="M17.3204 131.478C11.6531 133.55 6.9989 137.721 4.32045 143.128C1.6517 148.564 0.786785 154.71 1.85147 160.672C2.91617 166.634 5.85494 172.101 10.2404 176.278C2.04044 190.758 7.67044 209.748 20.0604 216.448C32.4504 223.148 49.6204 216.218 54.5004 199.538C64.685 200.829 74.5798 203.824 83.7704 208.398C91.1636 212.051 98.0679 216.621 104.32 221.998C107.812 218.218 110.548 213.806 112.38 208.998C113.52 206.003 114.321 202.89 114.77 199.718C110.012 197.063 105.438 194.09 101.08 190.818C94.9857 186.467 89.4565 181.375 84.6205 175.658C82.6042 173.24 80.7278 170.709 79.0005 168.078C89.5704 160.768 92.5804 145.728 86.6304 134.948C84.2122 130.499 80.357 127.002 75.6946 125.028C71.0321 123.054 65.8379 122.719 60.9604 124.078C57.7904 117.518 51.3204 113.708 44.9604 114.618C37.6304 115.668 31.9604 122.868 32.1604 131.518C27.3654 129.799 22.1247 129.785 17.3204 131.478Z" fill="white"/>
<path d="M4.32075 143.127C6.87369 137.992 11.2112 133.964 16.5207 131.797C11.2577 137.152 8.20494 144.293 7.97075 151.797C7.56075 164.597 15.3807 173.387 18.1007 176.047C13.1607 185.767 17.4207 198.047 25.8807 201.967C33.6507 205.597 43.3908 201.487 46.9408 192.237C49.3239 192.167 51.6429 191.448 53.6481 190.159C55.6533 188.869 57.2688 187.057 58.3208 184.917C60.9808 179.727 59.7307 174.417 58.8107 171.827C60.3872 171.753 61.9263 171.322 63.312 170.567C64.6977 169.812 65.894 168.752 66.8108 167.467C67.8729 165.88 68.5607 164.072 68.8223 162.181C69.0838 160.289 68.9124 158.363 68.3208 156.547C71.4312 155.092 74.0577 152.773 75.8874 149.867C77.7171 146.962 78.6729 143.591 78.6408 140.157C78.5408 136.549 77.422 133.042 75.4135 130.043C73.4051 127.044 70.5891 124.674 67.2908 123.207C71.2618 123.281 75.1428 124.403 78.5408 126.459C81.9388 128.516 84.7331 131.433 86.6408 134.917C92.6408 145.697 89.5808 160.737 79.0108 168.047C80.7381 170.679 82.6145 173.21 84.6308 175.627C89.4668 181.344 94.996 186.437 101.091 190.787C105.448 194.059 110.022 197.032 114.781 199.687C114.332 202.86 113.53 205.972 112.391 208.967C110.558 213.775 107.822 218.188 104.331 221.967C98.0866 216.577 91.1891 211.995 83.8008 208.327C74.6101 203.753 64.7153 200.758 54.5308 199.467C49.6507 216.147 32.5307 223.147 20.0907 216.377C7.65075 209.607 2.09075 190.687 10.2708 176.207C5.89559 172.039 2.96065 166.587 1.89093 160.639C0.821202 154.692 1.67222 148.558 4.32075 143.127Z" fill="#EFEDF6"/>
<path d="M9.10062 177.438C-1.67938 167.158 -3.02938 149.278 5.87062 138.278C8.87047 134.555 12.94 131.842 17.5302 130.504C22.1205 129.167 27.0105 129.269 31.5406 130.798C31.5406 122.998 36.8906 115.678 43.6206 114.148C50.5506 112.568 57.8506 116.758 60.9206 124.038H61.0306C73.0306 120.038 85.8206 127.368 89.6206 139.308C92.9106 149.648 88.8906 161.698 79.6206 167.598C84.264 173.724 89.4554 179.414 95.1306 184.598C101.047 189.998 107.489 194.792 114.361 198.908C114.394 199.169 114.377 199.434 114.311 199.688C114.224 200.077 114.013 200.428 113.711 200.688C105.932 196.438 98.7408 191.19 92.3206 185.078C85.4295 178.583 79.4093 171.221 74.4106 163.178C74.5785 162.84 74.8525 162.566 75.1906 162.398C75.337 162.333 75.4919 162.289 75.6506 162.268H75.9006C76.9006 163.708 77.9606 165.218 79.1306 166.768C82.8419 163.873 85.6349 159.964 87.1718 155.515C88.7087 151.066 88.9236 146.267 87.7906 141.698C84.6906 130.068 72.2506 122.098 59.7906 125.698C59.6856 125.668 59.5887 125.615 59.5072 125.542C59.4258 125.47 59.362 125.379 59.3206 125.278C59.288 125.08 59.3333 124.876 59.4469 124.711C59.5606 124.545 59.7339 124.429 59.9306 124.388L60.2106 124.288C57.2106 118.288 51.0806 114.838 45.0106 115.818C38.3806 116.888 32.9306 123.718 32.6006 131.158C35.9237 132.434 38.952 134.373 41.5006 136.858L41.7506 137.108C41.7848 137.303 41.7848 137.503 41.7506 137.698C41.6707 138.058 41.4605 138.375 41.1606 138.588C31.4106 128.478 15.9806 129.208 7.77063 139.838C-0.439374 150.468 1.40063 167.588 12.3206 176.448L12.6006 176.668V176.908C12.6752 177.384 12.5758 177.87 12.3206 178.278C12.1642 178.513 11.943 178.698 11.6839 178.809C11.4248 178.921 11.1388 178.955 10.8606 178.908L10.7406 178.798C4.84062 192.278 9.49063 207.908 19.1906 214.278C30.3506 221.548 47.5706 216.138 53.6006 200.008L52.6806 199.848C52.3206 199.708 52.0406 199.518 52.0506 199.368C52.0606 199.218 52.4406 199.048 52.9906 199.048L53.9306 199.108V199.018C54.05 198.964 54.1796 198.936 54.3106 198.936C54.4417 198.936 54.5713 198.964 54.6906 199.018C54.8063 199.072 54.9113 199.147 55.0006 199.238C63.7894 199.989 72.3929 202.192 80.4606 205.758C88.875 209.505 96.6389 214.569 103.461 220.758L104.091 221.328C104.132 221.438 104.143 221.557 104.124 221.673C104.105 221.789 104.055 221.897 103.981 221.988C103.751 222.248 103.501 222.148 103.081 221.848C96.1785 216.638 88.7317 212.192 80.8706 208.588C72.6573 204.799 64.0188 202.009 55.1406 200.278C55.0206 200.638 54.9106 200.998 54.7806 201.338C48.3206 218.548 30.0206 224.508 18.1006 217.038C7.23062 210.218 1.97062 192.388 9.10062 177.438Z" fill="#ABABAB"/>
<path d="M94.8406 201.438C92.9806 200.368 91.0006 199.128 88.9406 197.728C88.9406 197.728 85.2806 195.228 81.7106 192.278C76.8324 188.109 72.2668 183.586 68.0506 178.748C67.9014 178.546 67.8261 178.299 67.837 178.048C67.8479 177.797 67.9445 177.557 68.1106 177.368C68.2351 177.254 68.3907 177.178 68.5579 177.151C68.7252 177.125 68.8965 177.148 69.0506 177.218C73.8006 180.888 78.7406 184.938 83.7906 189.398C88.2206 193.308 92.3506 197.178 96.1806 200.968C96.1394 201.186 96.043 201.389 95.9006 201.558C95.7935 201.673 95.6642 201.765 95.5206 201.828L94.8406 201.438Z" fill="#ABABAB"/>
<path d="M579.14 19.8687C586.159 21.036 592.74 24.0547 598.204 28.6135C603.668 33.1723 607.817 39.1062 610.223 45.8031C612.629 52.5 613.204 59.7174 611.891 66.7111C610.577 73.7047 607.422 80.2213 602.75 85.5887C620.16 105.429 615.87 135.409 597.15 148.489C578.26 161.699 548.15 155.279 535.67 131.309C506.354 139.099 479.846 155.038 459.22 177.279C452.532 172.531 446.83 166.53 442.43 159.609C439.765 155.406 437.61 150.901 436.01 146.189C443.146 141.062 449.931 135.462 456.32 129.429C463.11 123.019 471.46 115.039 479.55 102.619C482.232 98.5074 484.666 94.2398 486.84 89.8387C467.41 81.3787 458.44 59.4388 465.43 41.7687C471.31 26.8887 487.62 17.2687 505.04 19.1887C508.53 8.53875 518.24 1.24874 528.91 1.08874C541.32 0.89874 552.54 10.3887 554.58 23.4687C562.183 19.7126 570.778 18.4527 579.14 19.8687Z" fill="white"/>
<path d="M603.79 34.2792C597.943 27.0034 589.736 22.0014 580.59 20.1392C590.502 26.616 597.484 36.7173 600.04 48.2792C604.11 67.4592 593.5 82.5892 589.71 87.2792C600.46 100.739 596.71 120.219 583.71 128.209C571.81 135.549 554.6 131.709 546.27 118.629C542.382 119.123 538.432 118.616 534.795 117.154C531.158 115.693 527.955 113.326 525.49 110.279C519.71 103.089 520.38 94.7992 521.22 90.6592C518.633 90.9336 516.018 90.6623 513.543 89.8631C511.068 89.0639 508.787 87.7544 506.85 86.0192C504.707 83.9803 503.094 81.4486 502.153 78.6443C501.212 75.84 500.971 72.8482 501.45 69.9292C490.21 67.0592 481.73 58.2392 480.04 47.7292C478.29 36.8192 484.04 25.4392 494.34 19.4492C481.24 21.5192 470.06 29.9992 465.41 41.7692C458.41 59.4392 467.41 81.3792 486.82 89.8392C484.646 94.2403 482.212 98.5079 479.53 102.619C471.44 115.039 463.09 123.019 456.3 129.429C449.916 135.445 443.138 141.027 436.01 146.139C437.61 150.851 439.765 155.357 442.43 159.559C446.824 166.499 452.527 172.517 459.22 177.279C479.843 155.028 506.351 139.078 535.67 131.279C548.16 155.279 578.26 161.669 597.15 148.459C615.87 135.379 620.15 105.399 602.75 85.5592C608.847 78.4604 612.285 69.4618 612.475 60.1059C612.665 50.75 609.594 41.6194 603.79 34.2792Z" fill="#EFEDF6"/>
<path d="M604.96 87.1304C620.1 69.0304 617.56 41.7404 599.96 27.3004C587.4 17.0204 569.89 15.4704 555.49 22.2204C553.34 10.4804 542.63 0.730369 531.08 0.0503692C525.219 -0.218214 519.442 1.52857 514.712 5.00003C509.981 8.47149 506.582 13.4582 505.08 19.1304H504.89C484 16.0004 464.75 30.1304 461.63 49.0304C458.92 65.4104 468.76 82.5904 485.63 89.2504C472.944 110.767 456.197 129.613 436.32 144.74C436.33 145.143 436.425 145.538 436.6 145.9C436.865 146.46 437.304 146.919 437.85 147.21C461.811 130.588 480.892 107.864 493.12 81.3904C492.739 80.9066 492.214 80.5565 491.62 80.3904C491.36 80.3177 491.09 80.2873 490.82 80.3004C490.684 80.29 490.547 80.29 490.41 80.3004C489.16 82.7104 487.77 85.2404 486.25 87.8704C472.05 80.8004 463.7 66.2604 465.25 52.1804C467.25 33.9204 485.78 18.9004 507.25 21.3304C507.3 21.3304 507.84 21.0404 507.89 20.5604C507.877 20.2412 507.741 19.9395 507.509 19.7193C507.278 19.4991 506.97 19.3775 506.65 19.3804C506.49 19.3804 506.32 19.3204 506.15 19.2904C507.799 14.5154 510.889 10.3701 514.995 7.42702C519.101 4.48393 524.019 2.88825 529.07 2.86037C540.32 2.86037 551.15 11.8604 553.66 22.9804C548.582 25.6357 544.093 29.2886 540.46 33.7204L540.1 34.1604C540.117 34.4606 540.189 34.7554 540.31 35.0304C540.55 35.5671 540.982 35.995 541.52 36.2304C554.98 18.6404 580.71 16.0304 597.11 30.0504C613.69 44.2104 614.96 70.3704 599.29 86.3504L598.89 86.7504V87.1104C598.915 87.8842 599.237 88.6188 599.79 89.1604C600.13 89.4779 600.547 89.7005 601 89.8058C601.453 89.9112 601.925 89.8955 602.37 89.7604L602.54 89.5704C615.76 108.39 612.21 133.07 597.83 144.95C581.3 158.61 551.36 154.6 537.11 131.76L538.6 131.29C539.15 131 539.6 130.65 539.5 130.42C539.4 130.19 538.77 130.03 537.87 130.16L536.32 130.48L536.25 130.36H536.17C535.739 130.245 535.28 130.302 534.89 130.52C534.712 130.618 534.559 130.755 534.44 130.92C505.575 137.424 479.49 152.854 459.89 175.02C459.58 175.36 459.29 175.7 459 176.02C458.949 176.202 458.954 176.395 459.015 176.573C459.075 176.752 459.189 176.908 459.34 177.02C459.79 177.36 460.19 177.15 460.8 176.6C481.863 156.666 507.075 141.64 534.63 132.6C534.92 133.11 535.21 133.6 535.52 134.12C550.75 158.53 582.64 163.12 600.38 148.96C616.74 136.06 620.72 107.94 604.96 87.1304Z" fill="#ABABAB"/>
<path d="M469.419 143.982C472.209 141.912 475.159 139.582 478.199 136.982C478.199 136.982 483.589 132.342 488.719 126.982C495.642 119.581 501.994 111.665 507.719 103.302C507.904 103.016 507.985 102.675 507.949 102.336C507.913 101.997 507.762 101.681 507.521 101.44C507.28 101.199 506.964 101.048 506.625 101.012C506.286 100.976 505.945 101.057 505.659 101.242C498.779 107.922 491.659 115.242 484.489 123.152C478.195 130.112 472.382 136.922 467.049 143.582C467.188 143.9 467.405 144.179 467.679 144.392C467.886 144.549 468.125 144.658 468.379 144.712L469.419 143.982Z" fill="#ABABAB"/>
<path d="M200.179 39.5909C203.013 36.2059 206.699 33.6379 210.856 32.1518C215.013 30.6656 219.491 30.3151 223.828 31.1364C228.166 31.9576 232.206 33.9209 235.532 36.8239C238.858 39.7268 241.349 43.4642 242.749 47.6509C258.819 44.5909 273.499 56.3109 274.609 70.4309C275.719 84.5509 262.819 98.7509 246.079 97.8909C241.006 116.007 241.18 135.19 246.579 153.211C241.934 155.283 236.933 156.441 231.849 156.621C228.766 156.723 225.681 156.458 222.659 155.831C222.17 150.413 221.318 145.035 220.109 139.731C218.663 132.511 216.311 125.502 213.109 118.871C211.749 116.149 210.234 113.508 208.569 110.961C197.929 118.681 183.379 116.571 176.129 107.281C170.029 99.4609 170.019 87.711 176.529 79.011C174.065 76.3569 172.59 72.9344 172.354 69.3201C172.118 65.7058 173.135 62.1206 175.233 59.1684C177.332 56.2162 180.384 54.0775 183.875 53.1126C187.366 52.1477 191.083 52.4155 194.399 53.8709C194.775 48.6212 196.798 43.6239 200.179 39.5909Z" fill="white"/>
<path d="M215.64 30.9591C209.91 31.7924 204.653 34.605 200.78 38.9091C207.352 35.6482 214.94 35.0883 221.92 37.3491C233.46 41.2091 238.21 51.6391 239.51 55.1291C250.09 53.6191 259.31 61.7791 259.51 71.2191C259.69 79.8891 252.23 87.8791 242.61 88.2191C241.656 90.4583 240.144 92.4155 238.218 93.9037C236.293 95.3919 234.017 96.3612 231.61 96.7191C229.473 96.9781 227.306 96.7639 225.262 96.0916C223.217 95.4194 221.346 94.3055 219.78 92.8291C219.112 94.2971 218.144 95.609 216.938 96.6803C215.733 97.7516 214.316 98.5585 212.78 99.0491C211.015 99.5533 209.154 99.6183 207.359 99.2383C205.564 98.8583 203.889 98.0449 202.48 96.8691C197.41 101.979 190.03 103.739 183.87 101.329C177.49 98.8391 173.22 92.1791 173.25 84.7991C171.745 88.4742 171.218 92.4763 171.719 96.4158C172.22 100.355 173.733 104.098 176.11 107.279C183.36 116.569 197.91 118.679 208.55 110.959C210.214 113.506 211.73 116.147 213.09 118.869C216.291 125.5 218.643 132.509 220.09 139.729C221.298 145.033 222.15 150.411 222.64 155.829C225.661 156.456 228.746 156.722 231.83 156.619C236.913 156.439 241.914 155.281 246.56 153.209C241.16 135.188 240.987 116.005 246.06 97.8891C262.8 98.7491 275.7 84.6791 274.59 70.4291C273.48 56.1791 258.8 44.5891 242.73 47.6491C240.855 42.1543 237.126 37.4834 232.183 34.438C227.24 31.3926 221.391 30.1626 215.64 30.9591Z" fill="#EFEDF6"/>
<path d="M244.259 46.9595C239.349 33.1695 223.959 25.9596 210.689 30.8296C206.107 32.5872 202.111 35.598 199.158 39.5182C196.205 43.4384 194.414 48.11 193.989 52.9995C187.039 50.4595 178.459 53.1195 174.459 59.0695C172.465 62.1165 171.576 65.7549 171.94 69.378C172.304 73.0012 173.899 76.3901 176.459 78.9796L176.379 79.0696C168.129 89.2596 169.629 103.99 178.759 111.61C186.659 118.21 198.939 118.35 207.759 111.44C215.288 124.967 220.114 139.83 221.969 155.2C222.188 155.32 222.43 155.395 222.679 155.42C223.061 155.452 223.443 155.361 223.769 155.16C222.42 137.123 216.275 119.774 205.969 104.91C205.593 104.967 205.245 105.138 204.969 105.4C204.85 105.518 204.749 105.652 204.669 105.8C204.624 105.876 204.587 105.956 204.559 106.04C205.449 107.46 206.369 109.04 207.299 110.64C199.049 116.01 188.649 115.9 181.619 110.64C172.509 103.8 170.289 89.1995 178.359 78.4595C178.37 78.3533 178.357 78.246 178.32 78.1455C178.284 78.0451 178.225 77.9542 178.149 77.8796C177.977 77.789 177.777 77.7687 177.591 77.8228C177.404 77.8769 177.246 78.0012 177.149 78.1696C177.077 78.245 177.01 78.3251 176.949 78.4096C174.914 76.0269 173.67 73.0714 173.387 69.951C173.104 66.8307 173.796 63.6994 175.369 60.9896C178.919 54.9896 187.119 51.9895 193.859 54.1695C193.685 57.7209 194.225 61.2711 195.449 64.6096L195.569 64.9295C195.733 65.0201 195.913 65.0779 196.099 65.0996C196.454 65.1348 196.81 65.0387 197.099 64.8296C195.877 61.8215 195.285 58.5952 195.357 55.3494C195.43 52.1036 196.166 48.907 197.521 45.9566C198.876 43.0063 200.821 40.3646 203.236 38.1944C205.65 36.0243 208.484 34.3715 211.562 33.3381C214.639 32.3046 217.896 31.9124 221.131 32.1854C224.367 32.4585 227.511 33.3912 230.372 34.9259C233.233 36.4607 235.75 38.565 237.767 41.1093C239.783 43.6535 241.258 46.5838 242.099 49.7195L242.189 50.0496L242.389 50.1596C242.594 50.2793 242.821 50.3561 243.057 50.3854C243.292 50.4146 243.531 50.3956 243.759 50.3295C244.036 50.2467 244.286 50.0935 244.486 49.885C244.686 49.6764 244.828 49.4196 244.899 49.1395C244.899 49.0895 244.899 49.0396 244.899 48.9896C259.109 47.8496 271.189 57.4995 273.019 68.9295C275.119 82.0595 263.559 96.7996 246.859 97.2296C246.939 96.9196 247.009 96.5995 247.079 96.2995C247.149 95.9995 247.079 95.5796 246.899 95.5396C246.719 95.4996 246.459 95.7995 246.249 96.3295C246.139 96.6295 246.039 96.9396 245.929 97.2596H245.849C245.656 97.4549 245.542 97.715 245.529 97.9895C245.529 98.1162 245.552 98.2417 245.599 98.3595C239.995 115.838 240.04 134.638 245.729 152.09C245.809 152.36 245.899 152.62 245.989 152.88C246.07 152.957 246.171 153.01 246.281 153.031C246.391 153.053 246.505 153.042 246.609 153C246.929 152.87 246.939 152.59 246.839 152.09C242.806 134.559 242.707 116.353 246.549 98.7795H247.639C265.479 98.3195 277.949 82.7095 275.979 68.7795C274.119 56.0495 260.319 45.0695 244.259 46.9595Z" fill="#ABABAB"/>
<path d="M232.008 137.281C231.788 135.141 231.468 132.831 231.008 130.381C231.008 130.381 230.228 126.041 229.008 121.621C227.23 115.593 224.993 109.709 222.318 104.021C222.195 103.815 222.002 103.661 221.774 103.586C221.547 103.51 221.3 103.519 221.078 103.611C220.927 103.698 220.801 103.824 220.714 103.975C220.626 104.125 220.579 104.297 220.578 104.471C221.978 110.251 223.638 116.341 225.628 122.681C227.368 128.231 229.198 133.481 231.058 138.421C231.271 138.455 231.49 138.427 231.688 138.341C231.835 138.283 231.968 138.195 232.078 138.081C232.068 137.821 232.038 137.551 232.008 137.281Z" fill="#ABABAB"/>
<path d="M281 570.368C255.37 561.988 235.13 566.448 228.88 568.058C221.56 569.938 203.06 574.698 202.43 583.168C201.86 590.938 216.6 597.718 224.31 601.258C231.1 604.378 258.23 615.828 289.31 605.258C296.98 602.658 311.36 597.788 311.68 590.358C312.15 580.558 287.7 572.558 281 570.368Z" fill="#D8D3E9"/>
<path d="M548.26 501.282C536.33 527.112 521.26 537.822 512.85 542.472C505.85 546.312 496.91 549.612 483.92 554.392C471.74 558.862 461.92 561.812 457.02 563.242C441.1 567.862 427.88 570.622 424.02 571.412C414.36 573.412 409.1 574.092 398.49 576.862C388.11 579.562 382.82 581.582 377.72 585.712C374.26 588.512 374.32 589.512 369.89 592.862C366.2 595.642 361.16 599.372 353.89 600.692C350.97 601.222 347.17 601.912 342.66 600.352C339.296 599.152 336.332 597.04 334.1 594.252C332.956 595.134 331.637 595.762 330.23 596.092C325.5 597.202 321.64 594.492 320.53 593.712C318.656 592.522 317.177 590.803 316.28 588.772C315.642 587.253 315.378 585.604 315.51 583.962C313.138 583.772 310.923 582.702 309.3 580.962C308.255 579.691 307.565 578.166 307.3 576.542C306.53 572.672 307.68 568.952 310.03 564.282C312.86 558.642 315.49 553.402 321.26 548.282C326.53 543.612 331.26 541.822 340.33 538.412C353.06 533.612 357.94 534.112 371.99 528.202C372.82 527.852 375.36 526.772 379.48 524.792C400.75 514.582 423.18 500.092 433.6 493.792C448.308 484.986 463.809 477.581 479.9 471.672" fill="#76261A"/>
<path d="M546.26 500.282C534.33 526.112 519.26 536.822 510.85 541.472C503.85 545.312 494.91 548.612 481.92 553.392C469.74 557.862 459.92 560.812 455.02 562.242C439.1 566.862 425.88 569.622 422.02 570.412C412.36 572.412 407.1 573.092 396.49 575.862C386.11 578.562 380.82 580.582 375.72 584.712C372.26 587.512 372.32 588.512 367.89 591.862C364.2 594.642 359.16 598.372 351.89 599.692C348.97 600.222 345.17 600.912 340.66 599.352C337.296 598.152 334.332 596.04 332.1 593.252C330.956 594.134 329.637 594.762 328.23 595.092C323.5 596.202 319.64 593.492 318.53 592.712C316.656 591.522 315.177 589.803 314.28 587.772C313.642 586.253 313.378 584.604 313.51 582.962C311.138 582.772 308.923 581.702 307.3 579.962C306.255 578.691 305.565 577.166 305.3 575.542C304.53 571.672 305.68 567.952 308.03 563.282C310.86 557.642 313.49 552.402 319.26 547.282C324.53 542.612 329.26 540.822 338.33 537.412C351.06 532.612 355.94 533.112 369.99 527.202C370.82 526.852 373.36 525.772 377.48 523.792C398.75 513.582 421.18 499.092 431.6 492.792C446.308 483.986 461.809 476.581 477.9 470.672" fill="url(#paint7_linear_7809_108687)"/>
<path d="M281.41 497.902C284.9 506.342 290.14 510.802 292.89 509.902C295.33 509.062 296.44 503.742 295.79 497.512" fill="white"/>
<path d="M247.631 536.493C246.571 530.883 249.461 526.163 252.221 521.783C255.974 515.316 261.383 509.966 267.891 506.283C274.971 502.403 281.101 501.823 287.731 501.213C295.841 500.453 302.731 499.803 309.061 503.973C313.061 506.603 317.541 511.703 316.271 514.873C315.341 517.223 311.741 517.273 299.391 518.753C287.921 520.133 282.141 520.843 280.051 521.843C276.151 523.703 276.791 524.663 262.751 536.933C257.301 541.693 254.391 544.013 251.751 543.103C248.681 542.093 247.791 537.373 247.631 536.493Z" fill="#785A25"/>
<path d="M247.631 536.493C246.571 530.883 249.461 526.163 252.221 521.783C255.974 515.316 261.383 509.966 267.891 506.283C274.971 502.403 281.101 501.823 287.731 501.213C295.841 500.453 302.731 499.803 309.061 503.973C313.061 506.603 317.541 511.703 316.271 514.873C315.341 517.223 311.741 517.273 299.391 518.753C287.921 520.133 282.141 520.843 280.051 521.843C276.151 523.703 276.791 524.663 262.751 536.933C257.301 541.693 254.391 544.013 251.751 543.103C248.681 542.093 247.791 537.373 247.631 536.493Z" stroke="#231F20" stroke-width="2" stroke-miterlimit="10"/>
<path d="M236.321 592.499C243.191 596.579 254.141 598.909 263.731 598.039C274.871 597.039 291.451 591.039 295.931 578.359C299.781 567.499 291.431 561.039 292.761 543.139C293.701 530.459 294.761 524.089 299.421 520.279C301.762 518.405 304.556 517.184 307.521 516.739C303.887 514.37 299.658 513.077 295.321 513.009C284.041 512.899 277.601 521.409 278.851 519.779C274.731 520.489 268.951 522.209 265.411 526.999C257.411 537.739 268.611 553.429 260.851 561.599C256.751 565.919 252.691 562.529 243.401 567.799C242.751 568.169 228.661 576.319 229.591 584.329C229.941 587.419 232.501 590.279 236.321 592.499Z" fill="#B76C6C"/>
<path d="M296.322 568.348C295.548 573.201 293.598 577.791 290.642 581.718C283.112 591.578 271.562 593.158 266.202 593.918C261.122 594.648 244.002 597.098 235.512 586.018C233.665 583.564 232.381 580.734 231.752 577.728C230.253 579.591 229.492 581.94 229.612 584.328C229.962 587.418 232.522 590.228 236.352 592.498C243.222 596.578 254.172 598.908 263.762 598.038C274.902 597.038 291.482 591.038 295.962 578.358C296.385 577.14 296.686 575.884 296.862 574.608C297.091 572.506 296.907 570.379 296.322 568.348Z" fill="#A55E62"/>
<path d="M274.531 553.731C273.942 546.322 275.019 538.876 277.684 531.939C280.349 525.001 284.534 518.749 289.931 513.641C285.783 514.728 281.973 516.839 278.852 519.781C278.302 519.871 277.712 519.991 277.102 520.131C272.164 530.639 271.249 542.593 274.531 553.731Z" fill="#A55E62"/>
</g>
<defs>
<linearGradient id="paint0_linear_7809_108687" x1="827.611" y1="553.561" x2="647.961" y2="270.361" gradientUnits="userSpaceOnUse">
<stop offset="0.14" stop-color="#A03B28"/>
<stop offset="0.38" stop-color="#AC432B"/>
<stop offset="0.81" stop-color="#CB5732"/>
<stop offset="0.98" stop-color="#D96035"/>
</linearGradient>
<linearGradient id="paint1_linear_7809_108687" x1="577.06" y1="632.23" x2="442.17" y2="268.21" gradientUnits="userSpaceOnUse">
<stop offset="0.44" stop-color="#A03B28"/>
<stop offset="0.59" stop-color="#AC432B"/>
<stop offset="0.87" stop-color="#CB5732"/>
<stop offset="0.98" stop-color="#D96035"/>
</linearGradient>
<linearGradient id="paint2_linear_7809_108687" x1="657.239" y1="498.852" x2="648.909" y2="343.382" gradientUnits="userSpaceOnUse">
<stop offset="0.59" stop-color="#A03B28"/>
<stop offset="0.7" stop-color="#AC432B"/>
<stop offset="0.9" stop-color="#CB5732"/>
<stop offset="0.98" stop-color="#D96035"/>
</linearGradient>
<linearGradient id="paint3_linear_7809_108687" x1="375.621" y1="264.931" x2="355.161" y2="86.5408" gradientUnits="userSpaceOnUse">
<stop offset="0.32" stop-color="#A03B28"/>
<stop offset="0.51" stop-color="#AC432B"/>
<stop offset="0.85" stop-color="#CB5732"/>
<stop offset="0.98" stop-color="#D96035"/>
</linearGradient>
<linearGradient id="paint4_linear_7809_108687" x1="194.82" y1="404.279" x2="122.71" y2="229.159" gradientUnits="userSpaceOnUse">
<stop offset="0.32" stop-color="#A03B28"/>
<stop offset="0.51" stop-color="#AC432B"/>
<stop offset="0.85" stop-color="#CB5732"/>
<stop offset="0.98" stop-color="#D96035"/>
</linearGradient>
<linearGradient id="paint5_linear_7809_108687" x1="402.35" y1="503.589" x2="197.129" y2="213.539" gradientUnits="userSpaceOnUse">
<stop offset="0.32" stop-color="#A03B28"/>
<stop offset="0.51" stop-color="#AC432B"/>
<stop offset="0.85" stop-color="#CB5732"/>
<stop offset="0.98" stop-color="#D96035"/>
</linearGradient>
<radialGradient id="paint6_radial_7809_108687" cx="0" cy="0" r="1" gradientUnits="userSpaceOnUse" gradientTransform="translate(337.928 418.465) rotate(-26.54) scale(30.49 18.9038)">
<stop offset="0.01" stop-color="#414042"/>
<stop offset="0.68" stop-color="#231F20"/>
</radialGradient>
<linearGradient id="paint7_linear_7809_108687" x1="327.06" y1="688.962" x2="540.96" y2="354.012" gradientUnits="userSpaceOnUse">
<stop offset="0.74" stop-color="#A03B28"/>
<stop offset="0.81" stop-color="#AC432B"/>
<stop offset="0.93" stop-color="#CB5732"/>
<stop offset="0.98" stop-color="#D96035"/>
</linearGradient>
<clipPath id="clip0_7809_108687">
<rect width="928.54" height="609.65" fill="white"/>
</clipPath>
</defs>
</svg>
