<svg width="574" height="749" viewBox="0 0 574 749" fill="none" xmlns="http://www.w3.org/2000/svg">
<g clip-path="url(#clip0_7809_108760)">
<path d="M277.99 609.472C277.448 614.43 277.542 619.437 278.27 624.372C278.78 627.812 281.12 641.602 290.41 652.912C310.02 676.782 347.5 673.672 431.28 669.302C452.72 668.182 490.28 666.302 538.67 664.302C554.702 657.001 567.21 643.674 573.48 627.212C564.733 622.086 556.551 616.053 549.07 609.212C523.58 585.792 519 564.212 495.07 556.392C490.84 555.002 487.73 554.602 482.32 553.962C412.75 545.722 377.32 541.742 343.88 549.102C322.61 553.792 308.58 557.102 296.52 569.752C295.27 571.022 280.44 586.722 277.99 609.472Z" fill="url(#paint0_linear_7809_108760)"/>
<path d="M495.03 556.373C490.8 554.983 487.69 554.583 482.28 553.943L468.15 552.273C463.34 558.473 460.86 564.773 462.44 569.123C464.37 574.403 471.05 573.423 477.01 582.123C477.61 582.983 484.45 593.223 481.87 604.793C479.78 614.173 473.76 614.283 472.97 622.603C472.08 631.893 478.81 640.093 481.06 642.843C486.8 649.843 490.27 648.933 492.4 653.363C494.4 657.603 493.02 662.093 490.68 666.453C505.09 665.793 521.17 665.093 538.68 664.373C554.712 657.073 567.22 643.746 573.49 627.283C564.743 622.158 556.561 616.125 549.08 609.283C523.58 585.783 519 564.253 495.03 556.373Z" fill="#FDF7EF"/>
<path d="M218.53 539.658C193.41 532.078 170.28 549.138 162.36 554.978C137.29 573.478 130.77 600.148 128.36 610.128C124.87 624.378 119.73 645.398 131.09 663.918C139.53 677.688 152.91 683.218 165.47 688.428C178.32 693.748 197.05 701.508 218.57 694.898C244.72 686.898 256.48 663.338 259.09 658.128C276.52 623.258 259.89 588.028 256.02 579.828C249.83 566.808 240.09 546.168 218.53 539.658Z" fill="url(#paint1_linear_7809_108760)"/>
<path d="M155.9 685.7C153.301 686.71 150.818 687.994 148.49 689.53C145.86 691.3 142.59 693.46 140.32 697.19C138.05 700.92 137.87 705.31 137.51 714.04C137.24 720.83 137.86 722.37 138.51 723.49C141.33 728.13 147.26 728.79 147.96 728.85C150.821 729.097 153.688 728.454 156.17 727.01C156.97 728.153 157.99 729.125 159.17 729.87C160.506 730.653 161.979 731.175 163.51 731.41C167.31 732.22 170.3 731.69 176.27 730.64C177.195 730.532 178.077 730.188 178.83 729.64C179.419 729.16 179.894 728.555 180.22 727.87C181.071 729.161 182.156 730.28 183.42 731.17C185.637 732.689 188.262 733.502 190.95 733.502C193.638 733.502 196.263 732.689 198.48 731.17C199.348 730.55 200.128 729.817 200.8 728.99C201.447 729.622 202.225 730.104 203.08 730.4C203.97 730.71 205.86 731.12 211.76 728.4C216.32 726.27 218.61 725.2 220.44 723.3C224.13 719.46 224.44 714.47 224.78 707.72C225.108 700.712 224.353 693.696 222.54 686.92C221.651 685.64 220.572 684.504 219.34 683.55C218.46 682.88 216.02 681.16 207.55 680.07C203.356 679.569 199.134 679.339 194.91 679.38C191.91 679.38 189.64 679.38 188.57 679.48C186.8 679.55 183.51 679.68 179.57 680.15C174.397 680.801 169.277 681.824 164.25 683.21C161.413 683.848 158.623 684.68 155.9 685.7Z" fill="#5A421E"/>
<path d="M354.41 539.658C379.53 532.078 402.66 549.138 410.58 554.978C435.65 573.478 442.18 600.148 444.58 610.128C448.11 624.368 453.27 645.368 441.9 663.918C433.45 677.688 420.08 683.218 407.51 688.428C394.66 693.748 375.93 701.508 354.41 694.898C328.27 686.898 316.5 663.338 313.9 658.128C296.46 623.258 313.09 588.028 316.96 579.828C323.11 566.808 332.85 546.168 354.41 539.658Z" fill="url(#paint2_linear_7809_108760)"/>
<path d="M417.04 685.7C419.639 686.71 422.123 687.994 424.45 689.53C427.08 691.3 430.35 693.46 432.62 697.19C434.89 700.92 435.07 705.31 435.43 714.04C435.7 720.83 435.09 722.37 434.43 723.49C431.61 728.13 425.68 728.79 424.98 728.85C422.123 729.096 419.259 728.454 416.78 727.01C415.975 728.148 414.956 729.12 413.78 729.87C412.44 730.652 410.964 731.174 409.43 731.41C405.63 732.22 402.64 731.69 396.67 730.64C395.748 730.533 394.869 730.189 394.12 729.64C393.525 729.164 393.046 728.559 392.72 727.87C391.873 729.163 390.787 730.283 389.52 731.17C387.303 732.689 384.678 733.502 381.99 733.502C379.303 733.502 376.678 732.689 374.46 731.17C373.595 730.548 372.815 729.815 372.14 728.99C371.494 729.622 370.715 730.104 369.861 730.4C368.971 730.71 367.08 731.12 361.18 728.4C356.62 726.27 354.33 725.2 352.5 723.3C348.81 719.46 348.5 714.47 348.16 707.72C347.833 700.712 348.588 693.696 350.4 686.92C351.289 685.64 352.369 684.504 353.6 683.55C354.48 682.88 356.93 681.16 365.39 680.07C369.585 679.569 373.807 679.339 378.03 679.38C381.03 679.38 383.3 679.38 384.37 679.48C386.14 679.55 389.43 679.68 393.37 680.15C398.544 680.801 403.664 681.824 408.69 683.21C411.527 683.848 414.317 684.68 417.04 685.7Z" fill="#5A421E"/>
<path d="M184.14 636.92L184.58 637.7C191.58 650.21 227.25 713.5 287.22 714.3C344.72 715.07 378.35 657.8 385.32 646.9C407.11 612.83 409.06 579.73 412.13 527.41C413.967 495.903 412.963 464.296 409.13 432.97C408.468 427.496 406.183 422.345 402.57 418.18C387.75 401.03 352.38 366.89 295.46 365.02C231.4 362.93 188.65 403.24 170.46 424.78C166.994 428.928 164.815 433.999 164.19 439.37C160.756 468.571 159.889 498.017 161.6 527.37C164.32 574.13 166.09 604.43 184.14 636.92Z" fill="url(#paint3_linear_7809_108760)"/>
<path d="M398.07 666.299C400.293 655.071 403.191 643.987 406.75 633.109C408.37 627.879 409.37 625.109 410.08 622.959C413.08 613.959 415.91 600.729 415.64 569.959C415.465 551.293 414.216 532.652 411.9 514.129L343.13 518.559C341.84 528.649 335.38 579.399 329.7 626.249C328.92 632.649 327.64 643.329 326.58 657.619C325.3 674.899 324.96 689.169 324.88 698.799C323.648 699.753 322.569 700.889 321.68 702.169C319.867 708.946 319.112 715.962 319.44 722.969C319.77 729.719 320.09 734.709 323.78 738.549C325.61 740.449 327.9 741.549 332.46 743.649C338.36 746.409 340.25 745.999 341.14 745.649C341.993 745.349 342.771 744.868 343.42 744.239C344.092 745.066 344.872 745.799 345.74 746.419C347.958 747.936 350.583 748.747 353.27 748.747C355.957 748.747 358.582 747.936 360.8 746.419C362.064 745.529 363.149 744.41 364 743.119C364.326 743.805 364.801 744.409 365.39 744.889C366.143 745.437 367.025 745.782 367.95 745.889C373.95 746.889 376.95 747.469 380.71 746.659C382.241 746.425 383.714 745.902 385.05 745.119C386.23 744.374 387.25 743.402 388.05 742.259C390.528 743.726 393.399 744.393 396.27 744.169C396.97 744.109 402.9 743.449 405.72 738.809C406.39 737.689 407.01 736.149 406.72 729.359C406.36 720.629 406.19 716.259 403.91 712.509C401.63 708.759 398.37 706.619 395.74 704.849C395.02 704.369 394.33 703.949 393.65 703.559H393.95C394.339 691.05 395.717 678.591 398.07 666.299Z" fill="url(#paint4_linear_7809_108760)"/>
<path d="M293.97 127.55C310.97 103.47 326.97 81.8102 341.6 62.6802C351.12 50.2302 365.67 31.4802 389.88 13.9802C408.88 0.210161 417.81 -1.13983 424.57 0.610167C436.99 3.84017 443.57 17.8702 448.14 29.7102C474.14 97.3402 463.65 169.93 463.65 169.93C458.978 201.977 450.039 233.255 437.07 262.93" fill="url(#paint5_linear_7809_108760)"/>
<path d="M404.17 193.21C417.845 185.402 429.39 174.351 437.79 161.03C461.38 122.96 448.17 80.7105 444.98 70.5105C439.371 52.846 429.964 36.6231 417.42 22.9805C397.541 36.4069 381.409 54.6744 370.544 76.0609C359.68 97.4475 354.44 121.249 355.32 145.22" fill="#785925"/>
<path d="M418.27 80.4509C412.671 81.8671 407.306 84.0833 402.34 87.0309C398.963 89.0452 395.794 91.39 392.88 94.0309C396.394 79.3886 404.792 66.3806 416.69 57.1509C412.135 57.9346 407.681 59.2225 403.41 60.9909C401.41 61.8209 399.54 62.7209 397.82 63.6409C401.462 55.9549 406.176 48.8239 411.82 42.4609C405.566 44.0329 399.498 46.2689 393.72 49.1309C390.264 50.841 386.924 52.7751 383.72 54.9209C379.555 60.4204 375.802 66.2195 372.49 72.2709C360.324 94.6268 354.371 119.834 355.25 145.271L375.85 165.511C378.991 155.824 383.991 146.844 390.57 139.071C391.903 137.511 393.323 135.971 394.83 134.451C401.13 128.181 408.473 123.054 416.53 119.301C413.8 116.471 410.423 114.347 406.69 113.111C404.704 112.464 402.638 112.094 400.55 112.011C403.881 100.239 409.953 89.4235 418.27 80.4509Z" fill="#F5E3C4"/>
<path d="M262.32 127.55C245.32 103.47 229.32 81.8102 214.7 62.6802C205.18 50.2302 190.63 31.4802 166.42 13.9802C147.42 0.210161 138.49 -1.13983 131.72 0.610167C119.3 3.84017 112.72 17.8702 108.16 29.7102C82.1596 97.3402 92.6395 169.93 92.6395 169.93C97.316 201.976 106.255 233.253 119.22 262.93" fill="url(#paint6_linear_7809_108760)"/>
<path d="M152.12 193.21C138.445 185.402 126.899 174.351 118.5 161.03C94.9099 122.96 108.13 80.7105 111.32 70.5105C116.921 52.845 126.325 36.6213 138.87 22.9805C158.749 36.4069 174.881 54.6744 185.745 76.0609C196.61 97.4475 201.85 121.249 200.97 145.22" fill="#785925"/>
<path d="M137.989 80.4509C143.588 81.8671 148.953 84.0833 153.919 87.0309C157.294 89.0451 160.459 91.3899 163.369 94.0309C159.854 79.3916 151.46 66.3849 139.569 57.1509C144.121 57.936 148.572 59.2239 152.839 60.9909C154.75 61.7788 156.619 62.6633 158.439 63.6409C154.787 55.9602 150.075 48.8305 144.439 42.4609C150.693 44.0329 156.761 46.2689 162.539 49.1309C165.994 50.8432 169.334 52.7773 172.539 54.9209C176.701 60.4207 180.451 66.2197 183.759 72.2709C195.935 94.6231 201.889 119.833 200.999 145.271L180.399 165.511C177.282 155.846 172.309 146.882 165.759 139.121C164.426 137.561 163.003 136.021 161.489 134.501C155.193 128.231 147.853 123.105 139.799 119.351C142.528 116.519 145.905 114.394 149.639 113.161C151.626 112.514 153.692 112.144 155.779 112.061C152.425 100.29 146.34 89.4771 138.019 80.5009L137.989 80.4509Z" fill="#F5E3C4"/>
<path d="M194.36 400.918C199.426 407.312 203.365 414.522 206.01 422.238C212.9 442.398 208.86 460.408 206.06 469.168C190.679 484.861 171.226 495.952 149.887 501.193C128.548 506.435 106.17 505.619 85.2697 498.838C77.7375 471.774 79.498 442.965 90.2697 417.018C97.8897 421.928 126.03 437.778 157.72 426.578C176.97 419.778 188.21 406.288 193.09 399.398C193.53 399.878 193.94 400.368 194.36 400.918Z" fill="url(#paint7_linear_7809_108760)"/>
<path d="M63.6307 352.801C63.2906 350.03 63.522 347.219 64.3107 344.541C64.7807 342.971 65.9007 339.251 67.6307 339.181C69.1007 339.121 70.3007 341.701 70.9507 343.091C72.4617 346.452 73.022 350.163 72.5707 353.821" fill="#FDF7EF"/>
<path d="M47.2004 405.199C44.9568 397.844 43.9664 390.163 44.2704 382.479C44.5704 375.239 44.8704 369.839 48.6104 364.349C51.7864 359.63 56.5354 356.192 62.0104 354.649C64.2804 354.059 67.8904 353.119 71.8404 354.519C78.5904 356.889 81.3004 364.249 82.7004 368.049C84.2904 372.369 84.6004 376.209 85.1204 382.599C85.6204 388.769 85.0004 388.349 85.6304 391.919C86.5575 397.073 88.5131 401.987 91.3804 406.369C92.4804 408.059 92.8304 408.299 95.0804 411.219C98.7604 415.999 101.46 420.069 103.19 422.799" fill="url(#paint8_linear_7809_108760)"/>
<path d="M63.1606 360.971C57.6006 359.971 52.8706 365.681 51.0406 368.881C48.8658 372.856 48.3586 377.532 49.6306 381.881C50.2206 383.821 51.8606 389.281 56.9106 391.071C61.4806 392.701 65.7306 390.221 66.2306 389.921C72.4706 386.161 73.8506 376.711 71.4606 370.011C70.9306 368.521 68.5706 361.921 63.1606 360.971Z" fill="#F5E3C4"/>
<path d="M56.8999 400.669C65.8628 401.299 74.7366 402.854 83.3799 405.309C87.0499 406.309 90.1899 407.399 92.6099 408.309C93.8405 408.757 94.9571 409.47 95.8799 410.399C100.13 414.729 109.29 425.669 109.76 441.399C109.916 447.504 108.792 453.575 106.46 459.219C109.849 465.663 111.093 473.02 110.01 480.219C107.49 495.219 94.3499 504.559 85.0099 507.789C78.4299 510.069 70.5699 510.419 66.6299 510.599C62.7091 510.784 58.7804 510.707 54.8699 510.369L53.5699 510.249L52.7899 510.549C51.1699 511.169 38.1599 515.939 26.5299 508.839C21.4158 505.415 17.3491 500.642 14.7799 495.049C13.095 491.159 12.2173 486.968 12.1999 482.729L12.0599 482.619C9.33988 480.329 2.36987 473.819 0.479868 463.389C-0.31338 458.572 -0.081648 453.641 1.15989 448.919C2.13563 444.84 3.75237 440.942 5.94987 437.369C4.88987 433.919 3.01988 425.569 7.11988 417.259C11.5299 408.339 20.1199 405.029 24.9899 403.129C31.3999 400.659 36.2699 400.569 45.7599 400.409C48.8099 400.369 52.5599 400.369 56.8999 400.669Z" fill="url(#paint9_linear_7809_108760)"/>
<path d="M33.6699 481.918C34.0999 481.968 34.8099 482.038 35.7299 482.088C35.5537 482.041 35.3801 481.984 35.2099 481.918H33.6699Z" fill="#76261B"/>
<path d="M79.4599 480.218C78.0308 476.322 75.4846 472.934 72.1399 470.478C74.9299 466.258 77.4499 460.288 76.0599 453.478C75.0357 448.87 72.4887 444.741 68.8299 441.758C70.4399 439.878 74.8999 434.068 74.5499 426.028C74.0999 415.968 66.4299 410.028 63.9899 408.158C51.8799 398.788 36.5699 402.968 34.5499 403.558L33.3399 403.908H33.5299C38.5899 403.608 48.0099 403.908 57.0099 409.528C60.8199 411.928 65.5899 414.928 67.3999 420.758C69.7199 428.248 65.5799 435.268 63.5599 438.098C61.8175 437.115 60.0213 436.23 58.1799 435.448C45.0899 429.678 32.6499 433.448 28.9099 434.758L27.4199 435.278H27.5499C35.5161 434.82 43.4951 435.92 51.0399 438.518C59.3699 441.408 67.1599 444.108 69.5899 450.938C73.4299 461.728 60.5899 473.568 60.0599 474.088C51.3599 481.948 40.5499 482.338 35.7299 482.088C38.8499 483.088 54.8699 487.228 66.7299 476.818C67.5143 476.11 68.2619 475.362 68.9699 474.578C71.9504 476.761 74.1011 479.892 75.0699 483.458C77.0699 491.318 71.6999 497.628 70.2999 499.278C66.6316 503.467 61.5327 506.138 55.9999 506.768L52.3099 507.208L55.4899 507.798C56.4899 507.978 66.7299 509.678 74.3899 502.178C77.2183 499.367 79.1949 495.814 80.0919 491.929C80.9889 488.044 80.7698 483.984 79.4599 480.218Z" fill="#76261B"/>
<path d="M289.05 622.911C294.68 622.451 294.93 615.041 314.2 591.241C315.55 589.561 316.27 588.611 317.45 587.301C322.1 582.151 327.1 578.641 342.29 564.171C355.18 551.891 361.69 545.641 364.75 540.681C368.6 534.461 373.28 524.021 373.44 507.681C373.78 508.101 374.12 508.541 374.44 508.991C376.703 512.077 378.499 515.48 379.77 519.091C390.411 486.591 387.758 451.201 372.39 420.651C359.75 395.341 328.67 370.881 288.98 369.591C237.9 367.921 207.89 407.191 205.28 410.721C204.71 411.561 203.9 412.801 203.03 414.351C201.146 417.714 199.659 421.285 198.6 424.991C187.22 463.551 186.88 476.821 186.88 476.821C186.657 491.177 188.817 505.471 193.27 519.121C194.536 515.509 196.332 512.105 198.6 509.021C198.94 508.571 199.27 508.131 199.6 507.711C199.77 524.021 204.45 534.461 208.29 540.711C211.36 545.711 217.87 551.921 230.76 564.201C237.65 570.761 245.84 575.921 255.6 587.331C256.46 588.331 256.5 588.421 258.85 591.271C276.43 612.561 285.27 623.221 289.05 622.911Z" fill="#FDF7EF"/>
<path d="M277.64 105.371C318.57 108.221 346.22 122.481 360.01 130.981C371.53 138.081 419.9 167.891 436.95 220.201C441.22 233.301 443.4 247.451 456.35 260.931C469.3 274.411 485.84 279.781 497.99 282.191C491.832 290.088 484.396 296.899 475.99 302.341C478.672 302.944 481.397 303.341 484.14 303.531C487.472 303.77 490.819 303.706 494.14 303.341C482.956 321.356 466.781 335.735 447.58 344.731C455.209 345.403 462.89 344.283 470.01 341.461C466.6 344.341 461.72 348.291 455.64 352.671C432.454 369.159 406.666 381.639 379.35 389.591C336.97 402.031 302.47 410.371 277.65 410.021C255.18 410.401 218.32 402.021 175.87 389.611C148.554 381.656 122.766 369.177 99.5795 352.691C93.4995 348.311 88.5795 344.361 85.2095 341.481C92.3294 344.303 100.01 345.423 107.64 344.751C88.4398 335.758 72.2649 321.382 61.0795 303.371C64.4168 303.739 67.7807 303.803 71.1295 303.561C73.869 303.371 76.5902 302.973 79.2695 302.371C74.8345 299.506 70.6645 296.249 66.8095 292.641C63.3612 289.42 60.1713 285.932 57.2695 282.211C69.4295 279.801 85.9695 274.441 98.9095 260.951C111.85 247.461 114.05 233.321 118.31 220.221C135.36 167.911 183.73 138.101 195.25 131.001C209.06 122.501 236.71 108.241 277.64 105.371Z" fill="url(#paint10_linear_7809_108760)"/>
<path d="M278.69 423.369C255.63 424.689 216.29 423.249 176.44 401.589C155.39 390.149 123.49 373.439 117.44 341.359C114.8 327.359 117.91 315.099 120.72 307.359C128.02 300.729 139.66 292.359 153.91 292.609C169.57 292.849 176.75 303.419 195.7 309.819C205.15 313.009 219.42 315.929 239.05 313.259C242.46 308.45 246.643 304.239 251.43 300.799C259.459 295.111 268.88 291.707 278.69 290.949C288.508 291.703 297.936 295.107 305.97 300.799C310.753 304.242 314.932 308.452 318.34 313.259C337.97 315.929 352.24 313.009 361.69 309.819C380.69 303.419 387.82 292.819 403.48 292.609C417.73 292.389 429.371 300.729 436.671 307.359C439.48 315.109 442.59 327.359 439.95 341.359C433.95 373.439 402 390.149 380.95 401.589C341.1 423.199 301.76 424.639 278.69 423.369Z" fill="#FDF7EF"/>
<path d="M256.27 307.199C254.835 309.683 254.171 312.537 254.36 315.399C255.02 323.129 262.46 327.449 264.18 328.399C268.9 331.139 273.32 331.319 277.18 331.479C281.04 331.639 286.66 331.869 292.57 328.699C295.3 327.229 300.65 324.349 302.34 318.279C303.9 312.709 301.43 307.839 300.63 306.419C295.89 298.059 285.26 296.939 281.75 296.569C276.323 296.036 270.852 296.957 265.9 299.239C262.92 300.709 258.82 302.619 256.27 307.199Z" fill="url(#paint11_radial_7809_108760)"/>
<path d="M353.61 310.138C379.86 310.138 401.14 288.858 401.14 262.608C401.14 236.358 379.86 215.078 353.61 215.078C327.36 215.078 306.08 236.358 306.08 262.608C306.08 288.858 327.36 310.138 353.61 310.138Z" fill="black" stroke="black" stroke-miterlimit="10"/>
<path d="M352.4 307.228C377.457 307.228 397.77 286.915 397.77 261.858C397.77 236.801 377.457 216.488 352.4 216.488C327.343 216.488 307.03 236.801 307.03 261.858C307.03 286.915 327.343 307.228 352.4 307.228Z" fill="white"/>
<path d="M205.75 310.001C232 310.001 253.28 288.721 253.28 262.471C253.28 236.221 232 214.941 205.75 214.941C179.5 214.941 158.22 236.221 158.22 262.471C158.22 288.721 179.5 310.001 205.75 310.001Z" fill="black" stroke="black" stroke-miterlimit="10"/>
<path d="M206.96 307.103C232.017 307.103 252.33 286.79 252.33 261.733C252.33 236.676 232.017 216.363 206.96 216.363C181.903 216.363 161.59 236.676 161.59 261.733C161.59 286.79 181.903 307.103 206.96 307.103Z" fill="white"/>
<path d="M247.96 256.211C245.71 243.961 236.15 232.401 222.67 229.681C206.42 226.401 190.41 237.181 185.09 252.031C180.09 265.851 184.66 282.511 196.86 291.031C209.06 299.551 222.67 295.651 223.98 295.261C239.62 290.571 251.13 273.421 247.96 256.211Z" fill="#A29795"/>
<path d="M244.04 257.01C242.04 246.26 233.67 236.1 221.83 233.71C207.55 230.83 193.5 240.3 188.83 253.34C184.48 265.48 188.45 280.11 199.18 287.57C209.91 295.03 221.84 291.63 222.99 291.28C236.71 287.19 246.83 272.13 244.04 257.01Z" fill="black"/>
<path d="M197.8 281.162C202.152 281.162 205.68 277.634 205.68 273.282C205.68 268.93 202.152 265.402 197.8 265.402C193.448 265.402 189.92 268.93 189.92 273.282C189.92 277.634 193.448 281.162 197.8 281.162Z" fill="white"/>
<path d="M311.41 256.231C313.7 243.981 323.3 232.451 336.78 229.761C353.04 226.531 369.02 237.351 374.3 252.221C379.22 266.051 374.65 282.701 362.41 291.161C350.17 299.621 336.6 295.711 335.29 295.311C319.66 290.611 308.2 273.431 311.41 256.231Z" fill="#A29795"/>
<path d="M315.329 257.041C317.329 246.291 325.769 236.161 337.609 233.801C351.889 230.961 365.919 240.471 370.559 253.531C374.879 265.671 370.869 280.291 360.119 287.721C349.369 295.151 337.449 291.721 336.299 291.371C322.579 287.241 312.509 272.151 315.329 257.041Z" fill="black"/>
<path d="M361.539 281.323C365.891 281.323 369.419 277.795 369.419 273.443C369.419 269.091 365.891 265.562 361.539 265.562C357.187 265.562 353.659 269.091 353.659 273.443C353.659 277.795 357.187 281.323 361.539 281.323Z" fill="white"/>
<path d="M392.76 232.37C382.76 217.12 365.33 207.73 347.22 209.3C322.85 211.37 302.55 232.86 302.04 259.37L401.18 258.919C400.846 249.467 397.935 240.286 392.76 232.37Z" fill="url(#paint12_linear_7809_108760)"/>
<path d="M166.68 232.079C176.68 216.859 194.19 207.519 212.29 209.129C236.66 211.309 256.89 232.869 257.29 259.409L158.14 258.679C158.507 249.199 161.46 240 166.68 232.079Z" fill="url(#paint13_linear_7809_108760)"/>
<path d="M257.33 259.368L159.81 258.648" stroke="black" stroke-width="5" stroke-linecap="round" stroke-linejoin="round"/>
<path d="M302.04 259.372L399.56 258.922" stroke="black" stroke-width="5" stroke-linecap="round" stroke-linejoin="round"/>
<path d="M369.69 177.638C372.216 179.697 374.574 181.954 376.74 184.388C363.67 173.108 351.35 171.888 345.51 171.908C337.69 171.908 330.15 174.608 328.17 175.308C323.821 176.869 319.67 178.933 315.8 181.458C314.979 181.682 314.11 181.657 313.303 181.387C312.496 181.116 311.787 180.612 311.267 179.939C310.746 179.265 310.437 178.452 310.379 177.603C310.321 176.754 310.516 175.906 310.94 175.168C314.775 171.53 319.339 168.749 324.33 167.008C334.38 163.558 343.09 165.588 348.41 166.908C356.211 168.865 363.479 172.53 369.69 177.638Z" fill="black"/>
<path d="M179 174.521C176.567 172.323 174.316 169.932 172.27 167.371C184.73 179.321 196.97 181.171 202.81 181.461C210.62 181.861 218.29 179.571 220.29 178.971C224.716 177.639 228.972 175.793 232.97 173.471C233.803 173.286 234.672 173.353 235.467 173.664C236.262 173.976 236.946 174.517 237.431 175.219C237.917 175.922 238.181 176.753 238.192 177.606C238.202 178.46 237.958 179.297 237.49 180.011C233.473 183.442 228.772 185.978 223.7 187.451C213.48 190.381 204.9 187.891 199.64 186.301C191.975 183.945 184.926 179.922 179 174.521Z" fill="black"/>
<path d="M242.819 174.202C243.658 174.969 244.267 175.954 244.579 177.047C244.892 178.139 244.895 179.297 244.589 180.392C244.278 181.354 243.732 182.224 243 182.922C242.269 183.62 241.375 184.125 240.399 184.392C242.01 183.169 243.087 181.373 243.408 179.377C243.728 177.38 243.267 175.337 242.119 173.672C242.363 173.835 242.597 174.012 242.819 174.202Z" fill="black" stroke="black" stroke-miterlimit="10"/>
<path d="M215.27 365.27L214.63 364.93C256.128 377.97 300.722 377.301 341.81 363.02C322.651 374.127 300.974 380.163 278.832 380.557C256.689 380.951 234.812 375.689 215.27 365.27Z" fill="black"/>
<path d="M337.95 350.061C337.13 350.327 336.334 350.662 335.57 351.061C340.299 351.2 344.859 352.848 348.584 355.765C352.309 358.681 355.002 362.714 356.27 367.271C356.953 364.775 356.941 362.141 356.238 359.651C355.535 357.161 354.166 354.91 352.278 353.14C350.391 351.37 348.057 350.148 345.527 349.605C342.997 349.063 340.367 349.22 337.92 350.061H337.95Z" fill="black"/>
</g>
<defs>
<linearGradient id="paint0_linear_7809_108760" x1="185.73" y1="608.782" x2="481.56" y2="608.782" gradientUnits="userSpaceOnUse">
<stop offset="0.03" stop-color="#A03B28"/>
<stop offset="0.3" stop-color="#AC432B"/>
<stop offset="0.79" stop-color="#CB5732"/>
<stop offset="0.98" stop-color="#D96035"/>
</linearGradient>
<linearGradient id="paint1_linear_7809_108760" x1="124.08" y1="617.598" x2="266.86" y2="617.598" gradientUnits="userSpaceOnUse">
<stop offset="0.32" stop-color="#A03B28"/>
<stop offset="0.51" stop-color="#AC432B"/>
<stop offset="0.85" stop-color="#CB5732"/>
<stop offset="0.98" stop-color="#D96035"/>
</linearGradient>
<linearGradient id="paint2_linear_7809_108760" x1="306.08" y1="617.598" x2="448.86" y2="617.598" gradientUnits="userSpaceOnUse">
<stop offset="0.32" stop-color="#A03B28"/>
<stop offset="0.51" stop-color="#AC432B"/>
<stop offset="0.85" stop-color="#CB5732"/>
<stop offset="0.98" stop-color="#D96035"/>
</linearGradient>
<linearGradient id="paint3_linear_7809_108760" x1="160.75" y1="539.63" x2="413.04" y2="539.63" gradientUnits="userSpaceOnUse">
<stop offset="0.32" stop-color="#A03B28"/>
<stop offset="0.51" stop-color="#AC432B"/>
<stop offset="0.85" stop-color="#CB5732"/>
<stop offset="0.98" stop-color="#D96035"/>
</linearGradient>
<linearGradient id="paint4_linear_7809_108760" x1="362.6" y1="700.139" x2="395.14" y2="507.119" gradientUnits="userSpaceOnUse">
<stop offset="0.32" stop-color="#A03B28"/>
<stop offset="0.52" stop-color="#AC432B"/>
<stop offset="0.86" stop-color="#CB5732"/>
<stop offset="1" stop-color="#D96035"/>
</linearGradient>
<linearGradient id="paint5_linear_7809_108760" x1="374.66" y1="171.09" x2="433.15" y2="9.57016" gradientUnits="userSpaceOnUse">
<stop offset="0.23" stop-color="#A03B28"/>
<stop offset="0.48" stop-color="#B0452C"/>
<stop offset="0.97" stop-color="#D96035"/>
<stop offset="0.98" stop-color="#D96035"/>
</linearGradient>
<linearGradient id="paint6_linear_7809_108760" x1="178.5" y1="160.2" x2="125.47" y2="-3.18984" gradientUnits="userSpaceOnUse">
<stop offset="0.23" stop-color="#A03B28"/>
<stop offset="0.48" stop-color="#B0452C"/>
<stop offset="0.97" stop-color="#D96035"/>
<stop offset="0.98" stop-color="#D96035"/>
</linearGradient>
<linearGradient id="paint7_linear_7809_108760" x1="92.9797" y1="463.038" x2="282.51" y2="432.758" gradientUnits="userSpaceOnUse">
<stop offset="0.32" stop-color="#A03B28"/>
<stop offset="0.51" stop-color="#AC432B"/>
<stop offset="0.85" stop-color="#CB5732"/>
<stop offset="0.98" stop-color="#D96035"/>
</linearGradient>
<linearGradient id="paint8_linear_7809_108760" x1="50.0504" y1="394.539" x2="96.4004" y2="386.149" gradientUnits="userSpaceOnUse">
<stop offset="0.26" stop-color="#A03B28"/>
<stop offset="0.44" stop-color="#AC432B"/>
<stop offset="0.76" stop-color="#CB5732"/>
<stop offset="0.89" stop-color="#D96035"/>
</linearGradient>
<linearGradient id="paint9_linear_7809_108760" x1="10.3199" y1="472.249" x2="137.84" y2="424.269" gradientUnits="userSpaceOnUse">
<stop offset="0.32" stop-color="#A03B28"/>
<stop offset="0.51" stop-color="#AC432B"/>
<stop offset="0.85" stop-color="#CB5732"/>
<stop offset="0.98" stop-color="#D96035"/>
</linearGradient>
<linearGradient id="paint10_linear_7809_108760" x1="277.64" y1="514.051" x2="277.64" y2="73.3511" gradientUnits="userSpaceOnUse">
<stop offset="0.32" stop-color="#A03B28"/>
<stop offset="0.51" stop-color="#AC432B"/>
<stop offset="0.85" stop-color="#CB5732"/>
<stop offset="0.98" stop-color="#D96035"/>
</linearGradient>
<radialGradient id="paint11_radial_7809_108760" cx="0" cy="0" r="1" gradientUnits="userSpaceOnUse" gradientTransform="translate(278.35 309.241) scale(30.49 18.9038)">
<stop offset="0.01" stop-color="#414042"/>
<stop offset="0.68" stop-color="#231F20"/>
</radialGradient>
<linearGradient id="paint12_linear_7809_108760" x1="344.869" y1="296.07" x2="361.628" y2="199.909" gradientUnits="userSpaceOnUse">
<stop offset="0.28" stop-color="#A03B28"/>
<stop offset="0.48" stop-color="#AC432B"/>
<stop offset="0.84" stop-color="#CB5732"/>
<stop offset="0.98" stop-color="#D96035"/>
</linearGradient>
<linearGradient id="paint13_linear_7809_108760" x1="214.349" y1="283.886" x2="199.915" y2="194.74" gradientUnits="userSpaceOnUse">
<stop offset="0.3" stop-color="#A03B28"/>
<stop offset="0.49" stop-color="#AC432B"/>
<stop offset="0.84" stop-color="#CB5732"/>
<stop offset="0.98" stop-color="#D96035"/>
</linearGradient>
<clipPath id="clip0_7809_108760">
<rect width="573.48" height="748.8" fill="white"/>
</clipPath>
</defs>
</svg>
