<svg width="537" height="804" viewBox="0 0 537 804" fill="none" xmlns="http://www.w3.org/2000/svg">
<g clip-path="url(#clip0_7809_108829)">
<path d="M280.8 699.419C280.08 703.713 279.912 708.082 280.3 712.419C280.56 715.419 281.9 727.529 289.4 737.819C305.22 759.549 337.93 758.739 410.92 759.189C429.6 759.299 462.28 759.559 504.45 760.299C518.739 754.759 530.274 743.817 536.56 729.839C529.218 724.934 522.414 719.269 516.26 712.939C495.31 691.299 492.43 672.379 472 664.319C468.463 663 464.79 662.077 461.05 661.569C401.05 650.889 370.44 645.649 341.05 650.349C322.33 653.349 309.98 655.489 298.87 665.879C297.76 666.889 284.09 679.779 280.8 699.419Z" fill="url(#paint0_linear_7809_108829)"/>
<path d="M471.999 664.28C468.46 662.975 464.788 662.066 461.049 661.57L448.869 659.41C444.369 664.55 441.869 669.89 443.059 673.75C444.459 678.44 450.319 677.92 455.059 685.75C455.529 686.52 460.949 695.75 458.129 705.68C455.839 713.73 450.599 713.52 449.489 720.68C448.249 728.68 453.679 736.17 455.489 738.68C460.119 745.04 463.179 744.44 464.799 748.39C466.359 752.18 464.899 756 462.649 759.67C475.199 759.83 489.199 760.03 504.439 760.3C518.729 754.76 530.264 743.818 536.549 729.84C529.208 724.935 522.404 719.27 516.249 712.94C495.309 691.26 492.459 672.34 471.999 664.28Z" fill="#FDF7EF"/>
<path d="M192.06 594.849C166.93 587.259 143.8 604.329 135.89 610.169C110.81 628.669 104.29 655.329 101.84 665.309C98.3499 679.569 93.2099 700.589 104.57 719.099C113.01 732.869 126.39 738.409 138.95 743.609C151.8 748.929 170.53 756.689 192.06 750.079C218.2 742.079 229.96 718.529 232.57 713.309C250 678.439 233.37 643.209 229.5 635.019C223.35 621.989 213.61 601.349 192.06 594.849Z" fill="url(#paint1_linear_7809_108829)"/>
<path d="M129.46 740.889C126.861 741.899 124.377 743.183 122.05 744.719C119.42 746.489 116.15 748.649 113.88 752.379C111.61 756.109 111.43 760.489 111.07 769.229C110.8 776.009 111.42 777.559 112.07 778.679C114.88 783.319 120.82 783.969 121.51 784.039C124.372 784.288 127.241 783.642 129.72 782.189C130.516 783.338 131.537 784.314 132.72 785.059C134.054 785.844 135.528 786.364 137.06 786.589C140.86 787.409 143.85 786.879 149.82 785.829C150.745 785.721 151.627 785.377 152.38 784.829C152.97 784.355 153.446 783.753 153.77 783.069C154.623 784.358 155.708 785.477 156.97 786.369C159.19 787.884 161.816 788.694 164.505 788.694C167.193 788.694 169.819 787.884 172.04 786.369C172.902 785.747 173.679 785.014 174.35 784.189C174.999 784.818 175.777 785.299 176.63 785.599C177.52 785.909 179.41 786.319 185.31 783.599C189.88 781.469 192.16 780.399 193.99 778.489C197.68 774.659 197.99 769.659 198.33 762.919C198.658 755.912 197.903 748.896 196.09 742.119C195.201 740.839 194.122 739.703 192.89 738.749C192.01 738.079 189.57 736.359 181.1 735.269C176.906 734.768 172.683 734.538 168.46 734.579C165.46 734.579 163.19 734.579 162.12 734.669C160.35 734.739 157.06 734.879 153.12 735.339C147.947 735.999 142.827 737.025 137.8 738.409C134.964 739.033 132.176 739.862 129.46 740.889Z" fill="#5A421E"/>
<path d="M327.93 594.849C353.05 587.259 376.18 604.329 384.1 610.169C409.17 628.669 415.7 655.329 418.1 665.309C421.63 679.569 426.77 700.569 415.46 719.099C407.01 732.869 393.64 738.409 381.07 743.609C368.22 748.929 349.49 756.689 327.97 750.079C301.83 742.079 290.06 718.529 287.46 713.309C270.02 678.439 286.65 643.209 290.52 635.019C296.63 621.989 306.37 601.349 327.93 594.849Z" fill="url(#paint2_linear_7809_108829)"/>
<path d="M390.57 740.889C393.165 741.902 395.645 743.186 397.97 744.719C400.6 746.489 403.87 748.649 406.14 752.379C408.41 756.109 408.59 760.489 408.95 769.229C409.22 776.009 408.61 777.559 407.95 778.679C405.13 783.319 399.2 783.969 398.5 784.039C395.641 784.289 392.775 783.642 390.3 782.189C389.498 783.333 388.479 784.308 387.3 785.059C385.964 785.84 384.491 786.36 382.96 786.589C379.15 787.409 376.16 786.879 370.19 785.829C369.268 785.721 368.39 785.377 367.64 784.829C367.044 784.361 366.567 783.757 366.25 783.069C365.393 784.358 364.305 785.477 363.04 786.369C360.821 787.883 358.197 788.693 355.51 788.693C352.824 788.693 350.2 787.883 347.98 786.369C347.117 785.744 346.338 785.011 345.66 784.189C345.011 784.818 344.233 785.299 343.38 785.599C342.49 785.909 340.6 786.319 334.7 783.599C330.14 781.469 327.86 780.399 326.02 778.489C322.33 774.659 322.02 769.659 321.68 762.919C321.351 755.911 322.11 748.894 323.93 742.119C324.813 740.834 325.893 739.697 327.13 738.749C328 738.079 330.45 736.359 338.91 735.269C343.104 734.768 347.327 734.538 351.55 734.579C354.55 734.579 356.82 734.579 357.89 734.669C359.66 734.739 362.95 734.879 366.89 735.339C372.063 735.999 377.183 737.025 382.21 738.409C385.052 739.036 387.846 739.864 390.57 740.889Z" fill="#5A421E"/>
<path d="M157.66 692.112L158.1 692.892C165.1 705.392 200.77 768.692 260.74 769.482C318.24 770.252 351.87 712.982 358.84 702.082C380.63 668.012 382.58 634.912 385.65 582.592C387.487 551.089 386.483 519.485 382.65 488.162C381.987 482.685 379.703 477.531 376.09 473.362C361.27 456.222 325.9 422.072 268.98 420.212C204.92 418.112 162.17 458.422 143.98 479.972C140.51 484.122 138.334 489.198 137.72 494.572C134.276 523.772 133.406 553.219 135.12 582.572C137.84 629.322 139.61 659.572 157.66 692.112Z" fill="url(#paint3_linear_7809_108829)"/>
<path d="M316.96 514.082C301.46 499.482 281.46 498.212 276.1 497.952C241.79 496.262 219.1 521.462 214.01 527.442C197.62 546.882 194.6 569.202 193.33 579.532C187.93 623.532 183.33 678.842 180.05 725.082C197.59 746.082 224.79 769.012 260.74 769.482C301.21 770.022 329.85 741.822 345.74 721.262C340.97 658.962 337.88 609.662 337.37 574.932C337.15 562.442 337.02 532.952 316.96 514.082Z" fill="#76261A"/>
<path d="M169.08 758.761C168.702 746.246 167.334 733.78 164.99 721.481C162.761 710.254 159.863 699.171 156.31 688.291C155.02 684.121 153.93 680.881 152.98 678.151C149.49 668.151 146.91 661.031 146.61 660.211C144.01 653.211 141.1 634.071 139.61 581.571L227.1 577.141C228.54 632.291 231.1 663.141 233.34 681.441C233.8 685.171 235.28 696.841 236.46 712.801C237.79 730.801 238.11 745.501 238.16 755.191" fill="url(#paint4_linear_7809_108829)"/>
<path d="M351.46 758.759C351.839 746.244 353.207 733.778 355.55 721.479C357.779 710.252 360.678 699.169 364.23 688.289C365.85 683.059 366.85 680.289 367.56 678.149C370.56 669.149 373.39 655.919 373.12 625.149C372.972 606.481 371.75 587.836 369.46 569.309L300.69 573.739C299.41 583.829 292.95 634.579 287.26 681.439C286.48 687.839 285.2 698.519 284.14 712.799C282.8 730.799 282.49 745.559 282.44 755.189" fill="url(#paint5_linear_7809_108829)"/>
<path d="M262.57 678.1C268.2 677.64 268.45 670.23 287.72 646.42C289.07 644.75 289.79 643.79 290.97 642.49C295.62 637.34 300.63 633.82 315.81 619.36C328.7 607.07 335.21 600.83 338.27 595.87C342.12 589.65 346.8 579.21 346.96 562.87C347.3 563.3 347.64 563.73 347.96 564.19C350.223 567.273 352.019 570.673 353.29 574.28C363.93 541.784 361.277 506.397 345.91 475.85C333.27 450.54 302.19 426.08 262.5 424.78C211.46 423.14 181.46 462.41 178.83 465.94C178.25 466.78 177.44 468.02 176.57 469.57C174.684 472.929 173.198 476.497 172.14 480.2C160.76 518.76 160.46 532.04 160.46 532.04C160.247 546.384 162.413 560.665 166.87 574.3C168.136 570.691 169.932 567.291 172.2 564.21C172.54 563.75 172.87 563.32 173.2 562.89C173.37 579.21 178.05 589.65 181.89 595.89C184.96 600.89 191.47 607.09 204.36 619.38C211.25 625.94 219.44 631.1 229.2 642.51C230.06 643.51 230.11 643.59 232.45 646.44C249.95 667.75 258.79 678.4 262.57 678.1Z" fill="#FDF7EF"/>
<path d="M174.69 756.211C172.094 757.223 169.614 758.506 167.29 760.041C164.66 761.811 161.39 763.971 159.12 767.701C156.85 771.431 156.66 775.811 156.31 784.551C156.04 791.331 156.65 792.881 157.31 794.001C160.13 798.631 166.06 799.291 166.76 799.361C169.619 799.611 172.485 798.965 174.96 797.511C175.764 798.653 176.783 799.628 177.96 800.381C179.296 801.163 180.769 801.682 182.3 801.911C186.11 802.731 189.1 802.201 195.07 801.141C195.992 801.035 196.871 800.69 197.62 800.141C198.219 799.672 198.695 799.065 199.01 798.371C199.863 799.666 200.952 800.788 202.22 801.681C204.439 803.196 207.063 804.006 209.75 804.006C212.436 804.006 215.06 803.196 217.28 801.681C218.145 801.059 218.922 800.322 219.59 799.491C220.244 800.122 221.024 800.606 221.88 800.911C222.77 801.221 224.66 801.621 230.56 798.911C235.12 796.771 237.4 795.711 239.24 793.801C242.93 789.971 243.24 784.971 243.58 778.231C243.908 771.22 243.149 764.2 241.33 757.421C240.444 756.142 239.364 755.009 238.13 754.061C237.26 753.391 234.81 751.661 226.35 750.581C222.155 750.081 217.933 749.85 213.71 749.891C210.71 749.891 208.43 749.891 207.37 749.981C205.6 750.051 202.31 750.191 198.37 750.651C193.197 751.31 188.077 752.336 183.05 753.721C180.207 754.351 177.414 755.184 174.69 756.211Z" fill="#5A421E"/>
<path d="M345.88 756.211C348.479 757.222 350.963 758.506 353.29 760.041C355.92 761.811 359.19 763.971 361.46 767.701C363.73 771.431 363.91 775.811 364.27 784.551C364.54 791.331 363.93 792.881 363.27 794.001C360.45 798.631 354.52 799.291 353.82 799.361C350.961 799.611 348.095 798.965 345.62 797.511C344.816 798.653 343.797 799.628 342.62 800.381C341.281 801.164 339.805 801.684 338.27 801.911C334.47 802.731 331.48 802.201 325.51 801.141C324.588 801.035 323.709 800.69 322.96 800.141C322.361 799.672 321.885 799.065 321.57 798.371C320.717 799.666 319.628 800.788 318.36 801.681C316.141 803.196 313.517 804.006 310.83 804.006C308.144 804.006 305.52 803.196 303.3 801.681C302.435 801.056 301.655 800.32 300.98 799.491C300.332 800.124 299.554 800.608 298.7 800.911C297.81 801.221 295.92 801.621 290.02 798.911C285.46 796.771 283.17 795.711 281.34 793.801C277.65 789.971 277.34 784.971 277 778.231C276.672 771.221 277.428 764.202 279.24 757.421C280.134 756.145 281.216 755.012 282.45 754.061C283.32 753.391 285.77 751.661 294.23 750.581C298.425 750.081 302.647 749.85 306.87 749.891C309.87 749.891 312.14 749.891 313.21 749.981C314.98 750.051 318.27 750.191 322.21 750.651C327.358 751.295 332.454 752.301 337.46 753.661C340.325 754.305 343.14 755.157 345.88 756.211Z" fill="#5A421E"/>
<path d="M280.4 151.102C300.51 122.582 319.5 96.9117 336.82 74.2517C348.1 59.4917 365.33 37.2517 394.01 16.5517C416.56 0.241676 427.1 -1.35833 435.12 0.721674C449.83 4.54167 457.64 21.1717 463.03 35.1917C493.86 115.312 481.46 201.312 481.46 201.312C475.917 239.261 465.327 276.299 449.97 311.442" fill="url(#paint6_linear_7809_108829)"/>
<path d="M410.95 228.89C421.39 222.83 438.16 211.12 450.78 190.76C478.73 145.67 463.07 95.57 459.29 83.57C452.647 62.6413 441.507 43.4188 426.65 27.25C403.097 43.156 383.983 64.7991 371.111 90.1385C358.239 115.478 352.034 143.678 353.08 172.08" fill="#A33D2B"/>
<path d="M427.701 95.3017C416.514 98.1196 406.186 103.633 397.621 111.362C401.784 94.0175 411.73 78.6083 425.821 67.6717C420.428 68.5963 415.156 70.119 410.101 72.2117C407.711 73.2117 405.501 74.2617 403.471 75.3517C407.793 66.2497 413.378 57.8032 420.061 50.2617C412.648 52.1223 405.457 54.7742 398.611 58.1717C394.53 60.1977 390.586 62.4858 386.801 65.0217C381.856 71.5352 377.397 78.4038 373.461 85.5717C359.047 112.051 351.995 141.911 353.041 172.042L377.441 196.042C381.139 184.594 387.032 173.976 394.791 164.782C396.351 162.942 398.038 161.115 399.851 159.302C407.316 151.878 416.011 145.805 425.551 141.352C422.313 138.005 418.312 135.493 413.891 134.032C411.54 133.261 409.093 132.82 406.621 132.722C408.088 127.562 410.009 122.543 412.361 117.722C416.337 109.53 421.506 101.975 427.701 95.3017Z" fill="#F5E3C4"/>
<path d="M242.9 151.102C222.79 122.572 203.79 96.9117 186.46 74.2517C175.19 59.4917 157.95 37.2517 129.27 16.5517C106.73 0.241676 96.1897 -1.35833 88.1697 0.721674C73.4597 4.57167 65.6597 21.1717 60.2597 35.1917C29.4597 115.312 41.8797 201.312 41.8797 201.312C47.4232 239.261 58.0136 276.299 73.3697 311.442" fill="url(#paint7_linear_7809_108829)"/>
<path d="M112.35 228.89C101.91 222.83 85.1297 211.12 72.5197 190.76C44.5697 145.67 60.2297 95.57 64.0097 83.57C70.6488 62.6395 81.7896 43.4161 96.6497 27.25C120.198 43.1607 139.309 64.8048 152.18 90.143C165.051 115.481 171.259 143.679 170.22 172.08" fill="#A33D2B"/>
<path d="M95.5996 95.3017C102.232 96.982 108.587 99.609 114.47 103.102C118.467 105.478 122.219 108.245 125.67 111.362C121.514 94.0116 111.562 78.599 97.4596 67.6717C102.856 68.5949 108.132 70.1176 113.19 72.2117C115.57 73.2117 117.78 74.2617 119.81 75.3517C115.495 66.2477 109.913 57.8005 103.23 50.2617C110.642 52.1223 117.834 54.7742 124.68 58.1717C128.75 60.1988 132.685 62.4869 136.46 65.0217C141.404 71.5331 145.86 78.4019 149.79 85.5717C164.21 112.049 171.265 141.91 170.22 172.042L145.81 196.042C142.113 184.584 136.22 173.956 128.46 164.752C126.89 162.912 125.21 161.082 123.4 159.272C115.933 151.85 107.238 145.777 97.6996 141.322C100.935 137.972 104.937 135.46 109.36 134.002C111.71 133.23 114.157 132.789 116.63 132.692C112.673 118.748 105.477 105.937 95.6296 95.3017H95.5996Z" fill="#F5E3C4"/>
<path d="M261.05 124.852C309.54 128.222 342.29 145.112 358.63 155.192C372.28 163.602 429.63 198.922 449.78 260.892C454.78 276.412 457.42 293.172 472.78 309.142C488.14 325.112 507.72 331.472 522.12 334.332C518.683 338.738 514.904 342.867 510.82 346.682C506.254 350.95 501.318 354.806 496.07 358.202C499.247 358.911 502.473 359.382 505.72 359.612C509.685 359.895 513.668 359.821 517.62 359.392C504.37 380.725 485.207 397.749 462.46 408.392C471.49 409.192 480.582 407.885 489.02 404.572C485.02 407.972 479.2 412.652 472.02 417.852C444.538 437.375 413.978 452.153 381.61 461.572C331.33 476.282 290.46 486.192 261.05 485.742C234.46 486.192 190.77 476.282 140.46 461.572C108.1 452.146 77.5502 437.361 50.08 417.832C42.87 412.632 37.08 407.952 33.08 404.552C41.5163 407.886 50.613 409.211 59.65 408.422C36.9033 397.779 17.7395 380.755 4.49001 359.422C11.6934 360.206 18.9766 359.804 26.05 358.232C16.0924 351.788 7.28677 343.72 0 334.362C14.4 331.502 34 325.152 49.33 309.172C64.66 293.192 67.26 276.442 72.33 260.922C92.52 198.922 149.83 163.632 163.47 155.222C179.8 145.112 212.56 128.222 261.05 124.852Z" fill="url(#paint8_linear_7809_108829)"/>
<path d="M262.3 501.5C234.98 503.07 188.36 501.35 141.16 475.7C116.22 462.14 78.4296 442.35 71.2596 404.34C68.1296 387.78 71.8196 373.24 75.1396 364.05C83.7896 356.2 97.5796 346.32 114.46 346.58C133.01 346.86 141.52 359.38 163.97 366.96C175.16 370.74 192.07 374.21 215.33 371.04C219.363 365.341 224.317 360.352 229.99 356.28C239.498 349.526 250.662 345.479 262.29 344.57C273.918 345.462 285.086 349.495 294.6 356.24C300.272 360.312 305.226 365.301 309.26 371C332.52 374.17 349.43 370.7 360.62 366.92C383.07 359.34 391.62 346.82 410.13 346.54C427.01 346.28 440.81 356.16 449.45 364.01C452.77 373.2 456.45 387.74 453.34 404.3C446.16 442.3 408.34 462.1 383.43 475.66C336.23 501.35 289.62 503.07 262.3 501.5Z" fill="#FDF7EF"/>
<path d="M235.8 360.121C234.134 363.011 233.365 366.332 233.59 369.661C234.35 378.661 243 383.661 244.99 384.801C250.47 387.981 255.61 388.191 260.14 388.381C264.67 388.571 271.14 388.831 278.01 385.141C281.18 383.441 287.4 380.141 289.37 373.041C291.17 366.571 288.31 360.921 287.37 359.271C281.87 349.551 269.53 348.271 265.45 347.821C259.143 347.206 252.786 348.28 247.03 350.931C243.46 352.571 238.72 354.811 235.8 360.121Z" fill="url(#paint9_radial_7809_108829)"/>
<path d="M149.83 215.499C149.25 216.319 148.69 217.149 148.14 217.999C157.393 209.552 168.679 203.65 180.896 200.868C193.112 198.087 205.841 198.521 217.84 202.129C218.017 202.176 218.206 202.16 218.373 202.083C218.54 202.005 218.674 201.872 218.754 201.707C218.833 201.541 218.852 201.352 218.808 201.174C218.763 200.996 218.658 200.838 218.51 200.729C211.962 196.139 204.353 193.292 196.4 192.459C178.77 190.759 161.11 199.709 149.83 215.499Z" fill="black"/>
<path d="M312.77 201.668C315.378 199.47 318.318 197.699 321.48 196.418C324.631 195.094 327.932 194.157 331.31 193.628C334.704 193.084 338.152 192.943 341.58 193.208C343.294 193.348 345 193.578 346.69 193.898L349.21 194.458C350.04 194.658 350.88 194.828 351.7 195.088C353.34 195.588 354.99 196.028 356.57 196.678L358.95 197.578C359.73 197.928 360.51 198.268 361.28 198.628C367.236 201.716 372.754 205.584 377.69 210.128C380.133 212.368 382.251 214.94 383.98 217.768C384.027 217.851 384.04 217.948 384.015 218.04C383.991 218.132 383.932 218.21 383.85 218.258C383.79 218.298 383.721 218.319 383.65 218.319C383.578 218.319 383.509 218.298 383.45 218.258C382.18 217.258 380.96 216.168 379.73 215.138C378.5 214.108 377.3 213.068 376.03 212.138C373.542 210.171 370.885 208.427 368.09 206.928C365.293 205.5 362.374 204.322 359.37 203.408C358.62 203.198 357.89 202.948 357.15 202.728L354.89 202.158C353.41 201.728 351.89 201.508 350.36 201.228C349.605 201.089 348.844 200.988 348.08 200.928L345.79 200.698L343.46 200.568L342.32 200.498H341.17H338.89C338.12 200.498 337.36 200.498 336.6 200.498C335.07 200.498 333.54 200.558 332.01 200.648C325.85 200.908 319.7 201.648 313.01 202.378C312.961 202.384 312.912 202.38 312.865 202.366C312.818 202.353 312.774 202.33 312.736 202.299C312.698 202.268 312.666 202.23 312.643 202.187C312.619 202.144 312.605 202.097 312.6 202.048C312.589 201.976 312.6 201.901 312.63 201.834C312.66 201.767 312.708 201.709 312.77 201.668Z" fill="black"/>
<path d="M221.16 330.08C219.69 333.87 214.46 346.83 200.99 354.85C183.25 365.42 158.25 363.22 142.78 348.72C131.26 337.92 129.12 324.14 128.46 319.57C125.25 296.72 138.64 280.03 141.74 276.17C146.57 270.17 157.65 256.34 175.44 255.49C189.79 254.8 200.19 262.95 204.04 265.96C219.13 277.79 222.46 294.57 223.46 300.21C225.547 310.183 224.75 320.545 221.16 330.08Z" fill="white" stroke="black" stroke-width="5" stroke-miterlimit="10"/>
<path d="M224.57 301.739C218.71 288.509 204.79 278.019 188.82 278.589C169.57 279.269 154.41 295.779 152.4 313.999C150.53 330.939 160.14 348.539 176.23 354.849C192.32 361.159 206.63 353.099 208 352.299C224.46 342.809 232.79 320.329 224.57 301.739Z" fill="#A29795"/>
<path d="M220.35 303.709C215.21 292.089 202.98 282.879 188.96 283.379C172.06 283.979 158.73 298.469 156.96 314.469C155.32 329.359 163.76 344.809 177.89 350.349C192.02 355.889 204.59 348.809 205.79 348.109C220.22 339.779 227.58 320.029 220.35 303.709Z" fill="black"/>
<path d="M203.49 307.167C208.543 307.167 212.64 303.071 212.64 298.017C212.64 292.964 208.543 288.867 203.49 288.867C198.436 288.867 194.34 292.964 194.34 298.017C194.34 303.071 198.436 307.167 203.49 307.167Z" fill="white"/>
<path d="M301.59 330.08C303.06 333.87 308.3 346.83 321.76 354.85C339.51 365.42 364.5 363.22 379.98 348.72C391.49 337.92 393.64 324.14 394.27 319.61C397.49 296.76 384.09 280.07 381 276.21C376.17 270.21 365.08 256.38 347.29 255.53C332.94 254.84 322.54 262.99 318.7 266C303.63 277.79 300.32 294.53 299.29 300.21C297.213 310.183 298.011 320.541 301.59 330.08Z" fill="white" stroke="black" stroke-width="5" stroke-miterlimit="10"/>
<path d="M298.19 301.739C304.04 288.509 317.97 278.019 333.93 278.589C353.18 279.269 368.35 295.779 370.36 313.999C372.23 330.939 362.62 348.539 346.53 354.849C330.44 361.159 316.13 353.099 314.76 352.299C298.34 342.809 289.96 320.329 298.19 301.739Z" fill="#A29795"/>
<path d="M302.4 303.709C307.54 292.089 319.77 282.879 333.79 283.379C350.7 283.979 364.02 298.469 365.79 314.469C367.44 329.359 359 344.809 344.87 350.349C330.74 355.889 318.16 348.809 316.96 348.109C302.54 339.779 295.18 320.029 302.4 303.709Z" fill="black"/>
<path d="M319.281 307.167C324.334 307.167 328.431 303.071 328.431 298.017C328.431 292.964 324.334 288.867 319.281 288.867C314.227 288.867 310.131 292.964 310.131 298.017C310.131 303.071 314.227 307.167 319.281 307.167Z" fill="white"/>
<path d="M195.82 436.81C193.723 434.456 191.769 431.978 189.97 429.39C210.11 428.92 231.78 429.15 254.79 430.39C278.27 431.68 300.26 433.89 320.59 436.63C312.863 446.026 302.789 453.212 291.39 457.46C282.39 460.72 275.16 461.05 266.39 461.37C252.12 461.9 232.12 462.64 212.6 450.82C206.332 447.023 200.675 442.299 195.82 436.81Z" fill="white" stroke="#231F20" stroke-width="2" stroke-linecap="round" stroke-linejoin="round"/>
<path d="M207.64 438.238C209.262 439.153 210.974 439.897 212.75 440.458C214.041 440.863 215.361 441.167 216.7 441.368C218.013 443.478 219.604 445.402 221.43 447.088C222.74 448.306 224.166 449.391 225.69 450.328C225.35 447.968 225.01 445.618 224.69 443.258C225.808 443.518 226.94 443.718 228.08 443.858C230.451 444.152 232.847 444.209 235.23 444.028" stroke="#231F20" stroke-width="2" stroke-linecap="round" stroke-linejoin="round"/>
</g>
<defs>
<linearGradient id="paint0_linear_7809_108829" x1="280.1" y1="704.419" x2="536.56" y2="704.419" gradientUnits="userSpaceOnUse">
<stop offset="0.32" stop-color="#A03B28"/>
<stop offset="0.51" stop-color="#AC432B"/>
<stop offset="0.85" stop-color="#CB5732"/>
<stop offset="0.98" stop-color="#D96035"/>
</linearGradient>
<linearGradient id="paint1_linear_7809_108829" x1="97.5999" y1="672.779" x2="240.38" y2="672.779" gradientUnits="userSpaceOnUse">
<stop offset="0.32" stop-color="#A03B28"/>
<stop offset="0.51" stop-color="#AC432B"/>
<stop offset="0.85" stop-color="#CB5732"/>
<stop offset="0.98" stop-color="#D96035"/>
</linearGradient>
<linearGradient id="paint2_linear_7809_108829" x1="279.6" y1="672.779" x2="422.38" y2="672.779" gradientUnits="userSpaceOnUse">
<stop offset="0.32" stop-color="#A03B28"/>
<stop offset="0.51" stop-color="#AC432B"/>
<stop offset="0.85" stop-color="#CB5732"/>
<stop offset="0.98" stop-color="#D96035"/>
</linearGradient>
<linearGradient id="paint3_linear_7809_108829" x1="134.27" y1="594.812" x2="386.56" y2="594.812" gradientUnits="userSpaceOnUse">
<stop offset="0.32" stop-color="#A03B28"/>
<stop offset="0.51" stop-color="#AC432B"/>
<stop offset="0.85" stop-color="#CB5732"/>
<stop offset="0.98" stop-color="#D96035"/>
</linearGradient>
<linearGradient id="paint4_linear_7809_108829" x1="139.63" y1="667.951" x2="238.18" y2="667.951" gradientUnits="userSpaceOnUse">
<stop offset="0.32" stop-color="#A03B28"/>
<stop offset="0.51" stop-color="#AC432B"/>
<stop offset="0.85" stop-color="#CB5732"/>
<stop offset="0.98" stop-color="#D96035"/>
</linearGradient>
<linearGradient id="paint5_linear_7809_108829" x1="282.4" y1="664.039" x2="373.18" y2="664.039" gradientUnits="userSpaceOnUse">
<stop offset="0.32" stop-color="#A03B28"/>
<stop offset="0.51" stop-color="#AC432B"/>
<stop offset="0.85" stop-color="#CB5732"/>
<stop offset="0.98" stop-color="#D96035"/>
</linearGradient>
<linearGradient id="paint6_linear_7809_108829" x1="280.4" y1="155.722" x2="483.9" y2="155.722" gradientUnits="userSpaceOnUse">
<stop offset="0.32" stop-color="#A03B28"/>
<stop offset="0.51" stop-color="#AC432B"/>
<stop offset="0.85" stop-color="#CB5732"/>
<stop offset="0.98" stop-color="#D96035"/>
</linearGradient>
<linearGradient id="paint7_linear_7809_108829" x1="39.3997" y1="155.722" x2="242.9" y2="155.722" gradientUnits="userSpaceOnUse">
<stop offset="0.32" stop-color="#A03B28"/>
<stop offset="0.51" stop-color="#AC432B"/>
<stop offset="0.85" stop-color="#CB5732"/>
<stop offset="0.98" stop-color="#D96035"/>
</linearGradient>
<linearGradient id="paint8_linear_7809_108829" x1="0" y1="305.302" x2="522.1" y2="305.302" gradientUnits="userSpaceOnUse">
<stop offset="0.32" stop-color="#A03B28"/>
<stop offset="0.51" stop-color="#AC432B"/>
<stop offset="0.85" stop-color="#CB5732"/>
<stop offset="0.98" stop-color="#D96035"/>
</linearGradient>
<radialGradient id="paint9_radial_7809_108829" cx="0" cy="0" r="1" gradientUnits="userSpaceOnUse" gradientTransform="translate(261.4 362.475) scale(35.42 21.9604)">
<stop offset="0.01" stop-color="#414042"/>
<stop offset="0.68" stop-color="#231F20"/>
</radialGradient>
<clipPath id="clip0_7809_108829">
<rect width="536.56" height="803.99" fill="white"/>
</clipPath>
</defs>
</svg>
