<svg width="819" height="857" viewBox="0 0 819 857" fill="none" xmlns="http://www.w3.org/2000/svg">
<g clip-path="url(#clip0_7809_108506)">
<path d="M390.34 0L313.58 195.06L167.54 107.23L211.45 259.4L5.16016 281.87L170.6 394.21L55.2002 487.69L179.79 493.02L132.81 649.53L321.75 555.57L370.77 730.21L472.9 526.05L603.77 649.53L575.21 481.62L719.03 490.36L610.77 389.11L771.94 282.89L582.18 261.45L603.77 113.36L463.71 201.19L390.34 0Z" fill="#EDD9C5"/>
<path d="M321.37 47.3387L309.5 44.0687C309.265 43.9764 309.006 43.9615 308.761 44.0262C308.517 44.091 308.299 44.232 308.14 44.4287L297.32 53.7687C297.161 53.9655 296.943 54.1066 296.698 54.1719C296.453 54.2372 296.194 54.2234 295.957 54.1323C295.721 54.0413 295.519 53.8778 295.382 53.6652C295.244 53.4525 295.177 53.2017 295.19 52.9487L294.35 39.4287C294.364 39.1757 294.297 38.9248 294.159 38.7125C294.02 38.5003 293.817 38.3378 293.58 38.2487L281.58 32.0787C281.343 31.988 281.141 31.8246 281.003 31.6119C280.865 31.3993 280.798 31.1483 280.811 30.8951C280.825 30.6419 280.918 30.3994 281.077 30.2024C281.237 30.0054 281.455 29.8641 281.7 29.7987L293.64 24.7987C293.884 24.7339 294.102 24.5936 294.262 24.3979C294.422 24.2022 294.516 23.961 294.53 23.7087L297.35 10.4487C297.362 10.1942 297.455 9.95012 297.615 9.75174C297.774 9.55336 297.993 9.41101 298.239 9.34529C298.486 9.27958 298.746 9.29392 298.984 9.38622C299.221 9.47853 299.423 9.64401 299.56 9.85873L308.15 19.3587C308.289 19.5715 308.491 19.7353 308.728 19.8268C308.965 19.9183 309.225 19.933 309.47 19.8687L322.84 18.7687C323.085 18.7022 323.344 18.7149 323.581 18.8048C323.818 18.8948 324.02 19.0575 324.159 19.2696C324.298 19.4816 324.366 19.7322 324.354 19.9854C324.341 20.2385 324.249 20.4812 324.09 20.6787L317.91 32.7687C317.754 32.9675 317.663 33.21 317.651 33.4626C317.638 33.7152 317.704 33.9654 317.84 34.1787L322.84 45.5487C323.003 45.7619 323.088 46.0237 323.084 46.2917C323.079 46.5597 322.984 46.8182 322.813 47.0253C322.643 47.2325 322.408 47.3761 322.146 47.433C321.884 47.4899 321.611 47.4567 321.37 47.3387Z" fill="url(#paint0_radial_7809_108506)"/>
<path d="M135.71 268.378L123.54 266.488C123.295 266.427 123.037 266.445 122.802 266.538C122.567 266.631 122.367 266.796 122.23 267.008L112.57 277.568C112.433 277.78 112.232 277.943 111.997 278.035C111.763 278.127 111.505 278.143 111.26 278.081C111.015 278.02 110.796 277.883 110.633 277.691C110.47 277.498 110.371 277.26 110.35 277.008L107.96 263.668C107.946 263.415 107.851 263.174 107.689 262.98C107.527 262.785 107.306 262.648 107.06 262.588L94.4602 257.838C94.2142 257.775 93.9945 257.636 93.8328 257.44C93.671 257.245 93.5754 257.003 93.5599 256.749C93.5443 256.496 93.6095 256.244 93.7462 256.03C93.8828 255.816 94.0838 255.651 94.3202 255.558L105.6 249.208C105.835 249.115 106.035 248.95 106.17 248.736C106.305 248.522 106.368 248.271 106.35 248.018L107.64 234.518C107.625 234.266 107.69 234.015 107.826 233.802C107.961 233.589 108.161 233.424 108.396 233.33C108.631 233.237 108.889 233.221 109.134 233.283C109.379 233.346 109.598 233.484 109.76 233.678L119.39 242.128C119.551 242.325 119.771 242.466 120.018 242.529C120.264 242.592 120.524 242.574 120.76 242.478L133.84 239.848C134.075 239.755 134.333 239.739 134.578 239.801C134.822 239.864 135.041 240.002 135.203 240.195C135.365 240.389 135.461 240.629 135.479 240.881C135.496 241.133 135.434 241.384 135.3 241.598L130.56 254.318C130.424 254.533 130.36 254.785 130.376 255.038C130.392 255.291 130.488 255.533 130.65 255.728L136.89 266.448C137.046 266.641 137.139 266.877 137.156 267.125C137.172 267.372 137.111 267.619 136.982 267.83C136.853 268.042 136.661 268.208 136.433 268.306C136.205 268.404 135.953 268.429 135.71 268.378Z" fill="#E14B42"/>
<path d="M524.44 105.769L514.23 98.8792C514.036 98.7178 513.796 98.6221 513.545 98.606C513.293 98.5898 513.043 98.654 512.83 98.7892L499.59 104.219C499.377 104.351 499.127 104.412 498.877 104.394C498.627 104.377 498.389 104.281 498.196 104.121C498.003 103.961 497.864 103.745 497.801 103.502C497.737 103.26 497.751 103.003 497.84 102.769L501.35 89.7692C501.442 89.532 501.456 89.2719 501.392 89.026C501.327 88.7801 501.187 88.5608 500.99 88.3992L491.62 78.7392C491.422 78.5786 491.279 78.3588 491.214 78.1118C491.149 77.8648 491.165 77.6035 491.258 77.3659C491.352 77.1283 491.519 76.9268 491.735 76.7907C491.952 76.6546 492.205 76.591 492.46 76.6092L505.37 75.6792C505.623 75.693 505.874 75.6271 506.088 75.4908C506.301 75.3544 506.466 75.1545 506.56 74.9192L513.48 63.2592C513.575 63.0266 513.74 62.8295 513.953 62.6958C514.166 62.5621 514.415 62.4985 514.665 62.514C514.916 62.5295 515.156 62.6232 515.35 62.782C515.545 62.9408 515.685 63.1567 515.75 63.3992L520.84 75.1092C520.905 75.3534 521.045 75.5709 521.241 75.7307C521.437 75.8906 521.678 75.9845 521.93 75.9992L534.93 79.2092C535.183 79.2249 535.424 79.3202 535.62 79.4816C535.815 79.6429 535.955 79.8619 536.018 80.1072C536.081 80.3525 536.065 80.6116 535.972 80.8473C535.879 81.0829 535.714 81.2831 535.5 81.4192L525.84 90.8992C525.626 91.0365 525.46 91.238 525.366 91.475C525.273 91.712 525.257 91.9724 525.32 92.2192L526.39 104.579C526.45 104.826 526.429 105.085 526.332 105.32C526.235 105.555 526.065 105.752 525.849 105.884C525.632 106.017 525.379 106.077 525.126 106.056C524.873 106.035 524.633 105.935 524.44 105.769Z" fill="#905992"/>
<path d="M770.081 232.958L759.841 226.068C759.647 225.907 759.407 225.811 759.155 225.795C758.904 225.779 758.653 225.843 758.441 225.978L745.201 231.408C744.987 231.543 744.736 231.608 744.484 231.592C744.231 231.576 743.991 231.481 743.795 231.32C743.6 231.16 743.461 230.941 743.397 230.697C743.333 230.452 743.349 230.194 743.441 229.958L746.951 216.878C747.046 216.642 747.064 216.382 747.001 216.135C746.938 215.889 746.798 215.669 746.601 215.508L737.231 205.848C737.032 205.687 736.89 205.468 736.825 205.221C736.76 204.974 736.775 204.712 736.869 204.475C736.963 204.237 737.13 204.036 737.346 203.9C737.562 203.763 737.816 203.7 738.071 203.718L750.981 202.788C751.234 202.802 751.484 202.736 751.698 202.6C751.911 202.463 752.077 202.263 752.171 202.028L759.081 190.368C759.173 190.132 759.338 189.931 759.552 189.794C759.766 189.657 760.018 189.592 760.272 189.608C760.525 189.623 760.767 189.719 760.963 189.881C761.158 190.042 761.298 190.262 761.361 190.508L766.471 202.258C766.532 202.505 766.671 202.725 766.867 202.887C767.064 203.049 767.306 203.144 767.561 203.158L780.561 206.368C780.813 206.384 781.055 206.479 781.25 206.64C781.446 206.802 781.585 207.021 781.648 207.266C781.711 207.511 781.695 207.77 781.602 208.006C781.509 208.242 781.344 208.442 781.131 208.578L771.421 218.058C771.206 218.195 771.04 218.397 770.947 218.634C770.853 218.871 770.837 219.131 770.901 219.378L772.001 231.768C772.052 232.01 772.028 232.262 771.931 232.489C771.834 232.716 771.669 232.908 771.459 233.038C771.249 233.169 771.004 233.231 770.757 233.216C770.51 233.202 770.274 233.112 770.081 232.958Z" fill="#5CA5A2"/>
<path d="M807.31 462.979L797.11 456.089C796.915 455.926 796.673 455.83 796.42 455.814C796.166 455.798 795.914 455.862 795.7 455.999L782.46 461.428C782.246 461.564 781.996 461.628 781.743 461.612C781.491 461.597 781.25 461.502 781.055 461.341C780.86 461.18 780.72 460.962 780.657 460.717C780.593 460.473 780.608 460.214 780.7 459.979L784.22 446.899C784.313 446.662 784.329 446.403 784.266 446.157C784.203 445.911 784.065 445.691 783.87 445.529L774.49 435.868C774.298 435.705 774.162 435.485 774.101 435.241C774.039 434.996 774.056 434.738 774.149 434.503C774.241 434.269 774.405 434.069 774.617 433.932C774.829 433.794 775.078 433.727 775.33 433.738L788.24 432.769C788.494 432.783 788.747 432.717 788.962 432.581C789.177 432.445 789.344 432.245 789.44 432.009L796.35 420.349C796.443 420.112 796.608 419.911 796.822 419.774C797.036 419.638 797.288 419.573 797.541 419.588C797.794 419.604 798.036 419.699 798.232 419.861C798.428 420.023 798.567 420.243 798.63 420.489L803.73 432.249C803.795 432.493 803.935 432.71 804.131 432.87C804.327 433.03 804.568 433.124 804.82 433.139L817.82 436.349C818.073 436.364 818.314 436.46 818.51 436.621C818.705 436.782 818.844 437.001 818.908 437.247C818.971 437.492 818.955 437.751 818.862 437.987C818.769 438.222 818.604 438.422 818.39 438.559L808.68 448.049C808.465 448.183 808.299 448.383 808.205 448.618C808.112 448.854 808.096 449.113 808.16 449.359L809.24 461.769C809.3 462.013 809.281 462.271 809.186 462.505C809.091 462.738 808.925 462.936 808.712 463.07C808.498 463.204 808.248 463.267 807.996 463.251C807.744 463.234 807.504 463.139 807.31 462.979Z" fill="#689959"/>
<path d="M270.92 667.769L258.84 665.469C258.597 665.396 258.337 665.402 258.098 665.486C257.858 665.571 257.652 665.73 257.51 665.939L247.46 676.129C247.316 676.339 247.11 676.498 246.871 676.583C246.632 676.668 246.371 676.674 246.128 676.602C245.885 676.53 245.67 676.382 245.516 676.181C245.362 675.979 245.276 675.733 245.27 675.479L243.38 662.059C243.372 661.806 243.284 661.562 243.13 661.361C242.976 661.16 242.762 661.013 242.52 660.939L230.1 655.769C229.857 655.697 229.644 655.55 229.49 655.349C229.337 655.148 229.25 654.904 229.244 654.651C229.237 654.398 229.31 654.15 229.453 653.941C229.596 653.733 229.802 653.574 230.04 653.489L241.55 647.569C241.788 647.485 241.994 647.328 242.138 647.119C242.282 646.911 242.356 646.662 242.35 646.409L244.14 632.969C244.134 632.717 244.208 632.469 244.352 632.261C244.496 632.052 244.701 631.895 244.94 631.811C245.178 631.727 245.437 631.72 245.679 631.791C245.922 631.863 246.135 632.009 246.29 632.209L255.6 641.019C255.754 641.22 255.968 641.366 256.21 641.438C256.452 641.51 256.711 641.504 256.95 641.419L270.17 639.279C270.409 639.195 270.668 639.188 270.911 639.26C271.154 639.332 271.368 639.479 271.522 639.68C271.676 639.881 271.763 640.125 271.77 640.378C271.777 640.632 271.703 640.881 271.56 641.089L266.34 653.569C266.19 653.774 266.108 654.021 266.108 654.274C266.108 654.528 266.19 654.775 266.34 654.979L272.17 665.929C272.303 666.128 272.373 666.362 272.372 666.601C272.371 666.84 272.299 667.073 272.165 667.271C272.03 667.468 271.84 667.621 271.618 667.71C271.397 667.799 271.153 667.82 270.92 667.769Z" fill="#CAA973"/>
<path d="M680.72 407.82L761.5 420.09C761.785 420.507 761.985 420.975 762.089 421.469C762.193 421.962 762.199 422.472 762.106 422.968C762.013 423.463 761.824 423.936 761.548 424.359C761.272 424.781 760.916 425.145 760.5 425.43L759.89 425.84L680.72 407.82Z" fill="#EDD9C5"/>
<path d="M166.27 218.77L118.27 152.64C118.37 152.145 118.566 151.675 118.848 151.257C119.13 150.838 119.492 150.48 119.913 150.201C120.333 149.922 120.805 149.729 121.3 149.633C121.796 149.537 122.305 149.539 122.8 149.64L123.51 149.78L166.27 218.77Z" fill="#EDD9C5"/>
<path d="M649.99 386.43L800.28 365.18C801.744 366.383 802.672 368.117 802.859 370.003C803.046 371.889 802.479 373.772 801.28 375.24L800.42 376.3L649.99 386.43Z" fill="#EDD9C5"/>
<path d="M172.6 255.77L51.9603 163.67C51.8735 162.735 51.9718 161.792 52.2495 160.895C52.5272 159.997 52.9789 159.164 53.5788 158.441C54.1787 157.719 54.915 157.122 55.7457 156.684C56.5764 156.246 57.4852 155.976 58.4203 155.89L59.7703 155.77L172.6 255.77Z" fill="#EDD9C5"/>
<path d="M428.99 697.28C468.85 693.19 555.92 678.59 624.31 614.56C646.9 593.4 678.14 563.3 683.31 516.56C685.153 498.765 683.245 480.782 677.71 463.77L676.41 465.25C671.469 470.829 665.794 475.714 659.54 479.77C651.995 484.629 643.72 488.248 635.03 490.49C630.77 491.67 584.58 504.42 556.14 530.32C539.86 545.15 547.14 548.12 514.78 590.83C508.51 599.1 499.02 611.56 485.67 626.07C468.85 644.317 450.389 660.98 430.52 675.85" fill="url(#paint1_linear_7809_108506)"/>
<path d="M574.521 530.558C583.081 535.798 594.521 523.558 604.141 529.558C614.501 535.968 607.501 554.098 618.441 561.218C627.821 567.318 638.781 557.748 644.991 563.768C651.201 569.788 642.811 582.328 645.861 593.098C663.181 574.018 679.671 549.388 683.291 516.528C685.134 498.734 683.226 480.75 677.691 463.738L676.391 465.218C671.457 470.807 665.789 475.702 659.541 479.768C651.996 484.628 643.721 488.247 635.031 490.488C631.341 491.488 596.211 501.218 568.391 520.618C569.511 525.118 571.521 528.768 574.521 530.558Z" fill="#FDF7EF"/>
<path d="M423.52 664.06C445.84 697.37 499.44 767.49 588.04 797.95C617.31 808.02 658.53 821.53 702.28 804.18C718.859 797.484 733.849 787.383 746.28 774.53L744.37 774.07C737.119 772.327 730.139 769.609 723.62 765.99C715.774 761.602 708.684 755.984 702.62 749.35C699.62 746.14 666.7 711.29 630.5 698.27C609.78 690.82 610.56 698.65 557.67 690.04C542.634 687.7 527.725 684.606 513 680.77C488.998 674.454 465.63 665.941 443.19 655.34" fill="url(#paint2_linear_7809_108506)"/>
<path d="M638.969 714.641C638.339 724.641 654.489 729.071 653.729 740.331C652.919 752.491 633.609 754.791 632.449 767.791C631.449 778.931 645.029 784.141 642.619 792.451C640.209 800.761 625.189 799.211 617.109 806.941C642.109 813.321 671.549 816.371 702.279 804.181C718.859 797.485 733.849 787.384 746.279 774.531L744.369 774.071C737.119 772.328 730.139 769.61 723.619 765.991C715.774 761.603 708.684 755.985 702.619 749.351C699.999 746.571 674.979 720.061 644.809 704.551C641.429 707.671 639.189 711.121 638.969 714.641Z" fill="#FDF7EF"/>
<path d="M429.96 669.771C465.5 688.271 546.25 723.971 638.58 708.101C669.09 702.851 711.73 694.891 741.76 658.651C753.093 644.807 761.393 628.737 766.12 611.481L764.23 612.001C757.034 613.952 749.606 614.921 742.15 614.881C733.175 614.788 724.273 613.262 715.78 610.361C711.58 609.001 665.98 594.251 627.98 600.241C606.24 603.661 610.68 610.151 560.16 628.031C545.83 633.232 531.249 637.711 516.47 641.451C492.387 647.445 467.803 651.211 443.03 652.701" fill="url(#paint3_linear_7809_108506)"/>
<path d="M643.2 610.541C647.46 619.621 663.74 615.731 668.5 625.971C673.63 637.031 657.8 648.321 663.03 660.281C667.51 670.531 681.92 668.571 683.8 677.021C685.68 685.471 671.8 691.321 668.4 702.021C693.4 695.611 720.67 684.111 741.76 658.661C753.094 644.817 761.393 628.746 766.12 611.491L764.23 612.011C757.034 613.962 749.606 614.931 742.15 614.891C733.175 614.798 724.273 613.272 715.78 610.371C712.14 609.191 677.46 597.971 643.55 598.881C642.01 603.241 641.7 607.351 643.2 610.541Z" fill="#FDF7EF"/>
<path d="M338.78 794.77C347.47 798.35 353.25 804.43 354.61 809.77C355.16 812.111 355.332 814.524 355.12 816.92C354.959 818.998 354.378 821.023 353.41 822.87C351.05 826.87 345.94 827.42 341.33 828.49C339.98 828.8 343.71 827.99 322.95 835.98C293.88 847.16 297.95 844.37 287.88 848.92C281.848 851.484 275.651 853.642 269.33 855.38C264.33 856.79 259.72 857.83 255.54 855.55C254.109 854.757 252.859 853.674 251.87 852.37C248.658 852.719 245.418 852.047 242.61 850.45C240.631 849.495 239.059 847.863 238.18 845.85C237.622 844.306 237.542 842.63 237.95 841.04C236.737 840.008 235.819 838.672 235.29 837.17C234.96 836.17 234.46 834.17 235.8 830.17C237.55 825.3 240.677 821.045 244.8 817.92C245.63 817.29 248.58 815.14 255.01 812.98C262.21 810.56 267.34 810.28 273.01 809.58C280.197 808.677 287.31 807.254 294.29 805.32" fill="#5A421E"/>
<path d="M313.42 666.901C309.42 665.811 285.94 659.751 264.91 673.791C247.07 685.701 242.52 704.401 240.14 714.131C234.01 739.291 242.21 759.781 244.99 766.471C248.29 774.391 256.99 794.471 278.99 806.811C290.64 813.159 303.724 816.413 316.99 816.261C326.16 816.141 336.83 816.001 346.87 808.601C356.62 801.411 360.33 791.371 361.68 786.901" fill="url(#paint4_radial_7809_108506)"/>
<path d="M438.58 794.77C429.89 798.35 424.11 804.43 422.75 809.77C422.194 812.11 422.022 814.524 422.24 816.92C422.401 818.997 422.979 821.02 423.94 822.87C426.31 826.87 431.41 827.42 436.03 828.49C437.38 828.8 433.64 827.99 454.41 835.98C483.47 847.16 479.41 844.37 489.47 848.92C495.506 851.483 501.706 853.641 508.03 855.38C513.03 856.79 517.63 857.83 521.81 855.55C523.242 854.754 524.495 853.672 525.49 852.37C528.701 852.717 531.941 852.046 534.75 850.45C536.726 849.495 538.294 847.862 539.17 845.85C539.738 844.308 539.819 842.628 539.4 841.04C540.619 840.011 541.541 838.675 542.07 837.17C542.39 836.17 542.89 834.17 541.56 830.17C539.81 825.3 536.683 821.045 532.56 817.92C531.72 817.29 528.77 815.14 522.34 812.98C515.15 810.56 510.02 810.28 504.34 809.58C497.152 808.676 490.04 807.253 483.06 805.32" fill="#5A421E"/>
<path d="M459.17 666.901C463.17 665.811 486.66 659.751 507.69 673.791C525.52 685.701 530.08 704.401 532.45 714.131C538.58 739.291 530.39 759.781 527.6 766.471C524.3 774.391 515.6 794.471 493.6 806.811C481.951 813.163 468.867 816.417 455.6 816.261C446.44 816.141 435.76 816.001 425.73 808.601C415.98 801.411 412.26 791.371 410.92 786.901" fill="url(#paint5_radial_7809_108506)"/>
<path d="M387.84 811.102C400.844 811.481 413.785 809.152 425.84 804.262C463.65 788.702 478.01 752.362 482.52 740.942C496.34 705.942 490.3 674.452 487.11 661.792L483.28 646.572C481.673 630.985 480.227 615.122 478.94 598.982C475.13 550.932 473.16 504.822 472.63 460.902C461.466 450.048 448.156 441.652 433.553 436.251C418.95 430.85 403.379 428.564 387.84 429.542C372.301 428.561 356.729 430.845 342.125 436.246C327.522 441.647 314.211 450.046 303.05 460.902C302.51 504.822 300.55 550.902 296.73 598.982C295.45 615.108 294.007 630.972 292.4 646.572L288.56 661.772C285.38 674.432 279.34 705.942 293.16 740.922C297.67 752.342 312.03 788.682 349.84 804.242C361.892 809.144 374.834 811.481 387.84 811.102Z" fill="url(#paint6_linear_7809_108506)"/>
<path d="M385.72 637.07C377.25 620.54 367.72 610.4 360.31 604.07C355.23 599.74 347.37 593.98 337.07 583.13C329.91 575.58 327.22 571.53 325.33 567.05C323.028 561.509 321.94 555.538 322.14 549.54C321.432 550.84 320.792 552.175 320.22 553.54C319.387 555.513 318.692 557.541 318.14 559.61C314.202 546.857 312.656 533.486 313.58 520.17C314.17 512.06 315.14 498.51 321.75 487.17C337.02 460.96 375.21 458.69 385.75 458.57C396.24 458.69 434.46 460.95 449.75 487.17C456.36 498.53 457.33 512.08 457.92 520.17C458.846 533.485 457.303 546.856 453.37 559.61C452.815 557.541 452.116 555.513 451.28 553.54C450.708 552.175 450.067 550.84 449.36 549.54C449.56 555.538 448.472 561.509 446.17 567.05C444.28 571.53 441.59 575.58 434.43 583.13C424.13 593.98 416.27 599.74 411.19 604.07C403.75 610.4 394.2 620.54 385.72 637.07Z" fill="#FDF7EF"/>
<path d="M392.45 230.919C407.88 209.029 422.45 189.329 435.76 171.919C444.41 160.599 457.64 143.559 479.65 127.639C496.95 115.119 505.04 113.889 511.2 115.489C522.49 118.419 528.48 131.179 532.62 141.939C556.28 203.429 546.73 269.439 546.73 269.439C542.476 298.564 534.347 326.989 522.56 353.959" fill="url(#paint7_linear_7809_108506)"/>
<path d="M492.65 290.62C505.087 283.523 515.586 273.474 523.22 261.36C544.67 226.75 532.65 188.36 529.75 179.06C524.653 162.996 516.1 148.244 504.69 135.84C486.619 148.051 471.953 164.662 462.076 184.108C452.198 203.554 447.433 225.194 448.23 246.99" fill="#785925"/>
<path d="M505.5 188.098C500.409 189.396 495.529 191.416 491.01 194.098C487.945 195.923 485.068 198.047 482.42 200.438C485.618 187.129 493.25 175.304 504.06 166.908C499.921 167.62 495.873 168.787 491.99 170.388C490.258 171.109 488.562 171.917 486.91 172.808C488.757 168.897 490.918 165.141 493.37 161.578C495.292 158.784 497.386 156.112 499.64 153.578C493.952 155.005 488.434 157.04 483.18 159.648C480.045 161.201 477.016 162.958 474.11 164.908C470.328 169.907 466.919 175.178 463.91 180.678C452.846 200.999 447.432 223.914 448.23 247.038L466.96 265.438C469.799 256.649 474.324 248.497 480.28 241.438C481.48 240.018 482.774 238.615 484.16 237.228C489.873 231.522 496.531 226.849 503.84 223.418C501.356 220.846 498.285 218.914 494.89 217.788C493.087 217.207 491.213 216.871 489.32 216.788C492.357 206.084 497.888 196.251 505.46 188.098H505.5Z" fill="#F5E3C4"/>
<path d="M370.64 230.919C355.2 209.029 340.64 189.329 327.33 171.919C318.67 160.599 305.45 143.559 283.44 127.639C266.13 115.119 258.04 113.889 251.89 115.489C240.6 118.419 234.6 131.179 230.46 141.939C206.8 203.429 216.35 269.439 216.35 269.439C220.609 298.563 228.737 326.987 240.52 353.959" fill="url(#paint8_linear_7809_108506)"/>
<path d="M270.44 290.62C257.99 283.529 247.48 273.48 239.84 261.36C218.39 226.75 230.41 188.36 233.31 179.06C238.404 162.997 246.954 148.245 258.36 135.84C276.439 148.045 291.111 164.654 300.993 184.101C310.875 203.548 315.64 225.191 314.84 246.99" fill="#785925"/>
<path d="M257.579 188.101C262.672 189.396 267.552 191.417 272.069 194.101C275.14 195.923 278.02 198.047 280.669 200.441C277.472 187.129 269.836 175.303 259.019 166.911C265.023 167.929 270.819 169.922 276.179 172.811C272.863 165.824 268.578 159.34 263.449 153.551C269.138 154.978 274.656 157.013 279.909 159.621C283.04 161.176 286.066 162.933 288.969 164.881C292.759 169.877 296.171 175.148 299.179 180.651C310.239 200.965 315.647 223.875 314.839 246.991L296.109 265.391C293.276 256.601 288.755 248.449 282.799 241.391C281.599 239.971 280.306 238.567 278.919 237.181C273.188 231.484 266.513 226.825 259.189 223.411C261.676 220.841 264.746 218.91 268.139 217.781C269.946 217.2 271.823 216.864 273.719 216.781C270.684 206.074 265.148 196.241 257.569 188.091L257.579 188.101Z" fill="#F5E3C4"/>
<path d="M384.56 210.77C421.78 213.36 446.92 226.33 459.46 234.06C469.93 240.51 513.91 267.62 529.46 315.19C533.34 327.09 535.33 339.96 547.1 352.19C558.87 364.42 573.91 369.33 584.97 371.52C579.368 378.695 572.609 384.887 564.97 389.84C567.409 390.386 569.886 390.747 572.38 390.92C575.426 391.142 578.485 391.085 581.52 390.75C571.347 407.129 556.639 420.204 539.18 428.39C543.29 428.741 547.428 428.529 551.48 427.76C554.248 427.233 556.96 426.447 559.58 425.41C556.48 428.02 552.04 431.62 546.51 435.6C525.431 450.591 501.985 461.939 477.15 469.17C438.55 480.46 407.15 488.07 384.62 487.73C364.19 488.07 330.68 480.47 292.08 469.17C267.242 461.938 243.793 450.59 222.71 435.6C217.18 431.6 212.71 428.02 209.65 425.41C212.27 426.447 214.982 427.233 217.75 427.76C221.799 428.529 225.934 428.741 230.04 428.39C212.571 420.214 197.85 407.146 187.66 390.77C190.695 391.105 193.755 391.162 196.8 390.94C199.291 390.767 201.764 390.406 204.2 389.86C196.564 384.904 189.805 378.713 184.2 371.54C195.25 369.35 210.3 364.47 222.06 352.21C233.82 339.95 235.82 327.08 239.7 315.21C255.2 267.64 299.19 240.53 309.7 234.08C322.21 226.33 347.35 213.36 384.56 210.77Z" fill="url(#paint9_linear_7809_108506)"/>
<path d="M388.61 293.41C394.34 293.64 411.93 294.96 427.55 308.09C432.596 312.345 436.931 317.378 440.39 323C466.39 319.95 485.39 324.9 495.98 328.64C501.98 330.74 508.21 333.01 515.38 338.05C518.38 340.16 538.48 354.73 543.64 381.28C547.17 399.46 541.88 413.92 537.85 424.51C525.73 456.36 502.2 474.31 490.85 482.73C451.05 512.29 407.85 515.73 388.59 516.1C369.37 515.78 326.14 512.3 286.33 482.73C275 474.31 251.47 456.36 239.33 424.51C235.33 413.92 230.01 399.46 233.54 381.28C238.74 354.77 258.84 340.16 261.84 338.05C269.02 333.05 275.28 330.74 281.24 328.64C291.81 324.9 310.88 319.95 336.84 323C340.292 317.376 344.623 312.342 349.67 308.09C365.29 294.97 382.84 293.65 388.61 293.41Z" fill="#FDF7EF"/>
<path d="M365.19 313.351C363.911 315.566 363.319 318.11 363.49 320.662C364.07 327.552 370.71 331.401 372.24 332.291C376.45 334.731 380.39 334.892 383.87 335.032C387.35 335.172 392.32 335.381 397.58 332.551C400.02 331.241 404.79 328.671 406.3 323.261C407.177 319.673 406.629 315.884 404.77 312.692C400.55 305.232 391.07 304.231 387.94 303.901C383.111 303.441 378.247 304.266 373.84 306.291C371.08 307.561 367.43 309.271 365.19 313.351Z" fill="url(#paint10_radial_7809_108506)"/>
<path d="M385.84 334.77C361.53 335.02 344.52 350.4 338.11 356.2C333.55 360.33 302.53 389.25 308.23 426.42C308.94 431.05 311.99 450.89 327.89 462.67C333.49 466.82 338.52 468.37 346.79 470.84C362.106 475.326 378.098 477.057 394.02 475.95C407.58 475.1 425.16 474.01 443.3 463.18C449.73 459.34 456.95 454.91 461.94 446.08C467.84 435.62 467.08 425.25 466.28 415.95C464.2 391.95 452.43 374.8 447.13 367.95C442.34 361.76 431.82 348.51 412.91 340.63C407.84 338.51 398.28 334.61 385.84 334.77Z" fill="#5B4019"/>
<path d="M367.14 488.999C382.391 494.795 399.313 494.328 414.22 487.699C398.409 489.986 382.378 490.345 366.48 488.769L367.14 488.999Z" fill="#231F20"/>
<path d="M388.39 440.17C381.55 440.35 371.95 440.6 364.39 433.66C355.76 425.74 356.01 414.12 356.1 410.05C356.29 400.82 360.15 388.47 368.29 384.77C369.844 384.127 371.441 383.592 373.07 383.17C377.414 381.959 381.9 381.337 386.41 381.32C391.93 381.32 397.56 381.32 403.46 384.76C406.798 386.72 409.671 389.382 411.88 392.56C415.456 397.541 417.537 403.438 417.88 409.56C418.16 413.56 418.96 425.03 410.95 433.04C404.2 439.77 395.24 440 388.39 440.17Z" fill="#231F20"/>
<path d="M428.99 427.409C411.19 419.839 394.78 426.189 388.1 429.559C370.56 420.149 349.28 422.559 335.29 435.319C328.815 441.27 324.261 449.017 322.21 457.569C323.941 459.429 325.839 461.126 327.88 462.639C333.48 466.789 338.51 468.339 346.78 470.809C362.097 475.295 378.088 477.025 394.01 475.919C407.57 475.069 425.15 473.979 443.29 463.149C447.399 460.854 451.253 458.133 454.79 455.029C452.621 448.897 449.211 443.28 444.771 438.527C440.332 433.775 434.959 429.99 428.99 427.409Z" fill="#B76C6C"/>
<path d="M372.99 381.939C372.9 383.199 375.99 383.329 379.34 386.939C380.64 388.329 383.34 391.259 383.16 394.739C382.97 397.879 380.5 398.119 379.58 402.269C379.25 403.789 378.58 406.919 380.35 409.799C381.139 411.043 382.234 412.063 383.529 412.763C384.825 413.463 386.278 413.82 387.75 413.799C388.881 413.792 389.998 413.55 391.031 413.088C392.064 412.627 392.99 411.957 393.75 411.119C396.18 408.189 395.28 404.119 394.9 402.439C394.16 399.059 392.85 398.959 392.22 395.669C392.06 394.789 391.33 390.749 393.37 387.669C396.06 383.569 401.56 384.099 401.58 382.669C401.58 381.029 394.8 379.159 387.88 378.919C380.96 378.679 373.13 379.969 372.99 381.939Z" fill="#5B4019"/>
<path d="M270.26 585.95C280.58 585.68 290.52 580.5 295.49 572.67C296.15 571.67 296.74 570.52 298.63 565.11C301.959 555.761 304.688 546.208 306.8 536.51C311.52 512.88 310.17 482.78 309.8 475.86C310.005 475.188 310.123 474.492 310.15 473.79C310.25 470.37 308.05 468.63 304.44 462.79C302.14 459.08 300.98 457.2 299.93 454.28C298.18 449.37 298.99 447.72 296.87 444.58C295.477 442.331 293.361 440.621 290.87 439.73C288.765 439.084 286.514 439.084 284.41 439.73C284.079 437.931 283.229 436.267 281.963 434.945C280.698 433.623 279.074 432.701 277.291 432.291C275.507 431.882 273.643 432.003 271.928 432.641C270.213 433.279 268.722 434.405 267.64 435.88C267.375 434.938 266.877 434.077 266.19 433.38C265.497 432.766 264.687 432.298 263.809 432.004C262.931 431.71 262.003 431.597 261.08 431.67C256.51 432.02 252.86 438.24 251.55 442.91C248.76 452.84 254.76 462.19 257.68 466.74C261.108 472.045 265.587 476.592 270.84 480.1C263.27 493.05 257.25 504.28 252.74 513.04C242.81 532.31 240.45 539.04 239.8 547.59C239.28 554.49 238.37 566.59 246.61 576.01C251.254 581.109 257.497 584.474 264.31 585.55C266.276 585.868 268.268 586.002 270.26 585.95Z" fill="url(#paint11_linear_7809_108506)"/>
<path d="M502.41 585.95C492.09 585.68 482.15 580.5 477.18 572.67C476.52 571.67 475.93 570.52 474.04 565.11C470.71 555.761 467.981 546.208 465.87 536.51C461.15 512.88 462.5 482.78 462.87 475.86C462.664 475.188 462.546 474.492 462.52 473.79C462.42 470.37 464.62 468.63 468.23 462.79C470.53 459.08 471.69 457.2 472.74 454.28C474.49 449.37 473.68 447.72 475.8 444.58C477.193 442.331 479.308 440.621 481.8 439.73C483.905 439.084 486.155 439.084 488.26 439.73C488.59 437.931 489.441 436.267 490.706 434.945C491.971 433.623 493.595 432.701 495.379 432.291C497.162 431.882 499.026 432.003 500.741 432.641C502.456 433.279 503.947 434.405 505.03 435.88C505.294 434.938 505.793 434.077 506.48 433.38C507.173 432.766 507.982 432.298 508.86 432.004C509.738 431.71 510.667 431.597 511.59 431.67C516.16 432.02 519.81 438.24 521.12 442.91C523.91 452.84 517.91 462.19 514.99 466.74C511.561 472.045 507.083 476.592 501.83 480.1C509.4 493.05 515.42 504.28 519.93 513.04C529.86 532.31 532.22 539.04 532.87 547.59C533.39 554.49 534.3 566.59 526.06 576.01C521.415 581.109 515.172 584.474 508.36 585.55C506.393 585.868 504.401 586.002 502.41 585.95Z" fill="url(#paint12_linear_7809_108506)"/>
<path d="M482.93 337.989L463.56 324.899C463.19 324.592 462.733 324.41 462.253 324.379C461.773 324.348 461.296 324.471 460.89 324.729L435.76 335.049C435.354 335.31 434.875 335.434 434.394 335.406C433.912 335.377 433.452 335.196 433.08 334.889C432.707 334.583 432.442 334.166 432.321 333.698C432.201 333.231 432.232 332.738 432.41 332.289L439.09 307.449C439.27 307.003 439.303 306.512 439.184 306.046C439.065 305.58 438.801 305.165 438.43 304.859L420.63 286.509C420.272 286.199 420.02 285.784 419.908 285.324C419.796 284.864 419.831 284.38 420.007 283.94C420.183 283.5 420.491 283.126 420.89 282.869C421.288 282.613 421.757 282.487 422.23 282.509L446.74 280.729C447.219 280.759 447.696 280.637 448.102 280.38C448.507 280.123 448.822 279.745 449 279.299L462.12 257.159C462.297 256.711 462.611 256.33 463.017 256.071C463.424 255.812 463.902 255.689 464.383 255.719C464.864 255.749 465.323 255.931 465.695 256.238C466.066 256.545 466.33 256.962 466.45 257.429L476.15 279.739C476.268 280.206 476.531 280.623 476.901 280.93C477.271 281.237 477.73 281.419 478.21 281.449L502.89 287.539C503.371 287.566 503.831 287.745 504.204 288.05C504.577 288.356 504.842 288.772 504.963 289.239C505.083 289.706 505.052 290.199 504.873 290.646C504.695 291.094 504.378 291.473 503.97 291.729L485.54 309.729C485.13 309.984 484.812 310.363 484.633 310.811C484.453 311.258 484.42 311.752 484.54 312.219L486.54 335.689C486.64 336.145 486.597 336.621 486.418 337.052C486.239 337.483 485.931 337.848 485.538 338.099C485.144 338.35 484.683 338.474 484.217 338.454C483.75 338.434 483.301 338.272 482.93 337.989Z" fill="#F5CB53" stroke="black" stroke-width="3" stroke-miterlimit="10"/>
<path d="M328.04 337.992L308.67 324.902C308.301 324.594 307.843 324.412 307.363 324.382C306.883 324.351 306.406 324.474 306 324.732L280.84 335.052C280.434 335.308 279.957 335.43 279.478 335.399C278.998 335.369 278.541 335.187 278.171 334.881C277.8 334.575 277.536 334.16 277.416 333.695C277.295 333.23 277.325 332.739 277.5 332.292L284.18 307.452C284.356 307.005 284.385 306.513 284.265 306.048C284.145 305.583 283.881 305.168 283.51 304.862L265.72 286.512C265.363 286.202 265.111 285.789 264.999 285.329C264.887 284.87 264.921 284.387 265.096 283.948C265.27 283.508 265.577 283.134 265.974 282.877C266.371 282.619 266.838 282.492 267.31 282.512L291.84 280.702C292.32 280.732 292.796 280.61 293.202 280.353C293.608 280.096 293.922 279.718 294.1 279.272L307.22 257.132C307.397 256.683 307.711 256.302 308.118 256.044C308.524 255.785 309.002 255.662 309.483 255.692C309.964 255.722 310.424 255.904 310.795 256.211C311.166 256.518 311.431 256.935 311.55 257.402L321.25 279.712C321.368 280.178 321.631 280.595 322.001 280.903C322.372 281.21 322.83 281.392 323.31 281.422L347.99 287.512C348.471 287.538 348.932 287.717 349.304 288.023C349.677 288.329 349.943 288.745 350.063 289.212C350.183 289.678 350.152 290.171 349.973 290.619C349.795 291.067 349.479 291.446 349.07 291.702L330.64 309.702C330.232 309.958 329.915 310.337 329.735 310.784C329.555 311.231 329.522 311.724 329.64 312.192L331.64 335.662C331.746 336.118 331.708 336.597 331.532 337.031C331.357 337.465 331.051 337.835 330.658 338.09C330.264 338.345 329.802 338.472 329.333 338.454C328.865 338.437 328.414 338.275 328.04 337.992Z" fill="#F5CB53" stroke="black" stroke-width="3" stroke-miterlimit="10"/>
<path d="M546.23 534.851C560.312 535.944 573.986 540.094 586.3 547.011C611.38 561.161 623 582.681 627.3 592.011L626.15 590.641C604.211 564.378 575.212 544.946 542.58 534.641C543.67 534.671 544.9 534.771 546.23 534.851Z" fill="white"/>
<path d="M616.59 647.599C615.86 646.009 615.12 644.519 614.41 643.109C621.369 670.36 622.795 698.729 618.604 726.54C614.413 754.351 604.69 781.04 590.01 805.029C602.55 791.809 627.1 760.749 629.75 715.129C631.018 691.877 626.496 668.674 616.59 647.599Z" fill="white"/>
<path d="M624.57 527.622C645.17 544.322 670.34 571.742 683.19 612.702C701.46 670.922 683.87 721.632 670.41 748.702C680.25 720.332 692.06 667.962 672.62 608.822C662.073 577.046 644.245 548.175 620.56 524.512C621.873 525.492 623.21 526.528 624.57 527.622Z" fill="white"/>
<path d="M155.48 349.84C149.01 356.7 137.27 372.09 136.78 394.52C136.23 419.28 149.78 436.08 155.45 442.13C147.811 427.568 143.968 411.316 144.276 394.875C144.583 378.434 149.032 362.336 157.21 348.07C156.69 348.58 156.11 349.17 155.48 349.84Z" fill="white"/>
<path d="M125.399 331.963C126.189 331.053 126.939 330.243 127.609 329.523C116.376 349.898 110.509 372.795 110.559 396.061C110.61 419.327 116.577 442.198 127.899 462.523C120.059 454.163 99.6094 428.963 101.029 392.123C102.179 362.573 116.839 341.773 125.399 331.963Z" fill="white"/>
<path d="M94.9296 312.492C84.0596 324.882 64.7196 351.852 62.9296 390.442C60.7796 435.922 84.3596 468.362 96.6396 482.142C86.8596 465.652 71.1196 432.542 73.1396 389.082C74.5279 360.663 83.154 333.071 98.1996 308.922C97.2196 309.932 96.1196 311.122 94.9296 312.492Z" fill="white"/>
<path d="M621.29 349.84C627.76 356.7 639.5 372.09 639.99 394.52C640.53 419.28 626.99 436.08 621.32 442.13C628.96 427.569 632.804 411.315 632.495 394.873C632.185 378.432 627.733 362.334 619.55 348.07C620.07 348.58 620.66 349.17 621.29 349.84Z" fill="white"/>
<path d="M651.369 331.963C650.569 331.053 649.829 330.243 649.149 329.523C660.383 349.898 666.25 372.795 666.199 396.061C666.148 419.327 660.182 442.198 648.859 462.523C656.699 454.163 677.159 428.963 675.729 392.123C674.589 362.573 659.969 341.773 651.369 331.963Z" fill="white"/>
<path d="M681.839 312.492C692.709 324.882 712.039 351.852 713.839 390.442C715.979 435.922 692.409 468.362 680.119 482.142C689.909 465.652 705.649 432.542 703.629 389.082C702.241 360.663 693.615 333.071 678.569 308.922C679.549 309.932 680.639 311.122 681.839 312.492Z" fill="white"/>
<path d="M641.46 35.2401C641.08 35.4601 640.7 35.6801 640.31 35.9301C641.718 32.8476 643.985 30.2366 646.84 28.4101C648.982 27.1178 651.363 26.2709 653.84 25.9201C656.886 25.4396 659.99 25.4599 663.03 25.9801C667.51 26.5301 672.65 27.2301 678.33 28.1301C676.87 28.7949 675.633 29.868 674.77 31.2201C672.93 34.1201 673.77 36.9001 673.42 35.6501C670.42 34.9801 666.66 34.2001 662.42 33.3901C655.42 32.0501 653.66 31.9201 651.76 32.0501C648.127 32.3107 644.603 33.4021 641.46 35.2401Z" fill="#914154"/>
<path d="M642.499 35.5991C642.576 35.2405 642.673 34.8866 642.789 34.5391C641.527 34.7383 640.392 35.4239 639.629 36.4491C639.224 37.2929 638.964 38.1989 638.859 39.1291C638.541 40.441 638.35 41.7805 638.289 43.1291C638.211 44.3086 638.319 45.4931 638.609 46.6391C638.884 47.596 639.266 48.5187 639.749 49.3891C640.357 50.5826 641.041 51.7351 641.799 52.8391C643.239 54.9091 643.659 55.0191 645.799 57.6891C647.071 59.1909 648.224 60.789 649.249 62.4691C650.034 63.6911 650.675 64.9998 651.159 66.3691C651.816 68.0752 652.079 69.9072 651.929 71.7291C651.726 73.58 651.062 75.3505 649.999 76.8791C652.277 75.6372 654.227 73.8721 655.689 71.7291C656.817 70.2752 657.544 68.5513 657.799 66.7291C657.903 64.6516 657.462 62.5831 656.519 60.7291C655.832 59.099 654.956 57.5551 653.909 56.1291C652.909 54.7391 652.689 54.5991 650.329 51.7291C647.819 48.6791 646.619 47.0291 646.049 46.2391C644.965 44.8354 644.046 43.3121 643.309 41.6991C642.709 40.4186 642.369 39.0318 642.309 37.6191C642.297 36.9408 642.361 36.2632 642.499 35.5991Z" fill="#CC596E"/>
<path d="M648.84 78.1606L650.39 75.2806C650.701 74.7079 650.942 74.1003 651.11 73.4706C651.445 72.1116 651.486 70.6967 651.23 69.3206C651.024 67.784 650.606 66.2831 649.99 64.8606C649.297 63.3436 648.416 61.9192 647.37 60.6206C645.69 58.4106 644.44 56.9206 643.44 55.7306C641.99 54.1273 640.726 52.3662 639.67 50.4806C638.827 49.0988 638.248 47.5732 637.96 45.9806C637.729 44.2349 637.77 42.464 638.08 40.7306C638.142 39.4048 638.419 38.0978 638.9 36.8606C639.136 36.4372 639.456 36.0664 639.84 35.7706C641.751 32.0571 644.785 29.0408 648.51 27.1506C652.19 25.3606 655.51 25.3706 660.51 25.3906C665.877 25.4281 671.223 26.062 676.45 27.2806L679.35 27.9506L677.71 28.9506C676.17 29.9096 674.987 31.346 674.34 33.0406C674.041 33.8485 673.875 34.6996 673.85 35.5606V36.2006L673.23 36.0306C667.607 34.508 661.856 33.5038 656.05 33.0306C651.89 32.6906 649.05 32.7206 645.88 33.8506C644.88 34.2106 644.04 34.5506 643.29 34.8506C642.879 35.8346 642.685 36.8951 642.72 37.9606C642.847 39.2893 643.267 40.5733 643.95 41.7206C645.417 44.6237 647.237 47.3342 649.37 49.7906C650.46 51.1106 650.96 51.6206 651.37 52.0406C651.894 52.5872 652.385 53.1649 652.84 53.7706C654.753 56.0508 656.249 58.6506 657.26 61.4506C657.943 63.1343 658.257 64.9452 658.18 66.7606C657.941 69.0042 657.063 71.132 655.65 72.8906C654.54 74.3818 653.147 75.6392 651.55 76.5906L648.84 78.1606ZM641.95 35.4806C641.07 35.8768 640.321 36.515 639.79 37.3206C639.369 38.4532 639.126 39.6439 639.07 40.8506C638.774 42.5012 638.73 44.187 638.94 45.8506C639.223 47.3289 639.768 48.7445 640.55 50.0306C641.57 51.8569 642.794 53.5612 644.2 55.1106C645.2 56.3206 646.47 57.8106 648.2 60.0506C649.294 61.411 650.214 62.9025 650.94 64.4906C651.597 66.0011 652.038 67.5968 652.25 69.2306C652.522 70.7337 652.474 72.2773 652.11 73.7606C651.95 74.3428 651.736 74.9086 651.47 75.4506C652.757 74.6101 653.885 73.5468 654.8 72.3106C656.103 70.7056 656.912 68.7567 657.13 66.7006C657.199 65.0202 656.903 63.3448 656.26 61.7906C655.28 59.0984 653.839 56.5976 652 54.4006C651.567 53.8231 651.096 53.2752 650.59 52.7606C650.18 52.3406 649.67 51.7606 648.59 50.4606C646.408 47.9414 644.544 45.164 643.04 42.1906C642.299 40.9173 641.845 39.4976 641.71 38.0306C641.669 37.1718 641.76 36.3118 641.98 35.4806H641.95ZM652.1 31.7706C653.32 31.7706 654.63 31.8506 656.1 31.9706C661.757 32.4514 667.359 33.4387 672.84 34.9206C672.917 34.1623 673.088 33.4166 673.35 32.7006C674.021 30.9369 675.214 29.4196 676.77 28.3506L676.18 28.2106C671.024 27.0124 665.752 26.3886 660.46 26.3506C655.14 26.3506 652.24 26.3506 648.93 28.0106C645.996 29.4782 643.512 31.7099 641.74 34.4706L642.47 34.1006C642.711 33.8943 642.985 33.7288 643.28 33.6106L643.99 33.4006V33.4606C644.46 33.2706 644.99 33.0706 645.52 32.8706C647.629 32.11 649.858 31.7373 652.1 31.7706Z" fill="#231F20"/>
<path d="M611.289 706.451L609.989 706.141C613.149 704.912 616.595 704.613 619.919 705.281C622.339 705.826 624.627 706.846 626.649 708.281C629.17 710.058 631.386 712.234 633.209 714.721C636.049 718.231 639.209 722.311 642.699 726.911C641.191 726.371 639.558 726.28 637.999 726.651C634.659 727.461 633.299 730.001 633.939 728.901C632.229 726.311 630.099 723.151 627.599 719.601C623.489 713.761 622.319 712.451 620.869 711.221C618.078 708.927 614.802 707.296 611.289 706.451Z" fill="#914154"/>
<path d="M611.839 707.431C612.14 707.223 612.454 707.036 612.779 706.871C611.732 706.139 610.442 705.842 609.18 706.041C608.302 706.374 607.485 706.846 606.759 707.441C605.614 708.169 604.54 709.003 603.549 709.931C602.68 710.729 601.935 711.652 601.339 712.671C600.872 713.549 600.51 714.479 600.259 715.441C599.862 716.718 599.551 718.021 599.329 719.341C598.919 721.841 599.149 722.201 598.839 725.621C598.708 727.587 598.424 729.539 597.99 731.461C597.712 732.886 597.266 734.272 596.659 735.591C595.947 737.274 594.859 738.772 593.479 739.971C592.041 741.172 590.32 741.988 588.479 742.341C590.984 743.028 593.616 743.114 596.159 742.591C597.986 742.325 599.71 741.584 601.159 740.441C602.675 739.018 603.795 737.226 604.409 735.241C605.048 733.588 605.491 731.867 605.729 730.111C605.999 728.451 605.919 728.171 606.219 724.461C606.539 720.531 606.829 718.461 606.969 717.551C607.16 715.788 607.556 714.053 608.149 712.381C608.603 711.036 609.32 709.795 610.259 708.731C610.735 708.239 611.265 707.803 611.839 707.431Z" fill="#CC596E"/>
<path d="M586.77 742.441L589.89 741.441C590.51 741.241 591.107 740.972 591.67 740.641C592.867 739.902 593.89 738.913 594.67 737.741C595.597 736.499 596.344 735.132 596.89 733.681C597.443 732.108 597.799 730.472 597.95 728.811C598.29 726.051 598.42 724.111 598.53 722.551C598.606 720.393 598.921 718.25 599.47 716.161C599.828 714.585 600.472 713.087 601.37 711.741C602.423 710.329 603.684 709.085 605.11 708.051C606.076 707.141 607.183 706.395 608.39 705.841C608.853 705.688 609.342 705.627 609.83 705.661C613.788 704.326 618.067 704.27 622.06 705.501C625.95 706.781 628.31 709.081 631.88 712.571C635.716 716.324 639.118 720.497 642.02 725.011L643.64 727.501L641.74 727.121C639.962 726.742 638.109 726.949 636.46 727.711C635.684 728.088 634.975 728.588 634.36 729.191L633.91 729.631L633.58 729.081C630.609 724.071 627.188 719.341 623.36 714.951C620.6 711.801 618.53 709.841 615.48 708.461C614.52 708.028 613.66 707.678 612.9 707.411C611.917 707.826 611.036 708.451 610.32 709.241C609.488 710.286 608.897 711.502 608.59 712.801C607.629 715.91 607.052 719.123 606.87 722.371C606.74 724.071 606.74 724.791 606.74 725.371C606.736 726.13 606.689 726.888 606.6 727.641C606.383 730.609 605.648 733.516 604.43 736.231C603.764 737.915 602.74 739.433 601.43 740.681C599.698 742.128 597.588 743.048 595.35 743.331C593.515 743.633 591.639 743.568 589.83 743.141L586.77 742.441ZM611.5 706.991C610.594 706.656 609.611 706.59 608.67 706.801C607.574 707.312 606.562 707.986 605.67 708.801C604.32 709.778 603.123 710.951 602.12 712.281C601.294 713.538 600.701 714.934 600.37 716.401C599.833 718.424 599.528 720.5 599.46 722.591C599.35 724.161 599.21 726.111 598.87 728.901C598.719 730.643 598.342 732.357 597.75 734.001C597.174 735.54 596.387 736.991 595.41 738.311C594.558 739.583 593.447 740.66 592.15 741.471C591.633 741.782 591.087 742.04 590.52 742.241C592.027 742.531 593.575 742.551 595.09 742.301C597.143 742.053 599.081 741.216 600.67 739.891C601.886 738.732 602.838 737.323 603.46 735.761C604.627 733.143 605.328 730.341 605.53 727.481C605.623 726.769 605.666 726.05 605.66 725.331C605.66 724.741 605.66 724.001 605.81 722.261C605.99 718.935 606.581 715.643 607.57 712.461C607.924 711.034 608.583 709.701 609.5 708.551C610.08 707.929 610.755 707.403 611.5 706.991ZM621.34 711.381C622.21 712.231 623.1 713.191 624.07 714.301C627.805 718.582 631.151 723.187 634.07 728.061C634.646 727.567 635.285 727.15 635.97 726.821C637.679 726.024 639.589 725.762 641.45 726.071L641.12 725.561C638.254 721.112 634.899 716.996 631.12 713.291C627.32 709.581 625.19 707.611 621.69 706.461C618.56 705.477 615.224 705.353 612.03 706.101C612.27 706.171 612.53 706.251 612.81 706.351C613.126 706.369 613.437 706.44 613.73 706.561L614.39 706.901H614.32C614.79 707.091 615.32 707.311 615.83 707.551C617.881 708.487 619.748 709.784 621.34 711.381Z" fill="#231F20"/>
<path d="M376.13 88.2416V84.2916C379.08 84.1516 393.23 84.1616 401.93 95.8116C408.61 104.812 407.68 114.742 407.17 117.982L396.91 119.292C397.42 117.652 399.66 109.062 393.75 101.942C391.652 99.4109 388.904 97.4995 385.801 96.4125C382.699 95.3254 379.359 95.1039 376.14 95.7716C376.14 93.2783 376.137 90.7683 376.13 88.2416Z" fill="#4BA99F"/>
<path d="M42.62 529.271L45.71 531.731C43.97 534.121 35.13 545.181 20.59 544.681C9.43 544.301 2.22 537.351 0 534.931C1.81 531.991 3.59999 529.041 5.39999 526.091C6.39999 527.521 11.66 534.631 20.91 534.471C24.1944 534.406 27.3992 533.448 30.1808 531.701C32.9624 529.953 35.216 527.482 36.7 524.551L42.62 529.271Z" fill="#E14B42"/>
<path d="M167.89 140.771C166.33 140.521 164.68 140.301 162.95 140.131C159.923 139.822 156.881 139.702 153.84 139.771C151.308 133.945 150.218 127.595 150.662 121.259C151.106 114.923 153.071 108.787 156.39 103.371C157.102 106.203 158.805 108.686 161.19 110.371C163.274 111.788 165.75 112.515 168.27 112.451C166.021 117.753 165.378 123.597 166.42 129.261C167.274 133.725 169.161 137.927 171.93 141.531C170.64 141.251 169.3 140.991 167.89 140.771Z" fill="#E2A14C"/>
<path d="M107.63 687C106.24 687.75 104.8 688.59 103.33 689.52C100.755 691.156 98.2838 692.95 95.9296 694.89C90.362 691.836 85.6115 687.486 82.0798 682.209C78.5481 676.932 76.3391 670.881 75.6396 664.57C77.7667 666.258 80.4088 667.165 83.1244 667.14C85.84 667.114 88.4646 666.158 90.5596 664.43C91.8524 669.416 94.4538 673.967 98.0948 677.612C101.736 681.256 106.284 683.862 111.27 685.16C110.11 685.71 108.89 686.32 107.63 687Z" fill="#905992"/>
<path d="M771.35 515.9C772 517.34 772.73 518.83 773.56 520.37C775.007 523.051 776.621 525.639 778.39 528.12C774.957 533.464 770.286 537.901 764.772 541.056C759.259 544.21 753.067 545.988 746.72 546.24C748.658 544.077 749.761 541.293 749.83 538.39C749.845 535.884 749.076 533.436 747.63 531.39C753.287 530.306 758.502 527.587 762.63 523.57C765.865 520.381 768.31 516.481 769.77 512.18C770.23 513.34 770.76 514.6 771.35 515.9Z" fill="#F5CB53"/>
</g>
<defs>
<radialGradient id="paint0_radial_7809_108506" cx="0" cy="0" r="1" gradientTransform="matrix(35.5948 15.0891 -20.8926 49.1363 302.542 28.2397)" gradientUnits="userSpaceOnUse">
<stop offset="0.54" stop-color="#862E23"/>
<stop offset="0.98" stop-color="#D75F3A"/>
</radialGradient>
<linearGradient id="paint1_linear_7809_108506" x1="447.43" y1="686.82" x2="646.12" y2="528.2" gradientUnits="userSpaceOnUse">
<stop offset="0.32" stop-color="#B59469"/>
<stop offset="0.5" stop-color="#B4A06B"/>
<stop offset="0.82" stop-color="#B0BF71"/>
<stop offset="1" stop-color="#AED475"/>
</linearGradient>
<linearGradient id="paint2_linear_7809_108506" x1="441.442" y1="675.481" x2="674.616" y2="776.812" gradientUnits="userSpaceOnUse">
<stop offset="0.32" stop-color="#B59469"/>
<stop offset="0.5" stop-color="#B4A06B"/>
<stop offset="0.82" stop-color="#B0BF71"/>
<stop offset="1" stop-color="#AED475"/>
</linearGradient>
<linearGradient id="paint3_linear_7809_108506" x1="451.173" y1="671.151" x2="704.355" y2="647.918" gradientUnits="userSpaceOnUse">
<stop offset="0.32" stop-color="#8D3125"/>
<stop offset="0.47" stop-color="#993827"/>
<stop offset="0.73" stop-color="#B84A2E"/>
<stop offset="0.98" stop-color="#DB5F35"/>
</linearGradient>
<radialGradient id="paint4_radial_7809_108506" cx="0" cy="0" r="1" gradientTransform="matrix(-112.038 47.4942 65.7612 154.661 298.576 729.22)" gradientUnits="userSpaceOnUse">
<stop offset="0.54" stop-color="#862E23"/>
<stop offset="0.98" stop-color="#D75F3A"/>
</radialGradient>
<radialGradient id="paint5_radial_7809_108506" cx="0" cy="0" r="1" gradientTransform="matrix(112.038 47.4942 -65.7612 154.661 473.964 729.68)" gradientUnits="userSpaceOnUse">
<stop offset="0.54" stop-color="#862E23"/>
<stop offset="0.98" stop-color="#D75F3A"/>
</radialGradient>
<linearGradient id="paint6_linear_7809_108506" x1="387.85" y1="801.002" x2="387.85" y2="437.802" gradientUnits="userSpaceOnUse">
<stop offset="0.32" stop-color="#862E23"/>
<stop offset="0.61" stop-color="#B2472C"/>
<stop offset="0.84" stop-color="#D05933"/>
<stop offset="0.98" stop-color="#DB5F35"/>
</linearGradient>
<linearGradient id="paint7_linear_7809_108506" x1="429.33" y1="384.269" x2="501.42" y2="156.989" gradientUnits="userSpaceOnUse">
<stop offset="0.23" stop-color="#A03B28"/>
<stop offset="0.48" stop-color="#B0452C"/>
<stop offset="0.97" stop-color="#D96035"/>
<stop offset="0.98" stop-color="#D96035"/>
</linearGradient>
<linearGradient id="paint8_linear_7809_108506" x1="333.76" y1="384.269" x2="261.67" y2="156.989" gradientUnits="userSpaceOnUse">
<stop offset="0.23" stop-color="#A03B28"/>
<stop offset="0.48" stop-color="#B0452C"/>
<stop offset="0.97" stop-color="#D96035"/>
<stop offset="0.98" stop-color="#D96035"/>
</linearGradient>
<linearGradient id="paint9_linear_7809_108506" x1="384.56" y1="477.95" x2="384.56" y2="142.26" gradientUnits="userSpaceOnUse">
<stop offset="0.32" stop-color="#A03B28"/>
<stop offset="0.51" stop-color="#AC432B"/>
<stop offset="0.85" stop-color="#CB5732"/>
<stop offset="0.98" stop-color="#D96035"/>
</linearGradient>
<radialGradient id="paint10_radial_7809_108506" cx="0" cy="0" r="1" gradientUnits="userSpaceOnUse" gradientTransform="translate(384.84 315.158) scale(27.18 16.8516)">
<stop offset="0.01" stop-color="#414042"/>
<stop offset="0.68" stop-color="#231F20"/>
</radialGradient>
<linearGradient id="paint11_linear_7809_108506" x1="282.38" y1="475.52" x2="258.99" y2="578.18" gradientUnits="userSpaceOnUse">
<stop offset="0.32" stop-color="#862E23"/>
<stop offset="0.46" stop-color="#923525"/>
<stop offset="0.7" stop-color="#B1472C"/>
<stop offset="0.98" stop-color="#DB5F35"/>
</linearGradient>
<linearGradient id="paint12_linear_7809_108506" x1="490.29" y1="475.52" x2="513.68" y2="578.18" gradientUnits="userSpaceOnUse">
<stop offset="0.32" stop-color="#862E23"/>
<stop offset="0.46" stop-color="#923525"/>
<stop offset="0.7" stop-color="#B1472C"/>
<stop offset="0.98" stop-color="#DB5F35"/>
</linearGradient>
<clipPath id="clip0_7809_108506">
<rect width="818.94" height="856.82" fill="white"/>
</clipPath>
</defs>
</svg>
