<svg width="715" height="662" viewBox="0 0 715 662" fill="none" xmlns="http://www.w3.org/2000/svg">
<g clip-path="url(#clip0_7809_108606)">
<path d="M419.149 569.501C418.607 574.463 418.701 579.473 419.429 584.411C419.939 587.851 422.289 601.641 431.579 612.951C451.189 636.821 488.659 633.711 572.439 629.341C593.879 628.221 631.439 626.341 679.839 624.341C695.872 617.045 708.378 603.716 714.639 587.251C705.892 582.127 697.71 576.093 690.229 569.251C664.739 545.831 660.159 524.311 636.229 516.431C631.999 515.041 628.889 514.641 623.479 514.001C553.919 505.741 518.399 501.741 485.009 509.121C463.729 513.811 449.699 517.121 437.649 529.771C436.429 531.051 421.609 546.741 419.149 569.501Z" fill="url(#paint0_linear_7809_108606)"/>
<path d="M636.189 516.412C631.959 515.022 628.849 514.622 623.439 513.982L609.319 512.312C604.499 518.512 602.019 524.812 603.609 529.162C605.529 534.442 612.219 533.462 618.179 542.162C618.769 543.022 625.609 553.263 623.039 564.833C620.949 574.213 614.929 574.323 614.129 582.643C613.239 591.943 619.979 600.143 622.229 602.883C627.969 609.883 631.429 608.972 633.559 613.402C635.559 617.642 634.179 622.132 631.839 626.492C646.249 625.832 662.329 625.132 679.839 624.412C695.872 617.116 708.377 603.787 714.639 587.323C705.891 582.198 697.709 576.164 690.229 569.323C664.739 545.813 660.159 524.292 636.189 516.412Z" fill="#FDF7EF"/>
<path d="M237.01 510.099C228.233 510.473 219.737 513.304 212.49 518.269C198 528.179 193.98 542.939 193.09 546.609C192.61 548.609 188.75 565.759 198.45 582.609C205.39 594.669 215.33 599.719 229.86 607.119C245.17 614.919 255.48 620.119 267.86 617.119C282.29 613.539 289.99 601.119 291.09 599.249C304.15 577.439 292.56 546.609 276.54 529.549C272.13 524.739 257.92 509.579 237.01 510.099Z" fill="#76261A"/>
<path d="M196.92 429.68C197.42 434.23 198.7 442.91 215.3 480.74C221.1 493.96 226.21 507.49 232.3 520.57C234.985 525.985 237.042 531.689 238.43 537.57C240.37 546.03 239.11 547.31 240.81 557.66C242.44 567.5 244.08 569.3 246.43 580.81C247.627 586.638 248.505 592.527 249.06 598.451C266.429 605.852 284.529 611.406 303.06 615.021C333.25 620.871 372.59 619.8 382.21 619.61C404.79 619.19 434.81 631.611 478.72 629.32C480.72 629.211 481.79 626.59 483.32 625.23C485.467 623.655 487.514 621.948 489.45 620.12C492.29 617.44 501.67 608.12 508.34 588.98C519.16 557.98 517.02 523.1 517.02 523.1C516.16 509.02 513.02 466.76 483.83 425.1C472.83 409.42 462.97 400.64 444.51 384.25C435.84 376.56 400.72 346.02 343.91 319.4C304.25 300.81 287.51 299.84 273.45 302.55C262.194 304.841 251.567 309.543 242.3 316.33C205.83 341.82 199.77 387.01 197.7 402.46C196.77 409.89 195.69 418.42 196.92 429.68Z" fill="url(#paint1_linear_7809_108606)"/>
<path d="M249.34 604.49C226.95 604.15 215.69 604 211.89 604.83C203.55 606.66 188.53 609.95 184.32 621.17C182.52 625.98 182.57 632.59 186.02 637.17C188.62 640.62 193.02 642.77 207.81 643.64C218.07 644.24 226.43 643.82 239.81 642.64C249.26 641.79 266.74 640.05 279.98 633.45C283.152 632.057 285.782 629.666 287.47 626.64C289.35 622.94 289.77 617.64 287.47 613.7C284.47 608.61 278.09 607.56 266.7 605.87C260.951 605.016 255.151 604.555 249.34 604.49Z" fill="#5B421F"/>
<path d="M343.98 552.739C321.43 529.559 323.98 522.589 295.47 488.909C276.87 466.909 263.9 451.909 254.62 455.209C247.28 457.829 244.35 471.209 245.43 481.209C247.32 498.869 261.76 508.419 268.92 516.439C287.92 537.789 277.65 573.219 267.73 605.559C279.3 609.512 291.128 612.666 303.13 614.999C325.04 619.249 351.76 619.839 368.46 619.779C372.51 609.199 375.22 595.559 370.54 582.319C366.46 570.829 360.29 569.489 343.98 552.739Z" fill="#76261A"/>
<path d="M480.031 627.74C475.881 628.55 445.191 633.96 420.581 612.74C404.281 598.74 399.721 580.82 398.371 573.42C391.531 536.16 418.861 509.16 421.371 506.78C430.04 498.563 440.497 492.47 451.921 488.98C437.833 494.755 425.587 504.263 416.501 516.48C413.111 521.1 398.561 540.92 400.931 564.23C404.041 594.87 435.481 622.78 478.801 629.34" fill="#76261A"/>
<path d="M459.05 610.44C436.66 610.1 425.39 609.95 421.6 610.78C413.26 612.61 398.23 615.9 394.03 627.12C392.22 631.93 392.28 638.54 395.73 643.12C398.32 646.57 402.73 648.72 417.52 649.59C427.77 650.19 436.14 649.77 449.52 648.59C458.97 647.74 476.45 646 489.69 639.4C492.862 638.006 495.492 635.615 497.18 632.59C499.06 628.89 499.48 623.59 497.18 619.65C494.18 614.56 487.8 613.51 476.41 611.82C470.662 610.966 464.862 610.505 459.05 610.44Z" fill="#5B421F"/>
<path d="M196.92 429.68C195.665 439.832 195.28 450.072 195.77 460.29C196.36 469.902 197.596 479.464 199.47 488.91C203.71 509.91 217.63 552.23 240.24 605.65C234.157 605.605 228.098 606.417 222.24 608.06C215.11 610.06 209.83 611.56 205.9 616.57C205.11 617.57 199.63 624.57 202.33 631.89C204.23 637.06 209.08 639.3 209.99 639.72C212.66 640.94 215.62 641.383 218.53 641C219.032 642.618 219.894 644.102 221.05 645.34C224.17 648.63 228.43 648.91 231.05 649.08C233.494 649.234 235.945 648.953 238.29 648.25C240.502 650.612 243.201 652.465 246.2 653.68C249.777 655.053 253.639 655.521 257.44 655.04C260.127 654.773 262.757 654.099 265.24 653.04C264.3 651.74 267.53 655.92 273.44 656.4C276.082 656.541 278.716 656.014 281.1 654.87C284.633 653.392 287.778 651.12 290.29 648.23C295.47 642.23 296.19 635.06 296.93 626.78C297.414 621.514 297.414 616.215 296.93 610.95C295.18 595.32 298.53 606.9 293.86 546.61C290.67 505.46 286.53 467.18 284.33 447.72" fill="url(#paint2_linear_7809_108606)"/>
<path d="M424.11 452.141C424.986 519.851 410.035 586.83 380.45 647.741C380.23 648.181 375.74 656.991 367.94 657.101C366.263 657.113 364.606 656.747 363.09 656.031C361.598 657.625 359.766 658.863 357.73 659.651C356.26 660.221 351.45 662.071 347.86 659.481C347.044 658.878 346.362 658.112 345.86 657.231C343.855 659.059 341.384 660.298 338.72 660.811C336.85 661.161 333.06 661.861 330.18 659.481C329.286 658.735 328.581 657.789 328.12 656.721C326.68 657.231 322.12 658.551 318.27 656.081C316.373 654.733 314.944 652.828 314.18 650.631C312.403 646.365 312.162 641.614 313.5 637.191C314.78 632.981 317.1 630.451 319.8 627.481C322.648 624.38 325.937 621.715 329.56 619.571C336.69 591.837 338.203 562.958 334.01 534.631" fill="#76261A"/>
<path d="M422.11 452.141C422.986 519.851 408.035 586.83 378.45 647.741C378.23 648.181 373.74 656.991 365.94 657.101C364.263 657.113 362.606 656.747 361.09 656.031C359.598 657.625 357.766 658.863 355.73 659.651C354.26 660.221 349.45 662.071 345.86 659.481C345.044 658.878 344.362 658.112 343.86 657.231C341.855 659.059 339.384 660.298 336.72 660.811C334.85 661.161 331.06 661.861 328.18 659.481C327.286 658.735 326.581 657.789 326.12 656.721C324.68 657.231 320.12 658.551 316.27 656.081C314.373 654.733 312.944 652.828 312.18 650.631C310.403 646.365 310.162 641.614 311.5 637.191C312.78 632.981 315.1 630.451 317.8 627.481C320.648 624.38 323.937 621.715 327.56 619.571C334.69 591.837 336.203 562.958 332.01 534.631" fill="url(#paint3_linear_7809_108606)"/>
<path d="M146.37 106.951C115.57 112.861 94.8899 124.791 72.2199 137.861C51.7928 149.401 33.3376 164.126 17.5499 181.481C1.54988 199.271 -0.83013 208.141 0.20987 215.201C2.10987 228.141 15.6299 236.361 27.1299 242.271C99.1299 279.271 167.62 273.351 167.62 273.351C212.62 269.201 241.13 266.571 259.73 242.271C283.18 211.631 279.73 161.141 254.11 132.481C239.46 116.071 220.6 110.221 211.73 107.481C186.25 99.5606 164.83 103.411 146.37 106.951Z" fill="url(#paint4_linear_7809_108606)"/>
<path d="M197.73 215.589C188.31 228.6 175.838 239.097 161.41 246.159C120.24 265.909 78.8399 247.889 68.8499 243.529C51.5477 235.919 36.1253 224.606 23.6699 210.389C39.4561 191.699 59.7436 177.34 82.6183 168.665C105.493 159.991 130.201 157.287 154.41 160.809" fill="#A33D2B"/>
<path d="M81.84 217.579C83.8934 212.059 86.729 206.862 90.26 202.149C92.6602 198.947 95.3736 195.992 98.36 193.329C83.1273 195.28 69.0163 202.37 58.36 213.429C59.6588 208.913 61.4496 204.553 63.7 200.429C64.7093 198.579 65.8142 196.783 67.01 195.049C62.4292 196.64 57.9819 198.593 53.71 200.889C50.3533 202.688 47.1105 204.691 44 206.889C47.6398 197.022 52.9507 187.854 59.7 179.789C65.7327 176.172 72.023 173.004 78.52 170.309C102.513 160.414 128.72 157.137 154.41 160.819L172.68 183.919C162.537 186.04 152.905 190.116 144.32 195.919C142.6 197.089 140.87 198.359 139.16 199.739C132.119 205.443 126.121 212.325 121.43 220.079C118.86 216.998 117.075 213.34 116.23 209.419C115.793 207.336 115.645 205.202 115.79 203.079C103.483 205.181 91.8495 210.167 81.84 217.629V217.579Z" fill="#FCF5DD"/>
<path d="M381.26 101.34C405.81 106.07 422.9 116.17 456.1 136.18C483.3 152.59 498.1 164.26 511.65 178.67C528.05 196.13 530.58 204.95 529.65 212.03C528.01 225.03 514.65 233.5 503.29 239.65C438.29 274.77 363.52 273.65 363.48 273.65C363.48 273.65 294.14 284.95 265.99 258.87C232.92 228.21 246.53 136.65 290.92 111.55C309.36 101.11 338.66 99.0297 342.49 98.7797C355.47 97.9974 368.496 98.8576 381.26 101.34Z" fill="url(#paint5_linear_7809_108606)"/>
<path d="M332.211 216.478C341.895 229.292 354.581 239.529 369.151 246.288C410.721 265.198 451.741 246.288 461.641 241.768C478.774 233.804 493.959 222.189 506.131 207.738C489.959 189.38 469.379 175.442 446.331 167.237C423.283 159.031 398.525 156.83 374.391 160.838" fill="#A33D2B"/>
<path d="M448.111 216.091C445.953 210.61 443.012 205.47 439.381 200.831C436.916 197.679 434.142 194.782 431.101 192.181C446.367 193.822 460.618 200.619 471.501 211.451C470.115 206.949 468.237 202.613 465.901 198.521C464.791 196.601 463.641 194.831 462.481 193.211C467.101 194.714 471.595 196.58 475.921 198.791C479.313 200.529 482.596 202.472 485.751 204.611C483.346 198.489 480.292 192.642 476.641 187.171C474.463 183.909 472.075 180.792 469.491 177.841C463.391 174.346 457.04 171.308 450.491 168.751C426.299 159.355 400.031 156.613 374.421 160.811L356.641 184.291C366.822 186.187 376.537 190.049 385.241 195.661C386.981 196.791 388.731 198.031 390.471 199.381C397.632 204.948 403.774 211.715 408.621 219.381C411.135 216.253 412.851 212.56 413.621 208.621C414.015 206.529 414.123 204.393 413.941 202.271C426.286 204.113 438.018 208.86 448.171 216.121L448.111 216.091Z" fill="#FCF5DD"/>
<path d="M265.03 102.578C306.77 105.478 334.97 120.028 349.03 128.698C360.78 135.938 410.11 166.338 427.5 219.698C431.85 233.058 434.08 247.488 447.28 261.238C460.48 274.988 477.35 280.458 489.75 282.918C483.475 290.971 475.897 297.917 467.33 303.468C473.415 304.825 479.684 305.162 485.88 304.468C474.487 322.865 457.991 337.551 438.4 346.738C446.179 347.418 454.01 346.275 461.27 343.398C457.8 346.328 452.82 350.398 446.62 354.828C422.974 371.643 396.676 384.373 368.82 392.488C325.53 405.148 290.35 413.678 265.03 413.298C242.12 413.678 204.53 405.148 161.24 392.488C133.381 384.372 107.079 371.642 83.4298 354.828C77.2298 350.358 72.2498 346.328 68.7798 343.398C76.0397 346.275 83.8705 347.418 91.6498 346.738C72.0654 337.564 55.5696 322.896 44.1698 304.518C50.3692 305.212 56.6408 304.874 62.7298 303.518C54.1566 297.971 46.5748 291.024 40.2998 282.968C52.6998 280.508 69.5698 275.038 82.7698 261.288C95.9698 247.538 98.1998 233.108 102.56 219.748C119.92 166.338 169.27 135.938 181.02 128.738C195.09 120.028 223.28 105.478 265.03 102.578Z" fill="url(#paint6_linear_7809_108606)"/>
<path d="M266.1 426.818C242.58 428.168 202.45 426.698 161.82 404.608C140.35 392.938 107.82 375.898 101.64 343.178C98.9598 328.928 102.13 316.408 104.99 308.498C112.43 301.738 124.31 293.228 138.84 293.448C154.84 293.698 162.14 304.448 181.46 310.998C191.09 314.258 205.65 317.238 225.67 314.508C229.146 309.607 233.41 305.315 238.29 301.808C246.478 295.997 256.089 292.517 266.1 291.738C276.113 292.517 285.728 295.997 293.92 301.808C298.799 305.315 303.064 309.607 306.54 314.508C326.54 317.238 341.12 314.258 350.75 310.998C370.08 304.478 377.4 293.698 393.38 293.448C407.91 293.228 419.78 301.738 427.23 308.498C430.08 316.408 433.23 328.928 430.57 343.178C424.4 375.898 391.86 392.938 370.39 404.608C329.75 426.738 289.62 428.168 266.1 426.818Z" fill="white"/>
<path d="M221.92 418.19C216.01 415.92 212.85 409.02 211.92 404.14C209.3 389.78 223.7 378.65 224.43 378.14C234.06 370.93 244.92 371.61 251.24 372.01C260.182 372.699 268.794 375.689 276.24 380.69C280.54 383.59 287.3 388.14 290.8 396.78C292.15 400.13 294.5 405.93 291.8 411.59C288.97 417.59 282.45 419.35 281.8 419.5C278.09 420.5 276.48 419.32 264.69 416.69C257.56 415.11 253.92 414.31 250.69 414.4C246.45 414.51 246.06 415.32 237.42 416.95C229.07 418.5 224.78 419.28 221.92 418.19Z" fill="#785925"/>
<mask id="mask0_7809_108606" style="mask-type:luminance" maskUnits="userSpaceOnUse" x="211" y="371" width="83" height="49">
<path d="M221.92 418.19C216.01 415.92 212.85 409.02 211.92 404.14C209.3 389.78 223.7 378.65 224.43 378.14C234.06 370.93 244.92 371.61 251.24 372.01C260.182 372.699 268.794 375.689 276.24 380.69C280.54 383.59 287.3 388.14 290.8 396.78C292.15 400.13 294.5 405.93 291.8 411.59C288.97 417.59 282.45 419.35 281.8 419.5C278.09 420.5 276.48 419.32 264.69 416.69C257.56 415.11 253.92 414.31 250.69 414.4C246.45 414.51 246.06 415.32 237.42 416.95C229.07 418.5 224.78 419.28 221.92 418.19Z" fill="white"/>
</mask>
<g mask="url(#mask0_7809_108606)">
<path d="M304.15 403.939C305.754 405.488 307.257 407.138 308.65 408.879C300.476 420.298 288.89 428.83 275.56 433.249C244.61 443.319 219.84 425.749 223.56 428.379C227.027 417.43 233.888 407.869 243.15 401.079C246.41 398.739 262.46 387.189 282.98 392.139C290.959 394.123 298.266 398.196 304.15 403.939Z" fill="#E53663"/>
</g>
<path d="M221.92 418.19C216.01 415.92 212.85 409.02 211.92 404.14C209.3 389.78 223.7 378.65 224.43 378.14C234.06 370.93 244.92 371.61 251.24 372.01C260.182 372.699 268.794 375.689 276.24 380.69C280.54 383.59 287.3 388.14 290.8 396.78C292.15 400.13 294.5 405.93 291.8 411.59C288.97 417.59 282.45 419.35 281.8 419.5C278.09 420.5 276.48 419.32 264.69 416.69C257.56 415.11 253.92 414.31 250.69 414.4C246.45 414.51 246.06 415.32 237.42 416.95C229.07 418.5 224.78 419.28 221.92 418.19Z" stroke="black" stroke-width="3" stroke-miterlimit="10"/>
<path d="M337.331 303.701C363.581 303.701 384.861 282.421 384.861 256.171C384.861 229.921 363.581 208.641 337.331 208.641C311.081 208.641 289.801 229.921 289.801 256.171C289.801 282.421 311.081 303.701 337.331 303.701Z" fill="black" stroke="black" stroke-miterlimit="10"/>
<path d="M336.331 300.541C361.388 300.541 381.701 280.228 381.701 255.171C381.701 230.114 361.388 209.801 336.331 209.801C311.274 209.801 290.961 230.114 290.961 255.171C290.961 280.228 311.274 300.541 336.331 300.541Z" fill="white"/>
<path d="M297.72 240.269C302.72 228.879 314.72 219.849 328.5 220.339C345.06 220.929 358.12 235.129 359.85 250.819C361.46 265.409 353.19 280.559 339.34 285.979C325.49 291.399 313.17 284.479 311.99 283.789C297.86 275.619 290.64 256.269 297.72 240.269Z" fill="#A29795"/>
<path d="M301.349 241.958C305.779 231.958 316.349 224.028 328.349 224.458C342.899 224.968 354.349 237.458 355.879 251.228C357.299 264.038 350.029 277.338 337.879 282.108C325.729 286.878 314.879 280.788 313.879 280.188C301.469 273.008 295.129 256.008 301.349 241.958Z" fill="black"/>
<path d="M342.56 276.408C346.912 276.408 350.44 272.88 350.44 268.528C350.44 264.176 346.912 260.648 342.56 260.648C338.208 260.648 334.68 264.176 334.68 268.528C334.68 272.88 338.208 276.408 342.56 276.408Z" fill="white"/>
<path d="M359.411 185.52C362.508 184.501 365.518 183.234 368.411 181.73C352.181 187.61 340.231 184.35 334.781 182.26C327.481 179.46 321.391 174.26 319.781 172.9C316.276 169.89 313.134 166.48 310.421 162.74C309.734 162.234 308.912 161.943 308.059 161.906C307.207 161.869 306.362 162.088 305.634 162.533C304.906 162.979 304.328 163.632 303.973 164.408C303.618 165.184 303.502 166.048 303.641 166.89C305.927 171.654 309.199 175.877 313.241 179.28C321.401 186.09 330.241 187.28 335.711 187.96C343.694 188.914 351.79 188.08 359.411 185.52Z" fill="black"/>
<path d="M304.301 295.74L303.471 294.41C311.512 301.896 321.01 307.646 331.371 311.3C345.878 316.342 361.522 317.147 376.471 313.62L375.021 314.36C372.021 315.89 351.941 325.87 329.321 316.66C319.045 312.398 310.315 305.099 304.301 295.74Z" fill="url(#paint7_linear_7809_108606)"/>
<path d="M382.391 235.741C376.211 218.611 361.391 205.461 343.391 202.821C319.181 199.271 294.491 215.541 287.891 241.251L384.491 263.591C386.35 254.29 385.624 244.657 382.391 235.741Z" fill="url(#paint8_linear_7809_108606)"/>
<path d="M287.92 241.199L382.92 263.199" stroke="black" stroke-width="5" stroke-linecap="round" stroke-linejoin="round"/>
<path d="M190.88 303.662C217.13 303.662 238.41 282.382 238.41 256.132C238.41 229.881 217.13 208.602 190.88 208.602C164.63 208.602 143.35 229.881 143.35 256.132C143.35 282.382 164.63 303.662 190.88 303.662Z" fill="black" stroke="black" stroke-miterlimit="10"/>
<path d="M191.88 300.502C216.937 300.502 237.25 280.189 237.25 255.132C237.25 230.075 216.937 209.762 191.88 209.762C166.823 209.762 146.51 230.075 146.51 255.132C146.51 280.189 166.823 300.502 191.88 300.502Z" fill="white"/>
<path d="M230.48 240.22C225.48 228.84 213.48 219.81 199.71 220.3C183.14 220.88 170.08 235.09 168.35 250.77C166.74 265.36 175.01 280.51 188.86 285.94C202.71 291.37 215.04 284.43 216.22 283.75C230.34 275.58 237.56 256.23 230.48 240.22Z" fill="#A29795"/>
<path d="M226.85 241.919C222.43 231.919 211.9 223.989 199.85 224.419C185.3 224.929 173.85 237.419 172.31 251.179C170.9 263.999 178.16 277.299 190.31 282.069C202.46 286.839 213.31 280.739 214.31 280.139C226.73 272.969 233.07 255.969 226.85 241.919Z" fill="black"/>
<path d="M185.659 276.369C190.011 276.369 193.539 272.841 193.539 268.489C193.539 264.137 190.011 260.609 185.659 260.609C181.307 260.609 177.779 264.137 177.779 268.489C177.779 272.841 181.307 276.369 185.659 276.369Z" fill="white"/>
<path d="M168.8 185.48C165.704 184.458 162.694 183.191 159.8 181.69C176.04 187.57 187.98 184.31 193.43 182.22C200.73 179.41 206.82 174.22 208.43 172.86C211.93 169.859 215.071 166.463 217.79 162.74C218.477 162.236 219.298 161.949 220.149 161.914C221 161.879 221.842 162.098 222.568 162.543C223.294 162.988 223.871 163.639 224.226 164.413C224.58 165.187 224.697 166.049 224.56 166.89C222.278 171.653 219.009 175.877 214.97 179.28C206.8 186.09 197.97 187.28 192.5 187.96C184.514 188.901 176.418 188.054 168.8 185.48Z" fill="black"/>
<path d="M223.92 295.672C224.22 295.222 224.5 294.772 224.76 294.352C215.124 303.332 203.414 309.787 190.676 313.139C177.938 316.491 164.568 316.636 151.76 313.562L153.21 314.302C156.16 315.832 176.29 325.812 198.91 316.602C209.187 312.341 217.914 305.037 223.92 295.672Z" fill="url(#paint9_linear_7809_108606)"/>
<path d="M145.81 235.651C152 218.521 166.81 205.361 184.81 202.731C209.01 199.181 233.7 215.441 240.3 241.161L143.7 263.491C141.85 254.192 142.579 244.564 145.81 235.651Z" fill="url(#paint10_linear_7809_108606)"/>
<path d="M240.33 241.16L145.33 263.16" stroke="black" stroke-width="5" stroke-linecap="round" stroke-linejoin="round"/>
<path d="M243.29 305.118C241.86 307.604 241.199 310.457 241.39 313.318C242.04 321.048 249.49 325.368 251.21 326.318C255.92 329.058 260.35 329.238 264.21 329.398C268.07 329.558 273.69 329.788 279.59 326.618C282.32 325.148 287.67 322.268 289.37 316.198C290.92 310.628 288.45 305.758 287.65 304.338C282.91 295.978 272.29 294.858 268.78 294.488C263.346 293.967 257.872 294.902 252.92 297.198C249.92 298.628 245.8 300.538 243.29 305.118Z" fill="url(#paint11_radial_7809_108606)"/>
<path d="M234.74 59.7414C203.42 70.8214 172.2 82.2614 141.51 94.9314C126.16 101.211 110.92 107.741 96.1001 115.221C88.6904 118.879 81.4893 122.946 74.5301 127.401C71.1058 129.618 67.8623 132.103 64.8301 134.831C63.3671 136.156 62.0587 137.642 60.9301 139.261C59.8437 140.677 59.2439 142.407 59.2201 144.191C59.293 145 59.5532 145.781 59.9801 146.471C60.4692 147.224 61.0693 147.898 61.7601 148.471C63.2751 149.689 64.9594 150.68 66.7601 151.411C70.5053 152.961 74.3988 154.123 78.3801 154.881C86.4622 156.459 94.6461 157.462 102.87 157.881C119.404 158.73 135.975 158.573 152.49 157.411C185.571 155.169 218.431 150.392 250.78 143.121C266.96 139.531 283 135.341 298.78 130.401C314.56 125.461 330.23 119.871 345.62 113.741C361.01 107.611 376.17 100.861 390.99 93.4614C398.397 89.7481 405.707 85.8414 412.92 81.7414C420.1 77.6414 427.14 73.3014 433.87 68.5314C437.22 66.1414 440.5 63.6414 443.58 60.9514C446.681 58.3477 449.463 55.3872 451.87 52.1314C453.001 50.5743 453.85 48.8313 454.38 46.9814C454.585 46.1271 454.632 45.2427 454.52 44.3714C454.365 43.5299 454.023 42.7338 453.52 42.0414C452.331 40.5866 450.808 39.4407 449.08 38.7014C447.267 37.8506 445.375 37.1807 443.43 36.7014C439.45 35.7308 435.401 35.0623 431.32 34.7014C427.22 34.2914 423.09 34.0914 418.96 33.9814C410.69 33.7614 402.4 33.9814 394.11 34.2914C377.54 34.9914 360.98 36.3814 344.46 38.0614C327.94 39.7414 311.46 41.7514 294.97 43.9314C294.957 43.9345 294.943 43.9344 294.93 43.9313C294.916 43.9282 294.904 43.922 294.893 43.9133C294.883 43.9046 294.874 43.8937 294.868 43.8812C294.863 43.8687 294.86 43.8551 294.86 43.8414C294.858 43.8206 294.863 43.7997 294.874 43.7818C294.885 43.7638 294.901 43.7497 294.92 43.7414C311.38 41.4214 327.86 39.2914 344.37 37.4514C360.88 35.6114 377.44 34.1014 394.04 33.2514C402.34 32.8414 410.66 32.6314 418.97 32.8014C423.12 32.8914 427.28 33.0814 431.42 33.4714C435.567 33.8326 439.682 34.5011 443.73 35.4714C445.761 35.9426 447.74 36.6125 449.64 37.4714C451.587 38.2962 453.303 39.5834 454.64 41.2214C455.26 42.0887 455.68 43.0825 455.87 44.1314C456.009 45.1815 455.962 46.2478 455.73 47.2814C455.17 49.3029 454.256 51.209 453.03 52.9114C450.573 56.2843 447.723 59.3525 444.54 62.0514C441.42 64.8014 438.12 67.3414 434.75 69.7714C427.99 74.6214 420.93 79.0114 413.75 83.1714C406.57 87.3314 399.21 91.2314 391.75 94.9714C376.89 102.421 361.69 109.181 346.28 115.391C330.87 121.601 315.2 127.221 299.34 132.201C283.48 137.181 267.4 141.411 251.18 145.041C218.718 152.279 185.747 157.013 152.56 159.201C135.97 160.333 119.326 160.46 102.72 159.581C94.4137 159.142 86.1493 158.11 77.9901 156.491C73.902 155.679 69.9054 154.46 66.0601 152.851C64.1262 152.045 62.3205 150.96 60.7001 149.631C59.8915 148.954 59.1901 148.159 58.6201 147.271C58.046 146.368 57.7026 145.338 57.6201 144.271C57.6273 142.146 58.3297 140.081 59.6201 138.391C60.8243 136.681 62.2163 135.112 63.7701 133.711C66.8777 130.941 70.2016 128.423 73.7101 126.181C80.7318 121.727 87.9964 117.667 95.4701 114.021C110.36 106.631 125.67 100.131 141.07 93.8914C171.9 81.4714 203.22 70.3014 234.64 59.4914C234.653 59.4867 234.666 59.4844 234.679 59.4849C234.693 59.4853 234.706 59.4884 234.718 59.494C234.73 59.4996 234.741 59.5076 234.75 59.5174C234.759 59.5273 234.766 59.5388 234.77 59.5514C234.786 59.5635 234.798 59.5795 234.805 59.5978C234.812 59.616 234.814 59.6359 234.811 59.6553C234.808 59.6746 234.8 59.6929 234.787 59.708C234.775 59.7232 234.759 59.7347 234.74 59.7414Z" fill="#231F20"/>
<path d="M370.18 18.7397C373.444 17.2579 376.782 15.9429 380.18 14.7997C383.593 13.7197 387.047 12.7763 390.54 11.9697C394.042 11.1596 397.583 10.5288 401.15 10.0797C404.71 9.63966 408.3 9.37967 411.89 9.20967C419.074 8.96784 426.266 9.39972 433.37 10.4997C436.92 11.0797 440.43 11.7697 443.91 12.6197C445.643 13.0797 447.36 13.5763 449.06 14.1097C450.77 14.6197 452.46 15.2197 454.12 15.8497C454.133 15.8512 454.146 15.856 454.157 15.8636C454.168 15.8712 454.176 15.8815 454.182 15.8934C454.188 15.9053 454.191 15.9185 454.191 15.9319C454.19 15.9452 454.187 15.9582 454.18 15.9697C454.177 15.9819 454.171 15.9933 454.163 16.0031C454.155 16.0128 454.145 16.0208 454.133 16.0265C454.122 16.0322 454.11 16.0354 454.097 16.0359C454.084 16.0365 454.072 16.0343 454.06 16.0297C440.333 12.3261 426.128 10.7081 411.92 11.2297C404.829 11.4565 397.765 12.222 390.79 13.5197C383.814 14.8124 376.944 16.6275 370.24 18.9497C370.213 18.9562 370.185 18.9527 370.161 18.9397C370.137 18.9268 370.119 18.9054 370.11 18.8797C370.097 18.8624 370.09 18.8413 370.09 18.8197C370.09 18.798 370.097 18.777 370.11 18.7597L370.18 18.7397Z" fill="#231F20"/>
<path d="M457.04 73.1132C457.259 77.7851 456.514 82.452 454.85 86.8232C454.017 89.0335 452.975 91.1597 451.74 93.1732C450.463 95.171 449.029 97.0637 447.45 98.8332C444.23 102.307 440.4 105.161 436.15 107.253C431.98 109.342 427.449 110.612 422.8 110.993C422.775 110.993 422.751 110.984 422.733 110.968C422.714 110.951 422.703 110.928 422.7 110.903C422.697 110.88 422.702 110.855 422.715 110.835C422.728 110.815 422.747 110.8 422.77 110.793C427.196 109.776 431.45 108.122 435.4 105.883C439.351 103.655 442.928 100.82 446 97.4832C447.523 95.8086 448.92 94.0238 450.18 92.1432C451.422 90.2346 452.505 88.228 453.42 86.1432C455.251 81.9888 456.412 77.5708 456.86 73.0532C456.86 73.0395 456.863 73.0259 456.868 73.0134C456.874 73.001 456.883 72.99 456.893 72.9813C456.904 72.9726 456.916 72.9665 456.93 72.9633C456.943 72.9602 456.957 72.9601 456.97 72.9632C456.993 72.9654 457.015 72.9756 457.031 72.992C457.048 73.0085 457.058 73.0301 457.06 73.0532L457.04 73.1132Z" fill="#231F20"/>
<path d="M109.92 30.6611C107.843 30.9374 105.801 31.437 103.83 32.1512C101.934 32.8047 100.119 33.6737 98.4205 34.7412C95.1033 36.811 92.4782 39.8225 90.8804 43.3911C89.2621 46.989 88.5875 50.9401 88.9205 54.8712C89.272 58.987 90.4488 62.9898 92.3804 66.6411C92.3988 66.6598 92.409 66.685 92.409 66.7112C92.409 66.7373 92.3988 66.7625 92.3804 66.7811C92.3616 66.795 92.3388 66.8024 92.3154 66.8024C92.2921 66.8024 92.2693 66.795 92.2504 66.7811C89.6802 63.3597 88.0123 59.3465 87.4005 55.1111C87.0924 52.9938 87.0688 50.8447 87.3305 48.7211C87.6134 46.6017 88.1993 44.5339 89.0704 42.5811C89.9552 40.6282 91.1508 38.8316 92.6105 37.2612C94.0819 35.7063 95.7896 34.3935 97.6705 33.3712C101.457 31.3646 105.697 30.3692 109.98 30.4812C109.994 30.4812 110.007 30.4837 110.019 30.4888C110.031 30.4938 110.042 30.5012 110.051 30.5104C110.06 30.5197 110.068 30.5307 110.073 30.5429C110.078 30.555 110.08 30.568 110.08 30.5811C110.08 30.6311 110.08 30.6711 109.99 30.6711L109.92 30.6611Z" fill="#231F20"/>
<path d="M177.17 37.4615L168.35 31.4615C168.184 31.319 167.975 31.2349 167.757 31.2223C167.538 31.2096 167.322 31.2691 167.14 31.3915L155.7 36.0815C155.521 36.2378 155.293 36.3254 155.055 36.3285C154.818 36.3316 154.587 36.25 154.404 36.0984C154.221 35.9468 154.098 35.7351 154.057 35.5011C154.016 35.2671 154.06 35.0262 154.18 34.8215L157.18 23.5215C157.266 23.3182 157.282 23.0922 157.226 22.8787C157.17 22.6653 157.045 22.4764 156.87 22.3415L148.78 13.9915C148.582 13.8678 148.433 13.6786 148.36 13.4568C148.287 13.2349 148.293 12.9945 148.379 12.7771C148.465 12.5597 148.623 12.3791 148.828 12.2666C149.033 12.1542 149.271 12.117 149.5 12.1615L160.66 11.3515C160.876 11.3642 161.09 11.3068 161.27 11.1878C161.45 11.0689 161.587 10.8947 161.66 10.6915L167.66 0.62149C167.676 0.356274 167.797 0.10823 167.995 -0.0680546C168.194 -0.244339 168.455 -0.334425 168.72 -0.318512C168.985 -0.302599 169.233 -0.181989 169.41 0.0167995C169.586 0.215588 169.676 0.476269 169.66 0.741485L174.07 10.9015C174.12 11.1152 174.24 11.3065 174.41 11.4456C174.58 11.5848 174.791 11.6642 175.01 11.6715L186.24 14.4415C186.475 14.4219 186.71 14.4862 186.903 14.6231C187.095 14.7601 187.233 14.9607 187.292 15.1895C187.35 15.4184 187.326 15.6606 187.223 15.8732C187.121 16.0859 186.946 16.2554 186.73 16.3515L178.34 24.5515C178.144 24.6714 177.995 24.8551 177.919 25.0719C177.842 25.2886 177.843 25.5251 177.92 25.7415L178.84 36.4215C178.926 36.6391 178.933 36.88 178.86 37.1022C178.786 37.3245 178.637 37.5139 178.439 37.6376C178.24 37.7613 178.004 37.8114 177.772 37.7793C177.541 37.7471 177.327 37.6346 177.17 37.4615Z" fill="#F5CB53"/>
<path d="M475.489 43.7433C474.995 44.3346 474.547 44.9631 474.149 45.6233C473.759 46.2602 473.425 46.9293 473.149 47.6233C472.576 48.9794 472.264 50.4315 472.229 51.9033C472.15 54.7325 473.172 57.482 475.079 59.5733C475.928 60.5553 476.997 61.3228 478.199 61.8133C479.319 62.2275 480.55 62.2275 481.669 61.8133C482.854 61.3786 483.918 60.6652 484.769 59.7333C485.642 58.768 486.303 57.6301 486.709 56.3933C487.136 55.2236 487.209 53.9542 486.919 52.7433C486.618 51.5543 485.995 50.4713 485.119 49.6133C484.304 48.7796 483.204 48.2864 482.039 48.2333C480.807 48.1856 479.59 48.5134 478.549 49.1733C478.05 49.4902 477.63 49.9156 477.318 50.4177C477.006 50.9198 476.812 51.4857 476.749 52.0733C476.548 53.3405 476.841 54.6365 477.569 55.6933C477.914 56.1595 478.42 56.4804 478.989 56.5933C479.643 56.6855 480.309 56.5884 480.909 56.3133C482.241 55.6602 483.277 54.5279 483.809 53.1433C483.82 53.1197 483.84 53.1013 483.864 53.0919C483.888 53.0826 483.915 53.0831 483.939 53.0933C483.961 53.1039 483.979 53.1214 483.99 53.1431C484 53.1648 484.004 53.1895 483.999 53.2133C483.8 53.9806 483.451 54.7008 482.972 55.3324C482.493 55.9641 481.894 56.4946 481.209 56.8933C480.517 57.3006 479.721 57.4954 478.919 57.4533C478.11 57.3958 477.35 57.0394 476.789 56.4533C475.755 55.2196 475.252 53.6269 475.389 52.0233C475.43 51.2244 475.651 50.4449 476.033 49.7423C476.415 49.0396 476.951 48.4317 477.599 47.9633C478.885 47.0102 480.448 46.5044 482.049 46.5233C483.664 46.5427 485.212 47.1672 486.389 48.2733C487.579 49.3447 488.42 50.7485 488.803 52.3031C489.187 53.8577 489.095 55.4915 488.539 56.9933C488.051 58.505 487.223 59.8848 486.118 61.027C485.014 62.1693 483.663 63.0437 482.169 63.5833C481.409 63.8237 480.616 63.9419 479.819 63.9333C479.022 63.8943 478.236 63.7324 477.489 63.4533C476.029 62.8266 474.755 61.8348 473.789 60.5733C472.802 59.3463 472.047 57.9503 471.559 56.4533C471.081 54.9493 470.928 53.3609 471.109 51.7933C471.504 48.6527 472.995 45.7523 475.319 43.6033C475.339 43.587 475.364 43.5781 475.389 43.5781C475.415 43.5781 475.439 43.587 475.459 43.6033C475.468 43.6117 475.475 43.6218 475.48 43.6329C475.484 43.6441 475.487 43.6561 475.487 43.6683C475.487 43.6804 475.484 43.6924 475.48 43.7036C475.475 43.7148 475.468 43.7249 475.459 43.7333L475.489 43.7433Z" fill="#231F20"/>
<path d="M19.12 114.861C18.63 115.45 18.1853 116.075 17.79 116.731C17.3876 117.369 17.0365 118.038 16.74 118.731C16.1748 120.086 15.8663 121.534 15.83 123.001C15.7558 125.833 16.7767 128.584 18.68 130.681C19.5254 131.665 20.5958 132.43 21.8 132.911C22.9186 133.331 24.1514 133.331 25.27 132.911C26.4541 132.475 27.5145 131.758 28.36 130.821C29.2362 129.86 29.9005 128.726 30.31 127.491C30.7433 126.345 30.8371 125.099 30.58 123.901C30.2744 122.714 29.6523 121.632 28.78 120.771C27.9599 119.939 26.8568 119.447 25.69 119.391C24.4605 119.347 23.2467 119.679 22.21 120.341C21.7106 120.656 21.2886 121.079 20.9752 121.58C20.6619 122.08 20.4653 122.645 20.4 123.231C20.2017 124.5 20.4988 125.796 21.23 126.851C21.5721 127.32 22.0797 127.642 22.65 127.751C23.3004 127.848 23.9648 127.751 24.56 127.471C25.8963 126.826 26.9367 125.696 27.47 124.311C27.4745 124.299 27.4814 124.287 27.4904 124.277C27.4994 124.267 27.5103 124.259 27.5224 124.254C27.5345 124.248 27.5476 124.245 27.5609 124.245C27.5743 124.244 27.5876 124.246 27.6 124.251C27.6122 124.255 27.6236 124.26 27.6334 124.268C27.6432 124.276 27.6512 124.286 27.6569 124.298C27.6625 124.309 27.6657 124.322 27.6663 124.334C27.6668 124.347 27.6647 124.359 27.66 124.371C27.4635 125.14 27.1166 125.861 26.6394 126.495C26.1623 127.128 25.5643 127.66 24.88 128.061C24.1815 128.461 23.3841 128.655 22.58 128.621C21.7743 128.56 21.0194 128.204 20.46 127.621C19.4269 126.391 18.9235 124.802 19.06 123.201C19.0992 122.4 19.3182 121.619 19.7008 120.914C20.0834 120.21 20.6197 119.6 21.27 119.131C22.5572 118.181 24.1203 117.679 25.72 117.701C27.3309 117.716 28.8771 118.337 30.05 119.441C31.2164 120.521 32.0551 121.907 32.47 123.441C32.8321 125.001 32.7384 126.633 32.2 128.141C31.7139 129.653 30.8878 131.032 29.7853 132.175C28.6828 133.317 27.3332 134.192 25.84 134.731C25.078 134.962 24.2862 135.08 23.49 135.081C22.692 135.045 21.9052 134.879 21.16 134.591C19.6998 133.965 18.4231 132.977 17.45 131.721C16.4718 130.49 15.7201 129.095 15.23 127.601C14.7519 126.097 14.5985 124.509 14.78 122.941C15.1684 119.799 16.6604 116.896 18.99 114.751C19.0087 114.733 19.0338 114.723 19.06 114.723C19.0862 114.723 19.1113 114.733 19.13 114.751C19.1455 114.769 19.154 114.792 19.154 114.816C19.154 114.84 19.1455 114.863 19.13 114.881L19.12 114.861Z" fill="#231F20"/>
<path d="M255.17 62.7422C229.59 58.5322 203.96 54.6122 178.23 51.7422C165.37 50.2822 152.48 49.0122 139.58 48.5222C133.151 48.2336 126.711 48.3003 120.29 48.7222C117.134 48.937 114.001 49.4052 110.92 50.1222C109.444 50.4766 108.012 50.993 106.65 51.6622C105.435 52.1859 104.424 53.0918 103.77 54.2422C103.531 54.7758 103.421 55.3583 103.45 55.9422C103.504 56.601 103.656 57.2481 103.9 57.8622C104.465 59.2329 105.222 60.5158 106.15 61.6722C108.116 64.1209 110.324 66.3656 112.74 68.3722C117.649 72.4864 122.842 76.2491 128.28 79.6322C139.232 86.4373 150.586 92.5719 162.28 98.0022C185.689 108.948 209.904 118.081 234.71 125.322C247.09 128.982 259.61 132.182 272.25 134.782C284.89 137.382 297.65 139.482 310.47 141.102C323.29 142.722 336.16 143.852 349.06 144.412C355.513 144.679 361.963 144.779 368.41 144.712C374.85 144.622 381.29 144.332 387.66 143.632C390.85 143.272 394.02 142.802 397.13 142.142C400.205 141.541 403.199 140.581 406.05 139.282C407.382 138.671 408.594 137.828 409.63 136.792C410.058 136.309 410.397 135.754 410.63 135.152C410.827 134.563 410.898 133.94 410.84 133.322C410.577 131.928 409.987 130.615 409.12 129.492C408.212 128.242 407.184 127.083 406.05 126.032C403.711 123.875 401.214 121.896 398.58 120.112C395.95 118.292 393.21 116.592 390.44 114.952C384.89 111.672 379.17 108.672 373.44 105.772C361.89 99.9622 350.08 94.6322 338.18 89.5122C326.28 84.3922 314.28 79.5122 302.23 74.7422C302.217 74.7378 302.206 74.7309 302.196 74.7219C302.186 74.7129 302.178 74.702 302.173 74.6899C302.167 74.6778 302.164 74.6647 302.163 74.6513C302.163 74.638 302.165 74.6247 302.17 74.6122C302.181 74.5886 302.201 74.5702 302.225 74.5609C302.249 74.5515 302.276 74.552 302.3 74.5622C314.4 79.1922 326.45 83.9522 338.42 88.9322C350.39 93.9122 362.26 99.1322 373.91 104.822C379.72 107.682 385.48 110.672 391.09 113.932C393.89 115.562 396.66 117.252 399.33 119.092C402.035 120.895 404.599 122.901 407 125.092C408.202 126.193 409.294 127.409 410.26 128.722C411.277 130.022 411.963 131.549 412.26 133.172C412.351 134.002 412.258 134.842 411.99 135.632C411.69 136.404 411.253 137.116 410.7 137.732C409.552 138.916 408.196 139.878 406.7 140.572C403.749 141.932 400.647 142.939 397.46 143.572C394.29 144.272 391.07 144.762 387.86 145.152C374.95 146.46 361.96 146.794 349 146.152C336 145.622 323.12 144.502 310.26 142.912C297.4 141.322 284.58 139.242 271.92 136.642C259.26 134.042 246.63 130.872 234.19 127.222C209.302 119.907 185.013 110.686 161.54 99.6422C149.792 94.1512 138.388 87.9532 127.39 81.0822C121.881 77.6462 116.627 73.8163 111.67 69.6222C109.183 67.5237 106.914 65.1784 104.9 62.6222C103.882 61.3391 103.056 59.9141 102.45 58.3922C102.152 57.6203 101.974 56.8077 101.92 55.9822C101.884 55.1487 102.048 54.3187 102.4 53.5622C103.203 52.1038 104.465 50.951 105.99 50.2822C107.463 49.5722 109.008 49.0256 110.6 48.6522C113.768 47.9382 116.989 47.4767 120.23 47.2722C126.703 46.8806 133.194 46.8539 139.67 47.1922C152.67 47.7722 165.53 49.1122 178.4 50.6722C204.13 53.8422 229.72 58.0422 255.24 62.5322C255.253 62.5346 255.266 62.5396 255.277 62.547C255.288 62.5544 255.298 62.564 255.306 62.5752C255.313 62.5864 255.318 62.599 255.321 62.6122C255.323 62.6255 255.323 62.6391 255.32 62.6522C255.321 62.6701 255.316 62.6877 255.308 62.7034C255.299 62.7191 255.287 62.7322 255.271 62.7414C255.256 62.7506 255.239 62.7555 255.221 62.7557C255.203 62.7558 255.185 62.7512 255.17 62.7422Z" fill="#231F20"/>
<path d="M380.92 155.742L375.44 146.632C375.352 146.429 375.199 146.261 375.006 146.155C374.812 146.048 374.589 146.008 374.37 146.042L362.02 145.472C361.793 145.537 361.55 145.52 361.334 145.423C361.118 145.326 360.944 145.155 360.842 144.942C360.74 144.728 360.717 144.485 360.777 144.257C360.837 144.028 360.976 143.828 361.17 143.692L368.7 134.692C368.857 134.54 368.963 134.342 369.002 134.127C369.042 133.912 369.013 133.69 368.92 133.492L365.1 122.492C364.973 122.296 364.919 122.061 364.947 121.829C364.975 121.597 365.084 121.383 365.254 121.222C365.423 121.062 365.644 120.966 365.877 120.951C366.111 120.937 366.341 121.004 366.53 121.142L376.99 125.142C377.181 125.253 377.403 125.297 377.622 125.268C377.841 125.239 378.044 125.138 378.2 124.982L387.86 118.362C387.998 118.144 388.216 117.989 388.466 117.927C388.717 117.866 388.981 117.904 389.204 118.033C389.428 118.162 389.593 118.372 389.664 118.62C389.736 118.868 389.71 119.133 389.59 119.362L389.31 130.432C389.265 130.648 389.292 130.873 389.388 131.072C389.484 131.271 389.643 131.433 389.84 131.532L398.84 138.782C399.056 138.867 399.235 139.025 399.348 139.228C399.46 139.431 399.498 139.667 399.456 139.895C399.413 140.124 399.292 140.33 399.114 140.479C398.937 140.628 398.712 140.71 398.48 140.712L387.42 144.602C387.203 144.631 387 144.728 386.84 144.879C386.68 145.03 386.572 145.227 386.53 145.442L382.92 155.502C382.952 155.767 382.877 156.034 382.712 156.244C382.547 156.454 382.305 156.59 382.04 156.622C381.775 156.654 381.508 156.579 381.298 156.414C381.088 156.249 380.952 156.007 380.92 155.742Z" fill="#F5CB53"/>
</g>
<defs>
<linearGradient id="paint0_linear_7809_108606" x1="326.889" y1="568.811" x2="622.729" y2="568.811" gradientUnits="userSpaceOnUse">
<stop offset="0.03" stop-color="#A03B28"/>
<stop offset="0.3" stop-color="#AC432B"/>
<stop offset="0.79" stop-color="#CB5732"/>
<stop offset="0.98" stop-color="#D96035"/>
</linearGradient>
<linearGradient id="paint1_linear_7809_108606" x1="196.37" y1="465.51" x2="517.26" y2="465.51" gradientUnits="userSpaceOnUse">
<stop offset="0.32" stop-color="#A03B28"/>
<stop offset="0.51" stop-color="#AC432B"/>
<stop offset="0.85" stop-color="#CB5732"/>
<stop offset="0.98" stop-color="#D96035"/>
</linearGradient>
<linearGradient id="paint2_linear_7809_108606" x1="197.26" y1="539.28" x2="442.92" y2="567.3" gradientUnits="userSpaceOnUse">
<stop offset="0.32" stop-color="#A03B28"/>
<stop offset="0.51" stop-color="#AC432B"/>
<stop offset="0.85" stop-color="#CB5732"/>
<stop offset="0.98" stop-color="#D96035"/>
</linearGradient>
<linearGradient id="paint3_linear_7809_108606" x1="281.37" y1="531.111" x2="484.95" y2="585.451" gradientUnits="userSpaceOnUse">
<stop offset="0.09" stop-color="#A03B28"/>
<stop offset="0.44" stop-color="#B3482C"/>
<stop offset="0.98" stop-color="#D96035"/>
</linearGradient>
<linearGradient id="paint4_linear_7809_108606" x1="-0.000129687" y1="188.271" x2="275.46" y2="188.271" gradientUnits="userSpaceOnUse">
<stop offset="0.32" stop-color="#A03B28"/>
<stop offset="0.51" stop-color="#AC432B"/>
<stop offset="0.85" stop-color="#CB5732"/>
<stop offset="0.98" stop-color="#D96035"/>
</linearGradient>
<linearGradient id="paint5_linear_7809_108606" x1="247.66" y1="187.27" x2="529.84" y2="187.27" gradientUnits="userSpaceOnUse">
<stop offset="0.32" stop-color="#A03B28"/>
<stop offset="0.51" stop-color="#AC432B"/>
<stop offset="0.85" stop-color="#CB5732"/>
<stop offset="0.98" stop-color="#D96035"/>
</linearGradient>
<linearGradient id="paint6_linear_7809_108606" x1="40.2998" y1="257.918" x2="489.75" y2="257.918" gradientUnits="userSpaceOnUse">
<stop offset="0.32" stop-color="#A03B28"/>
<stop offset="0.51" stop-color="#AC432B"/>
<stop offset="0.85" stop-color="#CB5732"/>
<stop offset="0.98" stop-color="#D96035"/>
</linearGradient>
<linearGradient id="paint7_linear_7809_108606" x1="364.691" y1="351.96" x2="327.141" y2="279.1" gradientUnits="userSpaceOnUse">
<stop offset="0.32" stop-color="#A03B28"/>
<stop offset="0.51" stop-color="#AC432B"/>
<stop offset="0.85" stop-color="#CB5732"/>
<stop offset="0.98" stop-color="#D96035"/>
</linearGradient>
<linearGradient id="paint8_linear_7809_108606" x1="321.141" y1="286.731" x2="359.531" y2="196.981" gradientUnits="userSpaceOnUse">
<stop offset="0.28" stop-color="#A03B28"/>
<stop offset="0.48" stop-color="#AC432B"/>
<stop offset="0.84" stop-color="#CB5732"/>
<stop offset="0.98" stop-color="#D96035"/>
</linearGradient>
<linearGradient id="paint9_linear_7809_108606" x1="163.51" y1="351.922" x2="201.06" y2="279.062" gradientUnits="userSpaceOnUse">
<stop offset="0.32" stop-color="#A03B28"/>
<stop offset="0.51" stop-color="#AC432B"/>
<stop offset="0.85" stop-color="#CB5732"/>
<stop offset="0.98" stop-color="#D96035"/>
</linearGradient>
<linearGradient id="paint10_linear_7809_108606" x1="201.89" y1="275.391" x2="167.16" y2="191.711" gradientUnits="userSpaceOnUse">
<stop offset="0.3" stop-color="#A03B28"/>
<stop offset="0.49" stop-color="#AC432B"/>
<stop offset="0.84" stop-color="#CB5732"/>
<stop offset="0.98" stop-color="#D96035"/>
</linearGradient>
<radialGradient id="paint11_radial_7809_108606" cx="0" cy="0" r="1" gradientUnits="userSpaceOnUse" gradientTransform="translate(265.33 307.171) scale(30.49 18.9038)">
<stop offset="0.01" stop-color="#414042"/>
<stop offset="0.68" stop-color="#231F20"/>
</radialGradient>
<clipPath id="clip0_7809_108606">
<rect width="714.65" height="661.16" fill="white"/>
</clipPath>
</defs>
</svg>
