<svg width="83" height="66" viewBox="0 0 83 66" fill="none" xmlns="http://www.w3.org/2000/svg">
<path d="M81.9941 41.522V41.4849C81.9876 41.4571 81.979 41.4298 81.9681 41.4033C81.7219 40.7315 81.4357 40.075 81.1112 39.4373L65.691 4.39022C65.5425 4.05265 65.3324 3.7457 65.0715 3.48511C63.9692 2.38256 62.6605 1.50796 61.2201 0.911252C59.7798 0.314543 58.236 0.00741911 56.6769 0.00741911C55.1179 0.00741911 53.5741 0.314543 52.1337 0.911252C50.6934 1.50796 49.3847 2.38256 48.2824 3.48511C47.7278 4.0403 47.4157 4.79254 47.4144 5.57725V14.8509H35.5441V5.57725C35.5444 5.18743 35.4679 4.80136 35.319 4.44112C35.17 4.08087 34.9516 3.75349 34.6761 3.47769C33.5738 2.37514 32.2651 1.50054 30.8247 0.903832C29.3844 0.307124 27.8406 0 26.2815 0C24.7225 0 23.1787 0.307124 21.7383 0.903832C20.298 1.50054 18.9893 2.37514 17.887 3.47769C17.6261 3.73828 17.416 4.04523 17.2675 4.3828L1.8621 39.4373C1.53759 40.075 1.25146 40.7315 1.00521 41.4033C0.99489 41.4287 0.986216 41.4547 0.979243 41.4812C0.979243 41.4812 0.979243 41.5109 0.979243 41.522C-0.552809 45.9487 -0.278711 50.8008 1.74213 55.0268C3.76298 59.2528 7.36777 62.5123 11.7753 64.0987C16.1828 65.6852 21.0379 65.4708 25.2885 63.5022C29.539 61.5335 32.8426 57.9691 34.4832 53.5815C35.2055 51.6106 35.5699 49.5265 35.5589 47.4275V20.7861H47.4292V47.4312C47.4183 49.5303 47.7826 51.6144 48.505 53.5852C50.1456 57.9729 53.4491 61.5372 57.6997 63.5059C61.9503 65.4745 66.8054 65.6889 71.2129 64.1024C75.6204 62.516 79.2252 59.2566 81.246 55.0306C83.2669 50.8046 83.541 45.9524 82.0089 41.5257L81.9941 41.522ZM28.893 51.5376C27.7972 54.4616 25.5933 56.836 22.759 58.1464C19.9247 59.4567 16.6881 59.5975 13.7507 58.5382C10.8133 57.4789 8.41163 55.3048 7.06604 52.487C5.72045 49.6692 5.53936 46.4347 6.562 43.4843L7.23341 41.9523C8.46745 39.6066 10.4511 37.7414 12.8682 36.6539C15.2853 35.5663 17.9969 35.3191 20.5708 35.9515C23.1448 36.5839 25.4331 38.0595 27.071 40.1434C28.709 42.2272 29.6024 44.7993 29.6089 47.4498V47.4943C29.6087 48.8784 29.3664 50.2518 28.893 51.5524V51.5376ZM69.3003 58.6487C67.506 59.3055 65.5796 59.5194 63.6849 59.2723C61.7902 59.0253 59.9831 58.3244 58.4172 57.2294C56.8514 56.1344 55.573 54.6776 54.6907 52.9827C53.8084 51.2878 53.3483 49.405 53.3495 47.4943V47.4535C53.3594 44.8042 54.2551 42.2344 55.8943 40.1531C57.5334 38.0718 59.8217 36.5987 62.3948 35.9682C64.9679 35.3377 67.678 35.5861 70.0937 36.6739C72.5093 37.7617 74.4916 39.6263 75.7251 41.9709L76.3965 43.5029C77.452 46.4529 77.2983 49.7006 75.969 52.5379C74.6397 55.3751 72.2425 57.5717 69.3003 58.6487Z" fill="#B6CFD4"/>
</svg>
