<svg width="63" height="40" viewBox="0 0 63 40" fill="none" xmlns="http://www.w3.org/2000/svg">
<path d="M61.9454 36.6852L43.8029 4.44425H59.9123C60.489 4.45695 61.049 4.24951 61.4782 3.8641C61.9075 3.47869 62.1739 2.94426 62.2232 2.36948C62.2433 2.06554 62.2008 1.7607 62.0982 1.47389C61.9956 1.18708 61.8352 0.924424 61.6268 0.702243C61.4184 0.480062 61.1666 0.303097 60.8869 0.182341C60.6073 0.0615854 60.3058 -0.000381864 60.0012 0.000287389H2.30465C1.73027 -0.00885 1.1738 0.200197 0.747507 0.585253C0.321212 0.97031 0.0568224 1.50272 0.00767642 2.07506C-0.0125045 2.379 0.0300226 2.68384 0.132616 2.97065C0.235209 3.25746 0.395678 3.52011 0.604054 3.7423C0.81243 3.96448 1.06426 4.14144 1.34391 4.2622C1.62356 4.38295 1.92505 4.44492 2.22966 4.44425H18.4279L0.285424 36.6852C0.0525317 37.0992 -0.041574 37.5769 0.0169102 38.0483C0.0753944 38.5196 0.28339 38.9599 0.610389 39.3044C0.826806 39.5266 1.08613 39.7024 1.3726 39.8213C1.65908 39.9402 1.96673 39.9996 2.27688 39.996H27.7824C28.0771 39.996 28.3597 39.8789 28.568 39.6706C28.7764 39.4622 28.8934 39.1796 28.8934 38.885V33.405C28.8857 32.8316 29.0954 32.2765 29.4803 31.8514C29.8652 31.4263 30.3968 31.1627 30.9682 31.1136C31.2722 31.0934 31.577 31.1359 31.8638 31.2385C32.1506 31.3411 32.4133 31.5016 32.6354 31.71C32.8576 31.9183 33.0346 32.1702 33.1553 32.4498C33.2761 32.7295 33.3381 33.031 33.3374 33.3356V38.8905C33.3374 39.1852 33.4544 39.4678 33.6628 39.6761C33.8712 39.8845 34.1537 40.0015 34.4484 40.0015H59.9373C60.2474 40.0052 60.5551 39.9458 60.8416 39.8269C61.128 39.708 61.3874 39.5321 61.6038 39.3099C61.9347 38.9669 62.1465 38.5266 62.2081 38.054C62.2696 37.5814 62.1775 37.1015 61.9454 36.6852ZM33.3374 23.3311C33.3374 23.9204 33.1033 24.4856 32.6866 24.9023C32.2699 25.319 31.7047 25.5531 31.1154 25.5531C30.5261 25.5531 29.9609 25.319 29.5442 24.9023C29.1275 24.4856 28.8934 23.9204 28.8934 23.3311V18.8871C28.8934 18.2978 29.1275 17.7327 29.5442 17.316C29.9609 16.8993 30.5261 16.6651 31.1154 16.6651C31.7047 16.6651 32.2699 16.8993 32.6866 17.316C33.1033 17.7327 33.3374 18.2978 33.3374 18.8871V23.3311ZM33.3374 8.88821C33.3374 9.47752 33.1033 10.0427 32.6866 10.4594C32.2699 10.8761 31.7047 11.1102 31.1154 11.1102C30.5261 11.1102 29.9609 10.8761 29.5442 10.4594C29.1275 10.0427 28.8934 9.47752 28.8934 8.88821V6.66623C28.8934 6.07693 29.1275 5.51176 29.5442 5.09505C29.9609 4.67835 30.5261 4.44425 31.1154 4.44425C31.7047 4.44425 32.2699 4.67835 32.6866 5.09505C33.1033 5.51176 33.3374 6.07693 33.3374 6.66623V8.88821Z" fill="#B6CFD4"/>
</svg>
