<svg width="132" height="42" viewBox="0 0 132 42" fill="none" xmlns="http://www.w3.org/2000/svg">
<path d="M19.4415 41.9113C7.57069 41.9113 0 38.2168 0 30.1616C0 24.0445 4.36072 21.1979 9.62991 20.1077V19.4415C4.30015 18.533 1.21131 15.5653 1.21131 10.7807C1.21131 4.23958 7.44956 0.121133 19.381 0.121133C31.4335 0.121133 37.6112 4.23958 37.6112 10.7807C37.6112 15.5653 34.5829 18.533 29.132 19.4415V20.1077C34.8252 21.1979 38.7619 24.0445 38.7619 30.1616C38.7619 38.2168 31.1307 41.9113 19.4415 41.9113ZM19.381 17.2612C26.4066 17.2612 28.5263 15.9287 28.5263 13.0821C28.5263 10.175 26.7094 8.84256 19.381 8.84256C12.2342 8.84256 10.2961 10.175 10.2961 13.0821C10.2961 15.9287 12.4765 17.2612 19.381 17.2612ZM19.381 33.1899C27.1939 33.1899 29.556 31.7969 29.556 28.2841C29.556 24.8924 27.315 23.4994 19.381 23.4994C11.4469 23.4994 9.20595 24.8924 9.20595 28.2841C9.20595 31.7969 11.5074 33.1899 19.381 33.1899Z" fill="#B6CFD4"/>
<path d="M61.7001 41.9113C48.618 41.9113 41.4107 33.6744 41.4107 21.0162C41.4107 8.41861 48.618 0.121133 61.7001 0.121133C74.7217 0.121133 81.9896 8.41861 81.9896 21.0162C81.9896 33.6744 74.7217 41.9113 61.7001 41.9113ZM61.7001 33.0688C69.392 33.0688 72.2385 29.7377 72.2385 21.0162C72.2385 12.2948 69.392 8.96369 61.7001 8.96369C53.9478 8.96369 51.1618 12.2948 51.1618 21.0162C51.1618 29.7377 53.9478 33.0688 61.7001 33.0688Z" fill="#B6CFD4"/>
<path d="M94.996 20.2894C88.2733 20.2894 84.3365 16.2316 84.3365 10.175C84.3365 4.11845 88.2733 0 94.996 0C101.779 0 105.716 4.11845 105.716 10.175C105.716 16.2316 101.779 20.2894 94.996 20.2894ZM95.2383 41.3057H86.4563L120.918 0.726787H129.7L95.2383 41.3057ZM94.996 14.354C98.206 14.354 99.2356 13.2033 99.2356 10.175C99.2356 7.14673 98.206 5.93542 94.996 5.93542C91.8466 5.93542 90.817 7.14673 90.817 10.175C90.817 13.2033 91.8466 14.354 94.996 14.354ZM121.1 41.9719C114.377 41.9719 110.38 37.914 110.38 31.8575C110.38 25.8009 114.377 21.743 121.1 21.743C127.823 21.743 131.82 25.8009 131.82 31.8575C131.82 37.914 127.823 41.9719 121.1 41.9719ZM121.1 36.0365C124.249 36.0365 125.339 34.8857 125.339 31.8575C125.339 28.8292 124.249 27.6179 121.1 27.6179C117.95 27.6179 116.86 28.8292 116.86 31.8575C116.86 34.8857 117.95 36.0365 121.1 36.0365Z" fill="#B6CFD4"/>
</svg>
