<svg width="67" height="62" viewBox="0 0 67 62" fill="none" xmlns="http://www.w3.org/2000/svg">
<path d="M64.4368 48.4812C66.0854 45.0619 66.8943 41.2986 66.7963 37.5039C66.6984 33.7092 65.6964 29.9926 63.8737 26.6629C62.0509 23.3333 59.4599 20.4865 56.3161 18.3593C53.1722 16.232 49.5661 14.8856 45.7973 14.4319C44.5433 11.5163 42.7202 8.8802 40.4347 6.67796C38.1492 4.47572 35.4472 2.75163 32.4871 1.60664C29.527 0.461645 26.3681 -0.0812242 23.1956 0.00981849C20.023 0.100861 16.9005 0.823986 14.0109 2.13685C11.1213 3.44971 8.52268 5.32591 6.36722 7.65559C4.21177 9.98528 2.5428 12.7216 1.45806 15.7043C0.373316 18.6871 -0.105402 21.8563 0.049939 25.0263C0.20528 28.1964 0.991559 31.3036 2.36273 34.166L0.19458 41.5353C-0.0478379 42.358 -0.0640471 43.2308 0.147657 44.0619C0.359362 44.893 0.791153 45.6517 1.3976 46.2582C2.00406 46.8646 2.76275 47.2964 3.59386 47.5081C4.42497 47.7198 5.29778 47.7036 6.12046 47.4612L13.4898 45.293C15.8561 46.4299 18.393 47.1705 20.9993 47.4851C22.2655 50.4519 24.1202 53.1311 26.4513 55.3608C28.7823 57.5905 31.5413 59.3244 34.5615 60.4576C37.5816 61.5908 40.8002 62.0998 44.0227 61.9538C47.2451 61.8078 50.4045 61.0098 53.3098 59.6082L60.6791 61.7764C61.5015 62.0185 62.3739 62.0346 63.2047 61.823C64.0354 61.6114 64.7938 61.1799 65.4002 60.5739C66.0065 59.9679 66.4384 59.2097 66.6504 58.379C66.8624 57.5484 66.8467 56.676 66.605 55.8535L64.4368 48.4812ZM59.5906 48.9196L62.0301 57.2015L53.7512 54.7649C53.153 54.5916 52.5109 54.659 51.9618 54.9528C47.5683 57.2988 42.4323 57.836 37.6485 56.4499C32.8646 55.0638 28.8113 51.8641 26.3526 47.5328C29.6193 47.1918 32.7804 46.1794 35.6374 44.5592C38.4945 42.9389 40.9859 40.7456 42.9553 38.117C44.9247 35.4885 46.3296 32.4812 47.082 29.284C47.8343 26.0868 47.9178 22.7687 47.3272 19.5377C50.1735 20.2086 52.8276 21.5246 55.0846 23.384C57.3416 25.2434 59.1412 27.5966 60.3445 30.2619C61.5477 32.9272 62.1224 35.8333 62.0243 38.756C61.9262 41.6786 61.1578 44.5397 59.7785 47.1182C59.4815 47.6706 59.414 48.3178 59.5906 48.9196Z" fill="#B6CFD4"/>
</svg>
