<svg width="1448" height="2164" viewBox="0 0 1448 2164" fill="none" xmlns="http://www.w3.org/2000/svg">
<g opacity="0.5">
<g opacity="0.6">
<line x1="2.18557e-08" y1="2108.75" x2="1448" y2="2108.75" stroke="white" stroke-opacity="0.2" stroke-width="0.5"/>
<line x1="64.5" y1="1052.02" x2="67.3319" y2="2164" stroke="white" stroke-opacity="0.2"/>
<line x1="1380.5" y1="1051.43" x2="1383.4" y2="2164" stroke="white" stroke-opacity="0.2"/>
<line x1="0.0703125" y1="1051.5" x2="1447.9" y2="1051.5" stroke="white" stroke-opacity="0.2"/>
<rect x="1378" y="1049" width="5.00293" height="5.00172" fill="white" fill-opacity="0.2"/>
<rect x="62" y="1048.98" width="5.00293" height="5.02808" fill="white" fill-opacity="0.2"/>
</g>
<g clip-path="url(#clip0_513_26497)">
<g opacity="0.8">
<mask id="mask0_513_26497" style="mask-type:alpha" maskUnits="userSpaceOnUse" x="3" y="0" width="1435" height="1128">
<g clip-path="url(#clip1_513_26497)">
<path d="M811.506 343.259C811.506 509.527 701.573 644.314 565.965 644.314C430.356 644.314 -416.912 61.1474 -416.912 -105.121C-416.912 -271.389 800.447 -42.4899 936.056 -42.4899C1071.66 -42.4899 811.506 176.991 811.506 343.259Z" fill="url(#paint0_linear_513_26497)"/>
<path d="M906.876 1055.74C906.876 1222.01 796.944 1356.79 661.335 1356.79C525.727 1356.79 -229.73 1318.04 -229.73 1151.77C-229.73 985.5 -173.888 591.649 -38.2795 591.649C97.3292 591.649 906.876 889.469 906.876 1055.74Z" fill="url(#paint1_radial_513_26497)"/>
<path d="M1185.41 343.716C1551.31 674.185 1382.29 508.111 1696.56 499.744C1745.86 509.241 1829.56 509.692 1769.93 435.521C1695.39 342.808 1719.41 277.323 1626.26 176.311C1533.11 75.2993 1476.38 -27.327 1335.74 -187.984C1195.11 -348.641 1184.29 -216.206 1025.75 -228.761C867.201 -241.315 939.514 -221.379 720.762 11.7278C502.009 244.834 819.517 13.2474 1185.41 343.716Z" fill="#D9D9D9"/>
<path d="M839.977 863.523C350.318 921.172 586.607 903.379 385.904 1145.36C346.285 1176.2 290.819 1238.88 385.904 1242.87C504.76 1247.85 538.21 1309.06 675.571 1305.5C812.932 1301.94 927.518 1326.85 1141.03 1326.85C1354.55 1326.85 1262.02 1231.48 1375.9 1120.45C1489.77 1009.42 1427.14 1050.7 1395.83 732.568C1364.51 414.432 1329.64 805.874 839.977 863.523Z" fill="#D9D9D9"/>
</g>
</mask>
<g mask="url(#mask0_513_26497)">
<g opacity="0.09">
<line x1="-80.9785" y1="688.442" x2="1625.71" y2="688.442" stroke="white" stroke-width="1.42343"/>
<line x1="-80.9785" y1="324.044" x2="1625.71" y2="324.044" stroke="white" stroke-width="1.42343"/>
<line x1="-80.9785" y1="506.241" x2="1625.71" y2="506.241" stroke="white" stroke-width="1.42343"/>
<line x1="-80.9785" y1="870.638" x2="1625.71" y2="870.638" stroke="white" stroke-width="1.42343"/>
<line x1="-80.9785" y1="141.844" x2="1625.71" y2="141.844" stroke="white" stroke-width="1.42343"/>
<line x1="-80.9785" y1="597.341" x2="1625.71" y2="597.341" stroke="white" stroke-width="1.42343"/>
<line x1="-80.9785" y1="961.738" x2="1625.71" y2="961.738" stroke="white" stroke-width="1.42343"/>
<line x1="-80.9785" y1="232.944" x2="1625.71" y2="232.944" stroke="white" stroke-width="1.42343"/>
<line x1="-80.9785" y1="415.141" x2="1625.71" y2="415.141" stroke="white" stroke-width="1.42343"/>
<line x1="-80.9785" y1="779.541" x2="1625.71" y2="779.541" stroke="white" stroke-width="1.42343"/>
<line x1="-80.9785" y1="50.7448" x2="1625.71" y2="50.7448" stroke="white" stroke-width="1.42343"/>
<line x1="701.196" y1="-72.3809" x2="701.196" y2="1245.71" stroke="white" stroke-width="1.42343"/>
<line x1="336.798" y1="-72.3809" x2="336.798" y2="1245.71" stroke="white" stroke-width="1.42343"/>
<line x1="1065.59" y1="-72.3809" x2="1065.59" y2="1245.71" stroke="white" stroke-width="1.42343"/>
<line x1="1379.99" y1="-72.3809" x2="1379.99" y2="1245.71" stroke="white" stroke-width="1.42343"/>
<line x1="154.598" y1="-72.3809" x2="154.598" y2="1245.71" stroke="white" stroke-width="1.42343"/>
<line x1="883.389" y1="-72.3809" x2="883.389" y2="1245.71" stroke="white" stroke-width="1.42343"/>
<line x1="518.997" y1="-72.3809" x2="518.997" y2="1245.71" stroke="white" stroke-width="1.42343"/>
<line x1="1247.79" y1="-72.3809" x2="1247.79" y2="1245.71" stroke="white" stroke-width="1.42343"/>
<line x1="64.2527" y1="-72.1562" x2="64.2527" y2="1245.94" stroke="white" stroke-width="1.42343"/>
<line x1="792.294" y1="-72.3809" x2="792.294" y2="1245.71" stroke="white" stroke-width="1.42343"/>
<line x1="427.895" y1="-72.3809" x2="427.895" y2="1245.71" stroke="white" stroke-width="1.42343"/>
<line x1="1156.69" y1="-72.3809" x2="1156.69" y2="1245.71" stroke="white" stroke-width="1.42343"/>
<line x1="245.698" y1="-72.3809" x2="245.698" y2="1245.71" stroke="white" stroke-width="1.42343"/>
<line x1="974.493" y1="-72.3809" x2="974.493" y2="1245.71" stroke="white" stroke-width="1.42343"/>
<line x1="610.093" y1="-72.3809" x2="610.093" y2="1245.71" stroke="white" stroke-width="1.42343"/>
</g>
<g opacity="0.5">
<rect x="883.457" y="870.574" width="90.5818" height="90.5818" fill="#006837" fill-opacity="0.4"/>
<rect x="427.963" y="870.574" width="90.5818" height="90.5818" fill="#006837" fill-opacity="0.15"/>
<rect x="1248.37" y="233.914" width="90.5818" height="89.2877" fill="#006837" fill-opacity="0.2"/>
<rect x="518.543" y="506.896" width="90.5818" height="89.2877" fill="#006837" fill-opacity="0.1"/>
<rect x="1156.5" y="324.496" width="90.5818" height="89.2877" fill="#006837" fill-opacity="0.2"/>
<rect x="427.797" y="233.914" width="90.5818" height="89.2877" fill="#006837" fill-opacity="0.1"/>
<rect x="1156.5" y="233.914" width="90.5818" height="89.2877" fill="#006837" fill-opacity="0.2"/>
<rect x="427.797" y="506.896" width="90.5818" height="89.2877" fill="#006837" fill-opacity="0.1"/>
<rect x="337.379" y="870.574" width="90.5818" height="90.5818" fill="#006837" fill-opacity="0.15"/>
<rect x="154.92" y="779.992" width="90.5818" height="90.5818" fill="#006837" fill-opacity="0.15"/>
<rect x="1065.92" y="51.4561" width="90.5818" height="90.5818" fill="#006837" fill-opacity="0.1"/>
<rect x="974.344" y="-39.6455" width="90.5818" height="89.7688" fill="#006837" fill-opacity="0.1"/>
<rect x="974.344" y="50.9717" width="90.5818" height="90.3585" fill="#006837" fill-opacity="0.1"/>
<rect x="427.963" y="-40.4189" width="91.8758" height="90.5818" fill="#006837" fill-opacity="0.2"/>
<rect x="154.922" y="323.202" width="90.5818" height="91.8758" fill="#006837" fill-opacity="0.15"/>
</g>
</g>
</g>
</g>
</g>
<defs>
<linearGradient id="paint0_linear_513_26497" x1="169.54" y1="-21.85" x2="682.686" y2="251.448" gradientUnits="userSpaceOnUse">
<stop stop-color="white"/>
<stop offset="1" stop-color="white" stop-opacity="0"/>
</linearGradient>
<radialGradient id="paint1_radial_513_26497" cx="0" cy="0" r="1" gradientUnits="userSpaceOnUse" gradientTransform="translate(130.397 1062.8) rotate(-29.3932) scale(877.316 1507.85)">
<stop stop-color="white"/>
<stop offset="1" stop-color="white" stop-opacity="0"/>
</radialGradient>
<clipPath id="clip0_513_26497">
<rect width="1435" height="1051" fill="white" transform="translate(3)"/>
</clipPath>
<clipPath id="clip1_513_26497">
<rect width="1434.81" height="1127.35" fill="white" transform="translate(3 0.213867)"/>
</clipPath>
</defs>
</svg>
