<svg width="1440" height="1118" viewBox="0 0 1440 1118" fill="none" xmlns="http://www.w3.org/2000/svg">
<g clip-path="url(#clip0_692_32721)">
<g opacity="0.5">
<g opacity="0.6">
<line x1="61.5" y1="900.018" x2="64.3319" y2="2012" stroke="white" stroke-opacity="0.2"/>
<line x1="1377.5" y1="899.432" x2="1380.4" y2="2012" stroke="white" stroke-opacity="0.2"/>
<line x1="-2.92969" y1="899.5" x2="1444.9" y2="899.5" stroke="white" stroke-opacity="0.2"/>
<rect x="1375" y="896.996" width="5.00293" height="5.00172" fill="white" fill-opacity="0.2"/>
<rect x="59" y="896.979" width="5.00293" height="5.02808" fill="white" fill-opacity="0.2"/>
</g>
<g clip-path="url(#clip1_692_32721)">
<g opacity="0.8">
<mask id="mask0_692_32721" style="mask-type:alpha" maskUnits="userSpaceOnUse" x="0" y="-152" width="1435" height="1128">
<g clip-path="url(#clip2_692_32721)">
<path d="M808.506 191.26C808.506 357.528 698.573 492.315 562.965 492.315C427.356 492.315 -419.912 -90.8516 -419.912 -257.12C-419.912 -423.388 797.447 -194.489 933.056 -194.489C1068.66 -194.489 808.506 24.9918 808.506 191.26Z" fill="url(#paint0_linear_692_32721)"/>
<path d="M903.876 903.738C903.876 1070.01 793.944 1204.79 658.335 1204.79C522.727 1204.79 -232.73 1166.04 -232.73 999.769C-232.73 833.501 -176.888 439.65 -41.2795 439.65C94.3292 439.65 903.876 737.47 903.876 903.738Z" fill="url(#paint1_radial_692_32721)"/>
<path d="M1182.41 191.717C1548.31 522.186 1379.29 356.112 1693.56 347.745C1742.86 357.242 1826.56 357.693 1766.93 283.522C1692.39 190.809 1716.41 125.324 1623.26 24.3123C1530.11 -76.6997 1473.38 -179.326 1332.74 -339.983C1192.11 -500.64 1181.29 -368.205 1022.75 -380.76C864.201 -393.314 936.514 -373.378 717.762 -140.271C499.009 92.8352 816.517 -138.752 1182.41 191.717Z" fill="#D9D9D9"/>
<path d="M836.977 711.525C347.318 769.174 583.607 751.381 382.904 993.364C343.285 1024.2 287.819 1086.88 382.904 1090.87C501.76 1095.85 535.21 1157.06 672.571 1153.5C809.932 1149.94 924.518 1174.85 1138.03 1174.85C1351.55 1174.85 1259.02 1079.48 1372.9 968.454C1486.77 857.426 1424.14 898.706 1392.83 580.57C1361.51 262.434 1326.64 653.876 836.977 711.525Z" fill="#D9D9D9"/>
</g>
</mask>
<g mask="url(#mask0_692_32721)">
<g opacity="0.09">
<line x1="-83.9785" y1="536.441" x2="1622.71" y2="536.441" stroke="white" stroke-width="1.42343"/>
<line x1="-83.9785" y1="172.044" x2="1622.71" y2="172.044" stroke="white" stroke-width="1.42343"/>
<line x1="-83.9785" y1="354.241" x2="1622.71" y2="354.241" stroke="white" stroke-width="1.42343"/>
<line x1="-83.9785" y1="718.638" x2="1622.71" y2="718.638" stroke="white" stroke-width="1.42343"/>
<line x1="-83.9785" y1="445.341" x2="1622.71" y2="445.341" stroke="white" stroke-width="1.42343"/>
<line x1="-83.9785" y1="809.738" x2="1622.71" y2="809.737" stroke="white" stroke-width="1.42343"/>
<line x1="-83.9785" y1="80.9445" x2="1622.71" y2="80.9445" stroke="white" stroke-width="1.42343"/>
<line x1="-83.9785" y1="263.142" x2="1622.71" y2="263.142" stroke="white" stroke-width="1.42343"/>
<line x1="-83.9785" y1="627.54" x2="1622.71" y2="627.54" stroke="white" stroke-width="1.42343"/>
<line x1="698.196" y1="-224.381" x2="698.196" y2="1093.71" stroke="white" stroke-width="1.42343"/>
<line x1="333.798" y1="-224.381" x2="333.798" y2="1093.71" stroke="white" stroke-width="1.42343"/>
<line x1="1062.59" y1="-224.381" x2="1062.59" y2="1093.71" stroke="white" stroke-width="1.42343"/>
<line x1="1376.99" y1="-224.381" x2="1376.99" y2="1093.71" stroke="white" stroke-width="1.42343"/>
<line x1="151.598" y1="-224.381" x2="151.598" y2="1093.71" stroke="white" stroke-width="1.42343"/>
<line x1="880.389" y1="-224.381" x2="880.389" y2="1093.71" stroke="white" stroke-width="1.42343"/>
<line x1="515.997" y1="-224.381" x2="515.997" y2="1093.71" stroke="white" stroke-width="1.42343"/>
<line x1="1244.79" y1="-224.381" x2="1244.79" y2="1093.71" stroke="white" stroke-width="1.42343"/>
<line x1="61.2527" y1="-224.156" x2="61.2527" y2="1093.94" stroke="white" stroke-width="1.42343"/>
<line x1="789.294" y1="-224.381" x2="789.294" y2="1093.71" stroke="white" stroke-width="1.42343"/>
<line x1="424.895" y1="-224.381" x2="424.895" y2="1093.71" stroke="white" stroke-width="1.42343"/>
<line x1="1153.69" y1="-224.381" x2="1153.69" y2="1093.71" stroke="white" stroke-width="1.42343"/>
<line x1="242.698" y1="-224.381" x2="242.698" y2="1093.71" stroke="white" stroke-width="1.42343"/>
<line x1="971.493" y1="-224.381" x2="971.493" y2="1093.71" stroke="white" stroke-width="1.42343"/>
<line x1="607.093" y1="-224.381" x2="607.093" y2="1093.71" stroke="white" stroke-width="1.42343"/>
</g>
<g opacity="0.5">
<rect x="880.457" y="718.574" width="90.5818" height="90.5818" fill="#006837" fill-opacity="0.4"/>
<rect x="424.963" y="718.574" width="90.5818" height="90.5818" fill="#006837" fill-opacity="0.15"/>
<rect x="1245.37" y="81.9141" width="90.5818" height="89.2877" fill="#006837" fill-opacity="0.2"/>
<rect x="515.543" y="354.898" width="90.5818" height="89.2877" fill="#006837" fill-opacity="0.1"/>
<rect x="1153.5" y="172.496" width="90.5818" height="89.2877" fill="#006837" fill-opacity="0.2"/>
<rect x="424.797" y="81.9141" width="90.5818" height="89.2877" fill="#006837" fill-opacity="0.1"/>
<rect x="1153.5" y="81.9141" width="90.5818" height="89.2877" fill="#006837" fill-opacity="0.2"/>
<rect x="424.797" y="354.898" width="90.5818" height="89.2877" fill="#006837" fill-opacity="0.1"/>
<rect x="334.379" y="718.574" width="90.5818" height="90.5818" fill="#006837" fill-opacity="0.15"/>
<rect x="151.92" y="627.992" width="90.5818" height="90.5818" fill="#006837" fill-opacity="0.15"/>
<rect x="151.922" y="171.203" width="90.5818" height="91.8758" fill="#006837" fill-opacity="0.15"/>
</g>
</g>
</g>
</g>
</g>
</g>
<defs>
<linearGradient id="paint0_linear_692_32721" x1="166.54" y1="-173.849" x2="679.686" y2="99.4491" gradientUnits="userSpaceOnUse">
<stop stop-color="white"/>
<stop offset="1" stop-color="white" stop-opacity="0"/>
</linearGradient>
<radialGradient id="paint1_radial_692_32721" cx="0" cy="0" r="1" gradientUnits="userSpaceOnUse" gradientTransform="translate(127.397 910.805) rotate(-29.3932) scale(877.316 1507.85)">
<stop stop-color="white"/>
<stop offset="1" stop-color="white" stop-opacity="0"/>
</radialGradient>
<clipPath id="clip0_692_32721">
<rect width="1440" height="1118" fill="white"/>
</clipPath>
<clipPath id="clip1_692_32721">
<rect width="1435" height="1051" fill="white" transform="translate(0 -152)"/>
</clipPath>
<clipPath id="clip2_692_32721">
<rect width="1434.81" height="1127.35" fill="white" transform="translate(0 -151.785)"/>
</clipPath>
</defs>
</svg>
