<svg width="82" height="64" viewBox="0 0 82 64" fill="none" xmlns="http://www.w3.org/2000/svg">
<path d="M61.2354 56.4929C61.2354 56.4929 62.4205 58.2075 66.1954 60.6134C66.4778 60.7912 66.7741 60.9749 67.0862 61.1606C68.2714 61.8697 69.664 62.6243 71.3094 63.4065L71.7045 53.3324C71.7045 53.3324 76.8403 53.7275 81.3835 51.7522C80.8601 51.4914 78.6043 50.2766 75.3608 47.7621C75.0704 47.5388 74.7682 47.3018 74.464 47.0549C73.0299 45.9013 71.4319 44.5127 69.7233 42.8633C67.1613 47.209 61.2354 56.4929 61.2354 56.4929Z" fill="url(#paint0_linear_7938_28078)"/>
<path d="M20.1482 55.8992C20.1482 55.8992 18.963 57.6138 15.1882 60.0197C14.9057 60.1975 14.6094 60.3812 14.2973 60.5669C13.1121 61.276 11.7294 62.0306 10.0741 62.8128L9.67903 52.7387C9.67903 52.7387 4.54322 53.1337 0 51.1584C0.523458 50.8977 2.77926 49.6829 6.02273 47.1683C6.3131 46.9451 6.61532 46.7081 6.91952 46.4611C8.3536 45.3076 9.95162 43.9189 11.6603 42.2695C14.2222 46.6152 20.1482 55.8992 20.1482 55.8992Z" fill="url(#paint1_linear_7938_28078)"/>
<path d="M41.2842 0C58.9575 0 73.2852 14.3269 73.2852 32C73.2851 49.6731 58.9575 64 41.2842 64C23.611 63.9998 9.28421 49.673 9.28418 32C9.28418 14.327 23.611 0.00020856 41.2842 0ZM41.2842 7.70312C27.8657 7.70329 16.9883 18.5816 16.9883 32C16.9883 45.4184 27.8657 56.2957 41.2842 56.2959C54.7028 56.2959 65.581 45.4185 65.5811 32C65.5811 18.5815 54.7028 7.70312 41.2842 7.70312Z" fill="#E36302"/>
<mask id="mask0_7938_28078" style="mask-type:alpha" maskUnits="userSpaceOnUse" x="9" y="0" width="65" height="64">
<path d="M41.2842 0C58.9575 0 73.2852 14.3269 73.2852 32C73.2851 49.6731 58.9575 64 41.2842 64C23.611 63.9998 9.28421 49.673 9.28418 32C9.28418 14.327 23.611 0.000208505 41.2842 0ZM41.2842 7.70312C27.8657 7.70329 16.9883 18.5816 16.9883 32C16.9883 45.4184 27.8657 56.2957 41.2842 56.2959C54.7028 56.2959 65.581 45.4185 65.5811 32C65.5811 18.5815 54.7028 7.70312 41.2842 7.70312Z" fill="#6C7E92"/>
</mask>
<g mask="url(#mask0_7938_28078)">
<g filter="url(#filter0_f_7938_28078)">
<ellipse cx="11.3573" cy="21.4109" rx="11.3573" ry="21.4109" transform="matrix(0.736661 0.676262 -0.67627 0.736654 35.0205 -14.375)" fill="#FBEB93"/>
</g>
<g filter="url(#filter1_f_7938_28078)">
<ellipse cx="7.30866" cy="20.5627" rx="7.30866" ry="20.5627" transform="matrix(-0.866028 0.499996 -0.500004 -0.866023 77.0742 22.9727)" fill="#F9C94D"/>
</g>
<g filter="url(#filter2_f_7938_28078)">
<ellipse cx="7.30866" cy="14.8148" rx="7.30866" ry="14.8148" transform="matrix(-0.707111 -0.707103 0.707111 -0.707103 53.793 69.4102)" fill="#D79F40"/>
</g>
<g filter="url(#filter3_f_7938_28078)">
<ellipse cx="21.964" cy="51.003" rx="7.30866" ry="14.8148" transform="rotate(-45 21.964 51.003)" fill="#D79F40"/>
</g>
</g>
<ellipse cx="41.2839" cy="31.9995" rx="24.2966" ry="24.2963" fill="url(#paint2_linear_7938_28078)"/>
<path d="M41.2832 5.92578C55.6837 5.92578 67.3584 17.5997 67.3584 32C67.3584 46.4003 55.6837 58.0742 41.2832 58.0742C26.8829 58.074 15.209 46.4002 15.209 32C15.209 17.5998 26.8829 5.92598 41.2832 5.92578ZM41.2832 7.7041C27.8647 7.70429 16.9873 18.5816 16.9873 32C16.9873 45.4184 27.8647 56.2957 41.2832 56.2959C54.7018 56.2959 65.5801 45.4185 65.5801 32C65.5801 18.5815 54.7019 7.7041 41.2832 7.7041Z" fill="url(#paint3_linear_7938_28078)"/>
<path d="M47.4055 43.5943C47.0734 43.5939 46.7464 43.5118 46.4534 43.3553L41.4598 40.732C41.3934 40.6971 41.3195 40.6788 41.2445 40.6788C41.1694 40.6788 41.0956 40.6971 41.0292 40.732L36.0355 43.3553C35.7426 43.5118 35.4156 43.5939 35.0834 43.5943C34.7856 43.5933 34.4916 43.5275 34.2218 43.4014C33.952 43.2753 33.7129 43.092 33.5212 42.8641C33.3294 42.6363 33.1896 42.3694 33.1114 42.0821C33.0333 41.7947 33.0186 41.4938 33.0686 41.2002L34.0227 35.6417C34.0354 35.5674 34.0299 35.4912 34.0065 35.4196C33.9831 35.3479 33.9425 35.2831 33.8883 35.2308L29.8507 31.294C29.578 31.0275 29.3851 30.6902 29.2938 30.3199C29.2026 29.9497 29.2166 29.5613 29.3343 29.1986C29.452 28.8359 29.6686 28.5133 29.9599 28.2672C30.2511 28.021 30.6054 27.8612 30.9826 27.8056L36.5649 26.9957C36.6394 26.9845 36.7101 26.9555 36.7709 26.9111C36.8318 26.8668 36.8811 26.8084 36.9145 26.7409L39.4114 21.6821C39.5802 21.3402 39.8414 21.0523 40.1654 20.851C40.4893 20.6497 40.8631 20.543 41.2445 20.543C41.6259 20.543 41.9997 20.6497 42.3236 20.851C42.6475 21.0523 42.9087 21.3402 43.0776 21.6821L45.5744 26.7409C45.6079 26.8084 45.6572 26.8668 45.718 26.9111C45.7789 26.9555 45.8496 26.9845 45.924 26.9957L51.5063 27.8056C51.8836 27.8612 52.2378 28.021 52.5291 28.2672C52.8203 28.5133 53.037 28.8359 53.1547 29.1986C53.2724 29.5613 53.2864 29.9497 53.1951 30.3199C53.1039 30.6902 52.911 31.0275 52.6382 31.294L48.6006 35.2308C48.5464 35.2831 48.5059 35.3479 48.4825 35.4196C48.4591 35.4912 48.4535 35.5674 48.4663 35.6417L49.4204 41.2002C49.4703 41.4938 49.4557 41.7947 49.3775 42.0821C49.2993 42.3694 49.1595 42.6363 48.9678 42.8641C48.776 43.092 48.5369 43.2753 48.2671 43.4014C47.9974 43.5275 47.7033 43.5933 47.4055 43.5943V43.5943Z" fill="#C4913A"/>
<path d="M42.3696 22.032L44.8664 27.0908C44.9567 27.2728 45.0898 27.4302 45.2542 27.5496C45.4187 27.6689 45.6096 27.7467 45.8106 27.7762L51.3929 28.5881C51.6245 28.6217 51.842 28.7195 52.0209 28.8704C52.1999 29.0212 52.333 29.2191 52.4053 29.4416C52.4777 29.6642 52.4863 29.9025 52.4303 30.1298C52.3742 30.357 52.2557 30.564 52.0882 30.7273L48.0486 34.6641C47.9033 34.8062 47.7946 34.9815 47.7319 35.1749C47.6693 35.3682 47.6546 35.5739 47.6891 35.7743L48.6412 41.3348C48.6813 41.5655 48.6559 41.8028 48.5679 42.0198C48.4799 42.2368 48.3328 42.4248 48.1434 42.5624C47.9539 42.7 47.7297 42.7818 47.4961 42.7983C47.2625 42.8149 47.029 42.7657 46.822 42.6563L41.8382 40.033C41.658 39.9377 41.4573 39.8879 41.2535 39.8879C41.0497 39.8879 40.849 39.9377 40.6688 40.033L35.6692 42.6563C35.4622 42.7657 35.2287 42.8149 34.9951 42.7983C34.7615 42.7818 34.5373 42.7 34.3478 42.5624C34.1583 42.4248 34.0113 42.2368 33.9233 42.0198C33.8353 41.8028 33.8099 41.5655 33.8499 41.3348L34.8021 35.7743C34.8366 35.5739 34.8219 35.3682 34.7593 35.1749C34.6966 34.9815 34.5879 34.8062 34.4425 34.6641L30.403 30.7273C30.2354 30.564 30.117 30.357 30.0609 30.1298C30.0049 29.9025 30.0135 29.6642 30.0858 29.4416C30.1582 29.2191 30.2913 29.0212 30.4703 28.8704C30.6492 28.7195 30.8667 28.6217 31.0983 28.5881L36.6806 27.7762C36.8816 27.7467 37.0725 27.6689 37.237 27.5496C37.4014 27.4302 37.5345 27.2728 37.6248 27.0908L40.1216 22.032C40.2249 21.822 40.3849 21.6451 40.5835 21.5213C40.7822 21.3976 41.0116 21.332 41.2456 21.332C41.4796 21.332 41.709 21.3976 41.9077 21.5213C42.1063 21.6451 42.2663 21.822 42.3696 22.032V22.032Z" fill="url(#paint4_linear_7938_28078)"/>
<path d="M41.2842 8.19727C54.4298 8.19741 65.0867 18.8536 65.0869 31.999C65.0869 45.1447 54.43 55.8016 41.2842 55.8018C28.1383 55.8018 17.4814 45.1448 17.4814 31.999C17.4817 18.8535 28.1384 8.19727 41.2842 8.19727Z" stroke="#D79F40" stroke-width="0.987656"/>
<path opacity="0.15" d="M66.3704 12.1482C64.8667 13.9478 63.4987 15.3373 61.8302 16.9529C61.7066 17.0756 61.583 17.1983 61.4594 17.321C61.377 17.4027 61.3152 17.4641 61.2328 17.5459C60.9239 17.8322 60.6149 18.1389 60.2853 18.4252C60.1617 18.5275 60.0587 18.6297 59.9351 18.7524C59.8527 18.8138 59.7704 18.8956 59.7086 18.9569C59.6056 19.0592 59.5026 19.141 59.3996 19.2228C48.4411 28.8546 34.5165 34.7237 19.8091 35.7871C19.6649 35.7871 19.5413 35.8075 19.3971 35.8075C19.2941 35.8075 19.1911 35.828 19.0881 35.828C18.9233 35.828 18.7792 35.8484 18.6144 35.8484C18.0788 35.8689 17.5432 35.9098 17.0077 35.9098C16.8429 35.9098 16.6575 35.9302 16.4927 35.9302C16.0807 35.9507 15.6688 35.9507 15.2774 35.9507C13.3617 35.9507 11.4461 35.8893 9.50979 35.7257C9.3656 34.5192 9.2832 33.2718 9.2832 32.0243C9.2832 14.3353 23.7228 0 41.52 0C49.5329 0 56.6769 3.07511 62.3209 7.90125C63.7834 9.14869 65.1344 10.6553 66.3704 12.1482Z" fill="url(#paint5_linear_7938_28078)"/>
<defs>
<filter id="filter0_f_7938_28078" x="0.527296" y="-20.1231" width="56.7599" height="58.4024" filterUnits="userSpaceOnUse" color-interpolation-filters="sRGB">
<feFlood flood-opacity="0" result="BackgroundImageFix"/>
<feBlend mode="normal" in="SourceGraphic" in2="BackgroundImageFix" result="shape"/>
<feGaussianBlur stdDeviation="5.82717" result="effect1_foregroundBlur_7938_28078"/>
</filter>
<filter id="filter1_f_7938_28078" x="36.7334" y="-21.0176" width="47.4591" height="59.672" filterUnits="userSpaceOnUse" color-interpolation-filters="sRGB">
<feFlood flood-opacity="0" result="BackgroundImageFix"/>
<feBlend mode="normal" in="SourceGraphic" in2="BackgroundImageFix" result="shape"/>
<feGaussianBlur stdDeviation="5.82717" result="effect1_foregroundBlur_7938_28078"/>
</filter>
<filter id="filter2_f_7938_28078" x="35.7626" y="30.4277" width="46.6759" height="46.6759" filterUnits="userSpaceOnUse" color-interpolation-filters="sRGB">
<feFlood flood-opacity="0" result="BackgroundImageFix"/>
<feBlend mode="normal" in="SourceGraphic" in2="BackgroundImageFix" result="shape"/>
<feGaussianBlur stdDeviation="5.82717" result="effect1_foregroundBlur_7938_28078"/>
</filter>
<filter id="filter3_f_7938_28078" x="-1.37407" y="27.666" width="46.6759" height="46.6759" filterUnits="userSpaceOnUse" color-interpolation-filters="sRGB">
<feFlood flood-opacity="0" result="BackgroundImageFix"/>
<feBlend mode="normal" in="SourceGraphic" in2="BackgroundImageFix" result="shape"/>
<feGaussianBlur stdDeviation="5.82717" result="effect1_foregroundBlur_7938_28078"/>
</filter>
<linearGradient id="paint0_linear_7938_28078" x1="76.9647" y1="58.0373" x2="64.9682" y2="49.6371" gradientUnits="userSpaceOnUse">
<stop stop-color="#6296A2"/>
<stop offset="0.405" stop-color="#6296A2"/>
<stop offset="0.5279" stop-color="#156374"/>
<stop offset="0.6172" stop-color="#135A6A"/>
<stop offset="1" stop-color="#092A31"/>
</linearGradient>
<linearGradient id="paint1_linear_7938_28078" x1="6.6173" y1="57.7757" x2="15.605" y2="50.3683" gradientUnits="userSpaceOnUse">
<stop stop-color="#6296A2"/>
<stop offset="0.405" stop-color="#448290"/>
<stop offset="0.5279" stop-color="#156374"/>
<stop offset="0.6172" stop-color="#0F4652"/>
<stop offset="1" stop-color="#092A31"/>
</linearGradient>
<linearGradient id="paint2_linear_7938_28078" x1="41.2839" y1="7.70312" x2="41.2839" y2="56.2958" gradientUnits="userSpaceOnUse">
<stop stop-color="#2A99A4"/>
<stop offset="0.484375" stop-color="#10667B"/>
<stop offset="1" stop-color="#184A61"/>
</linearGradient>
<linearGradient id="paint3_linear_7938_28078" x1="41.2837" y1="5.65213" x2="41.2837" y2="58.048" gradientUnits="userSpaceOnUse">
<stop stop-color="#FFEE02"/>
<stop offset="0.5" stop-color="#D27003"/>
<stop offset="1" stop-color="#FBA400"/>
</linearGradient>
<linearGradient id="paint4_linear_7938_28078" x1="41.249" y1="21.5439" x2="41.249" y2="40.2197" gradientUnits="userSpaceOnUse">
<stop offset="0.0820804" stop-color="#F7E547"/>
<stop offset="0.2263" stop-color="#FEFCAF"/>
<stop offset="0.3883" stop-color="#F8DC20"/>
<stop offset="0.5895" stop-color="#E67A0B"/>
<stop offset="1" stop-color="#F8DC20"/>
</linearGradient>
<linearGradient id="paint5_linear_7938_28078" x1="24.3674" y1="4.93316" x2="42.4445" y2="30.236" gradientUnits="userSpaceOnUse">
<stop offset="0.5084" stop-color="white" stop-opacity="0"/>
<stop offset="1" stop-color="white"/>
</linearGradient>
</defs>
</svg>
