<svg width="1440" height="1024" viewBox="0 0 1440 1024" fill="none" xmlns="http://www.w3.org/2000/svg">
<g clip-path="url(#clip0_692_32166)">
<g clip-path="url(#clip1_692_32166)">
<g opacity="0.8">
<mask id="mask0_692_32166" style="mask-type:alpha" maskUnits="userSpaceOnUse" x="0" y="0" width="1435" height="1128">
<g clip-path="url(#clip2_692_32166)">
<path d="M808.506 343.26C808.506 509.528 698.573 644.315 562.965 644.315C427.356 644.315 -419.912 61.1484 -419.912 -105.12C-419.912 -271.388 797.447 -42.4889 933.056 -42.4889C1068.66 -42.4889 808.506 176.992 808.506 343.26Z" fill="url(#paint0_linear_692_32166)"/>
<path d="M903.876 1055.74C903.876 1222.01 793.944 1356.79 658.335 1356.79C522.727 1356.79 -232.73 1318.04 -232.73 1151.77C-232.73 985.501 -176.888 591.65 -41.2795 591.65C94.3292 591.65 903.876 889.47 903.876 1055.74Z" fill="url(#paint1_radial_692_32166)"/>
<path d="M1182.41 343.717C1548.31 674.186 1379.29 508.112 1693.56 499.745C1742.86 509.242 1826.56 509.693 1766.93 435.522C1692.39 342.809 1716.41 277.324 1623.26 176.312C1530.11 75.3003 1473.38 -27.326 1332.74 -187.983C1192.11 -348.64 1181.29 -216.205 1022.75 -228.76C864.201 -241.314 936.514 -221.378 717.762 11.7288C499.009 244.835 816.517 13.2484 1182.41 343.717Z" fill="#D9D9D9"/>
<path d="M836.977 863.523C347.318 921.172 583.607 903.379 382.904 1145.36C343.285 1176.2 287.819 1238.88 382.904 1242.87C501.76 1247.85 535.21 1309.06 672.571 1305.5C809.932 1301.94 924.518 1326.85 1138.03 1326.85C1351.55 1326.85 1259.02 1231.48 1372.9 1120.45C1486.77 1009.42 1424.14 1050.7 1392.83 732.568C1361.51 414.432 1326.64 805.874 836.977 863.523Z" fill="#D9D9D9"/>
</g>
</mask>
<g mask="url(#mask0_692_32166)">
<g opacity="0.09">
<line x1="-83.9785" y1="688.441" x2="1622.71" y2="688.441" stroke="white" stroke-opacity="0.1" stroke-width="1.42343"/>
<line x1="-83.9785" y1="324.044" x2="1622.71" y2="324.044" stroke="white" stroke-opacity="0.1" stroke-width="1.42343"/>
<line x1="-83.9785" y1="506.241" x2="1622.71" y2="506.241" stroke="white" stroke-opacity="0.1" stroke-width="1.42343"/>
<line x1="-83.9785" y1="870.638" x2="1622.71" y2="870.638" stroke="white" stroke-opacity="0.1" stroke-width="1.42343"/>
<line x1="-83.9785" y1="141.845" x2="1622.71" y2="141.845" stroke="white" stroke-opacity="0.1" stroke-width="1.42343"/>
<line x1="-83.9785" y1="597.341" x2="1622.71" y2="597.341" stroke="white" stroke-opacity="0.1" stroke-width="1.42343"/>
<line x1="-83.9785" y1="961.738" x2="1622.71" y2="961.737" stroke="white" stroke-opacity="0.1" stroke-width="1.42343"/>
<line x1="-83.9785" y1="232.945" x2="1622.71" y2="232.945" stroke="white" stroke-opacity="0.1" stroke-width="1.42343"/>
<line x1="-83.9785" y1="415.142" x2="1622.71" y2="415.142" stroke="white" stroke-opacity="0.1" stroke-width="1.42343"/>
<line x1="-83.9785" y1="779.54" x2="1622.71" y2="779.54" stroke="white" stroke-opacity="0.1" stroke-width="1.42343"/>
<line x1="-83.9785" y1="50.7453" x2="1622.71" y2="50.7453" stroke="white" stroke-opacity="0.1" stroke-width="1.42343"/>
<line x1="698.196" y1="-72.3809" x2="698.196" y2="1245.71" stroke="white" stroke-opacity="0.1" stroke-width="1.42343"/>
<line x1="333.798" y1="-72.3809" x2="333.798" y2="1245.71" stroke="white" stroke-opacity="0.1" stroke-width="1.42343"/>
<line x1="1062.59" y1="-72.3809" x2="1062.59" y2="1245.71" stroke="white" stroke-opacity="0.1" stroke-width="1.42343"/>
<line x1="1376.99" y1="-72.3809" x2="1376.99" y2="1245.71" stroke="white" stroke-opacity="0.1" stroke-width="1.42343"/>
<line x1="151.598" y1="-72.3809" x2="151.598" y2="1245.71" stroke="white" stroke-opacity="0.1" stroke-width="1.42343"/>
<line x1="880.389" y1="-72.3809" x2="880.389" y2="1245.71" stroke="white" stroke-opacity="0.1" stroke-width="1.42343"/>
<line x1="515.997" y1="-72.3809" x2="515.997" y2="1245.71" stroke="white" stroke-opacity="0.1" stroke-width="1.42343"/>
<line x1="1244.79" y1="-72.3809" x2="1244.79" y2="1245.71" stroke="white" stroke-opacity="0.1" stroke-width="1.42343"/>
<line x1="61.2527" y1="-72.1562" x2="61.2527" y2="1245.94" stroke="white" stroke-opacity="0.1" stroke-width="1.42343"/>
<line x1="789.294" y1="-72.3809" x2="789.294" y2="1245.71" stroke="white" stroke-opacity="0.1" stroke-width="1.42343"/>
<line x1="424.895" y1="-72.3809" x2="424.895" y2="1245.71" stroke="white" stroke-opacity="0.1" stroke-width="1.42343"/>
<line x1="1153.69" y1="-72.3809" x2="1153.69" y2="1245.71" stroke="white" stroke-opacity="0.1" stroke-width="1.42343"/>
<line x1="242.698" y1="-72.3809" x2="242.698" y2="1245.71" stroke="white" stroke-opacity="0.1" stroke-width="1.42343"/>
<line x1="971.493" y1="-72.3809" x2="971.493" y2="1245.71" stroke="white" stroke-opacity="0.1" stroke-width="1.42343"/>
<line x1="607.093" y1="-72.3809" x2="607.093" y2="1245.71" stroke="white" stroke-opacity="0.1" stroke-width="1.42343"/>
</g>
<g opacity="0.5">
<rect x="424.963" y="870.576" width="90.5818" height="90.5818" fill="white" fill-opacity="0.15"/>
<rect x="1245.37" y="233.914" width="90.5818" height="89.2877" fill="white" fill-opacity="0.2"/>
<rect x="515.543" y="506.896" width="90.5818" height="89.2877" fill="white" fill-opacity="0.1"/>
<rect x="1153.5" y="324.496" width="90.5818" height="89.2877" fill="white" fill-opacity="0.2"/>
<rect x="424.797" y="233.914" width="90.5818" height="89.2877" fill="white" fill-opacity="0.1"/>
<rect x="1153.5" y="233.914" width="90.5818" height="89.2877" fill="white" fill-opacity="0.2"/>
<rect x="424.797" y="506.896" width="90.5818" height="89.2877" fill="white" fill-opacity="0.1"/>
<rect x="334.379" y="870.576" width="90.5818" height="90.5818" fill="white" fill-opacity="0.15"/>
<rect x="151.92" y="779.994" width="90.5818" height="90.5818" fill="white" fill-opacity="0.15"/>
<rect x="1062.92" y="51.457" width="90.5818" height="90.5818" fill="white" fill-opacity="0.1"/>
<rect x="971.344" y="-39.6445" width="90.5818" height="89.7688" fill="white" fill-opacity="0.1"/>
<rect x="971.344" y="50.9727" width="90.5818" height="90.3585" fill="white" fill-opacity="0.1"/>
<rect x="424.963" y="-40.418" width="91.8758" height="90.5818" fill="white" fill-opacity="0.2"/>
<rect x="151.922" y="323.203" width="90.5818" height="91.8758" fill="white" fill-opacity="0.15"/>
</g>
</g>
</g>
</g>
</g>
<defs>
<linearGradient id="paint0_linear_692_32166" x1="166.54" y1="-21.8491" x2="679.686" y2="251.449" gradientUnits="userSpaceOnUse">
<stop stop-color="white"/>
<stop offset="1" stop-color="white" stop-opacity="0"/>
</linearGradient>
<radialGradient id="paint1_radial_692_32166" cx="0" cy="0" r="1" gradientUnits="userSpaceOnUse" gradientTransform="translate(127.397 1062.8) rotate(-29.3932) scale(877.316 1507.85)">
<stop stop-color="white"/>
<stop offset="1" stop-color="white" stop-opacity="0"/>
</radialGradient>
<clipPath id="clip0_692_32166">
<rect width="1440" height="1024" fill="white"/>
</clipPath>
<clipPath id="clip1_692_32166">
<rect width="1435" height="1051" fill="white"/>
</clipPath>
<clipPath id="clip2_692_32166">
<rect width="1434.81" height="1127.35" fill="white" transform="translate(0 0.214844)"/>
</clipPath>
</defs>
</svg>
