<svg width="64" height="64" viewBox="0 0 64 64" fill="none" xmlns="http://www.w3.org/2000/svg">
<g filter="url(#filter0_d_3053_6046)">
<rect x="12" y="4" width="40" height="40" rx="8" fill="#FFE082" shape-rendering="crispEdges"/>
<path opacity="0.2" d="M41.7164 32.0377C41.7544 32.1669 41.7568 32.3039 41.7235 32.4344C41.6902 32.5649 41.6224 32.6841 41.5271 32.7793C41.4319 32.8745 41.3128 32.9424 41.1823 32.9757C41.0518 33.009 40.9147 33.0065 40.7855 32.9686L38.1858 32.2036C37.327 32.6629 36.3791 32.931 35.407 32.9896C34.4349 33.0483 33.4616 32.896 32.5539 32.5433C31.6462 32.1906 30.8254 31.6458 30.1479 30.9462C29.4705 30.2466 28.9523 29.4088 28.6289 28.4902C28.7517 28.4967 28.8745 28.5005 28.9983 28.5005C30.0772 28.5006 31.1404 28.242 32.0988 27.7465C33.0572 27.251 33.8828 26.533 34.5066 25.6527C35.1303 24.7723 35.5339 23.7553 35.6835 22.6868C35.8332 21.6183 35.7246 20.5296 35.3667 19.5117C36.5006 19.5733 37.6006 19.9199 38.5649 20.5195C39.5293 21.1191 40.3267 21.9523 40.8836 22.942C41.4404 23.9317 41.7385 25.0458 41.7503 26.1813C41.7622 27.3168 41.4874 28.4369 40.9514 29.438L41.7164 32.0377Z" fill="#5A431B"/>
<path d="M41.7559 29.5097C42.2741 28.4348 42.5284 27.2518 42.4976 26.059C42.4668 24.8661 42.1518 23.6978 41.5788 22.6511C41.0058 21.6044 40.1914 20.7095 39.2031 20.0408C38.2148 19.3721 37.0812 18.9489 35.8965 18.8062C35.5023 17.8897 34.9292 17.061 34.2107 16.3688C33.4923 15.6765 32.6429 15.1345 31.7124 14.7746C30.7819 14.4147 29.7889 14.244 28.7916 14.2726C27.7943 14.3012 26.8127 14.5286 25.9044 14.9413C24.996 15.354 24.1791 15.9437 23.5016 16.6761C22.824 17.4084 22.2993 18.2686 21.9583 19.2062C21.6174 20.1439 21.4669 21.1401 21.5157 22.1366C21.5645 23.1331 21.8117 24.1099 22.2427 25.0097L21.5612 27.3262C21.485 27.5849 21.4799 27.8592 21.5464 28.1205C21.613 28.3817 21.7487 28.6202 21.9393 28.8109C22.13 29.0015 22.3685 29.1373 22.6297 29.2038C22.891 29.2704 23.1654 29.2653 23.424 29.1891L25.7405 28.5075C26.4844 28.8649 27.2819 29.0977 28.1012 29.1966C28.4992 30.1292 29.0822 30.9714 29.815 31.6723C30.5478 32.3732 31.4151 32.9183 32.3645 33.2745C33.3139 33.6307 34.3256 33.7907 35.3386 33.7448C36.3516 33.6989 37.3447 33.4481 38.258 33.0075L40.5746 33.6891C40.8331 33.7652 41.1074 33.7702 41.3685 33.7037C41.6297 33.6372 41.8681 33.5016 42.0587 33.3111C42.2493 33.1206 42.385 32.8822 42.4517 32.6211C42.5183 32.36 42.5134 32.0857 42.4374 31.8272L41.7559 29.5097ZM25.8118 26.9541C25.7401 26.9542 25.6688 26.9643 25.5999 26.9841L22.9993 27.7509L23.7652 25.1484C23.8197 24.9604 23.7985 24.7585 23.7062 24.5859C23.0277 23.3171 22.8278 21.8467 23.1429 20.4428C23.458 19.0389 24.2671 17.795 25.4227 16.9378C26.5783 16.0806 28.0035 15.6672 29.4384 15.773C30.8733 15.8788 32.2225 16.4967 33.2399 17.5141C34.2573 18.5315 34.8752 19.8806 34.981 21.3156C35.0868 22.7505 34.6734 24.1757 33.8162 25.3313C32.959 26.4869 31.7151 27.296 30.3112 27.6111C28.9073 27.9262 27.4369 27.7263 26.168 27.0478C26.0589 26.9874 25.9365 26.9552 25.8118 26.9541ZM40.2296 29.6475L40.9993 32.2509L38.3968 31.485C38.2088 31.4305 38.0069 31.4517 37.8343 31.5441C36.4532 32.2815 34.8387 32.4504 33.3349 32.0147C31.8311 31.579 30.5569 30.5731 29.784 29.2116C30.8109 29.1044 31.8046 28.7861 32.7027 28.2768C33.6008 27.7674 34.384 27.078 35.0031 26.2517C35.6222 25.4254 36.0638 24.4801 36.3003 23.475C36.5368 22.47 36.5631 21.4269 36.3774 20.4112C37.2722 20.6221 38.1065 21.0358 38.816 21.6203C39.5255 22.2049 40.0912 22.9446 40.4694 23.7824C40.8476 24.6203 41.0283 25.5338 40.9975 26.4525C40.9666 27.3713 40.7251 28.2707 40.2915 29.0812C40.1981 29.2549 40.1769 29.4583 40.2324 29.6475H40.2296Z" fill="#5A431B"/>
</g>
<defs>
<filter id="filter0_d_3053_6046" x="0" y="0" width="64" height="64" filterUnits="userSpaceOnUse" color-interpolation-filters="sRGB">
<feFlood flood-opacity="0" result="BackgroundImageFix"/>
<feColorMatrix in="SourceAlpha" type="matrix" values="0 0 0 0 0 0 0 0 0 0 0 0 0 0 0 0 0 0 127 0" result="hardAlpha"/>
<feOffset dy="8"/>
<feGaussianBlur stdDeviation="6"/>
<feComposite in2="hardAlpha" operator="out"/>
<feColorMatrix type="matrix" values="0 0 0 0 0 0 0 0 0 0 0 0 0 0 0 0 0 0 0.12 0"/>
<feBlend mode="normal" in2="BackgroundImageFix" result="effect1_dropShadow_3053_6046"/>
<feBlend mode="normal" in="SourceGraphic" in2="effect1_dropShadow_3053_6046" result="shape"/>
</filter>
</defs>
</svg>
