<svg width="82" height="64" viewBox="0 0 82 64" fill="none" xmlns="http://www.w3.org/2000/svg">
<path d="M61.2354 56.4929C61.2354 56.4929 62.4205 58.2075 66.1954 60.6134C66.4778 60.7912 66.7741 60.9749 67.0862 61.1606C68.2714 61.8697 69.664 62.6243 71.3094 63.4065L71.7045 53.3324C71.7045 53.3324 76.8403 53.7275 81.3835 51.7522C80.8601 51.4914 78.6043 50.2766 75.3608 47.7621C75.0704 47.5388 74.7682 47.3018 74.464 47.0549C73.0299 45.9013 71.4319 44.5127 69.7233 42.8633C67.1613 47.209 61.2354 56.4929 61.2354 56.4929Z" fill="url(#paint0_linear_7938_62007)"/>
<path d="M20.1482 55.9031C20.1482 55.9031 18.963 57.6177 15.1882 60.0236C14.9057 60.2014 14.6094 60.3851 14.2973 60.5708C13.1121 61.2799 11.7294 62.0345 10.0741 62.8167L9.67903 52.7426C9.67903 52.7426 4.54322 53.1377 0 51.1623C0.523458 50.9016 2.77926 49.6868 6.02273 47.1722C6.3131 46.949 6.61532 46.712 6.91952 46.4651C8.3536 45.3115 9.95162 43.9228 11.6603 42.2734C14.2222 46.6191 20.1482 55.9031 20.1482 55.9031Z" fill="url(#paint1_linear_7938_62007)"/>
<path d="M40.6914 0C58.3646 0 72.6914 14.3269 72.6914 32C72.6914 49.6731 58.3645 64 40.6914 64C23.0184 63.9999 8.69144 49.6731 8.69141 32C8.69141 14.3269 23.0183 8.88608e-05 40.6914 0ZM40.6914 7.70312C27.273 7.70321 16.3955 18.5816 16.3955 32C16.3955 45.4184 27.273 56.2958 40.6914 56.2959C54.1099 56.2959 64.9882 45.4185 64.9883 32C64.9883 18.5815 54.1099 7.70312 40.6914 7.70312Z" fill="#6C7E92"/>
<mask id="mask0_7938_62007" style="mask-type:alpha" maskUnits="userSpaceOnUse" x="8" y="0" width="65" height="64">
<path d="M40.6914 0C58.3646 0 72.6914 14.3269 72.6914 32C72.6914 49.6731 58.3645 64 40.6914 64C23.0184 63.9999 8.69144 49.6731 8.69141 32C8.69141 14.3269 23.0183 8.88608e-05 40.6914 0ZM40.6914 7.70312C27.273 7.70321 16.3955 18.5816 16.3955 32C16.3955 45.4184 27.273 56.2958 40.6914 56.2959C54.1099 56.2959 64.9882 45.4185 64.9883 32C64.9883 18.5815 54.1099 7.70312 40.6914 7.70312Z" fill="#6C7E92"/>
</mask>
<g mask="url(#mask0_7938_62007)">
<g filter="url(#filter0_f_7938_62007)">
<ellipse cx="21.1308" cy="10.9186" rx="7.30866" ry="14.8148" transform="rotate(42.5525 21.1308 10.9186)" fill="#F0F2F7"/>
</g>
<g filter="url(#filter1_f_7938_62007)">
<ellipse cx="61.3422" cy="10.918" rx="7.30866" ry="14.8148" transform="rotate(150 61.3422 10.918)" fill="#F0F2F7"/>
</g>
<g filter="url(#filter2_f_7938_62007)">
<ellipse cx="58.5079" cy="53.7665" rx="7.30866" ry="14.8148" transform="rotate(-135 58.5079 53.7665)" fill="#F0F2F7"/>
</g>
<g filter="url(#filter3_f_7938_62007)">
<ellipse cx="21.3722" cy="51.003" rx="7.30866" ry="14.8148" transform="rotate(-45 21.3722 51.003)" fill="#889BAF"/>
</g>
</g>
<circle cx="40.6918" cy="31.9995" r="24.2963" fill="url(#paint2_linear_7938_62007)"/>
<circle cx="40.6918" cy="31.9995" r="23.8025" stroke="url(#paint3_linear_7938_62007)" stroke-width="0.987656"/>
<path d="M40.6914 5.92578C55.0917 5.92587 66.7656 17.5997 66.7656 32C66.7656 46.4003 55.0917 58.0741 40.6914 58.0742C26.2911 58.0742 14.6172 46.4003 14.6172 32C14.6172 17.5997 26.2911 5.92578 40.6914 5.92578ZM40.6914 7.7041C27.2729 7.7041 16.3945 18.5815 16.3945 32C16.3945 45.4185 27.2729 56.2959 40.6914 56.2959C54.1098 56.2958 64.9873 45.4184 64.9873 32C64.9873 18.5816 54.1098 7.70423 40.6914 7.7041Z" fill="url(#paint4_linear_7938_62007)"/>
<path d="M46.8126 43.5943C46.4804 43.5939 46.1534 43.5118 45.8605 43.3553L40.8669 40.732C40.8005 40.6971 40.7266 40.6788 40.6516 40.6788C40.5765 40.6788 40.5026 40.6971 40.4363 40.732L35.4427 43.3553C35.1497 43.5118 34.8227 43.5939 34.4906 43.5943C34.1928 43.5933 33.8988 43.5275 33.629 43.4014C33.3592 43.2753 33.1201 43.092 32.9284 42.8641C32.7366 42.6363 32.5968 42.3694 32.5186 42.0821C32.4405 41.7947 32.4258 41.4938 32.4757 41.2002L33.4298 35.6417C33.4426 35.5674 33.4371 35.4912 33.4137 35.4196C33.3902 35.3479 33.3497 35.2831 33.2955 35.2308L29.258 31.294C28.9852 31.0275 28.7923 30.6902 28.7011 30.3199C28.6098 29.9497 28.6238 29.5613 28.7415 29.1986C28.8592 28.8359 29.0759 28.5133 29.3671 28.2672C29.6584 28.021 30.0126 27.8612 30.3898 27.8056L35.9721 26.9957C36.0465 26.9845 36.1172 26.9555 36.1781 26.9111C36.2389 26.8668 36.2882 26.8084 36.3217 26.7409L38.8185 21.6821C38.9874 21.3402 39.2485 21.0523 39.5725 20.851C39.8964 20.6497 40.2702 20.543 40.6516 20.543C41.033 20.543 41.4067 20.6497 41.7307 20.851C42.0546 21.0523 42.3158 21.3402 42.4847 21.6821L44.9815 26.7409C45.0149 26.8084 45.0642 26.8668 45.1251 26.9111C45.1859 26.9555 45.2566 26.9845 45.3311 26.9957L50.9133 27.8056C51.2906 27.8612 51.6448 28.021 51.936 28.2672C52.2273 28.5133 52.4439 28.8359 52.5616 29.1986C52.6793 29.5613 52.6933 29.9497 52.6021 30.3199C52.5108 30.6902 52.3179 31.0275 52.0452 31.294L48.0076 35.2308C47.9535 35.2831 47.9129 35.3479 47.8895 35.4196C47.8661 35.4912 47.8605 35.5674 47.8733 35.6417L48.8274 41.2002C48.8773 41.4938 48.8627 41.7947 48.7845 42.0821C48.7064 42.3694 48.5665 42.6363 48.3748 42.8641C48.183 43.092 47.9439 43.2753 47.6742 43.4014C47.4044 43.5275 47.1104 43.5933 46.8126 43.5943Z" fill="#053A4C"/>
<path d="M41.7776 22.032L44.2744 27.0908C44.3648 27.2728 44.4978 27.4302 44.6623 27.5496C44.8267 27.6689 45.0176 27.7467 45.2186 27.7762L50.8009 28.5881C51.0324 28.6217 51.25 28.7195 51.4289 28.8704C51.6078 29.0212 51.741 29.2191 51.8133 29.4416C51.8856 29.6642 51.8943 29.9025 51.8382 30.1298C51.7822 30.357 51.6637 30.564 51.4962 30.7273L47.4567 34.6641C47.3113 34.8062 47.2026 34.9815 47.1399 35.1749C47.0773 35.3682 47.0626 35.5739 47.0971 35.7743L48.0492 41.3348C48.0893 41.5655 48.0639 41.8028 47.9759 42.0198C47.8879 42.2368 47.7408 42.4248 47.5514 42.5624C47.3619 42.7 47.1377 42.7818 46.9041 42.7983C46.6705 42.8149 46.437 42.7657 46.23 42.6563L41.2463 40.033C41.0661 39.9377 40.8654 39.8879 40.6616 39.8879C40.4578 39.8879 40.257 39.9377 40.0769 40.033L35.0774 42.6563C34.8704 42.7657 34.6368 42.8149 34.4032 42.7983C34.1697 42.7818 33.9454 42.7 33.756 42.5624C33.5665 42.4248 33.4194 42.2368 33.3314 42.0198C33.2434 41.8028 33.218 41.5655 33.2581 41.3348L34.2102 35.7743C34.2447 35.5739 34.23 35.3682 34.1674 35.1749C34.1048 34.9815 33.9961 34.8062 33.8507 34.6641L29.8112 30.7273C29.6437 30.564 29.5252 30.357 29.4691 30.1298C29.4131 29.9025 29.4217 29.6642 29.494 29.4416C29.5664 29.2191 29.6995 29.0212 29.8785 28.8704C30.0574 28.7195 30.2749 28.6217 30.5065 28.5881L36.0887 27.7762C36.2898 27.7467 36.4806 27.6689 36.6451 27.5496C36.8095 27.4302 36.9426 27.2728 37.0329 27.0908L39.5297 22.032C39.6329 21.822 39.793 21.6451 39.9916 21.5213C40.1903 21.3976 40.4196 21.332 40.6537 21.332C40.8877 21.332 41.1171 21.3976 41.3157 21.5213C41.5144 21.6451 41.6744 21.822 41.7776 22.032Z" fill="url(#paint5_linear_7938_62007)"/>
<path opacity="0.15" d="M65.7779 12.1482C64.2743 13.9478 62.9063 15.3373 61.2378 16.9529C61.1143 17.0756 60.9907 17.1983 60.8671 17.321C60.7847 17.4028 60.7229 17.4641 60.6405 17.5459C60.3315 17.8322 60.0225 18.1389 59.693 18.4252C59.5694 18.5275 59.4664 18.6297 59.3428 18.7524C59.2604 18.8138 59.178 18.8956 59.1162 18.9569C59.0132 19.0592 58.9102 19.141 58.8072 19.2228C47.8489 28.8546 33.9244 34.7237 19.2172 35.7871C19.073 35.7871 18.9494 35.8075 18.8052 35.8075C18.7022 35.8075 18.5992 35.828 18.4962 35.828C18.3314 35.828 18.1873 35.8484 18.0225 35.8484C17.4869 35.8689 16.9514 35.9098 16.4158 35.9098C16.251 35.9098 16.0656 35.9302 15.9008 35.9302C15.4889 35.9507 15.0769 35.9507 14.6855 35.9507C12.7699 35.9507 10.8542 35.8893 8.91799 35.7257C8.7738 34.5192 8.69141 33.2718 8.69141 32.0243C8.69141 14.3353 23.1309 0 40.9279 0C48.9406 0 56.0846 3.07511 61.7285 7.90125C63.191 9.14869 64.542 10.6553 65.7779 12.1482Z" fill="url(#paint6_linear_7938_62007)"/>
<defs>
<filter id="filter0_f_7938_62007" x="-1.89946" y="-12.7208" width="46.0606" height="47.2774" filterUnits="userSpaceOnUse" color-interpolation-filters="sRGB">
<feFlood flood-opacity="0" result="BackgroundImageFix"/>
<feBlend mode="normal" in="SourceGraphic" in2="BackgroundImageFix" result="shape"/>
<feGaussianBlur stdDeviation="5.82717" result="effect1_foregroundBlur_7938_62007"/>
</filter>
<filter id="filter1_f_7938_62007" x="39.9443" y="-14.0801" width="42.796" height="49.9962" filterUnits="userSpaceOnUse" color-interpolation-filters="sRGB">
<feFlood flood-opacity="0" result="BackgroundImageFix"/>
<feBlend mode="normal" in="SourceGraphic" in2="BackgroundImageFix" result="shape"/>
<feGaussianBlur stdDeviation="5.82717" result="effect1_foregroundBlur_7938_62007"/>
</filter>
<filter id="filter2_f_7938_62007" x="35.1699" y="30.4277" width="46.6759" height="46.6759" filterUnits="userSpaceOnUse" color-interpolation-filters="sRGB">
<feFlood flood-opacity="0" result="BackgroundImageFix"/>
<feBlend mode="normal" in="SourceGraphic" in2="BackgroundImageFix" result="shape"/>
<feGaussianBlur stdDeviation="5.82717" result="effect1_foregroundBlur_7938_62007"/>
</filter>
<filter id="filter3_f_7938_62007" x="-1.96587" y="27.666" width="46.6759" height="46.6759" filterUnits="userSpaceOnUse" color-interpolation-filters="sRGB">
<feFlood flood-opacity="0" result="BackgroundImageFix"/>
<feBlend mode="normal" in="SourceGraphic" in2="BackgroundImageFix" result="shape"/>
<feGaussianBlur stdDeviation="5.82717" result="effect1_foregroundBlur_7938_62007"/>
</filter>
<linearGradient id="paint0_linear_7938_62007" x1="76.9647" y1="58.0373" x2="64.9682" y2="49.6371" gradientUnits="userSpaceOnUse">
<stop stop-color="#6296A2"/>
<stop offset="0.405" stop-color="#6296A2"/>
<stop offset="0.5279" stop-color="#156374"/>
<stop offset="0.6172" stop-color="#135A6A"/>
<stop offset="1" stop-color="#092A31"/>
</linearGradient>
<linearGradient id="paint1_linear_7938_62007" x1="6.6173" y1="57.7796" x2="15.605" y2="50.3722" gradientUnits="userSpaceOnUse">
<stop stop-color="#6296A2"/>
<stop offset="0.405" stop-color="#448290"/>
<stop offset="0.5279" stop-color="#156374"/>
<stop offset="0.6172" stop-color="#0F4652"/>
<stop offset="1" stop-color="#092A31"/>
</linearGradient>
<linearGradient id="paint2_linear_7938_62007" x1="40.6918" y1="7.70312" x2="40.6918" y2="56.2958" gradientUnits="userSpaceOnUse">
<stop stop-color="#2A99A4"/>
<stop offset="0.484375" stop-color="#10667B"/>
<stop offset="1" stop-color="#184A61"/>
</linearGradient>
<linearGradient id="paint3_linear_7938_62007" x1="40.6918" y1="7.70312" x2="40.6918" y2="56.2958" gradientUnits="userSpaceOnUse">
<stop stop-color="#3F879B"/>
<stop offset="1" stop-color="#062C3C"/>
</linearGradient>
<linearGradient id="paint4_linear_7938_62007" x1="40.6914" y1="5.92578" x2="40.6914" y2="58.0742" gradientUnits="userSpaceOnUse">
<stop stop-color="#3C4E56"/>
<stop offset="1" stop-color="#ADBED2"/>
</linearGradient>
<linearGradient id="paint5_linear_7938_62007" x1="40.6537" y1="21.5402" x2="40.6537" y2="40.2266" gradientUnits="userSpaceOnUse">
<stop offset="0.08" stop-color="#C8D0E5"/>
<stop offset="0.23" stop-color="#FAFAFA"/>
<stop offset="0.39" stop-color="#C8D1E2"/>
<stop offset="0.59" stop-color="#566B7C"/>
<stop offset="1" stop-color="#A9B8CF"/>
</linearGradient>
<linearGradient id="paint6_linear_7938_62007" x1="23.7755" y1="4.93316" x2="41.8526" y2="30.2358" gradientUnits="userSpaceOnUse">
<stop offset="0.5084" stop-color="white" stop-opacity="0"/>
<stop offset="1" stop-color="white"/>
</linearGradient>
</defs>
</svg>
