<svg width="1440" height="850" viewBox="0 0 1440 850" fill="none" xmlns="http://www.w3.org/2000/svg">
<g clip-path="url(#clip0_692_32452)">
<g clip-path="url(#clip1_692_32452)">
<g opacity="0.8">
<mask id="mask0_692_32452" style="mask-type:alpha" maskUnits="userSpaceOnUse" x="0" y="-192" width="1435" height="1128">
<g clip-path="url(#clip2_692_32452)">
<path d="M808.506 151.26C808.506 317.528 698.573 452.315 562.965 452.315C427.356 452.315 -419.912 -130.852 -419.912 -297.12C-419.912 -463.388 797.447 -234.489 933.056 -234.489C1068.66 -234.489 808.506 -15.0082 808.506 151.26Z" fill="url(#paint0_linear_692_32452)"/>
<path d="M903.876 863.738C903.876 1030.01 793.944 1164.79 658.335 1164.79C522.727 1164.79 -232.73 1126.04 -232.73 959.769C-232.73 793.501 -176.888 399.65 -41.2795 399.65C94.3292 399.65 903.876 697.47 903.876 863.738Z" fill="url(#paint1_radial_692_32452)"/>
<path d="M1182.41 151.717C1548.31 482.186 1379.29 316.112 1693.56 307.745C1742.86 317.242 1826.56 317.693 1766.93 243.522C1692.39 150.809 1716.41 85.3243 1623.26 -15.6877C1530.11 -116.7 1473.38 -219.326 1332.74 -379.983C1192.11 -540.64 1181.29 -408.205 1022.75 -420.76C864.201 -433.314 936.514 -413.378 717.762 -180.271C499.009 52.8352 816.517 -178.752 1182.41 151.717Z" fill="#D9D9D9"/>
<path d="M836.977 671.523C347.318 729.172 583.607 711.379 382.904 953.362C343.285 984.203 287.819 1046.88 382.904 1050.87C501.76 1055.85 535.21 1117.06 672.571 1113.5C809.932 1109.94 924.518 1134.85 1138.03 1134.85C1351.55 1134.85 1259.02 1039.48 1372.9 928.452C1486.77 817.424 1424.14 858.704 1392.83 540.568C1361.51 222.432 1326.64 613.874 836.977 671.523Z" fill="#D9D9D9"/>
</g>
</mask>
<g mask="url(#mask0_692_32452)">
<g opacity="0.09">
<line x1="-83.9785" y1="496.441" x2="1622.71" y2="496.441" stroke="#156374" stroke-opacity="0.1" stroke-width="1.42343"/>
<line x1="-83.9785" y1="132.044" x2="1622.71" y2="132.044" stroke="#156374" stroke-opacity="0.1" stroke-width="1.42343"/>
<line x1="-83.9785" y1="314.241" x2="1622.71" y2="314.241" stroke="#156374" stroke-opacity="0.1" stroke-width="1.42343"/>
<line x1="-83.9785" y1="678.638" x2="1622.71" y2="678.638" stroke="#156374" stroke-opacity="0.1" stroke-width="1.42343"/>
<line x1="-83.9785" y1="405.341" x2="1622.71" y2="405.341" stroke="#156374" stroke-opacity="0.1" stroke-width="1.42343"/>
<line x1="-83.9785" y1="769.738" x2="1622.71" y2="769.737" stroke="#156374" stroke-opacity="0.1" stroke-width="1.42343"/>
<line x1="-83.9785" y1="40.9445" x2="1622.71" y2="40.9445" stroke="#156374" stroke-opacity="0.1" stroke-width="1.42343"/>
<line x1="-83.9785" y1="223.142" x2="1622.71" y2="223.142" stroke="#156374" stroke-opacity="0.1" stroke-width="1.42343"/>
<line x1="-83.9785" y1="587.54" x2="1622.71" y2="587.54" stroke="#156374" stroke-opacity="0.1" stroke-width="1.42343"/>
<line x1="698.196" y1="-264.381" x2="698.196" y2="1053.71" stroke="#156374" stroke-opacity="0.1" stroke-width="1.42343"/>
<line x1="333.798" y1="-264.381" x2="333.798" y2="1053.71" stroke="#156374" stroke-opacity="0.1" stroke-width="1.42343"/>
<line x1="1062.59" y1="-264.381" x2="1062.59" y2="1053.71" stroke="#156374" stroke-opacity="0.1" stroke-width="1.42343"/>
<line x1="1376.99" y1="-264.381" x2="1376.99" y2="1053.71" stroke="#156374" stroke-opacity="0.1" stroke-width="1.42343"/>
<line x1="151.598" y1="-264.381" x2="151.598" y2="1053.71" stroke="#156374" stroke-opacity="0.1" stroke-width="1.42343"/>
<line x1="880.389" y1="-264.381" x2="880.389" y2="1053.71" stroke="#156374" stroke-opacity="0.1" stroke-width="1.42343"/>
<line x1="515.997" y1="-264.381" x2="515.997" y2="1053.71" stroke="#156374" stroke-opacity="0.1" stroke-width="1.42343"/>
<line x1="1244.79" y1="-264.381" x2="1244.79" y2="1053.71" stroke="#156374" stroke-opacity="0.1" stroke-width="1.42343"/>
<line x1="61.2527" y1="-264.156" x2="61.2527" y2="1053.94" stroke="#156374" stroke-opacity="0.1" stroke-width="1.42343"/>
<line x1="789.294" y1="-264.381" x2="789.294" y2="1053.71" stroke="#156374" stroke-opacity="0.1" stroke-width="1.42343"/>
<line x1="424.895" y1="-264.381" x2="424.895" y2="1053.71" stroke="#156374" stroke-opacity="0.1" stroke-width="1.42343"/>
<line x1="1153.69" y1="-264.381" x2="1153.69" y2="1053.71" stroke="#156374" stroke-opacity="0.1" stroke-width="1.42343"/>
<line x1="242.698" y1="-264.381" x2="242.698" y2="1053.71" stroke="#156374" stroke-opacity="0.1" stroke-width="1.42343"/>
<line x1="971.493" y1="-264.381" x2="971.493" y2="1053.71" stroke="#156374" stroke-opacity="0.1" stroke-width="1.42343"/>
<line x1="607.093" y1="-264.381" x2="607.093" y2="1053.71" stroke="#156374" stroke-opacity="0.1" stroke-width="1.42343"/>
</g>
<g opacity="0.5">
<rect x="424.963" y="678.576" width="90.5818" height="90.5818" fill="#156374" fill-opacity="0.15"/>
<rect x="1245.37" y="41.9141" width="90.5818" height="89.2877" fill="#156374" fill-opacity="0.2"/>
<rect x="515.543" y="314.896" width="90.5818" height="89.2877" fill="#156374" fill-opacity="0.1"/>
<rect x="1153.5" y="132.496" width="90.5818" height="89.2877" fill="#156374" fill-opacity="0.2"/>
<rect x="424.797" y="41.9141" width="90.5818" height="89.2877" fill="#156374" fill-opacity="0.1"/>
<rect x="1153.5" y="41.9141" width="90.5818" height="89.2877" fill="#156374" fill-opacity="0.2"/>
<rect x="424.797" y="314.896" width="90.5818" height="89.2877" fill="#156374" fill-opacity="0.1"/>
<rect x="334.379" y="678.576" width="90.5818" height="90.5818" fill="#156374" fill-opacity="0.15"/>
<rect x="151.92" y="587.994" width="90.5818" height="90.5818" fill="#156374" fill-opacity="0.15"/>
<rect x="151.922" y="131.203" width="90.5818" height="91.8758" fill="#156374" fill-opacity="0.15"/>
</g>
</g>
</g>
</g>
</g>
<defs>
<linearGradient id="paint0_linear_692_32452" x1="166.54" y1="-213.849" x2="679.686" y2="59.4491" gradientUnits="userSpaceOnUse">
<stop stop-color="white"/>
<stop offset="1" stop-color="white" stop-opacity="0"/>
</linearGradient>
<radialGradient id="paint1_radial_692_32452" cx="0" cy="0" r="1" gradientUnits="userSpaceOnUse" gradientTransform="translate(127.397 870.805) rotate(-29.3932) scale(877.316 1507.85)">
<stop stop-color="white"/>
<stop offset="1" stop-color="white" stop-opacity="0"/>
</radialGradient>
<clipPath id="clip0_692_32452">
<rect width="1440" height="850" fill="white"/>
</clipPath>
<clipPath id="clip1_692_32452">
<rect width="1435" height="1051" fill="white" transform="translate(0 -192)"/>
</clipPath>
<clipPath id="clip2_692_32452">
<rect width="1434.81" height="1127.35" fill="white" transform="translate(0 -191.785)"/>
</clipPath>
</defs>
</svg>
