<svg width="157" height="29" viewBox="0 0 157 29" fill="none" xmlns="http://www.w3.org/2000/svg">
<rect width="28.8756" height="28.8756" rx="14.4378" fill="#005E6C"/>
<path d="M7.21875 21.3001L14.5291 7.21875L21.6565 21.6565" stroke="white" stroke-width="2.88756" stroke-miterlimit="2.61313" stroke-linecap="round" stroke-linejoin="round"/>
<path d="M37.5381 23.2191V6.37814L45.0565 13.8965L52.2744 6.67897V22.4172M67.2279 6.51419C72.8441 6.51419 81.6863 4.90852 83.0666 12.7295C83.6679 16.1376 81.2621 20.9493 77.6533 21.15C74.0445 21.3503 66.7121 21.4655 66.7121 21.4655L66.7465 14.7601M127.873 22.8017V6.37814L136.285 6.4604C141.498 7.45265 140.588 13.9323 134.848 13.5374L140.662 21.8416M155.1 5.65625V22.6876M97.5965 22.2169L105.616 6.37814L113.435 22.6179" stroke="#005E6C" stroke-width="2.52389" stroke-miterlimit="2.61313" stroke-linecap="round" stroke-linejoin="round"/>
</svg>
