<svg width="171" height="24" viewBox="0 0 171 24" fill="none" xmlns="http://www.w3.org/2000/svg">
<rect y="0.0849609" width="23.8298" height="23.8298" rx="11.9149" fill="#156374"/>
<path d="M5.95752 17.6627L11.9904 6.04199L17.8724 17.9569" stroke="white" stroke-width="2.38298" stroke-miterlimit="2.61313" stroke-linecap="round" stroke-linejoin="round"/>
<path d="M30.687 18.3213L37.3095 5.2503L43.7663 18.6523M59.4949 19.1485V5.2503L65.7035 11.4549L71.6641 5.49856V18.4866M87.144 5.58119C91.7818 5.58119 99.0837 4.2561 100.224 10.7104C100.72 13.523 98.7334 17.4939 95.7532 17.6595C92.7731 17.8248 86.718 17.9199 86.718 17.9199L86.7464 12.3862M144.595 18.9828V5.4292L151.541 5.49709C155.846 6.31595 155.095 11.6633 150.355 11.3374L155.156 18.1906M170.091 4.85059V18.9058M115.657 18.3213L122.28 5.2503L128.737 18.6523" stroke="#156374" stroke-width="1.78723" stroke-miterlimit="2.61313" stroke-linecap="round" stroke-linejoin="round"/>
</svg>
