<svg width="168" height="182" viewBox="0 0 168 182" fill="none" xmlns="http://www.w3.org/2000/svg">
<g clip-path="url(#clip0_7266_88248)">
<g clip-path="url(#clip1_7266_88248)">
<path d="M143.512 14.3535H25.6088C14.2898 14.3535 5.11389 23.5294 5.11389 34.8484V152.752C5.11389 164.071 14.2898 173.247 25.6088 173.247H143.512C154.831 173.247 164.007 164.071 164.007 152.752V34.8484C164.007 23.5294 154.831 14.3535 143.512 14.3535Z" fill="#F3E1C4"/>
<path d="M143.512 175.503H25.6088C19.5798 175.492 13.8009 173.092 9.53909 168.827C5.27732 164.562 2.8805 158.782 2.87415 152.753V34.8493C2.88131 28.8179 5.28045 23.0356 9.54529 18.7708C13.8101 14.5059 19.5925 12.1068 25.6239 12.0996H143.512C149.544 12.1068 155.326 14.5059 159.591 18.7708C163.856 23.0356 166.255 28.8179 166.262 34.8493V152.753C166.255 158.784 163.856 164.567 159.591 168.831C155.326 173.096 149.544 175.495 143.512 175.503ZM25.6088 16.6093C20.7756 16.6188 16.1432 18.5441 12.727 21.9631C9.3108 25.3821 7.38936 30.0161 7.3838 34.8493V152.753C7.38858 157.589 9.31183 162.226 12.7315 165.645C16.1511 169.065 20.7878 170.988 25.6239 170.993H143.512C148.348 170.987 152.984 169.064 156.404 165.644C159.823 162.225 161.747 157.589 161.752 152.753V34.8493C161.747 30.0135 159.823 25.3773 156.404 21.9578C152.984 18.5383 148.348 16.6148 143.512 16.6093H25.6088Z" fill="#156374"/>
<path d="M132.331 76.1719C134.328 81.4361 135.903 85.6392 136.901 88.3239C139.67 95.7558 140.548 98.2451 142.361 101.853C143.866 104.864 145.573 107.77 147.472 110.55" stroke="#C4913A" stroke-width="2.40515" stroke-linecap="round" stroke-linejoin="round"/>
<mask id="mask0_7266_88248" style="mask-type:luminance" maskUnits="userSpaceOnUse" x="5" y="14" width="160" height="160">
<path d="M143.512 14.3535H25.609C14.29 14.3535 5.11414 23.5294 5.11414 34.8484V152.752C5.11414 164.071 14.29 173.247 25.609 173.247H143.512C154.832 173.247 164.007 164.071 164.007 152.752V34.8484C164.007 23.5294 154.832 14.3535 143.512 14.3535Z" fill="white"/>
</mask>
<g mask="url(#mask0_7266_88248)">
<mask id="mask1_7266_88248" style="mask-type:luminance" maskUnits="userSpaceOnUse" x="105" y="0" width="54" height="86">
<path d="M129.22 0.794641C131.086 0.699127 132.956 0.739147 134.816 0.914316C135.114 2.35686 135.563 4.41244 136.18 6.87065L136.181 6.87543C136.842 9.49995 137.187 10.8732 137.767 12.4476C138.61 14.6987 139.708 16.8454 141.041 18.8453C144.823 24.8011 141.585 20.3305 149.333 32.6749C149.333 32.6749 153.993 40.1008 156.804 46.1828C157.525 47.7244 158.02 49.3616 158.274 51.0443C158.372 51.6936 158.432 52.3481 158.455 53.0044C158.382 53.3141 158.325 53.5516 158.325 53.5516C158.106 54.5017 157.739 56.05 157.252 57.953C154.534 68.5838 154.023 67.0776 152.186 74.1247C151.629 76.2546 150.674 78.2601 149.372 80.0353C148.822 80.8105 148.127 81.4712 147.325 81.9805C146.525 82.4853 145.628 82.8137 144.691 82.9439C143.755 83.074 142.802 83.0028 141.895 82.7351C140.497 83.2522 139.267 83.637 138.266 83.9377C133.11 85.462 129.599 85.8017 128.646 85.8828C128.059 85.934 127.013 85.934 124.909 85.934C124.167 85.9748 123.424 85.8883 122.711 85.6784C121.959 85.4296 121.268 85.0261 120.682 84.4939C118.824 84.9227 116.935 85.1992 115.033 85.3206C113.489 85.4581 111.935 85.4339 110.397 85.2485C109.055 85.07 107.735 84.7536 106.458 84.3045C106.288 83.9985 106.149 83.6762 106.043 83.3424C105.879 82.8085 105.794 82.2534 105.791 81.6949C105.768 80.7442 105.888 79.7955 106.149 78.8809C111.196 70.8597 115.441 65.3008 116.945 64.3988C117.64 63.9716 118.432 63.7256 119.248 63.6833C119.8 63.6862 120.346 63.804 120.85 64.0291L120.925 63.8607C121.186 63.3144 121.561 62.83 122.024 62.4397C122.487 62.0494 123.027 61.762 123.61 61.5968C124.488 61.3825 125.413 61.4639 126.241 61.8283L126.373 61.8855V61.8644C126.445 61.218 126.56 60.5772 126.719 59.9463C126.898 59.2345 127.133 58.5379 127.422 57.8628C126.399 56.6228 125.493 55.2902 124.716 53.8823C123.985 52.5483 123.375 51.1518 122.891 49.7094C124.335 34.1359 121.478 18.4649 114.633 4.40237C119.223 2.28673 124.173 1.06244 129.22 0.794641Z" fill="white"/>
</mask>
<g mask="url(#mask1_7266_88248)">
<path d="M135.158 0.947972C133.185 0.744549 131.2 0.693285 129.22 0.794641C124.173 1.06244 119.223 2.28673 114.633 4.40237C121.478 18.4649 124.335 34.1359 122.891 49.7094C123.375 51.1518 123.985 52.5483 124.716 53.8823C125.493 55.2902 126.399 56.6228 127.422 57.8628C127.133 58.5379 126.898 59.2345 126.719 59.9463C126.56 60.5772 126.445 61.218 126.373 61.8644V61.8855L126.241 61.8283C125.413 61.4639 124.488 61.3825 123.61 61.5968C123.027 61.762 122.487 62.0494 122.024 62.4397C121.561 62.83 121.186 63.3144 120.925 63.8607L120.85 64.0291C120.346 63.804 119.8 63.6862 119.248 63.6833C118.432 63.7256 117.64 63.9716 116.945 64.3988C115.441 65.3008 111.196 70.8597 106.149 78.8809C105.888 79.7955 105.768 80.7442 105.791 81.6949C105.794 82.2534 105.879 82.8085 106.043 83.3424C106.149 83.6762 106.288 83.9985 106.458 84.3045C107.735 84.7536 109.055 85.07 110.397 85.2485C111.935 85.4339 113.489 85.4581 115.033 85.3206C116.935 85.1992 118.824 84.9227 120.682 84.4939C121.268 85.0261 121.959 85.4296 122.711 85.6784C123.424 85.8883 124.167 85.9748 124.909 85.934C127.013 85.934 128.059 85.934 128.646 85.8828C129.599 85.8017 133.11 85.462 138.266 83.9377C139.267 83.637 140.497 83.2522 141.895 82.7351C142.802 83.0028 143.755 83.074 144.691 82.9439C145.628 82.8137 146.525 82.4853 147.325 81.9805C148.127 81.4712 148.822 80.8105 149.372 80.0353C150.674 78.2601 151.629 76.2546 152.186 74.1247C154.023 67.0776 154.534 68.5838 157.252 57.953C157.739 56.05 158.106 54.5017 158.325 53.5516C158.325 53.5516 158.382 53.3141 158.455 53.0044C158.432 52.3481 158.372 51.6936 158.274 51.0443C158.02 49.3616 157.525 47.7244 156.804 46.1828C153.993 40.1008 149.333 32.6749 149.333 32.6749C141.585 20.3305 144.823 24.8011 141.041 18.8453C139.708 16.8454 138.61 14.6987 137.767 12.4476C137.187 10.8722 136.841 9.49828 136.18 6.87065C135.552 4.36629 135.098 2.27982 134.8 0.833726" fill="#59382B"/>
<path d="M125.985 64.2482C126.027 63.4471 126.181 62.6558 126.442 61.8972L126.358 61.8551V61.8882L126.226 61.831C125.398 61.4666 124.473 61.3852 123.595 61.5995C123.012 61.7648 122.472 62.0521 122.009 62.4424C121.546 62.8327 121.171 63.3171 120.91 63.8634L120.835 64.0318C120.641 63.9449 120.439 63.8735 120.234 63.8183C119.972 63.7822 119.693 63.7522 119.395 63.7371C119.203 63.7371 119.019 63.7221 118.839 63.7221C118.397 63.7847 117.966 63.9071 117.558 64.0859C117.874 67.1167 117.49 70.1798 116.437 73.039C117.012 72.9281 117.575 72.7599 118.117 72.537C119.296 72.0529 120.083 71.4246 121.238 70.4896C122.519 69.4554 122.576 69.2269 123.541 68.4963C124.384 67.8615 125.291 67.3164 126.247 66.8698C126.028 66.0142 125.939 65.1303 125.985 64.2482Z" fill="#452A1E"/>
<path d="M145.71 47.8531C145.911 47.6568 146.092 47.4402 146.248 47.2067C146.955 46.1635 146.988 45.1022 147.012 44.3326C147.036 43.5028 147.069 42.4355 146.411 41.3261C146.029 40.6875 145.499 40.1502 144.865 39.7598C145.729 40.7991 146.261 42.0736 146.393 43.4186C146.491 44.5111 146.351 45.6119 145.981 46.6445C145.807 47.1804 145.584 47.6988 145.313 48.1928C145.452 48.0878 145.585 47.9743 145.71 47.8531Z" fill="#452A1E"/>
<path d="M154.203 44.9628C154.098 44.8605 153.981 44.7613 153.855 44.6621C154.306 45.4832 154.611 46.3763 154.757 47.3018C154.869 48.1167 154.869 48.9431 154.757 49.758C154.665 50.6191 154.484 51.4684 154.218 52.2925C154.467 52.018 154.682 51.7153 154.859 51.3905C155.118 50.8941 155.29 50.3573 155.37 49.8031C155.547 48.7719 155.767 47.4852 155.114 46.1683C154.883 45.7167 154.575 45.3088 154.203 44.9628Z" fill="#452A1E"/>
<path d="M139.968 83.7458C141.345 83.5207 142.666 83.0295 143.855 82.2998C146.675 80.559 147.875 77.9524 148.512 76.5695C148.954 75.6134 149.267 74.3958 149.895 71.9636C150.497 69.6426 150.827 67.938 151.377 65.1059C151.846 62.7008 152.084 61.4802 152.3 59.8356C152.502 58.2963 152.601 56.9675 152.682 55.9453C151.798 59.9469 151.134 63.1427 150.713 65.2081C149.811 69.5555 149.3 72.4056 147.707 76.0584C146.648 78.4635 145.864 79.5398 145.097 80.3576C143.511 82.0142 141.511 83.2162 139.304 83.839C139.496 83.827 139.721 83.797 139.968 83.7458Z" fill="#452A1E"/>
<path d="M115.571 86.5858C116.86 86.0506 118.776 85.2539 121.097 84.2829C125.835 82.2986 128.204 81.3065 128.85 80.9758C135.618 77.5725 138.26 74.2083 138.828 73.4597C139.658 72.3781 140.33 71.1848 140.825 69.9151C141.238 68.8507 141.522 67.7403 141.67 66.608C141.952 64.6087 142.779 60.6282 144.953 52.2402C144.9 54.3426 144.649 56.4353 144.204 58.4906C143.807 60.2945 143.446 61.1754 142.974 63.788C142.59 65.9135 142.656 66.2803 142.283 67.7775C141.913 69.4365 141.319 71.0375 140.518 72.5367C139.673 74.0399 138.462 75.4409 136.144 77.1426C130.296 81.4388 120.39 85.4012 118.95 85.9695" fill="#452A1E"/>
<path d="M128.135 54.4745C127.892 54.746 127.665 55.03 127.452 55.3253C126.497 54.4826 125.765 53.4167 125.321 52.2227C125.04 51.4607 124.883 50.659 124.855 49.8476C126.039 48.4556 126.848 46.7844 127.206 44.9922C125.969 47.6526 123.932 49.8599 121.379 51.3057L122.122 51.6454L121.992 51.7657L126.241 58.9811L126.454 58.5242L126.854 58.7256C127.416 57.3527 128.101 56.0335 128.901 54.7842C129.427 53.9632 130.002 53.175 130.624 52.4241C129.695 52.9776 128.856 53.669 128.135 54.4745Z" fill="#452A1E"/>
<path d="M125.702 65.4395C126.353 65.7984 126.914 66.3012 127.341 66.9096C127.942 67.7574 128.156 68.6714 128.071 68.7135C127.987 68.7556 127.687 67.7875 126.806 67.1772C126.189 66.7814 125.462 66.5929 124.731 66.639" fill="#452A1E"/>
</g>
</g>
<mask id="mask2_7266_88248" style="mask-type:luminance" maskUnits="userSpaceOnUse" x="5" y="14" width="160" height="160">
<path d="M143.512 14.3535H25.609C14.29 14.3535 5.11414 23.5294 5.11414 34.8484V152.752C5.11414 164.071 14.29 173.247 25.609 173.247H143.512C154.832 173.247 164.007 164.071 164.007 152.752V34.8484C164.007 23.5294 154.832 14.3535 143.512 14.3535Z" fill="white"/>
</mask>
<g mask="url(#mask2_7266_88248)">
<path d="M9.0011 14.4544C11.8953 21.3552 14.7895 28.256 17.6837 35.1567C20.068 35.9231 22.5019 36.5258 24.9683 36.9606C33.7351 38.5119 40.5597 37.4987 45.9502 36.6599C54.6298 35.295 59.6025 34.4442 64.1662 30.3164C65.236 29.3465 66.206 28.2718 67.0614 27.1085C65.7206 19.3439 64.3807 11.5772 63.0418 3.80859" fill="#59382B"/>
<path d="M16.7216 12.9336L9.75569 14.2955L9.04315 14.542C11.9233 21.4087 14.8035 28.2765 17.6837 35.1452C20.068 35.9115 22.5018 36.5142 24.9683 36.949C25.2479 36.9971 25.5214 37.0362 25.798 37.0813L16.7216 12.9336Z" fill="#452A1E"/>
<mask id="mask3_7266_88248" style="mask-type:luminance" maskUnits="userSpaceOnUse" x="16" y="25" width="66" height="76">
<path d="M60.4893 99.024C71.4947 95.271 79.5054 85.3542 81.2482 73.57C80.7646 72.9129 80.3045 72.2385 79.8688 71.5482C76.21 65.7728 75.5245 60.7911 73.8048 52.1296C73.1104 48.6361 71.9769 43.1644 70.3414 36.3097C70.3224 33.0101 69.6724 29.7445 68.4263 26.6891C50.7977 24.6188 32.934 27.1932 16.6073 34.1571C16.4506 34.9494 16.368 35.7546 16.3608 36.5623C16.3049 38.7502 16.8542 40.911 17.9482 42.8066C18.5388 43.7992 19.2791 44.6947 20.1429 45.4613C21.9859 51.0593 24.1535 57.8118 26.4955 65.5263C28.7894 73.0875 29.7966 76.7794 28.6421 81.289C28.0066 83.7308 26.8815 86.0179 25.335 88.0114C33.705 98.8256 47.9465 103.302 60.4893 99.024Z" fill="white"/>
</mask>
<g mask="url(#mask3_7266_88248)">
<path d="M81.5645 70.3366C80.9271 83.5138 72.488 94.9323 60.4893 99.024C47.9465 103.302 33.705 98.8256 25.335 88.0114C26.8815 86.0179 28.0066 83.7308 28.6421 81.289C29.7966 76.7794 28.7894 73.0875 26.4955 65.5263C24.1535 57.8118 21.9859 51.0593 20.1429 45.4613C19.2791 44.6947 18.5388 43.7992 17.9482 42.8066C16.8542 40.911 16.3049 38.7502 16.3608 36.5623C16.368 35.7546 16.4506 34.9494 16.6073 34.1571C32.934 27.1932 50.7977 24.6188 68.4263 26.6891C69.6724 29.7445 70.3224 33.0101 70.3414 36.3097C71.9769 43.1644 73.1104 48.6361 73.8048 52.1296C75.5245 60.7911 76.21 65.7728 79.8688 71.5482C80.681 72.835 81.5779 74.0663 82.5536 75.2341" fill="#C0D84F"/>
<path d="M67.9785 39.6857C54.2344 47.575 38.0828 50.175 22.5572 46.9973L22.5782 46.4471C38.3044 49.3961 54.5663 46.5294 68.3362 38.3809L68.0566 40.2208" fill="#B3C438"/>
<path d="M63.9618 41.0536C64.0918 37.6022 63.3022 34.1782 61.6739 31.1323L62.2752 30.6152C63.8536 33.7346 64.658 37.188 64.6202 40.6838" fill="#B3C438"/>
<path d="M24.7638 36.4609C24.6309 39.576 25.2898 42.6739 26.6789 45.4652L26.1318 45.7057C24.7051 42.8707 23.9734 39.7369 23.9972 36.5632" fill="#B3C438"/>
<path d="M32.5926 36.6133C32.5871 39.244 33.1138 41.8487 34.1409 44.2707L33.2691 44.3549C32.3768 41.9144 31.8363 39.3593 31.6636 36.7666" fill="#B3C438"/>
<path d="M57.7717 43.8795C57.821 42.8552 57.7868 41.8286 57.6694 40.8099C57.4816 39.2183 57.0874 37.6579 56.4969 36.168L55.8956 36.5167C56.8564 38.9187 57.2674 41.5054 57.0982 44.0869" fill="#B3C438"/>
</g>
</g>
<mask id="mask4_7266_88248" style="mask-type:luminance" maskUnits="userSpaceOnUse" x="20" y="61" width="148" height="121">
<path d="M68.8804 65.2717L70.104 64.6073C72.8512 63.2187 75.7786 62.22 78.8017 61.64C79.7154 61.4287 80.6689 61.464 81.5646 61.7422C82.8904 62.1841 83.6871 63.1251 84.2704 63.8076C85.0619 64.7761 85.6729 65.8789 86.0742 67.0636C87.4061 70.4548 88.0705 72.1505 88.326 73.0013C88.9965 75.214 89.8864 78.3197 90.8485 82.222C91.3788 82.0074 91.9555 81.9328 92.523 82.0056C92.6607 82.0254 92.7972 82.0525 92.9319 82.0867C95.6798 85.3547 99.4018 89.66 103.987 94.5965C107.179 98.0329 109.93 100.991 113.812 104.728C121.009 111.643 121.556 111.102 127.217 116.907C129 118.732 130.681 120.566 133.564 122.842C135.584 124.438 137.472 125.668 140.013 127.352C141.753 128.497 142.451 128.909 146.356 131.344C150.641 134.014 152.784 135.352 153.521 135.854C155.849 137.419 158.083 139.118 160.213 140.944L162.708 143.707C164.711 145.928 165.504 147.916 165.856 149.311C166.208 150.706 166.042 151.187 166.623 153.303C167.053 154.867 167.404 155.564 167.543 156.986C167.636 157.908 167.611 158.837 167.468 159.752C167.098 161.908 165.664 163.597 163.243 165.663C160.825 167.773 158.173 169.601 155.34 171.11C150.659 173.41 146.125 175.055 139.986 176.868C131.153 179.477 125.771 181.029 118.186 181.552C115.456 181.738 112.718 181.773 109.984 181.657C109.565 181.304 109.213 180.877 108.947 180.397C107.186 180.906 105.368 181.191 103.536 181.245C99.1102 181.365 95.9474 180.079 91.4077 178.173C87.5805 176.561 82.8453 174.541 77.7344 170.332C74.9895 168.077 75.1037 167.626 69.9176 162.515C64.6173 157.281 61.9686 154.665 59.9363 153.303C57.8588 151.908 56.9629 151.689 38.1366 145.787C35.5811 144.984 32.4033 143.962 28.7745 141.641C23.384 138.196 22.0461 135.111 21.7124 134.272C21.0565 132.559 20.7429 130.734 20.7894 128.9C20.7894 127.61 20.9788 126.564 22.1724 121.838C22.44 120.774 22.6895 119.803 22.912 118.94C21.1281 112.147 20.901 105.04 22.2475 98.1471C22.3979 94.6396 23.4321 91.2269 25.254 88.2259C25.9862 87.0369 26.8418 85.9284 27.8065 84.9188C30.352 87.734 33.5639 89.8647 37.1475 91.1151C39.5376 91.9238 41.7653 92.6814 44.414 92.035C47.4836 91.2894 48.3675 89.3293 52.4983 86.9241C54.1563 85.9573 55.9092 85.1634 57.7295 84.555C57.3974 82.491 57.4392 80.384 57.8528 78.3347C58.4905 75.3848 59.8464 72.6379 61.8003 70.3376C63.568 68.2722 65.4531 67.1387 68.8804 65.2717Z" fill="white"/>
</mask>
<g mask="url(#mask4_7266_88248)">
<path d="M68.8805 65.2717L70.1041 64.6073C72.8513 63.2187 75.7787 62.22 78.8017 61.64C79.7155 61.4287 80.669 61.464 81.5646 61.7422C82.8905 62.1841 83.6872 63.1251 84.2704 63.8076C85.0619 64.7761 85.6729 65.8789 86.0743 67.0636C87.4061 70.4548 88.0706 72.1505 88.3261 73.0013C88.9966 75.214 89.8865 78.3197 90.8485 82.222C91.3789 82.0074 91.9556 81.9328 92.5231 82.0056C92.6607 82.0254 92.7972 82.0525 92.932 82.0867C95.6799 85.3547 99.4018 89.66 103.987 94.5965C107.179 98.0329 109.93 100.991 113.812 104.728C121.009 111.643 121.556 111.102 127.217 116.907C129 118.732 130.681 120.566 133.564 122.842C135.584 124.438 137.472 125.668 140.013 127.352C141.754 128.497 142.451 128.909 146.356 131.344C150.641 134.014 152.784 135.352 153.521 135.854C155.849 137.419 158.083 139.118 160.213 140.944L162.708 143.707C164.711 145.928 165.504 147.916 165.856 149.311C166.208 150.706 166.043 151.187 166.623 153.303C167.053 154.867 167.404 155.564 167.543 156.986C167.636 157.908 167.611 158.837 167.468 159.752C167.098 161.908 165.664 163.597 163.244 165.663C160.825 167.773 158.173 169.601 155.34 171.11C150.659 173.41 146.125 175.055 139.986 176.868C131.153 179.477 125.771 181.029 118.186 181.552C115.456 181.738 112.718 181.773 109.985 181.657C109.565 181.304 109.214 180.877 108.947 180.397C107.186 180.906 105.368 181.191 103.536 181.245C99.1102 181.365 95.9474 180.079 91.4077 178.173C87.5805 176.561 82.8454 174.541 77.7344 170.332C74.9896 168.077 75.1038 167.626 69.9177 162.515C64.6173 157.281 61.9687 154.665 59.9363 153.303C57.8589 151.908 56.963 151.689 38.1366 145.787C35.5812 144.984 32.4034 143.962 28.7746 141.641C23.384 138.196 22.0462 135.111 21.7125 134.272C21.0565 132.559 20.743 130.734 20.7895 128.9C20.7895 127.61 20.9789 126.564 22.1724 121.838C22.44 120.774 22.6896 119.803 22.912 118.94C21.1281 112.147 20.901 105.04 22.2476 98.1471C22.398 94.6396 23.4321 91.2269 25.254 88.2259C25.9863 87.0369 26.8418 85.9284 27.8065 84.9188C30.352 87.734 33.564 89.8647 37.1475 91.1151C39.5376 91.9238 41.7654 92.6814 44.4141 92.035C47.4837 91.2894 48.3675 89.3293 52.4984 86.9241C54.1563 85.9573 55.9093 85.1634 57.7296 84.555C57.3975 82.491 57.4392 80.384 57.8529 78.3347C58.4906 75.3848 59.8465 72.6379 61.8003 70.3376C63.5681 68.2722 65.4531 67.1387 68.8805 65.2717Z" fill="#169CA1"/>
<path d="M72.8158 72.1806C74.359 75.4028 75.4389 78.827 76.0237 82.3514C79.5847 81.6731 83.0021 80.3855 86.1253 78.5453C85.6528 74.2489 84.3845 70.0781 82.3853 66.2459C81.5219 64.601 80.5254 63.0294 79.4059 61.5469C79.1774 61.5709 78.973 61.607 78.8046 61.6401C75.7816 62.2201 72.8542 63.2188 70.107 64.6074L68.8834 65.2718L68.6309 65.4101C70.2616 67.5125 71.6644 69.782 72.8158 72.1806Z" fill="#C0D84F"/>
<path d="M166.512 152.893C166.055 151.09 166.169 150.575 165.85 149.286C165.498 147.882 164.705 145.903 162.702 143.682L160.207 140.919C158.077 139.093 155.843 137.394 153.515 135.829C152.778 135.333 150.635 133.995 146.35 131.319C142.442 128.884 141.747 128.472 140.007 127.327C137.451 125.649 135.578 124.419 133.558 122.817C132.656 122.104 131.871 121.437 131.153 120.797C131.67 122.676 131.85 124.934 130.846 127.038C129.43 130.02 126.46 131.001 121.941 132.411C118.396 133.52 107.369 136.965 98.6081 131.184C98.1 130.847 96.9305 129.78 94.6156 127.651C87.3731 121.004 82.6529 116.473 80.338 114.297C75.0737 109.345 71.0451 106.032 62.9908 99.4059C58.1024 95.3833 53.6258 91.8447 49.6904 88.8082C47.7091 90.3264 46.6298 91.4959 44.4141 92.0341C41.7654 92.6805 39.5376 91.9228 37.1475 91.1141C33.5497 89.8588 30.3266 87.7162 27.7764 84.8848C26.8117 85.8943 25.9562 87.0028 25.224 88.1918C23.402 91.1929 22.3679 94.6055 22.2175 98.1131C20.9482 104.609 21.0763 111.3 22.5933 117.742C25.7389 119.939 29.1053 121.801 32.6378 123.298C38.1697 125.634 40.6771 125.61 44.6876 126.84C46.0071 127.246 47.3037 127.722 48.572 128.268C55.4537 131.202 58.7939 134.518 69.2953 143.619C80.8431 153.636 86.6184 158.651 88.7801 160.064C108.592 173.055 131.772 169.294 135.464 168.641C142.171 167.454 158.659 164.54 166.512 152.893Z" fill="#C0D84F"/>
<path d="M32.8994 135.711C37.5317 138.331 42.562 140.174 47.7903 141.168L48.2923 141.264C48.6337 141.139 48.9444 140.942 49.2037 140.687C49.4629 140.432 49.6647 140.124 49.7956 139.785C49.9276 139.38 49.9583 138.949 49.8849 138.53C49.8116 138.111 49.6363 137.716 49.3747 137.38C39.0829 134.882 29.6457 129.679 22.0401 122.309C21.5711 124.179 21.2765 125.429 21.0901 126.346C24.516 130.063 28.5003 133.222 32.8994 135.711Z" fill="#C0D84F"/>
<path d="M51.1696 119.158C57.3943 115.969 63.9465 113.464 70.7115 111.688C71.9203 112.015 73.0882 112.478 74.1929 113.067C75.7953 113.924 76.0299 114.393 80.0284 117.827C82.9567 120.343 83.8466 120.962 85.5031 122.739C85.903 123.169 87.2499 123.83 87.6527 125.247C87.7439 125.57 87.7874 125.905 87.782 126.242C85.0381 127.484 82.2151 128.841 79.3129 130.312C76.1832 131.906 73.2128 133.517 70.4078 135.123" fill="#169CA1"/>
<path d="M47.5106 90.5211C46.5978 91.2378 45.5418 91.7504 44.414 92.0243C41.7653 92.6707 39.5376 91.9131 37.1474 91.1043C32.7911 89.6282 29.2435 86.9915 27.3044 84.875C26.4656 85.7559 26.0447 86.8502 25.2239 88.1821C24.781 88.9049 24.3844 89.655 24.0364 90.4279C27.1154 93.1137 30.8107 94.9965 34.7934 95.9086C39.7502 97.0109 44.9247 96.5832 49.6332 94.682L47.5106 90.5211Z" fill="#169CA1"/>
<path d="M69.2835 143.619C73.0716 146.905 76.2343 149.65 78.8559 151.908C78.731 149.695 78.3548 147.505 77.7345 145.378C77.4348 144.356 77.0785 143.353 76.6673 142.371C75.2066 138.952 73.1216 135.836 70.5191 133.18C66.0094 128.551 59.0225 124.405 56.9059 123.148C55.8176 122.502 52.9615 121.043 51.8912 118.037C51.6587 117.377 51.5211 116.688 51.4823 115.99C51.7777 115.417 52.1195 114.87 52.5045 114.354C54.609 111.564 57.4471 110.446 63.6614 108.416C66.4905 107.493 68.9888 106.715 71.0633 106.086C68.7934 104.18 66.2169 102.061 62.997 99.4121C58.1085 95.3895 53.6319 91.851 49.6965 88.8145C48.3857 89.8186 47.4717 90.6664 46.3624 91.2857C43.6686 94.8427 41.8786 99.0004 41.1462 103.402C40.1571 109.442 41.0109 117.093 44.0113 120.902C45.0319 122.133 45.86 123.512 46.4676 124.991C46.8269 125.881 47.1008 126.803 47.2853 127.745C47.6942 127.904 48.1181 128.076 48.5661 128.268C55.4418 131.202 58.794 134.518 69.2835 143.619Z" fill="black"/>
<path d="M150.138 146.739C151.194 146.044 152.011 145.338 152.441 144.232C152.716 143.451 152.799 142.616 152.683 141.797C152.568 140.977 152.257 140.198 151.777 139.524C151.29 138.847 151.082 138.952 150.241 138.092C149.178 136.977 148.358 135.652 147.836 134.202C147.544 133.449 147.333 132.667 147.207 131.869L146.35 131.337C142.442 128.902 141.747 128.49 140.007 127.344C137.451 125.667 135.578 124.437 133.558 122.835C132.656 122.122 131.871 121.455 131.153 120.814C131.67 122.675 131.85 124.933 130.846 127.038C129.43 130.02 126.46 131 121.941 132.41C119.199 133.267 111.975 135.522 104.783 133.82C104.654 135.269 104.759 136.728 105.093 138.144C105.977 141.793 108.166 143.979 110.108 145.921C111.888 147.698 114.212 149.959 117.786 150.578C118.53 150.69 119.282 150.742 120.035 150.732C125.302 150.855 127.933 150.915 130.221 150.834C134.181 150.743 138.131 150.383 142.042 149.757C143.29 149.556 146.786 148.949 150.138 146.739Z" fill="black"/>
<path d="M91.7325 133.05L82.5448 137.238C81.7685 137.592 81.1065 138.156 80.6334 138.866C80.1604 139.576 79.8952 140.404 79.8677 141.257C79.8402 142.11 80.0515 142.953 80.4778 143.692C80.904 144.431 81.5283 145.037 82.2802 145.44L94.757 152.135C95.5559 152.563 96.4637 152.744 97.3656 152.656C98.2675 152.568 99.123 152.214 99.8239 151.64C100.525 151.065 101.04 150.296 101.303 149.429C101.567 148.562 101.567 147.636 101.305 146.769L97.9979 135.891C97.8085 135.269 97.4885 134.693 97.0591 134.204C96.6298 133.714 96.101 133.322 95.508 133.053C94.9151 132.784 94.2716 132.645 93.6206 132.645C92.9695 132.644 92.3258 132.782 91.7325 133.05Z" stroke="black" stroke-width="0.601288" stroke-miterlimit="10"/>
<path d="M166.617 153.291C166.521 152.94 166.445 152.636 166.385 152.362C165.368 151.599 164.139 151.169 162.868 151.13L151.855 156.842C151.419 157.18 151.016 157.56 150.653 157.975C149.678 159.128 148.994 160.497 148.656 161.968C148.037 164.322 146.886 165.927 145.433 167.957C144.913 168.681 143.329 170.729 138.985 172.945C129.063 178.001 115.88 178.47 115.88 178.47C110.487 178.663 102.928 178.861 93.7738 175.707C89.7061 174.306 83.0078 172 76.9649 166.189C74.6679 163.985 74.3643 163.095 70.1312 158.898C65.6907 154.491 63.472 152.284 60.231 150.3C58.7639 149.398 57.8259 148.998 47.1801 145.466C37.4362 142.234 36.3148 141.939 33.7473 140.628C29.9412 138.683 26.2763 136.756 23.4623 132.646C22.354 131.014 21.4948 129.225 20.9128 127.34C20.8328 127.851 20.7906 128.368 20.7865 128.885C20.7356 130.717 21.0441 132.541 21.6945 134.255C22.0282 135.093 23.3661 138.163 28.7566 141.623C32.3854 143.944 35.5632 144.967 38.1187 145.769C56.945 151.677 57.8409 151.896 59.9183 153.285C61.9507 154.647 64.5994 157.263 69.8997 162.497C75.0979 167.632 74.9836 168.071 77.7165 170.314C82.8274 174.523 87.5686 176.543 91.3807 178.131C95.9205 180.037 99.0832 181.323 103.509 181.203C105.341 181.149 107.159 180.865 108.92 180.355C109.187 180.835 109.538 181.262 109.958 181.615C112.691 181.732 115.429 181.696 118.159 181.51C125.744 180.987 131.126 179.435 139.959 176.826C146.098 175.022 150.632 173.368 155.313 171.068C158.146 169.559 160.798 167.731 163.217 165.621C165.622 163.555 167.071 161.866 167.441 159.71C167.584 158.795 167.609 157.866 167.516 156.944C167.399 155.552 167.047 154.855 166.617 153.291Z" fill="#D79F40"/>
</g>
<path d="M41.6571 169.869C44.7118 167.362 47.537 164.587 50.0992 161.578C53.3163 157.806 56.096 153.682 58.3849 149.284C59.5875 146.972 60.8201 144.227 63.9108 134.393C67.3381 123.495 66.7909 123.125 69.2562 116.033C71.018 110.958 72.9782 105.408 76.8054 98.9294C79.3977 94.5439 82.4287 90.4331 85.8517 86.6602" stroke="#C4913A" stroke-width="2.40515" stroke-linecap="round" stroke-linejoin="round"/>
<path d="M83.9847 87.0072C80.1068 90.4653 76.0171 93.6784 71.7394 96.6278C60.2879 104.529 56.106 104.565 54.239 104.408C51.0491 104.138 46.1035 102.656 45.3339 99.5981C44.3778 95.7799 50.2314 90.687 55.5558 88.4412C59.2417 86.8899 60.8291 87.4762 74.5925 87.1094C80.6415 86.95 78.549 86.8839 87.3849 86.5983C99.0048 86.2225 101.257 86.3818 105.911 85.4739C111.767 84.3284 116.148 83.4085 118.601 79.6384C120.152 77.2573 121.189 73.3399 119.419 70.8385C116.689 66.9753 109.049 68.9836 108.265 69.2C104.107 70.3455 102.273 72.6033 96.8011 77.2843C94.1645 79.5392 90.1869 82.7891 84.9437 86.448" stroke="#C4913A" stroke-width="2.40515" stroke-linecap="round" stroke-linejoin="round"/>
<path d="M64.524 93.9673C68.1799 92.5463 71.9159 91.1432 75.732 89.7583C79.0872 88.5106 81.5856 87.5936 84.9498 86.4512C88.9664 85.1013 92.3426 84.0671 94.7598 83.3516" stroke="#C4913A" stroke-width="2.40515" stroke-linecap="round" stroke-linejoin="round"/>
<path d="M76.4236 100.247C85.1972 97.126 94.437 95.5168 103.749 95.4883" stroke="#C4913A" stroke-width="2.40515" stroke-linecap="round" stroke-linejoin="round"/>
<path d="M100.448 89.1953C93.8311 93.715 88.128 99.4446 83.639 106.082" stroke="#C4913A" stroke-width="2.40515" stroke-linecap="round" stroke-linejoin="round"/>
<path d="M107.435 97.1035C102.033 101.595 97.6605 107.196 94.6154 113.528" stroke="#C4913A" stroke-width="2.40515" stroke-linecap="round" stroke-linejoin="round"/>
<path d="M86.0172 109.459C94.5442 106.1 103.643 104.431 112.808 104.547" stroke="#C4913A" stroke-width="2.40515" stroke-linecap="round" stroke-linejoin="round"/>
<path d="M116.953 106.465C114.658 109.357 112.355 112.325 110.044 115.37C108.126 117.899 106.258 120.405 104.44 122.886" stroke="#C4913A" stroke-width="2.40515" stroke-linecap="round" stroke-linejoin="round"/>
<path d="M95.6137 118.825C103.658 116.14 112.019 114.515 120.483 113.99" stroke="#C4913A" stroke-width="2.40515" stroke-linecap="round" stroke-linejoin="round"/>
<path d="M123.877 116.795C120.952 118.019 117.795 119.501 114.497 121.281C111.536 122.883 108.848 124.518 106.437 126.118" stroke="#C4913A" stroke-width="2.40515" stroke-linecap="round" stroke-linejoin="round"/>
<path d="M92.126 90.6959L92.3846 90.6328C95.2863 92.8619 97.309 96.0428 98.0968 99.616C96.6747 100.689 95.0807 101.512 93.3827 102.051C92.7723 99.9378 91.745 97.968 90.3613 96.2579C89.4234 95.1041 88.3308 94.0853 87.1143 93.2304C87.8656 92.6134 88.6846 92.0839 89.5555 91.652C90.3762 91.2434 91.2378 90.9229 92.126 90.6959Z" fill="#169CA1" stroke="#231F20" stroke-width="0.601288" stroke-linecap="round" stroke-linejoin="round"/>
<path d="M64.2955 87.5065C86.6483 107.298 102.742 121.56 105.132 123.731C105.615 124.174 106.128 124.585 106.665 124.961C107.835 125.775 109.972 127.279 113.039 127.57C116.181 127.871 118.484 126.722 120.329 125.802C122.458 124.744 123.05 123.875 123.336 123.346C123.798 122.394 123.959 121.323 123.796 120.277C123.596 118.913 123.01 117.635 122.106 116.594C120.185 114.273 107.904 100.804 90.8664 82.5098" stroke="black" stroke-width="0.601288" stroke-linecap="round" stroke-linejoin="round"/>
<path d="M143.512 12.0996H25.6088C19.58 12.1107 13.8016 14.5116 9.53997 18.7761C5.27837 23.0405 2.8813 28.8205 2.87415 34.8493V143.457C4.37736 144.025 5.88058 144.572 7.3838 145.071V34.8493C7.38937 30.0135 9.31287 25.3773 12.7323 21.9578C16.1518 18.5383 20.788 16.6148 25.6239 16.6093H143.512C148.348 16.6148 152.984 18.5383 156.404 21.9578C159.823 25.3773 161.747 30.0135 161.752 34.8493V69.6729C163.274 66.7747 164.777 63.8735 166.262 60.9693V34.8493C166.255 28.8179 163.856 23.0356 159.591 18.7708C155.326 14.5059 149.544 12.1068 143.512 12.0996Z" fill="#156374"/>
</g>
</g>
<defs>
<clipPath id="clip0_7266_88248">
<rect width="167.459" height="181.589" fill="white"/>
</clipPath>
<clipPath id="clip1_7266_88248">
<rect x="2.87402" y="12.0996" width="164.724" height="169.624" rx="24" fill="white"/>
</clipPath>
</defs>
</svg>
