<svg width="32" height="32" viewBox="0 0 32 32" fill="none" xmlns="http://www.w3.org/2000/svg">
<path d="M9.55922 14.743C9.07523 14.2106 8.34931 14.259 8.01047 14.8882L0.169562 30.5699C-0.120832 31.1992 0.314772 31.9252 0.992372 31.9252H11.8825C12.2214 31.9252 12.5601 31.7316 12.7054 31.3928C15.0769 26.5528 13.6733 19.1474 9.55922 14.743Z" fill="#2E7483"/>
<path d="M15.2696 0.514069C10.9136 7.43535 11.2041 15.1311 14.0596 20.8907C16.9637 26.6505 19.1417 31.1032 19.3353 31.3937C19.4806 31.7324 19.8193 31.9261 20.1581 31.9261H31.0483C31.7258 31.9261 32.2098 31.2 31.8711 30.5708C31.8711 30.5708 17.2057 1.24008 16.8184 0.514069C16.5281 -0.163544 15.7052 -0.163544 15.2696 0.514069Z" fill="#2E7483"/>
</svg>
