<svg width="32" height="32" viewBox="0 0 32 32" fill="none" xmlns="http://www.w3.org/2000/svg">
<path d="M9.50908 14.7732C9.02366 14.2395 8.2956 14.288 7.95576 14.9188L0.0917069 30.6397C-0.199544 31.2705 0.237346 31.9984 0.916945 31.9984H11.8392C12.1791 31.9984 12.5188 31.8043 12.6645 31.4647C15.043 26.6125 13.6353 19.1887 9.50908 14.7732Z" fill="url(#paint0_linear_4548_81881)"/>
<path d="M15.2404 0.50948C10.8715 7.44807 11.1628 15.1631 14.0268 20.9371C16.9394 26.7112 19.1239 31.1751 19.3181 31.4663C19.4637 31.8059 19.8035 32 20.1433 32H31.0656C31.7451 32 32.2306 31.2721 31.8908 30.6413C31.8908 30.6413 17.1822 1.23731 16.7937 0.50948C16.5025 -0.169827 15.6772 -0.169827 15.2404 0.50948Z" fill="#2684FF"/>
<defs>
<linearGradient id="paint0_linear_4548_81881" x1="13.8004" y1="17.2051" x2="5.51807" y2="31.5569" gradientUnits="userSpaceOnUse">
<stop stop-color="#0052CC"/>
<stop offset="0.9228" stop-color="#2684FF"/>
</linearGradient>
</defs>
</svg>
