<svg width="32" height="48" viewBox="0 0 32 48" fill="none" xmlns="http://www.w3.org/2000/svg">
<g clip-path="url(#clip0_4491_81593)">
<path d="M16 24.0006C16 19.6274 19.5452 16.082 23.9186 16.082C28.2918 16.082 31.8371 19.6274 31.8371 24.0006C31.8371 28.3739 28.2918 31.9191 23.9186 31.9191C19.5452 31.9191 16 28.3739 16 24.0006Z" fill="#2C7282"/>
<path d="M0.164062 39.8365C0.164062 35.4633 3.70932 31.918 8.08262 31.918H16.0012V39.8365C16.0012 44.2099 12.4559 47.7551 8.08262 47.7551C3.70932 47.7551 0.164062 44.2099 0.164062 39.8365Z" fill="#2C7282"/>
<path d="M16 0.244141V16.0812H23.9186C28.2919 16.0812 31.8371 12.536 31.8371 8.16269C31.8371 3.7894 28.2919 0.244141 23.9186 0.244141H16Z" fill="#2C7282"/>
<path d="M0.164062 8.1627C0.164062 12.536 3.70932 16.0812 8.08262 16.0812H16.0012V0.244141H8.08262C3.70932 0.244141 0.164062 3.7894 0.164062 8.1627Z" fill="#2C7282"/>
<path d="M0.164062 24.0006C0.164062 28.3739 3.70932 31.9191 8.08262 31.9191H16.0012V16.082H8.08262C3.70932 16.082 0.164062 19.6274 0.164062 24.0006Z" fill="#2C7282"/>
</g>
<defs>
<clipPath id="clip0_4491_81593">
<rect width="32" height="48" fill="white"/>
</clipPath>
</defs>
</svg>
