<svg width="32" height="32" viewBox="0 0 32 32" fill="none" xmlns="http://www.w3.org/2000/svg">
<path d="M26.7446 0H18.262C17.5327 0 16.9414 0.591268 16.9414 1.32063V30.6794C16.9414 31.4087 17.5327 32 18.262 32H26.7446C27.4739 32 28.0652 31.4087 28.0652 30.6794V1.32063C28.0652 0.591268 27.4739 0 26.7446 0Z" fill="#2E7483"/>
<path d="M21.5105 30.6774V31.9981H20.1899H11.7074C10.978 31.9981 10.3867 31.4068 10.3867 30.6774V9.29329C10.3867 8.56392 10.978 7.97266 11.7074 7.97266H20.1899C20.9193 7.97266 21.5105 8.56392 21.5105 9.29329V30.6774Z" fill="#3B7C8A"/>
<path fill-rule="evenodd" clip-rule="evenodd" d="M15.0613 30.6794V32H13.7407H5.25813C4.52877 32 3.9375 31.4087 3.9375 30.6794V17.3206C3.9375 16.5913 4.52877 16 5.25813 16H13.7407C14.47 16 15.0613 16.5913 15.0613 17.3206V30.6794Z" fill="#2E7483"/>
</svg>
