<svg width="32" height="32" viewBox="0 0 32 32" fill="none" xmlns="http://www.w3.org/2000/svg">
<g clip-path="url(#clip0_4548_81840)">
<path d="M26.7446 -0.00585938H18.262C17.5327 -0.00585938 16.9414 0.585409 16.9414 1.31478V30.6735C16.9414 31.4029 17.5327 31.9941 18.262 31.9941H26.7446C27.4739 31.9941 28.0652 31.4029 28.0652 30.6735V1.31478C28.0652 0.585409 27.4739 -0.00585938 26.7446 -0.00585938Z" fill="url(#paint0_linear_4548_81840)"/>
<g filter="url(#filter0_d_4548_81840)">
<path d="M21.5105 30.6735V31.9941H20.1899H11.7074C10.978 31.9941 10.3867 31.4029 10.3867 30.6735V9.28939C10.3867 8.56002 10.978 7.96875 11.7074 7.96875H20.1899C20.9193 7.96875 21.5105 8.56002 21.5105 9.28939V30.6735Z" fill="black"/>
</g>
<path d="M21.5105 30.6735V31.9941H20.1899H11.7074C10.978 31.9941 10.3867 31.4029 10.3867 30.6735V9.28939C10.3867 8.56002 10.978 7.96875 11.7074 7.96875H20.1899C20.9193 7.96875 21.5105 8.56002 21.5105 9.28939V30.6735Z" fill="url(#paint1_linear_4548_81840)"/>
<path fill-rule="evenodd" clip-rule="evenodd" d="M15.0613 30.6735V31.9941H13.7407H5.25813C4.52877 31.9941 3.9375 31.4029 3.9375 30.6735V17.3148C3.9375 16.5854 4.52877 15.9941 5.25813 15.9941H13.7407C14.47 15.9941 15.0613 16.5854 15.0613 17.3148V30.6735Z" fill="url(#paint2_linear_4548_81840)"/>
</g>
<defs>
<filter id="filter0_d_4548_81840" x="10.3867" y="5.11329" width="22.5468" height="35.4472" filterUnits="userSpaceOnUse" color-interpolation-filters="sRGB">
<feFlood flood-opacity="0" result="BackgroundImageFix"/>
<feColorMatrix in="SourceAlpha" type="matrix" values="0 0 0 0 0 0 0 0 0 0 0 0 0 0 0 0 0 0 127 0" result="hardAlpha"/>
<feOffset dx="5.71091" dy="2.85546"/>
<feGaussianBlur stdDeviation="2.85546"/>
<feColorMatrix type="matrix" values="0 0 0 0 0 0 0 0 0 0 0 0 0 0 0 0 0 0 0.0530212 0"/>
<feBlend mode="normal" in2="BackgroundImageFix" result="effect1_dropShadow_4548_81840"/>
<feBlend mode="normal" in="SourceGraphic" in2="effect1_dropShadow_4548_81840" result="shape"/>
</filter>
<linearGradient id="paint0_linear_4548_81840" x1="573.132" y1="-0.00585938" x2="573.132" y2="3199.99" gradientUnits="userSpaceOnUse">
<stop stop-color="#EBBB14"/>
<stop offset="1" stop-color="#B25400"/>
</linearGradient>
<linearGradient id="paint1_linear_4548_81840" x1="566.577" y1="7.96875" x2="566.577" y2="2410.51" gradientUnits="userSpaceOnUse">
<stop stop-color="#F9E583"/>
<stop offset="1" stop-color="#DE9800"/>
</linearGradient>
<linearGradient id="paint2_linear_4548_81840" x1="560.128" y1="15.9941" x2="560.128" y2="1615.99" gradientUnits="userSpaceOnUse">
<stop stop-color="#F9E68B"/>
<stop offset="1" stop-color="#F3CD32"/>
</linearGradient>
<clipPath id="clip0_4548_81840">
<rect width="32" height="32" fill="white"/>
</clipPath>
</defs>
</svg>
