<svg width="32" height="32" viewBox="0 0 32 32" fill="none" xmlns="http://www.w3.org/2000/svg">
<g clip-path="url(#clip0_4491_81614)">
<path d="M2.03005 1.38082L20.5142 0.0517459C22.7579 -0.152727 23.3456 0.000627729 24.788 0.971874L30.7179 4.95909C31.6795 5.62363 32 5.8281 32 6.59488V28.4223C32 29.8025 31.4658 30.6204 29.6494 30.7227L8.17362 31.9495C6.78464 32.0006 6.14357 31.8473 5.44908 30.9783L1.12187 25.6108C0.320534 24.5885 0 23.8728 0 23.0038V3.5789C0 2.4543 0.534224 1.48306 2.03005 1.38082Z" fill="#2C7382"/>
<path opacity="0.5" fill-rule="evenodd" clip-rule="evenodd" d="M20.5142 0.0513083L2.03005 1.38038C0.534224 1.48262 0 2.45386 0 3.57846V23.0034C0 23.8724 0.320534 24.6392 1.12187 25.6104L5.44908 31.0289C6.14357 31.898 6.83806 32.1024 8.17362 32.0002L29.6494 30.7734C31.4658 30.6711 32 29.8532 32 28.473V6.59444C32 5.87878 31.7329 5.67431 30.8247 5.06089C30.7713 5.00977 30.7179 5.00977 30.6644 4.95866L24.788 1.02255C23.399 0.00019015 22.8114 -0.102046 20.5142 0.0513083ZM8.65442 6.23661C6.89149 6.33885 6.51753 6.38997 5.5025 5.57208L2.99165 3.6807C2.72454 3.42511 2.83139 3.1184 3.52588 3.06728L21.3155 1.84045C22.8114 1.73821 23.5593 2.19827 24.1469 2.65834L27.192 4.75418C27.3523 4.8053 27.6728 5.16313 27.2454 5.16313L8.86811 6.23661H8.65442ZM6.62437 28.2686V9.71265C6.62437 8.89476 6.89149 8.53693 7.6394 8.48581L28.7412 7.31009C29.4357 7.25898 29.7563 7.66792 29.7563 8.48581V26.8884C29.7563 27.7063 29.596 28.3708 28.4741 28.4219L8.28047 29.5465C7.1586 29.6488 6.62437 29.2398 6.62437 28.2686ZM26.5509 10.735C26.6578 11.2973 26.5509 11.8596 25.9633 11.9107L25.0017 12.1152V25.8149C24.1469 26.275 23.399 26.4794 22.7579 26.4794C21.7429 26.4794 21.4758 26.1727 20.6745 25.2526L14.2638 15.6424V24.8948L16.2938 25.3548C16.2938 25.3548 16.2938 26.4794 14.6912 26.4794L10.2037 26.735C10.0968 26.4794 10.2037 25.866 10.6311 25.7638L11.8063 25.4571V13.1887L10.2037 13.0353C10.0968 12.473 10.4174 11.6551 11.3255 11.604L16.1336 11.2973L22.7579 21.0098V12.4219L21.0484 12.2174C20.9416 11.5529 21.4224 11.0417 22.0634 10.9906L26.5509 10.735Z" fill="#43828F"/>
</g>
<defs>
<clipPath id="clip0_4491_81614">
<rect width="32" height="32" fill="white"/>
</clipPath>
</defs>
</svg>
