<svg width="52" height="32" viewBox="0 0 52 32" fill="none" xmlns="http://www.w3.org/2000/svg">
<g clip-path="url(#clip0_4491_81639)">
<mask id="mask0_4491_81639" style="mask-type:luminance" maskUnits="userSpaceOnUse" x="0" y="0" width="52" height="32">
<path d="M0.0117188 0.0800781H51.8411V31.9863H0.0117188V0.0800781Z" fill="white"/>
</mask>
<g mask="url(#mask0_4491_81639)">
<path fill-rule="evenodd" clip-rule="evenodd" d="M21.573 3.563C23.2448 2.03102 25.5726 1.0804 28.1469 1.0804C31.5688 1.0804 34.5547 2.75881 36.1442 5.25079C37.5664 4.6918 39.107 4.4037 40.6648 4.40538C46.837 4.40538 51.8408 8.84501 51.8408 14.3219C51.8408 19.7987 46.837 24.2385 40.6648 24.2385C39.911 24.2385 39.175 24.1718 38.463 24.0455C37.0632 26.2418 34.3947 27.726 31.3326 27.726C30.094 27.7275 28.8715 27.48 27.7583 27.0024C26.3392 29.9392 23.0318 31.9983 19.1783 31.9983C15.1644 31.9983 11.7434 29.7646 10.4312 26.632C9.8464 26.7405 9.25029 26.7951 8.65257 26.7948C3.87371 26.7948 0 23.3519 0 19.1049C0 16.2585 1.74019 13.7733 4.32667 12.4439C3.77867 11.334 3.49668 10.1367 3.49829 8.9266C3.49829 4.04199 8.00629 0.0820312 13.567 0.0820312C16.8318 0.0820312 19.7333 1.44714 21.573 3.563Z" fill="#387A88"/>
</g>
<path fill-rule="evenodd" clip-rule="evenodd" d="M7.51178 16.6361C7.47921 16.7108 7.5234 16.7264 7.53388 16.7397C7.63121 16.8016 7.73007 16.8465 7.82988 16.897C8.35845 17.1431 8.85807 17.2153 9.37997 17.2153C10.4434 17.2153 11.104 16.718 11.104 15.9172V15.9015C11.104 15.1609 10.3583 14.8919 9.6594 14.6977L9.56816 14.6717C9.04111 14.5213 8.58626 14.3911 8.58626 14.0857V14.0701C8.58626 13.8086 8.85216 13.6164 9.26416 13.6164C9.72226 13.6164 10.2651 13.7503 10.6152 13.9203C10.6152 13.9203 10.7184 13.9789 10.756 13.8913C10.7764 13.8439 10.9533 13.4247 10.9722 13.3793C10.9924 13.3302 10.9569 13.2932 10.9205 13.2741C10.5207 13.0598 9.96854 12.9141 9.39692 12.9141L9.29083 12.9144C8.31749 12.9144 7.63788 13.4321 7.63788 14.173V14.1889C7.63788 14.9696 8.38759 15.2234 9.08988 15.3998L9.20264 15.4307C9.71407 15.5687 10.1558 15.688 10.1558 16.0045V16.0202C10.1558 16.3101 9.86873 16.5254 9.40645 16.5254C9.22721 16.5254 8.65502 16.5227 8.03673 16.1787C7.96188 16.1404 7.91921 16.1127 7.8615 16.0817C7.83102 16.0655 7.75483 16.0362 7.72169 16.1239L7.51178 16.6361ZM23.0794 16.6361C23.0468 16.7108 23.091 16.7264 23.1019 16.7397C23.1988 16.8016 23.2979 16.8465 23.3975 16.897C23.9263 17.1431 24.4259 17.2153 24.9476 17.2153C26.011 17.2153 26.6718 16.718 26.6718 15.9172V15.9015C26.6718 15.1609 25.9263 14.8919 25.2272 14.6977L25.136 14.6717C24.6089 14.5213 24.1539 14.3911 24.1539 14.0857V14.0701C24.1539 13.8086 24.42 13.6164 24.8322 13.6164C25.2901 13.6164 25.8327 13.7503 26.1828 13.9203C26.1828 13.9203 26.2861 13.9789 26.3238 13.8913C26.344 13.8439 26.5211 13.4247 26.5398 13.3793C26.5602 13.3302 26.5245 13.2932 26.4884 13.2741C26.0884 13.0598 25.5364 12.9141 24.9647 12.9141L24.8584 12.9144C23.8853 12.9144 23.2057 13.4321 23.2057 14.173V14.1889C23.2057 14.9696 23.9552 15.2234 24.6577 15.3998L24.7703 15.4307C25.2819 15.5687 25.7236 15.688 25.7236 16.0045V16.0202C25.7236 16.3101 25.4364 16.5254 24.9744 16.5254C24.7948 16.5254 24.2226 16.5227 23.6045 16.1787C23.5297 16.1404 23.4859 16.1139 23.4291 16.0817C23.4099 16.071 23.3202 16.0402 23.2895 16.1239L23.0794 16.6361ZM33.707 15.0673C33.707 15.5196 33.611 15.8768 33.4224 16.1286C33.235 16.3783 32.9522 16.4997 32.5577 16.4997C32.1632 16.4997 31.8819 16.3784 31.6975 16.129C31.5114 15.877 31.4169 15.5196 31.4169 15.0673C31.4169 14.6153 31.5114 14.2592 31.6975 14.0099C31.8819 13.7628 32.1632 13.6429 32.5577 13.6429C32.9522 13.6429 33.235 13.763 33.4224 14.0101C33.6114 14.2592 33.707 14.6153 33.707 15.0673ZM34.595 14.2284C34.5076 13.9689 34.3718 13.7405 34.191 13.55C34.0099 13.359 33.7807 13.2054 33.5091 13.0942C33.2379 12.9828 32.9179 12.9263 32.5577 12.9263C32.1975 12.9263 31.8773 12.9828 31.6059 13.0942C31.3346 13.2054 31.1053 13.359 30.9242 13.5504C30.7436 13.7412 30.6074 13.9692 30.5204 14.2284C30.4337 14.4859 30.3897 14.7682 30.3897 15.0673C30.3897 15.3665 30.4337 15.649 30.5204 15.9061C30.6074 16.1652 30.7432 16.3934 30.9244 16.5845C31.1055 16.7758 31.3354 16.9281 31.6063 17.0367C31.8779 17.1453 32.1979 17.2006 32.5577 17.2006C32.9177 17.2006 33.2373 17.1453 33.5087 17.0367C33.78 16.9281 34.0095 16.7758 34.191 16.5845C34.3718 16.394 34.5076 16.1655 34.595 15.9061C34.6815 15.6485 34.7255 15.3662 34.7255 15.0673C34.7255 14.7686 34.6815 14.4861 34.595 14.2284ZM41.884 16.3786C41.8548 16.3027 41.7706 16.3314 41.7706 16.3314C41.6417 16.3748 41.5045 16.415 41.3579 16.4351C41.2101 16.4555 41.0464 16.4657 40.8714 16.4657C40.4423 16.4657 40.1004 16.3533 39.8564 16.1312C39.6112 15.9088 39.4735 15.5496 39.475 15.0638C39.4764 14.6221 39.5979 14.2894 39.8158 14.0357C40.0318 13.7838 40.3617 13.6544 40.8004 13.6544C41.1666 13.6544 41.4461 13.6918 41.7388 13.7725C41.7388 13.7725 41.8084 13.7992 41.8417 13.7186C41.9196 13.5288 41.9771 13.3937 42.0602 13.1851C42.0838 13.1257 42.0259 13.1005 42.0047 13.0933C41.8897 13.0538 41.6179 12.989 41.4127 12.9616C41.2209 12.9358 40.9967 12.9224 40.7466 12.9224C40.3739 12.9224 40.0415 12.9786 39.7573 13.0898C39.4737 13.2009 39.2331 13.3544 39.0424 13.5452C38.8518 13.7363 38.7066 13.9647 38.6106 14.2237C38.5144 14.4814 38.4659 14.7642 38.4659 15.0641C38.4659 15.7116 38.6645 16.2349 39.0564 16.6182C39.4495 17.0029 40.0392 17.1982 40.8089 17.1982C41.2636 17.1982 41.7301 17.1173 42.0661 17.001C42.0661 17.001 42.1301 16.9739 42.1023 16.9082L41.884 16.3786ZM43.4371 14.6335C43.4796 14.382 43.5579 14.1731 43.68 14.0099C43.8642 13.7628 44.1445 13.6266 44.539 13.6266C44.9337 13.6266 45.1937 13.763 45.3811 14.0101C45.5049 14.1735 45.559 14.3911 45.5802 14.6339L43.4371 14.6335ZM46.4255 14.0811C46.3499 13.8308 46.1636 13.578 46.0411 13.4624C45.8478 13.2791 45.6584 13.1508 45.4704 13.0799C45.1984 12.9782 44.9057 12.926 44.6101 12.9263C44.235 12.9263 43.8943 12.9821 43.6179 13.096C43.3411 13.2103 43.1085 13.3664 42.9263 13.5604C42.7436 13.7543 42.6066 13.985 42.5192 14.2467C42.4316 14.5069 42.3874 14.7905 42.3874 15.0901C42.3874 15.3946 42.4333 15.6786 42.5236 15.934C42.6148 16.1915 42.7613 16.4175 42.959 16.6056C43.1565 16.7944 43.4108 16.9425 43.7146 17.0457C44.0169 17.1488 44.3842 17.2022 44.8053 17.2011C45.6735 17.1985 46.1301 17.0283 46.3186 16.9367C46.352 16.9203 46.3834 16.8919 46.3442 16.8104L46.1476 16.3265C46.1175 16.2543 46.0344 16.2804 46.0344 16.2804C45.819 16.3511 45.5141 16.4773 44.8009 16.4759C44.335 16.4753 43.9899 16.3541 43.7729 16.165C43.551 15.9715 43.4421 15.6873 43.4236 15.2859L46.4278 15.2879C46.4278 15.2879 46.507 15.2873 46.5152 15.2192C46.5184 15.1911 46.6183 14.6764 46.4255 14.0811ZM19.3725 14.6335C19.415 14.382 19.4935 14.1731 19.6154 14.0099C19.7998 13.7628 20.0798 13.6266 20.4746 13.6266C20.8693 13.6266 21.1293 13.763 21.3167 14.0101C21.4404 14.1735 21.4944 14.3911 21.5156 14.6339L19.3725 14.6335ZM22.3609 14.0811C22.2855 13.8308 22.099 13.578 21.9767 13.4624C21.7834 13.2791 21.5943 13.1508 21.4061 13.0799C21.134 12.9783 20.8413 12.926 20.5457 12.9263C20.1706 12.9263 19.8299 12.9821 19.5535 13.096C19.2767 13.2103 19.0442 13.3664 18.8615 13.5604C18.6792 13.7543 18.5423 13.985 18.4544 14.2467C18.367 14.5069 18.323 14.7905 18.323 15.0901C18.323 15.3946 18.3685 15.6786 18.4594 15.934C18.5504 16.1915 18.6971 16.4175 18.8944 16.6056C19.0922 16.7944 19.3463 16.9425 19.6501 17.0457C19.9525 17.1488 20.3194 17.2022 20.7409 17.2011C21.6089 17.1985 22.0657 17.0283 22.2543 16.9367C22.2874 16.9203 22.319 16.8919 22.2796 16.8104L22.0832 16.3265C22.0529 16.2543 21.9699 16.2804 21.9699 16.2804C21.7546 16.3511 21.4497 16.4773 20.7364 16.4759C20.2706 16.4753 19.9253 16.3541 19.7084 16.165C19.4866 15.9715 19.3775 15.6873 19.359 15.2859L22.3634 15.2879C22.3634 15.2879 22.4426 15.2873 22.4508 15.2192C22.4541 15.1911 22.5539 14.6764 22.3609 14.0811ZM12.8779 16.3642C12.76 16.2814 12.7436 16.2612 12.7045 16.2074C12.6449 16.1265 12.6144 16.0112 12.6144 15.8636C12.6144 15.6316 12.7021 15.4643 12.8826 15.3521C12.8807 15.3524 13.1417 15.1541 13.7541 15.1611C14.0273 15.1654 14.2998 15.1858 14.5699 15.2223V16.4235H14.5703C14.5703 16.4235 14.1884 16.4957 13.7584 16.5185C13.1474 16.5508 12.876 16.3637 12.8779 16.3642ZM14.0735 14.5069C13.9516 14.499 13.7937 14.4951 13.6044 14.4951C13.347 14.4951 13.0981 14.5233 12.8644 14.5786C12.6297 14.6342 12.4186 14.7203 12.2371 14.8344C12.0557 14.9484 11.9065 15.0975 11.8011 15.2703C11.6946 15.4447 11.6404 15.6496 11.6404 15.8793C11.6404 16.1137 11.6866 16.3168 11.7781 16.4826C11.8675 16.6471 12.0022 16.7893 12.1699 16.8965C12.3369 17.0034 12.543 17.0818 12.7821 17.1297C13.0181 17.1771 13.2855 17.2011 13.5777 17.2011C13.8863 17.2011 14.1931 17.1783 14.4904 17.1342C14.7437 17.0958 14.996 17.0527 15.2472 17.0049C15.3474 16.9846 15.4579 16.958 15.4579 16.958C15.5322 16.9414 15.5264 16.8715 15.5264 16.8715L15.5247 14.4546C15.5247 13.9245 15.364 13.5318 15.0472 13.2878C14.732 13.0451 14.2678 12.9224 13.6672 12.9224C13.4417 12.9224 13.0794 12.9492 12.8619 12.9876C12.8619 12.9876 12.2059 13.0995 11.9358 13.2857C11.9358 13.2857 11.8764 13.3178 11.9087 13.3907L12.1215 13.8933C12.148 13.9585 12.2202 13.9362 12.2202 13.9362C12.2202 13.9362 12.2428 13.9283 12.2695 13.9144C12.8474 13.638 13.5786 13.6462 13.5786 13.6462C13.9032 13.6462 14.1533 13.704 14.3213 13.8171C14.4853 13.9278 14.5685 14.0945 14.5685 14.4469V14.5586C14.3108 14.5258 14.0735 14.5069 14.0735 14.5069ZM38.3087 13.1453C38.3131 13.1364 38.3153 13.1269 38.3154 13.1173C38.3155 13.1077 38.3133 13.0981 38.3091 13.0893C38.3049 13.0804 38.2987 13.0723 38.2909 13.0656C38.2831 13.0589 38.2738 13.0536 38.2636 13.0501C38.2124 13.033 37.9569 12.9856 37.76 12.9749C37.3823 12.9541 37.1729 13.0101 36.9851 13.0844C36.7988 13.1583 36.5925 13.2778 36.4775 13.414L36.4771 13.0917C36.4771 13.0474 36.4415 13.0117 36.3908 13.0117H35.6205C35.5706 13.0117 35.5344 13.0474 35.5344 13.0917V17.0342C35.5345 17.0555 35.5441 17.0758 35.5612 17.0909C35.5783 17.1059 35.6015 17.1144 35.6257 17.1144H36.4152C36.4394 17.1144 36.4625 17.1059 36.4796 17.0909C36.4967 17.0758 36.5063 17.0554 36.5063 17.0342V15.0648C36.5063 14.8002 36.5394 14.5367 36.6055 14.371C36.6706 14.207 36.7592 14.0763 36.8689 13.9823C36.9729 13.8916 37.1002 13.8242 37.24 13.7859C37.371 13.7529 37.5067 13.7361 37.643 13.736C37.8002 13.736 37.9731 13.7715 37.9731 13.7715C38.031 13.7772 38.0632 13.7461 38.0828 13.7002C38.1344 13.5794 38.2807 13.2173 38.3087 13.1453Z" fill="#4C8794"/>
<path fill-rule="evenodd" clip-rule="evenodd" d="M30.8967 11.3165C30.7992 11.2906 30.7 11.2699 30.5997 11.2545C30.4648 11.2347 30.3281 11.2254 30.1913 11.2267C29.6479 11.2267 29.2195 11.3617 28.9188 11.6284C28.6201 11.8932 28.4169 12.2964 28.315 12.827L28.2782 13.0061H27.5961C27.5961 13.0061 27.5129 13.0031 27.4953 13.083L27.3833 13.6325C27.3755 13.6852 27.4012 13.718 27.4812 13.7177H28.1452L27.4715 17.0254C27.4188 17.2918 27.3584 17.5109 27.2915 17.6769C27.2256 17.8408 27.1612 17.9636 27.082 18.0527C27.0052 18.139 26.9325 18.2025 26.807 18.2395C26.7033 18.2702 26.5841 18.2843 26.4534 18.2843C26.3807 18.2843 26.2839 18.2736 26.2125 18.261C26.141 18.2486 26.1039 18.2345 26.0504 18.2147C26.0504 18.2147 25.9725 18.1886 25.9418 18.2573C25.9169 18.3134 25.7399 18.7415 25.719 18.7944C25.6976 18.8467 25.7275 18.8879 25.7652 18.8998C25.8536 18.9276 25.9193 18.9454 26.0397 18.9703C26.207 19.005 26.3479 19.0072 26.4799 19.0072C26.7565 19.0072 27.0085 18.973 27.2174 18.9067C27.4277 18.8398 27.6108 18.7234 27.7727 18.5657C27.9477 18.3957 28.0578 18.2176 28.1631 17.9747C28.2673 17.7339 28.3561 17.435 28.4271 17.0867L29.1041 13.7177H30.0938C30.0938 13.7177 30.1772 13.7203 30.1946 13.6408L30.3066 13.0912C30.3144 13.0386 30.2889 13.0058 30.2085 13.0061H29.2479C29.2527 12.987 29.2963 12.6898 29.4066 12.41C29.4536 12.2906 29.5422 12.1942 29.6172 12.128C29.6873 12.065 29.7736 12.0178 29.8689 11.9903C29.9733 11.9619 30.0821 11.9481 30.1913 11.9494C30.2818 11.9494 30.3706 11.959 30.4382 11.9714C30.5313 11.9888 30.5675 11.998 30.5919 12.0044C30.6898 12.0307 30.703 12.0052 30.7222 11.9635L30.9519 11.4086C30.9755 11.349 30.918 11.3239 30.8967 11.3165ZM17.473 17.0324C17.473 17.0767 17.4372 17.1127 17.387 17.1127H16.5902C16.5397 17.1127 16.5039 17.0767 16.5039 17.0324V11.3917C16.5039 11.3476 16.5397 11.312 16.5902 11.312H17.387C17.4372 11.312 17.473 11.3476 17.473 11.3917V17.0324Z" fill="#4C8794"/>
</g>
<defs>
<clipPath id="clip0_4491_81639">
<rect width="52" height="32" fill="white"/>
</clipPath>
</defs>
</svg>
