<svg width="46" height="32" viewBox="0 0 46 32" fill="none" xmlns="http://www.w3.org/2000/svg">
<g clip-path="url(#clip0_4548_81850)">
<mask id="mask0_4548_81850" style="mask-type:luminance" maskUnits="userSpaceOnUse" x="0" y="0" width="46" height="32">
<path d="M0.0078125 0.0800781H45.8568V31.9863H0.0078125V0.0800781Z" fill="white"/>
</mask>
<g mask="url(#mask0_4548_81850)">
<path fill-rule="evenodd" clip-rule="evenodd" d="M19.0838 3.563C20.5627 2.03102 22.6219 1.0804 24.8991 1.0804C27.9262 1.0804 30.5676 2.75881 31.9737 5.25079C33.2318 4.6918 34.5946 4.4037 35.9727 4.40538C41.4327 4.40538 45.8591 8.84501 45.8591 14.3219C45.8591 19.7987 41.4327 24.2385 35.9727 24.2385C35.3059 24.2385 34.6548 24.1718 34.025 24.0455C32.7867 26.2418 30.426 27.726 27.7173 27.726C26.6216 27.7275 25.5401 27.48 24.5554 27.0024C23.3001 29.9392 20.3743 31.9983 16.9654 31.9983C13.4146 31.9983 10.3884 29.7646 9.22763 26.632C8.71028 26.7405 8.18294 26.7951 7.6542 26.7948C3.42675 26.7948 0 23.3519 0 19.1049C0 16.2585 1.5394 13.7733 3.82744 12.4439C3.34267 11.334 3.09321 10.1367 3.09464 8.9266C3.09464 4.04199 7.08248 0.0820312 12.0016 0.0820312C14.8897 0.0820312 17.4564 1.44714 19.0838 3.563Z" fill="#00A1E0"/>
</g>
<path fill-rule="evenodd" clip-rule="evenodd" d="M6.63933 16.6361C6.61051 16.7108 6.64961 16.7264 6.65887 16.7397C6.74498 16.8016 6.83243 16.8465 6.92072 16.897C7.3883 17.1431 7.83027 17.2153 8.29196 17.2153C9.23268 17.2153 9.81703 16.718 9.81703 15.9172V15.9015C9.81703 15.1609 9.15736 14.8919 8.53914 14.6977L8.45843 14.6717C7.9922 14.5213 7.58983 14.3911 7.58983 14.0857V14.0701C7.58983 13.8086 7.82505 13.6164 8.18951 13.6164C8.59475 13.6164 9.07497 13.7503 9.38467 13.9203C9.38467 13.9203 9.47599 13.9789 9.50919 13.8913C9.52722 13.8439 9.68375 13.4247 9.70043 13.3793C9.7183 13.3302 9.68695 13.2932 9.65477 13.2741C9.30109 13.0598 8.81262 12.9141 8.30695 12.9141L8.2131 12.9144C7.35207 12.9144 6.75087 13.4321 6.75087 14.173V14.1889C6.75087 14.9696 7.41408 15.2234 8.03534 15.3998L8.13509 15.4307C8.5875 15.5687 8.97825 15.688 8.97825 16.0045V16.0202C8.97825 16.3101 8.72432 16.5254 8.31538 16.5254C8.15682 16.5254 7.65065 16.5227 7.10371 16.1787C7.03749 16.1404 6.99975 16.1127 6.94869 16.0817C6.92173 16.0655 6.85433 16.0362 6.82501 16.1239L6.63933 16.6361ZM20.4107 16.6361C20.3819 16.7108 20.421 16.7264 20.4306 16.7397C20.5163 16.8016 20.604 16.8465 20.6921 16.897C21.1598 17.1431 21.6018 17.2153 22.0633 17.2153C23.004 17.2153 23.5886 16.718 23.5886 15.9172V15.9015C23.5886 15.1609 22.9291 14.8919 22.3107 14.6977L22.23 14.6717C21.7637 14.5213 21.3612 14.3911 21.3612 14.0857V14.0701C21.3612 13.8086 21.5966 13.6164 21.9612 13.6164C22.3663 13.6164 22.8463 13.7503 23.156 13.9203C23.156 13.9203 23.2473 13.9789 23.2807 13.8913C23.2986 13.8439 23.4553 13.4247 23.4718 13.3793C23.4898 13.3302 23.4583 13.2932 23.4263 13.2741C23.0724 13.0598 22.5841 12.9141 22.0785 12.9141L21.9845 12.9144C21.1236 12.9144 20.5224 13.4321 20.5224 14.173V14.1889C20.5224 14.9696 21.1854 15.2234 21.8069 15.3998L21.9064 15.4307C22.359 15.5687 22.7498 15.688 22.7498 16.0045V16.0202C22.7498 16.3101 22.4957 16.5254 22.0871 16.5254C21.9282 16.5254 21.422 16.5227 20.8752 16.1787C20.809 16.1404 20.7703 16.1139 20.72 16.0817C20.703 16.071 20.6237 16.0402 20.5965 16.1239L20.4107 16.6361ZM29.812 15.0673C29.812 15.5196 29.7271 15.8768 29.5603 16.1286C29.3945 16.3783 29.1443 16.4997 28.7953 16.4997C28.4464 16.4997 28.1975 16.3784 28.0344 16.129C27.8698 15.877 27.7862 15.5196 27.7862 15.0673C27.7862 14.6153 27.8698 14.2592 28.0344 14.0099C28.1975 13.7628 28.4464 13.6429 28.7953 13.6429C29.1443 13.6429 29.3945 13.763 29.5603 14.0101C29.7275 14.2592 29.812 14.6153 29.812 15.0673ZM30.5976 14.2284C30.5202 13.9689 30.4001 13.7405 30.2402 13.55C30.0799 13.359 29.8772 13.2054 29.637 13.0942C29.397 12.9828 29.1139 12.9263 28.7953 12.9263C28.4767 12.9263 28.1934 12.9828 27.9533 13.0942C27.7134 13.2054 27.5105 13.359 27.3503 13.5504C27.1905 13.7412 27.0701 13.9692 26.9931 14.2284C26.9164 14.4859 26.8775 14.7682 26.8775 15.0673C26.8775 15.3665 26.9164 15.649 26.9931 15.9061C27.0701 16.1652 27.1902 16.3934 27.3504 16.5845C27.5107 16.7758 27.7141 16.9281 27.9537 17.0367C28.194 17.1453 28.477 17.2006 28.7953 17.2006C29.1138 17.2006 29.3965 17.1453 29.6366 17.0367C29.8766 16.9281 30.0796 16.7758 30.2402 16.5845C30.4001 16.394 30.5202 16.1655 30.5976 15.9061C30.6741 15.6485 30.713 15.3662 30.713 15.0673C30.713 14.7686 30.6741 14.4861 30.5976 14.2284ZM37.0455 16.3786C37.0197 16.3027 36.9452 16.3314 36.9452 16.3314C36.8312 16.3748 36.7098 16.415 36.5801 16.4351C36.4493 16.4555 36.3046 16.4657 36.1498 16.4657C35.7701 16.4657 35.4677 16.3533 35.2518 16.1312C35.035 15.9088 34.9132 15.5496 34.9145 15.0638C34.9157 14.6221 35.0232 14.2894 35.2159 14.0357C35.407 13.7838 35.6989 13.6544 36.0869 13.6544C36.4109 13.6544 36.6581 13.6918 36.9171 13.7725C36.9171 13.7725 36.9786 13.7992 37.0081 13.7186C37.077 13.5288 37.1279 13.3937 37.2014 13.1851C37.2223 13.1257 37.171 13.1005 37.1523 13.0933C37.0506 13.0538 36.8101 12.989 36.6286 12.9616C36.459 12.9358 36.2606 12.9224 36.0394 12.9224C35.7096 12.9224 35.4156 12.9786 35.1642 13.0898C34.9133 13.2009 34.7005 13.3544 34.5318 13.5452C34.3632 13.7363 34.2348 13.9647 34.1499 14.2237C34.0648 14.4814 34.0218 14.7642 34.0218 15.0641C34.0218 15.7116 34.1975 16.2349 34.5441 16.6182C34.8919 17.0029 35.4136 17.1982 36.0945 17.1982C36.4967 17.1982 36.9094 17.1173 37.2066 17.001C37.2066 17.001 37.2632 16.9739 37.2386 16.9082L37.0455 16.3786ZM38.4194 14.6335C38.457 14.382 38.5263 14.1731 38.6343 14.0099C38.7972 13.7628 39.0452 13.6266 39.3942 13.6266C39.7433 13.6266 39.9733 13.763 40.1391 14.0101C40.2486 14.1735 40.2965 14.3911 40.3152 14.6339L38.4194 14.6335ZM41.063 14.0811C40.9961 13.8308 40.8313 13.578 40.723 13.4624C40.5519 13.2791 40.3845 13.1508 40.2181 13.0799C39.9775 12.9782 39.7186 12.926 39.457 12.9263C39.1253 12.9263 38.8238 12.9821 38.5793 13.096C38.3345 13.2103 38.1288 13.3664 37.9675 13.5604C37.8059 13.7543 37.6848 13.985 37.6074 14.2467C37.5299 14.5069 37.4908 14.7905 37.4908 15.0901C37.4908 15.3946 37.5314 15.6786 37.6113 15.934C37.692 16.1915 37.8216 16.4175 37.9965 16.6056C38.1712 16.7944 38.3962 16.9425 38.6649 17.0457C38.9323 17.1488 39.2572 17.2022 39.6298 17.2011C40.3978 17.1985 40.8017 17.0283 40.9685 16.9367C40.998 16.9203 41.0258 16.8919 40.991 16.8104L40.8172 16.3265C40.7905 16.2543 40.7171 16.2804 40.7171 16.2804C40.5265 16.3511 40.2567 16.4773 39.6259 16.4759C39.2137 16.4753 38.9084 16.3541 38.7165 16.165C38.5202 15.9715 38.4238 15.6873 38.4075 15.2859L41.065 15.2879C41.065 15.2879 41.1351 15.2873 41.1424 15.2192C41.1452 15.1911 41.2335 14.6764 41.063 14.0811ZM17.1315 14.6335C17.1691 14.382 17.2385 14.1731 17.3464 14.0099C17.5095 13.7628 17.7572 13.6266 18.1065 13.6266C18.4556 13.6266 18.6856 13.763 18.8514 14.0101C18.9608 14.1735 19.0086 14.3911 19.0273 14.6339L17.1315 14.6335ZM19.7751 14.0811C19.7084 13.8308 19.5434 13.578 19.4352 13.4624C19.2642 13.2791 19.0969 13.1508 18.9304 13.0799C18.6897 12.9783 18.4308 12.926 18.1693 12.9263C17.8375 12.9263 17.5361 12.9821 17.2916 13.096C17.0468 13.2103 16.841 13.3664 16.6795 13.5604C16.5182 13.7543 16.3971 13.985 16.3194 14.2467C16.242 14.5069 16.2031 14.7905 16.2031 15.0901C16.2031 15.3946 16.2434 15.6786 16.3238 15.934C16.4043 16.1915 16.534 16.4175 16.7086 16.6056C16.8835 16.7944 17.1083 16.9425 17.377 17.0457C17.6446 17.1488 17.9691 17.2022 18.342 17.2011C19.1099 17.1985 19.5139 17.0283 19.6807 16.9367C19.7101 16.9203 19.738 16.8919 19.7032 16.8104L19.5294 16.3265C19.5026 16.2543 19.4292 16.2804 19.4292 16.2804C19.2388 16.3511 18.969 16.4773 18.338 16.4759C17.926 16.4753 17.6205 16.3541 17.4286 16.165C17.2325 15.9715 17.1359 15.6873 17.1196 15.2859L19.7773 15.2879C19.7773 15.2879 19.8474 15.2873 19.8546 15.2192C19.8575 15.1911 19.9458 14.6764 19.7751 14.0811ZM11.3863 16.3642C11.282 16.2814 11.2675 16.2612 11.2329 16.2074C11.1802 16.1265 11.1532 16.0112 11.1532 15.8636C11.1532 15.6316 11.2307 15.4643 11.3905 15.3521C11.3888 15.3524 11.6196 15.1541 12.1614 15.1611C12.403 15.1654 12.6441 15.1858 12.883 15.2223V16.4235H12.8834C12.8834 16.4235 12.5455 16.4957 12.1652 16.5185C11.6247 16.5508 11.3846 16.3637 11.3863 16.3642ZM12.4439 14.5069C12.3361 14.499 12.1964 14.4951 12.0289 14.4951C11.8013 14.4951 11.581 14.5233 11.3743 14.5786C11.1667 14.6342 10.98 14.7203 10.8194 14.8344C10.659 14.9484 10.527 15.0975 10.4337 15.2703C10.3395 15.4447 10.2915 15.6496 10.2915 15.8793C10.2915 16.1137 10.3325 16.3168 10.4134 16.4826C10.4925 16.6471 10.6116 16.7893 10.76 16.8965C10.9077 17.0034 11.09 17.0818 11.3015 17.1297C11.5103 17.1771 11.7468 17.2011 12.0053 17.2011C12.2783 17.2011 12.5497 17.1783 12.8128 17.1342C13.0368 17.0958 13.26 17.0527 13.4822 17.0049C13.5708 16.9846 13.6686 16.958 13.6686 16.958C13.7343 16.9414 13.7292 16.8715 13.7292 16.8715L13.7277 14.4546C13.7277 13.9245 13.5855 13.5318 13.3053 13.2878C13.0264 13.0451 12.6158 12.9224 12.0845 12.9224C11.885 12.9224 11.5645 12.9492 11.3721 12.9876C11.3721 12.9876 10.7918 13.0995 10.5529 13.2857C10.5529 13.2857 10.5003 13.3178 10.5289 13.3907L10.7172 13.8933C10.7406 13.9585 10.8044 13.9362 10.8044 13.9362C10.8044 13.9362 10.8245 13.9283 10.8481 13.9144C11.3593 13.638 12.0062 13.6462 12.0062 13.6462C12.2933 13.6462 12.5145 13.704 12.6631 13.8171C12.8082 13.9278 12.8818 14.0945 12.8818 14.4469V14.5586C12.6539 14.5258 12.4439 14.5069 12.4439 14.5069ZM33.8828 13.1453C33.8866 13.1364 33.8886 13.1269 33.8887 13.1173C33.8887 13.1077 33.8868 13.0981 33.8831 13.0893C33.8794 13.0804 33.8739 13.0723 33.867 13.0656C33.8601 13.0589 33.8519 13.0536 33.8429 13.0501C33.7975 13.033 33.5716 12.9856 33.3973 12.9749C33.0632 12.9541 32.878 13.0101 32.7119 13.0844C32.5471 13.1583 32.3646 13.2778 32.2628 13.414L32.2625 13.0917C32.2625 13.0474 32.231 13.0117 32.1862 13.0117H31.5048C31.4606 13.0117 31.4286 13.0474 31.4286 13.0917V17.0342C31.4287 17.0555 31.4372 17.0758 31.4523 17.0909C31.4674 17.1059 31.4879 17.1144 31.5093 17.1144H32.2077C32.2291 17.1144 32.2496 17.1059 32.2647 17.0909C32.2798 17.0758 32.2883 17.0554 32.2883 17.0342V15.0648C32.2883 14.8002 32.3176 14.5367 32.3761 14.371C32.4337 14.207 32.5121 14.0763 32.6091 13.9823C32.7011 13.8916 32.8137 13.8242 32.9373 13.7859C33.0533 13.7529 33.1733 13.7361 33.2939 13.736C33.4329 13.736 33.5859 13.7715 33.5859 13.7715C33.6371 13.7772 33.6656 13.7461 33.6829 13.7002C33.7286 13.5794 33.858 13.2173 33.8828 13.1453Z" fill="#FFFFFE"/>
<path fill-rule="evenodd" clip-rule="evenodd" d="M27.3297 11.3165C27.2435 11.2906 27.1558 11.2699 27.067 11.2545C26.9477 11.2347 26.8268 11.2254 26.7058 11.2267C26.225 11.2267 25.8461 11.3617 25.58 11.6284C25.3158 11.8932 25.136 12.2964 25.0459 12.827L25.0134 13.0061H24.41C24.41 13.0061 24.3363 13.0031 24.3208 13.083L24.2218 13.6325C24.2149 13.6852 24.2376 13.718 24.3084 13.7177H24.8958L24.2998 17.0254C24.2531 17.2918 24.1997 17.5109 24.1406 17.6769C24.0823 17.8408 24.0253 17.9636 23.9552 18.0527C23.8873 18.139 23.8229 18.2025 23.7119 18.2395C23.6202 18.2702 23.5147 18.2843 23.3992 18.2843C23.3348 18.2843 23.2492 18.2736 23.186 18.261C23.1228 18.2486 23.09 18.2345 23.0426 18.2147C23.0426 18.2147 22.9737 18.1886 22.9466 18.2573C22.9245 18.3134 22.768 18.7415 22.7494 18.7944C22.7306 18.8467 22.757 18.8879 22.7904 18.8998C22.8686 18.9276 22.9267 18.9454 23.0332 18.9703C23.1811 19.005 23.3058 19.0072 23.4226 19.0072C23.6672 19.0072 23.8902 18.973 24.075 18.9067C24.261 18.8398 24.423 18.7234 24.5662 18.5657C24.721 18.3957 24.8184 18.2176 24.9116 17.9747C25.0038 17.7339 25.0823 17.435 25.1451 17.0867L25.744 13.7177H26.6195C26.6195 13.7177 26.6933 13.7203 26.7086 13.6408L26.8077 13.0912C26.8146 13.0386 26.792 13.0058 26.7209 13.0061H25.8712C25.8754 12.987 25.914 12.6898 26.0116 12.41C26.0532 12.2906 26.1315 12.1942 26.1979 12.128C26.2599 12.065 26.3362 12.0178 26.4205 11.9903C26.5128 11.9619 26.6091 11.9481 26.7058 11.9494C26.7858 11.9494 26.8643 11.959 26.9241 11.9714C27.0065 11.9888 27.0386 11.998 27.0601 12.0044C27.1467 12.0307 27.1584 12.0052 27.1754 11.9635L27.3786 11.4086C27.3995 11.349 27.3486 11.3239 27.3297 11.3165ZM15.455 17.0324C15.455 17.0767 15.4233 17.1127 15.3788 17.1127H14.674C14.6293 17.1127 14.5977 17.0767 14.5977 17.0324V11.3917C14.5977 11.3476 14.6293 11.312 14.674 11.312H15.3788C15.4233 11.312 15.455 11.3476 15.455 11.3917V17.0324Z" fill="#FFFFFE"/>
</g>
<defs>
<clipPath id="clip0_4548_81850">
<rect width="46" height="32" fill="white"/>
</clipPath>
</defs>
</svg>
