<svg width="32" height="32" viewBox="0 0 32 32" fill="none" xmlns="http://www.w3.org/2000/svg">
<path d="M32.0001 15.9996C32.0001 24.8365 24.8373 32 16.0004 32C7.16352 32 0 24.8365 0 15.9996C0 7.16329 7.16363 0 16.0004 0C24.8373 0 32.0001 7.16318 32.0001 15.9996Z" fill="#E95420"/>
<path d="M7.69663 16.0028C7.69663 17.1389 6.77556 18.0602 5.63865 18.0602C4.5031 18.0602 3.58203 17.139 3.58203 16.0028C3.58203 14.8671 4.5031 13.9461 5.63865 13.9461C6.77556 13.9461 7.69663 14.8671 7.69663 16.0028ZM19.4003 26.0055C19.9685 26.9887 21.2261 27.3259 22.21 26.7585C23.1939 26.1903 23.531 24.932 22.9629 23.9481C22.3948 22.9643 21.1371 22.6278 20.1533 23.1959C19.1694 23.7641 18.8323 25.0217 19.4003 26.0055ZM22.9628 8.0581C23.5308 7.07404 23.1944 5.81612 22.2099 5.24862C21.2267 4.68056 19.9685 5.01765 19.4002 6.00125C18.8322 6.98509 19.1693 8.2429 20.1532 8.81096C21.1371 9.37902 22.3954 9.04193 22.9628 8.0581ZM16.0007 10.1367C19.066 10.1367 21.5812 12.4864 21.8439 15.4836L24.8211 15.4367C24.6797 13.2097 23.7137 11.2068 22.2252 9.73C21.4372 10.034 20.5229 9.99269 19.7342 9.53695C18.9448 9.08122 18.4518 8.30973 18.3215 7.4739C17.5816 7.27296 16.8033 7.16537 16.0007 7.16537C14.5928 7.16537 13.2621 7.49456 12.0804 8.08011L13.529 10.6814C14.2797 10.3326 15.1181 10.1367 16.0007 10.1367ZM10.1339 16.0028C10.1339 14.0186 11.1199 12.2638 12.6284 11.2028L11.0999 8.64761C9.32935 9.83001 8.01046 11.6337 7.45403 13.7483C8.11251 14.2785 8.53438 15.0913 8.53438 16.0029C8.53438 16.9151 8.1124 17.7279 7.45403 18.2582C8.01046 20.3728 9.32935 22.1764 11.0999 23.3595L12.6284 20.8043C11.1199 19.7425 10.1339 17.9884 10.1339 16.0028ZM16.0007 21.87C15.1182 21.87 14.2798 21.6743 13.529 21.3248L12.0804 23.9261C13.2621 24.5121 14.5927 24.8409 16.0007 24.8409C16.8032 24.8409 17.5816 24.7341 18.3215 24.5329C18.4517 23.6965 18.9447 22.925 19.7342 22.47C20.5229 22.0143 21.4372 21.9729 22.2252 22.2769C23.7138 20.7994 24.6797 18.7965 24.8211 16.5695L21.8439 16.5233C21.5811 19.5198 19.066 21.87 16.0007 21.87Z" fill="white"/>
</svg>
