<svg width="32" height="32" viewBox="0 0 32 32" fill="none" xmlns="http://www.w3.org/2000/svg">
<path d="M32 15.9996C32 24.8365 24.8372 32 16.0003 32C7.16349 32 0 24.8365 0 15.9996C0 7.16329 7.16361 0 16.0003 0C24.8372 0 32 7.16318 32 15.9996Z" fill="#2C7382"/>
<path d="M7.69661 16.0009C7.69661 17.137 6.77555 18.0583 5.63865 18.0583C4.50309 18.0583 3.58203 17.1371 3.58203 16.0009C3.58203 14.8652 4.50309 13.9441 5.63865 13.9441C6.77555 13.9441 7.69661 14.8652 7.69661 16.0009ZM19.4003 26.0036C19.9685 26.9867 21.226 27.3239 22.21 26.7565C23.1938 26.1884 23.5309 24.9301 22.9628 23.9461C22.3948 22.9623 21.1371 22.6259 20.1533 23.194C19.1693 23.7621 18.8322 25.0197 19.4003 26.0036ZM22.9627 8.05615C23.5308 7.07209 23.1944 5.81416 22.2099 5.24667C21.2266 4.67861 19.9685 5.01569 19.4002 5.9993C18.8321 6.98313 19.1692 8.24095 20.1531 8.80901C21.1371 9.37707 22.3953 9.03998 22.9627 8.05615ZM16.0006 10.1348C19.0659 10.1348 21.5812 12.4845 21.8439 15.4817L24.821 15.4347C24.6797 13.2077 23.7137 11.2049 22.2251 9.72804C21.4371 10.0321 20.5229 9.99074 19.7341 9.535C18.9448 9.07927 18.4518 8.30778 18.3214 7.47195C17.5815 7.271 16.8033 7.16342 16.0006 7.16342C14.5928 7.16342 13.262 7.4926 12.0803 8.07816L13.5289 10.6795C14.2796 10.3306 15.1181 10.1348 16.0006 10.1348ZM10.1339 16.0009C10.1339 14.0166 11.1199 12.2618 12.6284 11.2008L11.0999 8.64566C9.32933 9.82806 8.01045 11.6317 7.45401 13.7463C8.1125 14.2766 8.53436 15.0894 8.53436 16.001C8.53436 16.9131 8.11238 17.7259 7.45401 18.2563C8.01045 20.3708 9.32933 22.1745 11.0999 23.3575L12.6284 20.8024C11.1199 19.7406 10.1339 17.9865 10.1339 16.0009ZM16.0006 21.8681C15.1182 21.8681 14.2797 21.6723 13.5289 21.3228L12.0803 23.9241C13.262 24.5101 14.5927 24.839 16.0006 24.839C16.8032 24.839 17.5815 24.7322 18.3214 24.5309C18.4517 23.6945 18.9447 22.923 19.7341 22.4681C20.5229 22.0123 21.4371 21.9709 22.2251 22.2749C23.7138 20.7974 24.6797 18.7945 24.821 16.5676L21.8439 16.5214C21.5811 19.5178 19.0659 21.8681 16.0006 21.8681Z" fill="#41818E"/>
</svg>
