<svg width="274" height="188" viewBox="0 0 274 188" fill="none" xmlns="http://www.w3.org/2000/svg">
<path d="M146.276 162.887C146.276 162.887 136.977 160.742 131.879 155.971C126.781 151.195 123.934 142.644 123.934 142.644C123.934 142.644 129.409 143.662 134.362 145.427C135.193 146.334 136.779 148.197 137.517 149.962C137.517 149.962 137.676 148.099 137.544 146.718C138.871 147.339 140.022 148.027 140.857 148.76C145.085 152.517 146.276 162.882 146.276 162.882V162.887Z" fill="#E8CC76"/>
<path d="M129.745 146.803C128.48 145.91 127.188 145.052 125.926 144.149C125.852 144.096 125.922 143.975 126.001 144.024C128.396 145.481 130.76 147.035 133.046 148.662C133.841 149.229 134.623 149.819 135.397 150.422C135.344 150.328 135.291 150.234 135.234 150.14C134.957 149.667 134.663 149.198 134.368 148.733C133.775 147.799 133.134 146.879 132.395 146.053C132.369 146.021 132.413 145.977 132.439 146.008C133.164 146.857 133.885 147.697 134.549 148.599C134.865 149.028 135.155 149.47 135.432 149.926C135.577 150.163 135.718 150.4 135.849 150.641C135.893 150.721 135.942 150.802 135.99 150.887C137.194 151.847 138.363 152.848 139.479 153.907C140.169 154.559 140.833 155.238 141.475 155.935C141.114 154.791 140.802 153.634 140.385 152.508C140.372 152.468 140.433 152.455 140.446 152.495C140.851 153.674 141.294 154.863 141.606 156.078C142.318 156.86 143 157.673 143.641 158.513C143.632 158.464 143.619 158.41 143.606 158.361C143.501 157.914 143.391 157.472 143.272 157.03C143.043 156.176 142.797 155.323 142.516 154.488C141.936 152.767 141.18 151.088 140.02 149.689C139.994 149.658 140.038 149.613 140.064 149.645C141.879 151.829 142.947 154.452 143.624 157.204C143.725 157.606 143.817 158.013 143.909 158.415C143.958 158.629 144.015 158.848 144.05 159.067C144.331 159.451 144.608 159.844 144.872 160.242C146.485 162.686 147.746 165.353 148.805 168.087C150 171.165 150.928 174.342 151.784 177.532C151.802 177.594 151.71 177.617 151.688 177.554C149.868 172.023 148.014 166.412 144.898 161.466C144.239 160.421 143.531 159.415 142.775 158.446C141.246 158.357 139.704 158.021 138.253 157.53C136.649 156.989 135.138 156.234 133.722 155.305C132.905 154.769 132.158 154.143 131.398 153.522C131.362 153.496 131.398 153.442 131.437 153.473C132.694 154.555 134.206 155.403 135.7 156.096C137.199 156.793 138.781 157.338 140.389 157.695C141.075 157.847 141.773 157.959 142.468 158.057C141.606 156.98 140.692 155.953 139.726 154.97C139.414 154.653 139.088 154.345 138.763 154.041C137.695 153.25 136.513 152.62 135.326 152.039C133.802 151.289 132.303 150.498 130.796 149.716C129.943 149.278 129.099 148.827 128.242 148.398C128.207 148.38 128.242 148.327 128.277 148.344C129.807 149.095 131.358 149.796 132.901 150.516C134.351 151.19 135.823 151.869 137.216 152.665C137.278 152.7 137.33 152.736 137.392 152.772C136.131 151.655 134.83 150.596 133.494 149.569C132.259 148.621 131.011 147.697 129.741 146.803H129.745Z" fill="#263238"/>
<path d="M130.272 151.677C131.027 152.012 131.797 152.311 132.548 152.669C133.317 153.035 134.047 153.464 134.776 153.902C134.807 153.92 134.776 153.969 134.745 153.951C134.003 153.589 133.251 153.254 132.517 152.879C131.766 152.495 131.023 152.084 130.25 151.74C130.214 151.722 130.232 151.659 130.267 151.677H130.272Z" fill="#263238"/>
<path d="M176.485 115.248C176.485 115.248 173.875 118.286 173.708 123.098C173.677 123.947 173.809 125.126 173.905 126.516C170.438 128.397 167.836 131.788 167.836 131.788C169.805 130.586 172.508 130.099 173.967 130.295C173.919 131.211 173.813 132.158 173.611 133.119C172.965 133.083 171.721 133.168 169.669 133.91C169.669 133.91 171.686 133.856 173.224 134.629C171.568 139.99 166.641 145.499 153.035 147.835C153.035 147.835 150.412 138.444 155.444 128.37C159.522 120.216 176.485 115.239 176.485 115.239V115.248Z" fill="#E8CC76"/>
<path d="M148.324 170.781C148.561 168.489 148.856 166.206 149.203 163.932C149.897 159.38 150.802 154.85 151.945 150.391C152.485 148.287 153.132 146.227 153.909 144.221C153.857 143.859 153.865 143.479 153.861 143.113C153.852 142.671 153.848 142.228 153.857 141.786C153.865 140.902 153.909 140.017 153.98 139.132C154.125 137.39 154.388 135.643 154.815 133.945C155.065 132.958 155.351 131.989 155.636 131.015C155.65 130.974 155.707 130.992 155.698 131.032C155.219 132.717 154.942 134.473 154.692 136.211C154.446 137.931 154.296 139.664 154.235 141.402C154.217 141.876 154.208 142.354 154.208 142.827C154.208 143.028 154.217 143.234 154.226 143.439C154.894 141.795 155.65 140.182 156.52 138.614C157.891 136.135 159.469 133.78 161.178 131.533C161.161 131.278 161.24 131.006 161.288 130.76C161.354 130.452 161.42 130.143 161.486 129.835C161.626 129.205 161.78 128.575 161.952 127.95C162.29 126.694 162.738 125.484 163.121 124.246C163.134 124.206 163.191 124.224 163.182 124.264C162.822 125.488 162.584 126.757 162.308 128.003C162.171 128.62 162.039 129.236 161.903 129.853C161.837 130.161 161.771 130.47 161.71 130.778C161.705 130.8 161.701 130.823 161.697 130.845C162.246 130.139 162.809 129.442 163.38 128.758C165.977 125.662 168.825 122.803 171.695 119.966C172.046 119.618 172.406 119.278 172.767 118.934C172.798 118.907 172.837 118.952 172.811 118.979C170.073 121.883 167.375 124.822 164.817 127.901C164.21 128.633 163.613 129.371 163.024 130.121C163.332 129.907 163.644 129.701 163.951 129.496C164.742 128.968 165.546 128.455 166.368 127.986C167.194 127.516 168.025 127.056 168.873 126.627C169.748 126.19 170.679 125.832 171.519 125.332C171.554 125.309 171.585 125.372 171.55 125.39C170.679 125.752 169.871 126.301 169.067 126.788C168.24 127.289 167.41 127.789 166.597 128.316C165.797 128.83 164.993 129.339 164.197 129.866C163.534 130.304 162.883 130.782 162.198 131.184C160.629 133.253 159.152 135.393 157.838 137.636C157.008 139.047 156.261 140.499 155.584 141.978C155.746 141.907 155.909 141.835 156.072 141.764C156.485 141.576 156.902 141.389 157.315 141.201C158.115 140.839 158.919 140.486 159.723 140.133C161.248 139.459 162.8 138.838 164.294 138.1C165.133 137.685 165.96 137.247 166.737 136.72C166.773 136.697 166.799 136.751 166.768 136.778C163.978 138.735 160.853 140.111 157.763 141.5L156.423 142.103C156.054 142.269 155.685 142.452 155.307 142.599C154.397 144.672 153.628 146.808 153.004 149.01C151.765 153.402 150.82 157.892 150.042 162.391C149.26 166.908 148.737 171.456 148.324 176.022C148.271 176.594 148.223 177.161 148.157 177.729C148.13 177.956 147.801 177.956 147.801 177.72C147.827 175.401 148.06 173.078 148.297 170.772L148.324 170.781Z" fill="#263238"/>
<path d="M156.599 132.583C156.849 131.176 157.218 129.8 157.587 128.424C157.596 128.384 157.658 128.402 157.649 128.442C157.306 129.791 157.06 131.172 156.81 132.543C156.555 133.942 156.331 135.344 156.137 136.752C156.137 136.774 156.098 136.774 156.098 136.752C156.186 135.353 156.353 133.964 156.599 132.583Z" fill="#263238"/>
<path d="M162.467 136.399C163.39 135.733 164.423 135.233 165.425 134.706C165.921 134.446 166.422 134.196 166.923 133.951C167.442 133.696 167.978 133.481 168.492 133.222C168.527 133.204 168.558 133.258 168.523 133.28C168.026 133.535 167.552 133.843 167.064 134.111C166.558 134.393 166.057 134.674 165.552 134.951C164.559 135.496 163.579 136.095 162.533 136.537C162.441 136.578 162.379 136.461 162.458 136.403L162.467 136.399Z" fill="#263238"/>
<path opacity="0.1" d="M146.109 146.513C146.109 146.513 137.505 144.422 133.554 138.556C129.779 132.954 128.562 123.398 128.465 122.558C128.619 123.326 130.394 131.676 136.252 135.567C140.735 138.547 145.072 140.996 146.109 146.513Z" fill="#263238"/>
<path d="M138.167 131.399C139.679 132.883 140.817 134.625 141.34 136.711C141.345 136.729 141.318 136.738 141.314 136.72C140.668 134.777 139.6 132.865 138.128 131.448C138.097 131.422 138.141 131.373 138.172 131.399H138.167Z" fill="#263238"/>
<path d="M146.11 146.514C146.11 146.514 137.506 144.423 133.555 138.557C129.78 132.954 128.562 123.398 128.466 122.558C128.457 122.518 128.457 122.5 128.457 122.5C128.457 122.5 132.584 128.464 136.921 129.983C141.259 131.502 147.354 136.765 146.11 146.514Z" fill="#E8CC76"/>
<path d="M129.978 125.788C130.777 127.378 131.612 128.96 132.636 130.412C133.634 131.828 134.838 133.034 136.174 134.115C137.343 135.058 138.578 135.916 139.76 136.841C139.751 136.827 139.743 136.809 139.734 136.796C139.51 136.461 139.272 136.135 139.031 135.818C138.538 135.179 137.998 134.576 137.457 133.977C136.389 132.797 135.295 131.64 134.337 130.363C133.805 129.657 133.34 128.902 132.957 128.102C132.94 128.066 133.001 128.044 133.019 128.08C134.416 131.037 137.202 132.927 139.189 135.424C139.47 135.782 139.738 136.148 139.984 136.528C140.156 136.8 140.367 137.1 140.481 137.417C141.562 138.319 142.564 139.302 143.417 140.433C143.346 139.856 143.223 139.285 143.069 138.735C142.854 137.953 142.577 137.216 142.155 136.519C142.133 136.483 142.186 136.448 142.208 136.483C142.612 137.176 142.977 137.917 143.21 138.686C143.399 139.311 143.491 139.932 143.522 140.576H143.526C143.957 141.165 144.335 141.786 144.691 142.421C144.656 142.233 144.621 142.046 144.586 141.862C144.414 140.991 144.225 140.12 144.005 139.262C143.553 137.52 142.946 135.831 141.936 134.334C141.914 134.299 141.966 134.263 141.988 134.299C142.986 135.773 143.737 137.421 144.282 139.119C144.555 139.977 144.774 140.853 144.968 141.733C145.06 142.162 145.148 142.595 145.227 143.028C145.271 143.252 145.315 143.48 145.355 143.712C146.233 145.602 146.853 147.63 147.341 149.641C148.22 153.264 148.765 156.994 149.178 160.703C149.609 164.594 149.833 168.53 149.771 172.448C149.762 172.939 149.736 173.431 149.71 173.922C149.701 174.047 149.516 174.065 149.512 173.936C149.428 171.997 149.38 170.053 149.266 168.114C149.152 166.171 148.989 164.236 148.782 162.302C148.382 158.509 147.802 154.72 146.989 150.994C146.291 147.795 145.385 144.579 143.667 141.773C142.806 140.37 141.773 139.124 140.564 138.02C139.356 136.921 138.037 135.956 136.767 134.933C135.502 133.919 134.284 132.815 133.282 131.529C132.201 130.139 131.349 128.58 130.545 127.012C130.342 126.614 130.131 126.221 129.929 125.828C129.912 125.792 129.964 125.756 129.982 125.792L129.978 125.788Z" fill="#263238"/>
<path d="M131.463 127.07C132.017 128.254 132.68 129.38 133.379 130.479C133.397 130.506 133.357 130.532 133.34 130.506C132.588 129.429 131.964 128.276 131.402 127.092C131.384 127.056 131.446 127.034 131.463 127.07Z" fill="#263238"/>
<path d="M177.684 142.645C177.684 142.645 177.82 155.074 170.507 158.666C163.195 162.258 159.275 159.264 154.309 160.466C154.309 160.466 154.313 160.466 154.317 160.462C154.511 160.167 158.057 154.984 163.696 153.559C169.497 152.089 175.926 147.827 177.684 142.649V142.645Z" fill="#E8CC76"/>
<path opacity="0.1" d="M177.684 142.645C177.684 142.645 177.82 155.074 170.507 158.666C163.195 162.258 159.275 159.264 154.309 160.466C154.309 160.466 154.313 160.466 154.317 160.462C154.524 160.359 158.15 158.514 162.632 157.969C167.242 157.406 176.049 154.35 177.684 142.645Z" fill="black"/>
<path d="M153.826 160.69C154.696 159.89 155.676 159.202 156.735 158.688C156.894 158.612 157.052 158.55 157.214 158.483C157.294 158.384 157.373 158.291 157.461 158.197C157.68 157.964 157.909 157.741 158.15 157.531C158.612 157.129 159.1 156.763 159.623 156.454C160.836 155.731 162.163 155.226 163.398 154.551C163.433 154.533 163.464 154.587 163.428 154.609C162.818 154.931 162.224 155.288 161.627 155.641C161.047 155.985 160.453 156.311 159.891 156.682C159.385 157.013 158.898 157.384 158.445 157.786C158.317 157.902 158.194 158.022 158.071 158.152C158.876 157.871 159.706 157.656 160.541 157.486C161.882 157.209 163.235 157.017 164.571 156.727C165.226 156.584 165.876 156.405 166.509 156.195C167.116 155.699 167.722 155.203 168.298 154.667C168.992 154.015 169.629 153.309 170.187 152.536C170.209 152.505 170.267 152.536 170.24 152.572C169.339 153.756 168.372 154.949 167.243 155.936C167.559 155.815 167.871 155.686 168.179 155.543C170.662 154.395 172.873 152.572 174.411 150.276C174.433 150.24 174.49 150.276 174.463 150.311C173.123 152.282 171.427 153.966 169.423 155.23C168.416 155.865 167.357 156.383 166.237 156.763C164.949 157.2 163.613 157.46 162.281 157.714C160.976 157.964 159.667 158.215 158.405 158.652C157.241 159.055 156.142 159.64 155.158 160.39C153.277 161.824 151.822 163.786 150.776 165.912C149.392 168.736 148.733 171.89 148.364 175C148.346 175.134 148.144 175.134 148.153 174.995C148.495 169.768 149.871 164.331 153.831 160.703L153.826 160.69Z" fill="#263238"/>
<path d="M162.314 156.633C162.678 156.039 163.228 155.596 163.817 155.248C164.507 154.841 165.126 154.404 165.605 153.742C165.632 153.711 165.684 153.742 165.658 153.778C165.219 154.354 164.687 154.828 164.08 155.217C163.443 155.623 162.797 156.021 162.362 156.664C162.344 156.691 162.296 156.664 162.318 156.637L162.314 156.633Z" fill="#263238"/>
<path d="M158.431 169.861L158.101 176.697L157.082 197.583H141.74L140.72 176.697L140.391 169.861H158.431Z" fill="#37474F"/>
<path d="M158.431 169.861L158.193 174.74L140.659 175.388L140.391 169.861H158.431Z" fill="#263238"/>
<path d="M159.51 167.011H139.316V173.534H159.51V167.011Z" fill="#37474F"/>
<path d="M219.656 127.771L218.188 136.716L208.252 197.552H206.652L213.877 136.716L214.945 127.771H219.656Z" fill="#455A64"/>
<path opacity="0.1" d="M214.947 127.771H219.658L218.19 136.716H213.879L214.947 127.771Z" fill="black"/>
<path d="M250.864 197.552H249.26L239.323 136.716L237.855 127.771H242.571L243.639 136.716L250.864 197.552Z" fill="#455A64"/>
<path opacity="0.1" d="M242.571 127.771L243.639 136.716H239.323L237.855 127.771H242.571Z" fill="black"/>
<path d="M269.985 197.552H268.381L258.444 136.716L256.977 127.771H261.692L262.76 136.716L269.985 197.552Z" fill="#455A64"/>
<path opacity="0.1" d="M262.76 136.716H258.444L256.977 127.771H261.692L262.76 136.716Z" fill="black"/>
<path d="M267.444 131.971H205.312V124.175H232.573L241.731 69.9863H264.667L267.444 131.971Z" fill="#455A64"/>
<path opacity="0.1" d="M267.444 131.971H263.475L260.887 69.9863H264.666L267.444 131.971Z" fill="black"/>
<path d="M159.727 179.266C160.97 180.008 199.314 188.152 200.966 187.527C201.595 187.29 203.089 181.683 204.702 174.856C205.049 173.382 205.4 171.859 205.752 170.308C208.024 160.247 210.204 149.516 210.204 149.516L184.574 143.989L180.825 164.934L179.999 169.531C179.999 169.531 163.95 173.087 162.205 173.972C160.469 174.861 158.479 178.524 159.727 179.266Z" fill="#EB9481"/>
<path d="M204.08 177.462C202.713 183.06 201.513 187.322 200.964 187.527C199.311 188.157 160.968 180.004 159.724 179.262C158.481 178.52 160.471 174.861 162.203 173.968C163.28 173.423 169.801 171.859 174.64 170.742C170.412 171.77 162.528 174.683 178.837 175.88C192.32 176.876 201.219 177.328 204.08 177.457V177.462Z" fill="#263238"/>
<path d="M194.33 197.941C195.719 198.334 234.836 196.279 236.277 195.242C236.827 194.854 235.904 186.128 235.495 184.591C234.107 179.391 226.917 156.485 226.917 156.485L200.747 157.781L211.496 183.273C211.496 183.273 196.866 190.869 195.403 192.178C193.948 193.487 192.942 197.548 194.33 197.941Z" fill="#EB9481"/>
<path d="M236.279 195.243C234.837 196.284 195.725 198.334 194.328 197.946C192.939 197.548 193.941 193.491 195.4 192.182C196.085 191.57 199.619 189.605 203.205 187.67C198.709 190.243 191.59 195.98 235.875 185.749C236.279 190.302 236.578 195.033 236.283 195.238L236.279 195.243Z" fill="#263238"/>
<path d="M255.014 120.552C247.218 129.38 221.022 122.406 219.457 125.922C218.077 129.018 235.955 178.784 235.955 178.784L207.35 181.92C207.35 181.92 182.656 126.963 191.485 111.085C196.253 102.507 217.26 105.929 229.938 104.357C233.762 103.883 235.559 95.8682 235.559 95.8682H258.214C258.214 95.8682 263.931 110.464 255.019 120.557L255.014 120.552Z" fill="#263238"/>
<path d="M199.434 106.162L223.455 124.85C231.431 124.68 248.891 127.486 255.013 120.552C263.925 110.46 258.212 95.8682 258.212 95.8682H235.558C235.558 95.8682 233.76 103.883 229.937 104.357C221.038 105.456 208.047 104.102 199.434 106.162Z" fill="#37474F"/>
<path d="M206.256 175.428C207.047 175.178 214.461 174.338 216.1 174.155C219.374 173.798 229.684 172.815 231.551 172.819C231.6 172.819 231.609 172.9 231.56 172.909C229.939 173.253 223.36 174.035 221.725 174.204C218.447 174.548 207.183 175.656 206.273 175.567C206.194 175.558 206.181 175.451 206.26 175.424L206.256 175.428Z" fill="#37474F"/>
<path d="M215.989 123.005C217.831 122.076 231.77 122.536 241.773 121.584C245.033 121.276 248.303 120.566 250.79 118.394C253.032 116.437 254.473 113.73 255.242 110.938C256.205 107.462 256.104 103.839 255.941 100.278C255.901 99.4022 255.84 98.5265 255.787 97.6509C255.787 97.6017 255.875 97.5883 255.879 97.6419C256.64 104.017 257.224 111.139 253.142 116.665C251.349 119.096 248.826 120.731 245.851 121.526C239.817 123.139 217.132 122.741 216.332 123.362C215.378 124.104 230.043 169.491 230.333 170.358C230.386 170.519 230.109 170.63 230.039 170.469C228.593 166.985 214.385 123.809 215.985 123L215.989 123.005Z" fill="#37474F"/>
<path d="M190.456 112.618C191.805 109.138 194.881 106.971 199.408 106.14C199.482 106.126 199.478 106.238 199.408 106.26C195.457 107.435 192.635 109.048 191.084 112.439C190.359 114.021 189.985 116.246 189.797 119.226C188.86 134.085 201.614 167.82 201.873 168.41C201.895 168.464 201.825 168.504 201.794 168.455C199.997 165.377 184.892 126.99 190.46 112.622L190.456 112.618Z" fill="#37474F"/>
<path d="M180.113 163.598L201.775 168.28C201.775 168.28 184.688 116.433 192.713 109.745C194.936 107.891 199.788 107.243 205.55 109.772C214.154 113.551 224.117 121.254 233.508 124.073C242.302 126.713 252.744 124.283 256.339 120.262C263.889 111.813 258.211 95.8504 258.211 95.8504L231.742 95.5957C231.742 95.5957 232.208 95.9799 230.722 97.3202C230.722 97.3202 207.734 94.2643 199.779 99.2056C185.431 108.119 180.122 163.594 180.122 163.594L180.113 163.598Z" fill="#263238"/>
<path d="M244.749 97.7098C244.771 97.6473 244.855 97.6651 244.859 97.7277C244.903 98.925 244.85 100.1 245.127 101.279C245.391 102.401 245.892 103.406 246.696 104.228C248.405 105.984 250.853 106.583 253.09 107.297C253.209 107.333 253.187 107.548 253.055 107.525C250.572 107.137 247.957 106.498 246.142 104.603C245.307 103.732 244.749 102.62 244.534 101.427C244.318 100.23 244.354 98.8669 244.745 97.7098H244.749Z" fill="#37474F"/>
<path d="M193.243 108.758C196.575 106.631 201.778 108.249 204.27 109.218C204.322 109.24 204.296 109.325 204.243 109.303C201.949 108.463 196.245 107.194 193.195 109.392C186.146 114.468 195.581 149.181 201.765 168.285C201.861 168.584 201.628 168.504 201.497 168.218C200.477 165.953 192.505 141.814 190.422 125.842C190.101 123.385 188.436 111.823 193.235 108.758H193.243Z" fill="#37474F"/>
<path d="M182.583 157.746C183.238 157.728 188.85 158.988 190.089 159.27C192.563 159.837 198.294 161.347 199.634 161.865C199.67 161.879 199.648 161.955 199.608 161.95C198.325 161.825 195.337 161.16 194.102 160.869C191.632 160.284 183.163 158.22 182.544 157.885C182.491 157.854 182.517 157.751 182.583 157.746Z" fill="#37474F"/>
<path d="M194.309 107.856C196.551 106.609 199.218 106.408 201.705 106.716C204.342 107.047 206.852 107.998 209.264 109.12C214.331 111.474 219.157 114.352 224.232 116.697C229.278 119.025 234.661 120.848 240.22 121.022C244.971 121.169 250.987 120.32 254.041 115.973C258.748 109.276 256.006 97.7362 255.953 96.9901C255.953 96.9321 256.023 96.9365 256.041 96.9901C259.693 111.179 254.995 116.688 251.822 119.007C249.304 120.848 245.687 121.312 243.296 121.518C237.768 121.991 232.222 120.615 227.098 118.542C221.846 116.416 216.92 113.552 211.883 110.934C207.058 108.423 201.679 105.836 196.168 107.275C195.544 107.436 194.929 107.659 194.336 107.914C194.305 107.927 194.287 107.873 194.314 107.86L194.309 107.856Z" fill="#37474F"/>
<path d="M249.236 76.6209L247.232 76.5315C247.175 75.9597 247.048 75.4101 246.85 74.9232C246.05 72.9217 244.446 71.3267 243.194 69.7139C243.194 69.7049 243.18 69.7139 243.185 69.7273C244.349 71.3044 245.457 73.2612 246.076 75.2404C246.208 75.6603 246.279 76.0803 246.309 76.4913L245.061 76.4377C244.991 75.1868 244.692 73.985 244.073 72.8949C244.055 72.8636 244.007 72.9038 244.02 72.9395C244.521 74.0341 244.635 75.2136 244.609 76.4198L233.767 75.9418C233.6 74.9321 233.499 73.8956 233.495 72.8368C233.495 72.7161 233.332 72.734 233.336 72.8502C233.336 73.8911 233.376 74.9187 233.49 75.9329L232.585 75.8882C232.471 74.1547 232.506 72.4257 232.831 70.5538C232.844 70.4957 232.761 70.4778 232.752 70.5359C232.383 72.2515 232.128 74.0743 232.123 75.8658L224.617 75.5397C225.092 74.4139 225.435 73.2076 225.716 72.0505C225.742 71.9522 225.606 71.9209 225.58 72.0192C225.241 73.3014 224.74 74.4228 224.182 75.5129L223.07 75.4682C223.954 73.4891 224.622 71.425 224.802 69.2716C224.806 69.1822 224.679 69.1733 224.666 69.2626C224.362 71.5858 223.242 73.5069 222.134 75.4191L219.309 75.2985C220.315 73.5069 222.038 71.8807 222.306 69.7675C222.596 67.3952 220.53 66.2604 219.928 64.2633C218.917 60.917 220.57 58.4375 222.631 56.15C224.525 54.0368 224.358 51.6153 224.85 48.9213C225.206 46.9377 225.773 44.7396 226.797 43.0151C229.944 37.6852 235.446 38.4402 235.45 38.5161C236.782 38.5519 237.986 38.9406 239.041 39.6509C239.045 39.6509 239.054 39.6509 239.058 39.6599C239.133 39.7045 239.199 39.7582 239.274 39.8162C240.407 40.6428 241.365 41.8535 242.112 43.4127L242.121 43.4306C242.337 43.8729 242.53 44.3464 242.71 44.8468C243.018 45.7225 243.071 46.9332 243.321 48.3271C243.321 48.3539 243.325 48.3852 243.334 48.4076C243.703 50.3689 244.49 52.6518 246.986 54.7114C249.961 57.1508 249.109 61.0779 246.648 65.0094C245.606 66.6759 245.562 67.7526 245.962 68.6729C245.962 68.6729 245.962 68.6774 245.962 68.6863C246.019 68.8114 246.076 68.9186 246.142 69.0393C246.722 70.0534 247.777 70.938 248.498 72.3275C249.166 73.6052 249.311 75.1019 249.245 76.6075L249.236 76.6209Z" fill="#263238"/>
<path d="M230.858 39.3252C228.581 40.5493 226.828 42.6045 225.984 45.2895C225.338 47.3402 225.268 49.5696 224.415 51.5532C223.611 53.4252 222.196 54.8369 221.062 56.4542C219.559 58.5898 218.601 61.2123 219.84 63.6606C220.609 65.1796 222.314 66.6897 222.226 68.6197C222.121 70.8759 220.196 73.0472 219.163 74.9102C219.115 74.9995 219.238 75.0978 219.295 75.0129C220.701 72.9087 223.158 70.1432 222.328 67.3777C221.945 66.1089 221.119 65.1439 220.464 64.0671C219.19 61.9718 219.458 59.729 220.71 57.5846C222.407 54.6761 224.657 52.8086 225.408 49.3104C225.839 47.3089 226.023 45.2538 227.017 43.4399C227.957 41.7199 229.311 40.3706 230.915 39.4682C230.981 39.428 230.928 39.2984 230.858 39.3386V39.3252Z" fill="#263238"/>
<path d="M247.609 71.7915C246.792 70.6075 245.781 69.7408 246.225 67.9448C246.532 66.6983 247.363 65.6305 247.934 64.5226C249.358 61.7615 250.171 58.2902 248.778 55.4577C247.991 53.8627 246.651 53.474 245.517 52.3079C244.146 50.8962 243.641 48.7115 243.197 46.701C242.533 43.6853 241.694 40.2542 238.697 39.5706C238.67 39.5662 238.661 39.6108 238.688 39.6198C242.507 40.7456 242.485 45.8432 243.583 49.3682C243.957 50.5656 244.489 51.7182 245.315 52.5671C246.625 53.9163 248.211 54.3631 248.888 56.4584C249.521 58.4197 249.248 60.5999 248.545 62.5702C247.934 64.2813 246.805 65.711 246.225 67.4131C245.877 68.4318 245.794 69.4861 246.277 70.4109C246.66 71.1347 247.306 71.6172 247.71 72.3186C248.255 73.2613 248.466 74.3604 248.435 75.5086C248.435 75.6247 248.589 75.6068 248.593 75.4907C248.646 74.0968 248.352 72.8548 247.609 71.787V71.7915Z" fill="#263238"/>
<path d="M238.766 64.7905C237.474 70.2455 229.208 93.799 217.175 95.8631C213.092 96.5645 206.127 81.9195 210.231 63.9014C210.355 63.3697 222.304 63.5038 222.884 66.4748C222.945 66.792 222.673 75.0482 222.334 74.9142C221.917 74.7444 227.472 68.6818 234.486 62.8515C237.804 60.0949 239.535 61.538 238.766 64.7949V64.7905Z" fill="#EB9481"/>
<path d="M238.766 64.7905C237.474 70.2455 229.208 93.799 217.175 95.8631C213.093 96.5645 206.197 83.0319 208.979 67.0332L223.424 69.1152C223.486 69.4324 223.003 73.7705 223.003 73.7705C223.003 73.7705 227.472 68.6818 234.486 62.8515C237.804 60.0949 239.535 61.538 238.766 64.7949V64.7905Z" fill="#E8CC76"/>
<path d="M222.986 73.811C222.727 78.033 222.38 82.2504 221.927 86.4545C221.8 87.625 221.686 88.8 221.562 89.9706C221.562 90.0108 221.624 90.0153 221.633 89.9795C222.081 87.911 222.406 85.8201 222.639 83.7158C222.868 81.6339 223.057 79.5207 223.083 77.4254C223.101 76.2191 223.096 75.0128 223.065 73.811C223.065 73.7574 222.991 73.7619 222.986 73.811Z" fill="#263238"/>
<path d="M209.844 66.2291C209.844 66.2291 210.38 60.439 212.652 56.704C214.221 54.1217 216.321 50.0784 225.234 50.2661C227.348 50.3107 231.448 52.7501 230.543 54.2602C229.681 55.6988 226.139 52.9779 223.182 53.4783C223.182 53.4783 226.697 55.7881 226.574 57.9371C226.517 58.8976 226.302 61.5201 225.849 63.535C225.849 63.535 225.392 63.5529 224.808 63.4904C224.808 63.4904 224.627 65.5008 222.285 67.4443L209.844 66.2246V66.2291Z" fill="#EB9481"/>
<path d="M214.539 54.4833C216.033 54.0142 219.219 53.0715 222.089 53.2234C225.275 53.3932 231.371 54.5905 231.226 56.9807C231.12 58.732 228.751 58.4863 228.751 58.4863C228.751 58.4863 231.168 59.5228 230.729 61.082C230.329 62.5072 228.51 62.199 228.51 62.199C228.51 62.199 229.868 63.0836 229.226 64.3792C228.453 65.9384 224.853 63.4588 222.726 64.3479C222.247 64.5489 214.539 54.4833 214.539 54.4833Z" fill="#EB9481"/>
<path d="M221.348 56.6189C222.824 56.4134 226.3 56.8155 228.717 58.4238C228.77 58.4596 228.774 58.5221 228.717 58.4998C225.685 57.3024 222.648 56.7887 221.348 56.6502C221.33 56.6502 221.334 56.6234 221.348 56.6189Z" fill="#263238"/>
<path d="M221.844 52.9734C223.32 52.7679 226.796 53.17 229.213 54.7783C229.266 54.8141 229.271 54.8766 229.213 54.8543C226.181 53.6569 223.144 53.1431 221.844 53.0047C221.826 53.0047 221.83 52.9778 221.844 52.9734Z" fill="#263238"/>
<path d="M221.273 59.894C222.565 59.8493 226.129 60.4301 228.525 62.1457C228.577 62.1859 228.577 62.244 228.525 62.2216C225.409 60.8411 222.565 60.1442 221.273 59.9252C221.256 59.9252 221.26 59.894 221.273 59.894Z" fill="#263238"/>
<path d="M224.772 64.1836C224.553 64.0182 222.733 63.634 221.05 64.2014C221.011 64.2148 221.019 64.2774 221.063 64.2774C222.114 64.2193 222.984 64.2148 223.001 64.2148C222.171 66.1181 220.123 67.3958 219.222 67.8515C219.165 67.8783 219.209 67.9677 219.266 67.9498C221.024 67.4628 222.733 66.0734 223.138 64.2193C223.375 64.2327 224.614 64.2818 224.759 64.2327C224.781 64.2238 224.79 64.1925 224.772 64.1791V64.1836Z" fill="#263238"/>
<path opacity="0.1" d="M238.766 64.791C237.474 70.246 229.207 93.7995 217.175 95.8636C216.52 95.9753 215.791 95.7206 215.039 95.1443L238.111 61.543C238.898 61.9406 239.157 63.129 238.766 64.791Z" fill="black"/>
<path d="M228.302 97.91L229.225 86.5086C229.225 86.5086 225.889 82.8495 227.722 78.2746C228.649 75.9559 233.013 66.127 236.515 62.1374C239.455 58.7867 243.912 60.9758 245.683 63.1918C250.767 69.5537 253.448 77.4124 259.297 96.61L228.302 97.9145V97.91Z" fill="#E8CC76"/>
<path d="M237.442 84.4591C236.181 84.5708 234.906 84.7495 233.654 85.1471C233.03 85.3437 232.415 85.5849 231.799 85.8485C231.492 85.9781 231.184 86.0942 230.876 86.2059C230.56 86.3221 230.222 86.4249 229.896 86.4204C229.866 86.4204 229.861 86.4874 229.892 86.4919C230.204 86.5276 230.503 86.5589 230.815 86.5276C231.114 86.5008 231.417 86.4204 231.711 86.331C232.344 86.1389 232.973 85.9021 233.606 85.7011C234.88 85.2945 236.154 84.888 237.442 84.6199C237.499 84.6065 237.499 84.4546 237.442 84.4591Z" fill="#263238"/>
<path d="M240.406 86.3891C239.391 86.1568 238.354 85.996 237.321 85.9424C236.802 85.9156 236.284 85.9379 235.761 85.9781C235.51 85.996 235.264 86.0228 235.014 86.0585C234.741 86.0943 234.464 86.1836 234.192 86.2149C234.165 86.2149 234.157 86.2864 234.187 86.2864C234.447 86.273 234.706 86.3221 234.961 86.3311C235.22 86.34 235.48 86.3445 235.739 86.3534C236.257 86.3713 236.776 86.3936 237.294 86.4025C238.332 86.4204 239.369 86.4517 240.402 86.5276C240.459 86.5276 240.463 86.407 240.41 86.3936L240.406 86.3891Z" fill="#263238"/>
<path d="M246.947 66.1491C252.48 78.1091 256.484 100.193 253.152 103.253C249.443 106.662 241.766 89.9261 242.065 89.2157C242.289 88.6796 242.359 76.2908 242.021 66.8997C241.682 57.5176 245.58 63.1915 246.952 66.1491H246.947Z" fill="#DD6A57"/>
<path d="M241.973 89.2029C242.026 87.8581 241.828 71.3144 241.828 65.9978C241.828 61.2264 243.204 59.761 245.761 63.6344C250.468 70.7648 255.966 89.7301 255.649 98.2499C255.342 106.453 250.749 104.844 246.992 99.6662C243.916 95.4264 241.978 89.2029 241.978 89.2029H241.973Z" fill="#E8CC76"/>
<path d="M242.036 91.3963C241.585 85.0611 241.436 78.6724 241.581 72.3193C242.032 78.6545 242.181 85.0477 242.036 91.3963Z" fill="#263238"/>
<path d="M241.605 76.0136C241.259 75.2451 241.035 74.4186 241.035 73.5742C241.333 74.365 241.548 75.1647 241.605 76.0136Z" fill="#263238"/>
<path d="M252.215 103.097C248.972 104.651 243.839 102.324 230.373 97.6951C228.51 97.0562 229.42 82.4693 231.441 83.0501C233.99 83.7828 243.733 87.1782 244.414 87.5178C250.163 90.386 254.417 102.042 252.215 103.097Z" fill="#EB9481"/>
<path d="M233.661 83.6889C233.661 83.6889 229.13 81.4104 226.199 80.4945C222.274 79.2659 218.389 79.8512 216.772 80.1907C213.402 80.91 205.746 85.0113 206.524 87.4596C207.227 89.6756 214.847 85.0784 214.847 85.0784C214.847 85.0784 206.317 88.4604 207.649 90.9712C208.98 93.482 217.524 87.6339 217.524 87.6339C217.524 87.6339 208.835 91.3108 210.611 93.6786C211.951 95.4702 219.985 90.6138 219.985 90.6138C219.985 90.6138 212.54 93.826 213.841 95.7293C215.278 97.8291 222.969 93.8216 222.969 93.8216C227.078 98.0882 230.73 98.8209 233.371 98.736L236.135 99.7055L234.628 84.0687L233.656 83.6889H233.661Z" fill="#EB9481"/>
<path d="M217.727 83.7203C216.712 84.0822 215.679 84.4396 214.699 84.8909C213.719 85.3421 212.752 85.8291 211.816 86.3697C209.522 87.701 208.292 88.8984 208.375 88.8313C210.361 87.2811 213.851 85.6102 214.831 85.1589C215.811 84.7077 216.764 84.2073 217.744 83.7561C217.771 83.7427 217.749 83.7114 217.727 83.7203Z" fill="#263238"/>
<path d="M219.398 87.2891C218.119 87.8074 216.832 88.272 215.579 88.8484C214.331 89.4202 213.193 90.077 211.984 90.7337C211.892 90.7829 211.949 90.8186 212.046 90.7695C213.276 90.1619 214.463 89.6928 215.702 89.0986C216.937 88.5088 218.159 87.861 219.411 87.3159C219.429 87.307 219.416 87.2802 219.398 87.2847V87.2891Z" fill="#263238"/>
<path d="M221.37 90.0955C219.38 90.7835 217.512 91.8468 215.71 92.9325C215.622 92.9861 215.701 93.0218 215.794 92.9727C217.657 91.9943 219.116 91.2124 221.397 90.167C221.432 90.1491 221.414 90.0821 221.375 90.0955H221.37Z" fill="#263238"/>
<path d="M234.676 81.8887L237.005 102.949C237.005 102.949 251.085 105.639 253.779 103.588C255.704 102.123 251.063 90.69 244.858 87.1963L234.68 81.8887H234.676Z" fill="#E8CC76"/>
<path d="M250.735 93.9558C250.322 92.5976 248.415 89.2558 244.86 87.1828C244.829 87.165 244.794 87.2096 244.824 87.232C247.325 89.0369 250.181 92.7049 250.687 93.9782C250.7 94.0094 250.748 93.9871 250.74 93.9558H250.735Z" fill="#263238"/>
<path d="M240.921 100.966C240.815 98.9197 240.6 96.8824 240.385 94.8452C240.165 92.8079 239.949 90.7662 239.681 88.7334C239.528 87.5852 239.383 86.437 239.194 85.2933C239.189 85.262 239.136 85.2665 239.141 85.2933C239.246 87.335 239.453 89.3767 239.655 91.4095C239.862 93.4513 240.086 95.4885 240.332 97.5258C240.472 98.674 240.631 99.8222 240.82 100.966C240.828 101.024 240.925 101.019 240.921 100.961V100.966Z" fill="#263238"/>
<path d="M234.543 81.5854C235.286 81.8401 243.394 85.9593 245.662 87.7016C245.688 87.7195 245.469 87.7463 245.442 87.724C244.405 86.8349 235.484 82.47 234.812 82.0277C234.807 82.0903 234.957 84.056 234.943 84.1186C234.935 84.1588 234.873 84.1767 234.855 84.1275C234.816 84.0113 234.447 81.5452 234.543 81.5765V81.5854Z" fill="#263238"/>
<path d="M237.004 102.949C241.5 103.753 246.075 104.526 250.65 104.231C254.398 103.954 255.022 102.601 255.326 99.0132C255.647 91.5879 253.946 84.1492 251.973 77.0322C253.194 80.5572 254.122 84.185 254.816 87.8619C255.4 91.3109 257.404 102.493 253.423 104.035C251.652 104.727 249.753 104.705 247.899 104.642C244.212 104.446 240.573 103.807 237 102.954L237.004 102.949Z" fill="#263238"/>
<path d="M242.296 61.5476C242.327 62.1865 238.161 66.9043 235.441 67.5566C234.553 67.7666 235.656 62.8745 235.656 62.8745L235.476 62.5394L232.953 57.8305L237.704 52.3486L238.403 51.6025C238.403 51.6025 239.009 52.9384 239.747 54.6093C239.782 54.6852 239.818 54.7657 239.853 54.8461C239.897 54.9399 239.941 55.0292 239.976 55.1141C240.09 55.3643 240.204 55.6145 240.314 55.8692C240.398 56.0613 240.481 56.2534 240.56 56.4589C240.648 56.6644 240.727 56.8655 240.811 57.071C241.619 59.1127 242.279 61.284 242.296 61.552V61.5476Z" fill="#EB9481"/>
<path d="M239.747 54.6048C239.457 59.0233 236.768 61.5699 235.476 62.5394L232.953 57.8305L237.704 52.3486L238.403 51.6025C238.403 51.6025 239.009 52.9384 239.747 54.6093V54.6048Z" fill="#263238"/>
<path d="M223.842 50.6016C224.097 60.0105 229.669 60.9175 231.664 60.8594C233.475 60.8058 239.641 60.3948 240.344 51.0082C241.047 41.6216 236.665 38.7668 232.512 38.664C228.364 38.5613 223.587 41.1882 223.842 50.5972V50.6016Z" fill="#EB9481"/>
<path d="M224.772 49.0566C224.988 49.0209 225.181 48.9494 225.392 48.8913C225.629 48.8243 225.823 48.7975 225.99 48.6009C226.077 48.4937 226.06 48.2926 225.968 48.1944C225.752 47.9665 225.44 47.9754 225.155 48.0425C224.843 48.1139 224.618 48.2524 224.425 48.5116C224.236 48.7618 224.487 49.1102 224.772 49.0611V49.0566Z" fill="#263238"/>
<path d="M231.132 48.9893C230.912 48.9758 230.714 48.9222 230.499 48.8865C230.257 48.8463 230.06 48.8374 229.875 48.6586C229.774 48.5604 229.774 48.3593 229.857 48.2521C230.051 48.0019 230.358 47.9796 230.653 48.0198C230.969 48.06 231.207 48.1761 231.426 48.4129C231.642 48.6408 231.422 49.0161 231.132 48.9937V48.9893Z" fill="#263238"/>
<path d="M229.775 51.0122C229.775 50.9854 229.824 51.039 229.824 51.0658C229.824 51.7047 229.92 52.4418 230.496 52.6384C230.514 52.6429 230.514 52.6786 230.492 52.6742C229.793 52.5937 229.665 51.6153 229.771 51.0077L229.775 51.0122Z" fill="#263238"/>
<path d="M230.321 50.3302C231.332 50.223 231.463 52.2915 230.527 52.3853C229.604 52.4791 229.473 50.4151 230.321 50.3302Z" fill="#263238"/>
<path d="M230.724 50.4151C230.908 50.5223 231.097 50.7144 231.312 50.7233C231.563 50.7323 231.734 50.5044 231.884 50.2855C231.901 50.2632 231.919 50.281 231.919 50.3078C231.95 50.701 231.827 51.121 231.413 51.2058C231.036 51.2863 230.741 50.9512 230.618 50.5625C230.596 50.491 230.653 50.3749 230.724 50.4195V50.4151Z" fill="#263238"/>
<path d="M226.267 51.1105C226.263 51.0882 226.219 51.1462 226.223 51.1686C226.289 51.8075 226.258 52.5491 225.706 52.8037C225.689 52.8127 225.693 52.8439 225.715 52.8395C226.399 52.6876 226.429 51.7047 226.267 51.1105Z" fill="#263238"/>
<path d="M225.659 50.4854C224.644 50.4854 224.71 52.5494 225.655 52.5539C226.582 52.5539 226.512 50.4898 225.659 50.4854Z" fill="#263238"/>
<path d="M225.241 50.6368C225.083 50.753 224.933 50.9585 224.74 50.9764C224.516 50.9987 224.344 50.7798 224.195 50.5698C224.177 50.5475 224.164 50.5698 224.164 50.5921C224.164 50.9898 224.309 51.3963 224.683 51.4589C225.025 51.5169 225.263 51.1685 225.346 50.7708C225.359 50.6994 225.302 50.5877 225.241 50.6323V50.6368Z" fill="#263238"/>
<path d="M230.693 55.9548C230.583 56.138 230.486 56.3748 230.271 56.4507C230.064 56.5222 229.787 56.4909 229.576 56.4641C229.555 56.4641 229.541 56.4864 229.559 56.5043C229.779 56.7009 230.148 56.7634 230.42 56.6383C230.684 56.5177 230.759 56.2407 230.763 55.9637C230.763 55.9235 230.715 55.9235 230.697 55.9503L230.693 55.9548Z" fill="#263238"/>
<path d="M227.671 54.194C227.671 54.194 227.724 55.159 227.807 55.6013C227.816 55.6415 227.926 55.6415 228.075 55.6192C228.084 55.6192 228.089 55.6192 228.093 55.6192C228.888 55.5879 229.609 55.1635 229.956 54.4308C229.978 54.3816 229.912 54.3459 229.882 54.3816C229.389 54.9267 228.774 55.1635 228.097 55.3109C228.045 55.1948 228.062 53.6534 227.992 53.6624C227.75 53.6892 227.311 53.9483 227.047 54.0868C226.88 52.0808 227.029 50.0614 226.832 48.0688C226.823 47.9974 226.722 47.9973 226.713 48.0644C226.41 50.1686 226.55 52.4829 226.673 54.5559C226.687 54.815 227.522 54.3057 227.68 54.194H227.671Z" fill="#263238"/>
<path d="M240.218 52.2279C238.065 51.5265 237.696 49.3775 237.696 49.3775C235.032 48.618 233.411 46.8042 233.244 46.6165C233.332 46.7997 233.951 48.1311 234.294 48.8012C228.322 48.4706 225.935 44.1772 225.935 44.1772C224.292 46.344 224.072 47.6217 223.879 48.2695C223.879 48.2695 223.369 44.6418 224.894 41.9612C226.762 38.6819 229.904 38.8383 229.904 38.8383C229.904 38.8383 234.255 36.8636 238.271 40.2858C242.596 43.9761 240.218 52.2279 240.218 52.2279Z" fill="#263238"/>
<path d="M229.737 48.4087C230.734 48.8152 231.811 49.0386 232.87 49.128C232.879 49.128 232.879 49.1146 232.87 49.1146C231.165 48.8599 229.579 48.1808 228.256 47.055C227.693 46.5769 227.197 46.0363 226.766 45.4377C226.318 44.8077 225.865 44.0482 225.703 43.2798C225.689 43.2217 225.601 43.2396 225.615 43.2977C225.786 44.1063 225.953 44.8524 226.379 45.5717C226.779 46.2552 227.311 46.8718 227.926 47.3588C228.476 47.7966 229.091 48.1406 229.741 48.4087" fill="#263238"/>
<path d="M239.438 54.6354C239.293 54.7114 239.156 54.765 239.024 54.7963C238.871 54.8454 238.726 54.8588 238.594 54.8588C238.383 54.8588 238.198 54.8186 238.044 54.7471C237.899 54.689 237.772 54.6042 237.667 54.5148C237.394 54.287 237.258 54.0323 237.258 54.0323L237.486 51.4768C237.486 51.4768 239.169 48.3226 240.549 48.9034C241.938 49.4797 240.905 53.8849 239.442 54.6444L239.438 54.6354Z" fill="#EB9481"/>
<path d="M240.221 50.1498C240.247 50.1453 240.256 50.1811 240.234 50.19C239.21 50.7574 238.762 51.8341 238.485 52.9287C238.758 52.4864 239.166 52.2183 239.742 52.54C239.773 52.5579 239.751 52.6026 239.72 52.6026C239.272 52.5579 238.96 52.674 238.705 53.0627C238.525 53.3397 238.415 53.6793 238.296 53.9875C238.257 54.0903 238.076 54.059 238.103 53.9429C238.103 53.9339 238.103 53.925 238.107 53.916C237.923 52.5311 238.766 50.4581 240.221 50.1498Z" fill="#263238"/>
<path d="M239.265 54.2551C239.243 54.4964 239.037 54.6751 238.799 54.6527C238.562 54.6304 238.386 54.4204 238.408 54.1792C238.43 53.9379 238.637 53.7637 238.874 53.7815C239.111 53.8039 239.287 54.0139 239.265 54.2551Z" fill="white"/>
<path d="M240.063 53.5001C240.05 53.6699 239.901 53.795 239.734 53.7816C239.568 53.7682 239.445 53.6163 239.458 53.4465C239.471 53.2767 239.62 53.1516 239.787 53.165C239.953 53.1784 240.076 53.3303 240.063 53.5001Z" fill="white"/>
<path d="M223.828 50.0205C223.929 53.9744 225.278 58.5761 229.123 60.2783C229.642 60.5419 230.2 60.6938 230.758 60.8591C225.665 60.2783 223.384 54.6848 223.828 50.0205Z" fill="#263238"/>
<path d="M54.1641 127.771L55.6319 136.716L65.5682 197.552H67.1722L59.943 136.716L58.8751 127.771H54.1641Z" fill="#455A64"/>
<path opacity="0.1" d="M58.8751 127.771H54.1641L55.6319 136.716H59.943L58.8751 127.771Z" fill="black"/>
<path d="M22.957 197.552H24.5611L34.4974 136.716L35.9652 127.771H31.2541L30.1862 136.716L22.957 197.552Z" fill="#455A64"/>
<path opacity="0.1" d="M31.2554 127.771L30.1875 136.716H34.4987L35.9665 127.771H31.2554Z" fill="black"/>
<path d="M3.83594 197.552H5.43999L15.3763 136.716L16.8441 127.771H12.1331L11.0651 136.716L3.83594 197.552Z" fill="#455A64"/>
<path opacity="0.1" d="M11.0645 136.716H15.3756L16.8434 127.771H12.1324L11.0645 136.716Z" fill="black"/>
<path d="M6.38086 131.971H68.5081V124.175H41.2525L32.0896 69.9863H9.15389L6.38086 131.971Z" fill="#455A64"/>
<path opacity="0.1" d="M6.38086 131.971H10.3492L12.9333 69.9863H9.15389L6.38086 131.971Z" fill="black"/>
<path d="M78.0794 197.043C76.6907 197.222 38.5451 189.194 37.3146 187.978C37.1651 187.844 37.8068 184.324 38.7604 179.517L38.778 179.423C39.3713 176.376 49.6899 151.571 49.6899 151.571L74.445 157.79L63.955 180.835C63.955 180.835 68.6748 184.087 72.7311 187.188C72.7311 187.192 72.7399 187.196 72.7399 187.201C75.2448 189.104 77.407 190.815 77.8684 191.378C79.0726 192.844 79.4593 196.882 78.075 197.048L78.0794 197.043Z" fill="#AD6359"/>
<path d="M78.0793 197.038C76.695 197.217 38.5493 189.189 37.3144 187.978C37.165 187.839 37.811 184.323 38.7647 179.512L38.7823 179.422C39.002 178.287 40.5797 174.124 42.465 169.348C46.5388 170.331 61.1379 173.869 66.4466 175.366L63.9636 180.825C63.9636 180.825 68.6835 184.078 72.7398 187.178C72.7398 187.183 72.7442 187.183 72.7442 187.187C75.2491 189.09 77.4113 190.806 77.8727 191.364C79.0769 192.834 79.468 196.873 78.0793 197.034V197.038Z" fill="#EBEBEB"/>
<path d="M78.2114 197.221C76.7831 197.391 38.6111 189.259 37.3455 188.013C36.8621 187.544 37.5257 181.437 39.411 174.932L64.0166 180.203C64.0166 180.203 76.7875 189.867 78.0268 191.386C79.2617 192.901 79.6353 197.051 78.2114 197.221Z" fill="#E8CC76"/>
<path d="M77.9838 195.55C71.6159 194.027 45.7973 188.496 39.3899 187.482C39.3372 187.473 39.3284 187.509 39.3811 187.522C45.6567 189.171 71.5193 194.492 77.9618 195.658C78.0981 195.685 78.12 195.582 77.9838 195.55Z" fill="#263238"/>
<path d="M65.8899 181.285C63.3366 180.704 60.1768 180.99 58.1465 182.782C58.0674 182.853 58.1641 182.965 58.252 182.938C60.8184 182.219 63.2047 181.781 65.8679 181.616C66.0569 181.602 66.0744 181.325 65.8899 181.285Z" fill="#263238"/>
<path d="M67.7043 182.487C65.151 181.906 61.9913 182.192 59.9609 183.984C59.8818 184.055 59.9785 184.167 60.0664 184.14C62.6329 183.421 65.0192 182.983 67.6824 182.818C67.8713 182.804 67.8889 182.527 67.7043 182.487Z" fill="#263238"/>
<path d="M69.5188 183.693C66.9655 183.113 63.8057 183.398 61.7754 185.19C61.6963 185.261 61.793 185.373 61.8809 185.346C64.4473 184.627 66.8336 184.189 69.4968 184.024C69.6858 184.011 69.7033 183.734 69.5188 183.693Z" fill="#263238"/>
<path d="M71.3391 184.899C68.7858 184.319 65.626 184.605 63.5957 186.396C63.5166 186.468 63.6133 186.579 63.7012 186.552C66.2677 185.833 68.6539 185.395 71.3171 185.23C71.5061 185.217 71.5237 184.94 71.3391 184.899Z" fill="#263238"/>
<path opacity="0.1" d="M78.2117 197.221C77.7678 197.27 73.7555 196.524 68.3984 195.42L71.8439 186.23C74.7531 188.513 77.4866 190.725 78.0315 191.391C79.262 192.901 79.64 197.051 78.2117 197.225V197.221Z" fill="black"/>
<path d="M64.9436 181.446L38.668 175.138C38.668 175.138 60.7292 125.761 58.8043 123.161C57.8419 121.861 33.3768 121.476 25.5939 114.766C15.4862 106.05 22.2671 92.7269 22.2671 92.7269L49.5887 91.9004C49.5887 91.9004 49.2591 97.7084 50.327 98.584C51.0302 99.1693 83.5858 101.953 87.1586 113.122C91.5445 126.815 64.9436 181.441 64.9436 181.441V181.446Z" fill="#263238"/>
<path d="M63.4755 120.86C62.9262 120.382 62.1 120.324 61.4144 120.207C57.4724 119.537 53.526 118.858 49.584 118.188C45.8925 117.558 42.1834 117 38.5095 116.276C35.4684 115.677 32.3746 114.873 29.7422 113.193C27.1098 111.513 25.286 108.989 24.3675 106.04C23.449 103.092 23.3831 99.9241 23.6731 96.8727C23.7435 96.1266 23.8797 95.3805 24.0159 94.6434C24.0247 94.5853 23.9368 94.5674 23.928 94.6255C22.9261 100.322 22.8382 106.934 27.0351 111.473C29.0786 113.685 31.8912 114.985 34.7565 115.829C37.9909 116.781 41.3748 117.227 44.6928 117.795C48.6348 118.465 52.5812 119.14 56.5276 119.805C58.4261 120.127 60.3509 120.377 62.2363 120.779C62.5966 120.855 63.0053 120.962 63.2646 121.239C63.6206 121.624 63.5239 122.169 63.4316 122.629C63.2426 123.576 62.9921 124.51 62.7241 125.435C60.5707 132.913 45.0883 167.994 44.662 168.816C44.6181 168.9 44.7499 168.967 44.7983 168.883C48.4151 162.324 59.8983 135.366 62.2846 128.289C62.8955 126.484 63.458 124.653 63.8359 122.785C63.9721 122.111 64.0512 121.351 63.4755 120.851V120.86Z" fill="#37474F"/>
<path d="M66.1564 174.968C65.44 174.628 58.5404 172.957 57.0199 172.595C53.9744 171.867 44.3632 169.736 42.601 169.53C42.5526 169.526 42.5395 169.602 42.5834 169.62C44.0732 170.147 50.1906 171.662 51.7111 172.019C54.7654 172.729 65.2598 175.102 66.13 175.115C66.2047 175.115 66.2311 175.008 66.1607 174.977L66.1564 174.968Z" fill="#37474F"/>
<path d="M116.629 197.641C115.306 198.097 76.3521 197.949 74.9063 197.011C74.7349 196.908 74.6734 193.33 74.6646 188.424V188.326C74.6514 185.221 73.7109 158.683 73.7109 158.683L98.0925 158.478L99.613 184.609C99.613 184.609 104.873 186.838 109.457 189.059C109.461 189.063 109.47 189.063 109.47 189.072C112.296 190.43 114.753 191.672 115.315 192.128C116.783 193.321 117.952 197.199 116.629 197.641Z" fill="#AD6359"/>
<path d="M116.63 197.637C115.302 198.088 76.3482 197.946 74.9068 197.007C74.7354 196.909 74.6738 193.326 74.665 188.425V188.327C74.665 188.112 74.665 187.889 74.6563 187.67C74.6563 187.509 74.6563 187.353 74.6475 187.192C74.6475 186.96 74.6387 186.723 74.6299 186.481C74.5772 184.417 74.4761 181.067 74.3574 177.399L99.1916 177.233L99.6179 184.605C99.6179 184.605 104.878 186.839 109.462 189.055C109.466 189.059 109.475 189.059 109.475 189.064C112.301 190.422 114.758 191.664 115.32 192.12C116.783 193.317 117.961 197.19 116.634 197.633L116.63 197.637Z" fill="#EBEBEB"/>
<path d="M116.791 197.789C115.424 198.245 76.4217 198.004 74.9407 197.038C74.3782 196.677 73.8288 190.56 74.4045 183.801L99.5508 183.988C99.5508 183.988 113.956 190.873 115.473 192.111C116.98 193.348 118.158 197.338 116.795 197.794L116.791 197.789Z" fill="#E8CC76"/>
<path d="M101.594 184.666C98.9791 184.613 95.938 185.533 94.2988 187.7C94.2372 187.785 94.3515 187.874 94.4306 187.834C96.8037 186.61 99.0582 185.698 101.638 184.992C101.818 184.943 101.783 184.671 101.594 184.666Z" fill="#263238"/>
<path d="M103.613 185.48C100.999 185.426 97.9575 186.346 96.3183 188.513C96.2568 188.598 96.371 188.688 96.4501 188.647C98.8232 187.423 101.078 186.512 103.657 185.81C103.838 185.761 103.802 185.484 103.613 185.484V185.48Z" fill="#263238"/>
<path d="M105.625 186.293C103.01 186.24 99.9692 187.16 98.33 189.327C98.2685 189.412 98.3827 189.501 98.4618 189.461C100.835 188.237 103.089 187.325 105.669 186.624C105.849 186.575 105.814 186.298 105.625 186.298V186.293Z" fill="#263238"/>
<path d="M107.641 187.106C105.026 187.052 101.985 187.972 100.346 190.139C100.284 190.224 100.398 190.314 100.477 190.273C102.851 189.049 105.105 188.138 107.685 187.432C107.865 187.383 107.83 187.11 107.641 187.106Z" fill="#263238"/>
<path d="M102.052 183.8L73.4827 183.541C73.4827 183.541 73.8255 137.564 71.6677 134.763C68.7936 131.028 28.5957 131.113 19.969 118.93C12.2256 107.988 18.7605 92.5033 18.7605 92.5033L49.2067 91.583C49.2067 91.583 48.2574 96.4974 46.3853 101.331C46.3853 101.331 83.0587 108.212 93.3334 119.649C100.268 127.369 102.048 183.8 102.048 183.8H102.052Z" fill="#263238"/>
<path d="M51.7376 99.2098C50.8587 99.3661 49.9885 99.728 49.1579 100.05C48.2834 100.389 47.422 100.773 46.5827 101.189C44.9171 102.015 43.3306 102.958 41.7661 103.959C41.7178 103.99 41.7661 104.057 41.8145 104.035C43.4625 103.164 45.1632 102.382 46.8683 101.636C47.6901 101.278 48.5075 100.916 49.3293 100.559C50.1555 100.197 51.0344 99.8889 51.8167 99.4421C51.9178 99.384 51.865 99.1874 51.742 99.2098H51.7376Z" fill="#37474F"/>
<path d="M49.9151 91.5699C49.5679 92.9817 49.2603 94.4069 48.8648 95.8052C48.6846 96.4486 48.5044 97.1009 48.2627 97.7263C48.0606 98.2535 47.7573 98.8522 47.1553 98.9684C46.4653 99.1024 46.2675 98.5037 46.3247 97.9229C46.3862 97.2751 46.5488 96.6273 46.6762 95.9929C46.8213 95.2602 46.9663 94.5275 47.0981 93.7903C47.164 93.424 47.23 93.0532 47.2915 92.6868C47.3091 92.593 47.375 91.8871 47.4233 91.6861C47.4277 91.7039 47.4409 91.7173 47.4629 91.7173H47.4849C47.4849 91.7173 47.5244 91.6995 47.5288 91.6771C47.5376 91.6235 47.5332 91.6101 47.4936 91.5699C47.4761 91.552 47.4497 91.552 47.4321 91.5654C47.3003 91.6369 47.2915 91.8246 47.2475 91.9586C47.1333 92.316 47.019 92.6734 46.9179 93.0353C46.7246 93.7099 46.54 94.3845 46.3686 95.0681C46.2016 95.7472 46.0346 96.4307 45.872 97.1098C45.749 97.6191 45.6039 98.1552 45.7358 98.678C45.8852 99.2498 46.3335 99.5357 46.8257 99.5804C46.8037 99.6251 46.7729 99.6698 46.7509 99.7189C46.6894 99.8574 46.6455 100.005 46.5927 100.148C46.54 100.295 46.4917 100.438 46.4521 100.59C46.4345 100.662 46.4213 100.733 46.4126 100.809C46.4038 100.889 46.4213 100.97 46.4126 101.055C46.395 101.18 46.5664 101.26 46.6279 101.135C46.6631 101.064 46.7158 101.006 46.7597 100.939C46.8037 100.867 46.8344 100.782 46.8608 100.702C46.9092 100.559 46.9487 100.42 46.9839 100.273C47.019 100.13 47.063 99.987 47.0893 99.844C47.1069 99.7591 47.1069 99.6698 47.1157 99.5849C47.397 99.5581 47.6782 99.4553 47.9155 99.2766C48.3286 98.9594 48.5703 98.4724 48.7461 97.9855C48.9571 97.3957 49.1197 96.7881 49.2823 96.185C49.6866 94.6928 50.0294 93.1738 50.17 91.6324C50.1832 91.4671 49.959 91.4091 49.9195 91.5788L49.9151 91.5699Z" fill="#37474F"/>
<path d="M31.8064 95.0275C31.679 95.729 31.5999 96.4349 31.4417 97.1318C31.2879 97.8109 31.1033 98.49 30.8836 99.1557C30.6726 99.7901 30.4133 100.424 30.0354 100.978C29.6706 101.51 29.1872 101.975 28.6862 102.377C27.7062 103.168 26.5988 103.798 25.421 104.226C24.8277 104.441 24.2213 104.629 23.606 104.767C23.2852 104.839 22.96 104.897 22.6348 104.941C22.3623 104.977 22.0942 104.986 21.8525 105.124C21.7471 105.183 21.7646 105.348 21.8657 105.401C22.2832 105.607 22.8677 105.495 23.3072 105.446C23.8257 105.393 24.3443 105.303 24.8497 105.169C25.8693 104.906 26.8581 104.468 27.7634 103.918C28.6511 103.382 29.5432 102.712 30.198 101.89C30.8792 101.041 31.2571 100.045 31.4988 98.9859C31.7889 97.7215 31.991 96.3455 31.9251 95.0409C31.9251 94.965 31.8064 94.9516 31.7933 95.032L31.8064 95.0275Z" fill="#37474F"/>
<path d="M76.0048 136.626C75.9301 135.791 75.7718 134.951 75.4686 134.164C74.8358 132.516 73.4866 131.685 71.8562 131.265C69.9313 130.769 67.945 130.474 65.9849 130.152C63.9854 129.822 61.977 129.527 59.973 129.246C55.908 128.669 51.8341 128.138 47.7867 127.445C43.7568 126.757 39.7444 125.908 35.8332 124.706C32.2384 123.603 28.5469 122.236 25.6684 119.698C19.4719 114.239 19.2478 105.089 20.0036 97.4312C20.1091 96.3501 20.2409 95.2734 20.3684 94.1922C20.3772 94.1341 20.2893 94.1162 20.2849 94.1743C19.7927 98.4856 19.2258 102.824 19.6477 107.166C19.9905 110.714 21.0144 114.279 23.036 117.227C25.1322 120.288 28.2392 122.263 31.5924 123.643C35.2575 125.149 39.1336 126.163 42.9965 126.985C51.0299 128.696 59.226 129.42 67.3121 130.827C68.3097 131.001 69.3029 131.184 70.2961 131.381C71.2058 131.56 72.1375 131.73 72.99 132.114C74.827 132.949 75.35 134.763 75.5609 136.644C76.33 143.506 77.4726 174.74 77.4638 175.834C77.4638 175.933 77.6088 175.924 77.6132 175.825C77.8329 164.277 76.7738 145.445 76.0048 136.622V136.626Z" fill="#37474F"/>
<path d="M73.3988 150.468C73.3593 147.447 73.2714 148.774 73.2054 145.759C73.1439 142.913 73.2055 140.013 72.6605 137.203C72.4408 136.068 72.2386 134.572 71.0433 134.049C70.428 133.781 69.7469 133.638 69.1008 133.464C68.3977 133.276 67.6902 133.093 66.9782 132.936C63.6954 132.217 60.3774 131.766 57.0507 131.31C56.9892 131.301 56.9628 131.391 57.0287 131.404C59.8413 131.954 62.6539 132.516 65.4445 133.16C66.842 133.481 68.2351 133.821 69.615 134.205C70.1819 134.362 70.951 134.473 71.3509 134.951C71.764 135.447 71.8871 136.251 72.0277 136.859C72.6693 139.616 72.621 142.493 72.6957 145.303C72.7704 148.22 72.8407 146.791 72.9242 149.708C73.0165 152.978 73.1 156.262 73.3241 159.528C73.3285 159.613 73.4603 159.613 73.4603 159.528C73.5219 156.508 73.4428 153.488 73.3988 150.468Z" fill="#37474F"/>
<path d="M99.3363 177.876C98.5628 177.707 91.4742 177.599 89.9097 177.582C86.7807 177.546 76.9411 177.591 75.1788 177.783C75.1305 177.787 75.1305 177.868 75.1788 177.872C76.7477 178.055 83.0409 178.18 84.601 178.189C87.7344 178.207 98.4837 178.198 99.3363 178.019C99.411 178.002 99.411 177.894 99.3363 177.876Z" fill="#37474F"/>
<path d="M46.5751 101.412C52.1827 102.038 57.7595 103.32 63.1825 104.879C68.6538 106.452 74.0241 108.408 79.2098 110.776C82.1235 112.108 84.9404 113.595 87.7398 115.159C87.797 115.19 87.7398 115.271 87.6871 115.244C82.6684 112.586 77.4168 110.294 72.1036 108.328C66.8081 106.367 61.3851 104.754 55.8742 103.539C52.7715 102.851 49.6469 102.319 46.5179 101.787C46.3114 101.752 46.3685 101.39 46.5751 101.412Z" fill="#37474F"/>
<path d="M15.4945 101.649C15.5824 101.748 51.2846 99.0893 51.2846 99.0893L51.0297 96.7661C51.0297 96.7661 52.7304 94.9567 51.4164 90.1629C48.639 80.0168 43.093 59.7738 41.2252 57.5489C38.9532 54.8459 35.0068 54.0105 32.1019 55.7484C26.0065 59.394 16.9931 85.722 14.6112 91.9455C13.4378 95.0147 15.6703 96.9627 16.0263 98.4057C16.0263 98.4057 15.3802 101.529 15.4901 101.654L15.4945 101.649Z" fill="#E8CC76"/>
<path d="M49.5529 96.6095C34.699 97.2439 18.5574 98.41 17.261 98.477C17.1995 98.477 17.1995 98.5797 17.261 98.5753C32.8357 98.3563 48.2697 96.9356 49.5529 96.7524C49.6408 96.739 49.6452 96.605 49.5529 96.6095Z" fill="#263238"/>
<path d="M39.3129 64.107C37.1287 63.7139 34.6985 58.6967 34.4084 55.614C34.3908 55.404 35.4104 53.7108 36.5574 51.5931C37.2474 50.3064 37.9857 48.8589 38.5658 47.4873L46.1466 53.2774C46.1466 53.2774 44.0986 55.7882 43.1011 58.1874C43.0176 58.3884 42.9604 58.585 42.9209 58.7771C42.9121 58.8039 42.9077 58.8397 42.8945 58.8754C42.6133 60.0191 41.4267 64.4823 39.3129 64.107Z" fill="#FFC4C0"/>
<path d="M42.9211 58.7775C42.9123 58.8043 42.908 58.8356 42.8948 58.8713C42.6135 58.7998 42.3191 58.6837 42.0027 58.5452C37.1509 56.289 38.5792 49.6903 39.0802 47.8809L40.9743 49.3284L46.1468 53.2823C46.1468 53.2823 44.0945 55.7931 43.1013 58.1922C43.0178 58.3933 42.9563 58.5854 42.9167 58.7775H42.9211Z" fill="#263238"/>
<path d="M52.002 38.0566C52.002 38.0566 54.564 39.9152 54.419 42.9621C54.274 46.0091 52.9204 48.922 52.6392 49.0114C52.3579 49.1007 52.002 38.0566 52.002 38.0566Z" fill="#263238"/>
<path d="M38.65 38.7533C37.1646 41.8807 37.4283 51.6291 39.4059 54.1042C42.2712 57.6917 47.6766 58.8399 50.8539 55.1764C53.9346 51.6246 53.3721 38.9231 51.0956 36.5999C47.7469 33.1776 40.8385 34.1337 38.6456 38.7533H38.65Z" fill="#FFC4C0"/>
<path d="M46.8971 46.3487C46.8928 46.3219 46.8489 46.38 46.8489 46.4068C46.884 47.0635 46.8139 47.823 46.2353 48.0509C46.2178 48.0598 46.2178 48.0911 46.2397 48.0866C46.9497 47.9705 47.0286 46.9608 46.8928 46.3442L46.8971 46.3487Z" fill="#263238"/>
<path d="M46.3051 45.6779C45.2636 45.6198 45.2285 47.742 46.1953 47.7956C47.1445 47.8447 47.1797 45.7271 46.3051 45.6779Z" fill="#263238"/>
<path d="M50.6372 46.504C50.6416 46.4772 50.6854 46.5352 50.6854 46.5621C50.6547 47.2188 50.7292 47.9738 51.3078 48.2017C51.3253 48.2106 51.3253 48.2419 51.3034 48.2374C50.5934 48.1213 50.5057 47.116 50.6372 46.4995V46.504Z" fill="#263238"/>
<path d="M51.2216 45.8295C52.2631 45.7669 52.3114 47.8891 51.3446 47.9472C50.3954 48.0052 50.347 45.8831 51.2216 45.8295Z" fill="#263238"/>
<path d="M45.4793 44.3023C45.765 44.2442 46.0199 44.1369 46.3012 44.0521C46.6132 43.9538 46.8725 43.9046 47.0878 43.6321C47.2021 43.4847 47.1713 43.2121 47.0395 43.087C46.7406 42.7922 46.3275 42.819 45.9452 42.9217C45.5321 43.0334 45.2376 43.23 44.9871 43.5874C44.7454 43.9314 45.1014 44.3827 45.4793 44.3067V44.3023Z" fill="#263238"/>
<path d="M52.0103 44.0386C51.7202 43.985 51.4653 43.8867 51.1841 43.8063C50.8677 43.7125 50.6084 43.6722 50.3886 43.4042C50.27 43.2612 50.2964 42.9887 50.4238 42.8591C50.7182 42.5553 51.1313 42.5732 51.5181 42.667C51.9356 42.7698 52.23 42.9574 52.4893 43.3059C52.7398 43.641 52.3926 44.1056 52.0147 44.0341L52.0103 44.0386Z" fill="#263238"/>
<path d="M45.7427 52.0491C45.8877 52.2144 46.0239 52.4378 46.2569 52.4735C46.481 52.5092 46.7491 52.4244 46.96 52.3573C46.982 52.3529 46.9996 52.3752 46.9864 52.3931C46.8018 52.6343 46.437 52.7639 46.1426 52.6924C45.8525 52.6209 45.7295 52.3529 45.6768 52.0759C45.668 52.0357 45.7207 52.0267 45.7427 52.0491Z" fill="#263238"/>
<path d="M46.5558 50.1328C46.8767 50.727 47.3864 51.0755 47.9534 51.2319C48.2038 51.3033 48.4763 51.3301 48.74 51.3257C48.7927 51.3257 48.8455 51.3257 48.8938 51.3167C48.9421 51.3167 48.9861 51.3123 49.0344 51.3033C49.1091 51.2989 49.1575 51.2363 49.1751 51.1648C49.1751 51.138 49.1751 51.1157 49.1751 51.0934V51.0308C49.2278 50.526 49.2322 49.7575 49.2322 49.7575C49.408 49.8648 50.3045 50.3517 50.3045 50.0881C50.3265 47.8945 50.3528 45.4596 49.9178 43.2749C49.909 43.2035 49.7991 43.2124 49.7991 43.2839C49.6936 45.3881 49.9573 47.4969 49.887 49.6146C49.6013 49.4805 49.1311 49.2348 48.8718 49.2214C48.8015 49.2348 48.8894 50.7091 48.8499 50.937C48.8499 50.937 48.8499 50.9459 48.8455 50.9593C48.0061 51.0085 47.3952 50.7091 46.6218 50.0792C46.5778 50.039 46.5207 50.0792 46.5558 50.1328Z" fill="#263238"/>
<path d="M48.454 51.0483C48.454 51.0483 47.9794 51.6067 47.3773 51.772C47.1532 51.8346 46.9203 51.848 46.6786 51.7631C46.1864 51.5889 46.204 51.1198 46.327 50.7266C46.4237 50.4005 46.5951 50.1279 46.5951 50.1279C46.5951 50.1279 47.2807 50.883 48.454 51.0483Z" fill="#263238"/>
<path d="M47.3773 51.772C47.1532 51.8345 46.9203 51.8479 46.6786 51.7631C46.1864 51.5888 46.204 51.1197 46.327 50.7266C46.8632 50.8249 47.3729 51.2359 47.3773 51.772Z" fill="#FF9ABB"/>
<path d="M38.6458 47.5186C39.6873 47.8671 40.9618 44.695 41.3265 43.4709C41.6517 42.3942 42.0736 38.9585 42.1263 38.7262C42.1835 38.4939 46.6265 41.8759 49.2852 41.1477C51.944 40.4239 53.759 38.0516 53.8205 36.9302C53.882 35.8088 50.6652 32.8781 47.8306 32.6681C44.996 32.4581 41.076 36.0367 41.076 36.0367C41.076 36.0367 42.4164 34.4819 42.3724 34.3524C42.3329 34.2228 40.4827 34.9242 40.118 36.2422C40.118 36.2422 40.5179 34.5847 40.3773 34.549C40.241 34.5132 38.782 35.9116 39.0808 36.9972C39.0808 36.9972 37.4021 38.409 37.2131 39.9995C37.0241 41.5855 37.4153 47.1031 38.637 47.5141L38.6458 47.5186Z" fill="#263238"/>
<path d="M51.1751 40.6297C50.3621 40.9871 49.5491 41.3802 48.6613 41.4785C47.6989 41.5857 46.7101 41.3177 45.8268 40.9513C44.9215 40.5761 44.1041 40.0399 43.3614 39.3921C42.7154 38.8247 42.1441 38.1456 41.4497 37.6363C41.2783 37.5112 41.0674 37.7614 41.1728 37.9312C42.21 39.5887 44.0733 40.996 45.8839 41.626C47.7912 42.2872 49.6062 41.894 51.1883 40.652C51.197 40.6431 51.1883 40.6252 51.1795 40.6297H51.1751Z" fill="#263238"/>
<path d="M40.2718 46.8128C40.2718 46.8128 38.8039 43.3324 37.2922 43.806C35.7804 44.2751 36.4528 49.0108 37.9206 49.9535C39.3884 50.8917 40.2718 49.5246 40.2718 49.5246V46.8128Z" fill="#FFC4C0"/>
<path d="M37.517 45.1547C37.4906 45.1458 37.4774 45.1815 37.4994 45.1949C38.5233 45.8919 38.8925 47.0669 39.0815 48.2464C38.8354 47.7549 38.431 47.4288 37.7938 47.7147C37.7587 47.7281 37.7806 47.7817 37.8114 47.7817C38.2904 47.7817 38.6024 47.9292 38.8354 48.367C38.998 48.6753 39.0815 49.0416 39.1781 49.3812C39.2089 49.4928 39.4023 49.4794 39.3847 49.3543C39.3847 49.3454 39.3847 49.3365 39.3847 49.3275C39.7099 47.8889 39.0155 45.6283 37.517 45.1592V45.1547Z" fill="#263238"/>
<path d="M42.5833 60.203L40.1926 63.9201L35.4419 53.1709L33.9609 55.2082L38.1359 67.119L40.1442 64.4473L41.3396 67.0207L42.8338 62.3609L42.5833 60.203Z" fill="#EBEBEB"/>
<path d="M33.9609 55.208C35.2705 59.3004 36.6637 63.3615 38.0875 67.4092L38.2413 67.2037L40.2409 64.5231L40.03 64.5008L41.2473 67.0607L41.3528 67.2796C41.8625 65.6489 42.3459 64.0048 42.8294 62.3607C42.2976 63.9021 41.7571 65.4434 41.2429 66.9892L41.4187 66.9803L40.2541 64.3935L40.1706 64.2059L40.0431 64.3712L38.0216 67.0339L38.2633 67.0741C36.8746 63.1024 35.4595 59.1396 33.9609 55.2125V55.208Z" fill="#263238"/>
<path d="M30.653 62.7492C33.1712 73.3286 40.7739 91.6058 43.8062 93.9737C46.4914 96.069 59.8643 93.6386 65.7927 92.6691C68.012 92.3073 65.3708 76.9519 63.0065 77.3897C60.1719 77.9124 50.8509 78.663 50.284 78.1537C49.6599 77.5908 42.1626 66.5199 36.7045 59.8988C31.7605 53.8987 29.7038 58.7506 30.653 62.7492Z" fill="#FFC4C0"/>
<path d="M71.2852 76.5669C75.8732 76.826 77.0114 77.6123 80.9974 75.7403C83.6122 74.5117 85.5063 75.6823 83.6825 78.0993C80.6985 82.0532 74.7086 82.978 72.542 82.692L71.2852 76.5624V76.5669Z" fill="#FFC4C0"/>
<path d="M58.5796 78.5635C58.5796 78.5635 64.1476 76.7363 69.0609 76.5218C72.4623 76.3744 79.8937 76.8882 85.4222 85.551C86.7362 87.6061 87.1712 91.4796 83.8269 88.9151C81.4538 87.0923 80.4914 85.2114 78.9181 84.4072C78.9181 84.4072 78.8961 89.4021 76.8218 90.6575C75.8945 91.2204 73.3281 92.6903 71.1659 93.5481C71.1659 93.5481 70.8583 93.1192 70.5375 92.5205C70.5375 92.5205 68.4895 93.5079 65.1848 92.5071L58.5664 78.568L58.5796 78.5635Z" fill="#FFC4C0"/>
<path d="M72.326 76.9062C73.7191 78.041 76.6328 80.4893 78.3247 83.3397C80.21 86.5028 83.0006 93.1105 80.689 94.4999C78.9927 95.5186 77.7095 93.0926 77.7095 93.0926C77.7095 93.0926 78.2984 96.0725 76.5669 96.6533C74.9936 97.1805 74.1102 95.2416 74.1102 95.2416C74.1102 95.2416 74.1586 97.109 72.5457 97.3235C70.6033 97.5782 70.8186 93.6198 68.6301 92.1499C68.1379 91.8193 72.3216 76.9062 72.3216 76.9062H72.326Z" fill="#FFC4C0"/>
<path d="M74.7083 84.8053C75.8465 86.0875 77.6967 89.6795 77.7494 93.0258C77.7494 93.1017 77.6967 93.1419 77.6791 93.0749C76.8485 89.4025 75.3807 86.1634 74.6775 84.8231C74.6687 84.8052 74.6951 84.7918 74.7083 84.8053Z" fill="#263238"/>
<path d="M71.6229 86.8297C72.493 88.0404 74.2333 91.8245 74.1761 95.2199C74.1761 95.2959 74.1146 95.3316 74.1014 95.2646C73.3895 91.3912 72.2117 88.2236 71.5877 86.8475C71.5789 86.8297 71.6053 86.8163 71.6185 86.8297H71.6229Z" fill="#263238"/>
<path d="M64.4427 95.5011L61.5511 76.4599L50.6171 77.6036C46.7411 72.3183 38.9845 61.7523 35.7632 58.5043C31.9838 54.6979 29.1361 57.1149 30.2215 62.5163C32.7001 74.8649 41.2126 93.3566 43.6824 95.2598C47.2201 97.9896 64.4471 95.5011 64.4471 95.5011H64.4427Z" fill="#E8CC76"/>
<path d="M60.0797 94.7096C59.6754 93.4765 58.8492 88.1823 58.6558 86.8599C58.4669 85.5643 57.8736 80.2075 57.6802 78.8494C57.6714 78.7734 57.7725 78.7377 57.7813 78.8136C57.9923 80.1539 60.1676 93.3827 60.1456 94.6962C60.1456 94.7409 60.0929 94.7498 60.0797 94.7096Z" fill="#263238"/>
<path d="M51.1978 96.5375C49.6641 96.5822 48.1216 96.5285 46.5922 96.332C45.643 96.1935 44.641 96.0326 43.7928 95.5144C43.3006 95.1704 42.9271 94.6879 42.5667 94.2188C39.1037 89.0586 36.9855 83.0407 34.7354 77.264C33.6631 74.3376 32.6304 71.3979 31.7031 68.418C32.7051 71.0226 34.0411 74.5878 35.0562 77.1344C37.403 82.8619 39.5036 88.795 42.8216 94.0267C43.2743 94.6432 43.7269 95.2821 44.4301 95.5501C45.12 95.8495 45.8759 96.0014 46.623 96.1354C48.1304 96.39 49.6685 96.4883 51.1978 96.533V96.5375Z" fill="#263238"/>
<path d="M32.6953 71.3528C32.2779 70.8166 31.8779 70.2403 31.6934 69.5791C32.0054 70.1733 32.4097 70.7452 32.6953 71.3528Z" fill="#263238"/>
<path d="M42.1094 66.3892C45.067 69.8874 47.5675 73.7743 50.5032 77.2903C50.5471 77.3484 50.6174 77.3976 50.657 77.4422C51.1448 77.4646 51.7117 77.3976 52.2435 77.3574L55.3417 77.0536L61.5469 76.437H61.5645V76.4504L61.6216 76.9731L61.5338 76.4549L61.5513 76.4683C58.207 76.9642 54.8583 77.4288 51.4876 77.7282C51.1712 77.7461 50.8811 77.7952 50.5559 77.7461C50.4285 77.688 50.3581 77.5986 50.2703 77.5137C47.3478 74.0334 44.8385 70.017 42.1094 66.3848V66.3892Z" fill="#263238"/>
<path d="M42.8613 66.6123C43.2129 67.1931 43.5469 67.8186 43.6524 68.4977C43.4107 67.8677 43.0767 67.2512 42.8613 66.6123Z" fill="#263238"/>
<path d="M152.263 37.8049C158.292 29.1837 156.305 17.2262 147.824 11.0971C139.344 4.96806 127.582 6.98838 121.553 15.6096C115.524 24.2308 117.511 36.1883 125.992 42.3174C134.472 48.4464 146.234 46.4261 152.263 37.8049Z" fill="#E8CC76"/>
<path opacity="0.1" d="M155.704 28.2598C156.317 18.1873 148.782 9.51678 138.874 8.89366C128.966 8.27054 120.438 15.9308 119.825 26.0033C119.212 36.0758 126.747 44.7463 136.655 45.3695C146.563 45.9926 155.091 38.3323 155.704 28.2598Z" fill="black"/>
<path d="M154.499 29.2199C155.631 19.835 149.065 11.2943 139.833 10.1436C130.602 8.99298 122.201 15.6681 121.069 25.053C119.937 34.4379 126.503 42.9787 135.735 44.1293C144.966 45.28 153.367 38.6048 154.499 29.2199Z" fill="white"/>
<path opacity="0.5" d="M154.235 23.5006C146.566 28.223 133.962 35.9744 126.918 40.2186C124.94 38.5209 123.354 36.372 122.316 33.9282L145.612 11.9785C149.95 14.3017 153.167 18.4924 154.23 23.5006H154.235Z" fill="#EBEBEB"/>
<path opacity="0.5" d="M154.604 27.7324C154.538 29.6893 154.152 31.5612 153.492 33.2947L132.49 43.3916C131.567 43.0833 130.68 42.6946 129.836 42.2345C136.182 38.5084 147.775 31.7265 154.604 27.7324Z" fill="#EBEBEB"/>
<path d="M137.934 11.2549H137.609V13.8506H137.934V11.2549Z" fill="#263238"/>
<path d="M130.101 13.295L129.82 13.46L131.096 15.7065L131.377 15.5415L130.101 13.295Z" fill="#263238"/>
<path d="M124.323 19.0496L124.16 19.3359L126.371 20.6338L126.534 20.3475L124.323 19.0496Z" fill="#263238"/>
<path d="M124.71 26.9678H122.156V27.2984H124.71V26.9678Z" fill="#263238"/>
<path d="M126.379 33.6328L124.168 34.9307L124.331 35.217L126.542 33.9191L126.379 33.6328Z" fill="#263238"/>
<path d="M131.095 38.5546L129.82 40.8018L130.101 40.9666L131.376 38.7194L131.095 38.5546Z" fill="#263238"/>
<path d="M137.934 40.416H137.609V43.0117H137.934V40.416Z" fill="#263238"/>
<path d="M144.445 38.5557L144.164 38.7207L145.44 40.9672L145.721 40.8022L144.445 38.5557Z" fill="#263238"/>
<path d="M149.163 33.6229L149 33.9092L151.211 35.207L151.374 34.9207L149.163 33.6229Z" fill="#263238"/>
<path d="M153.389 26.9678H150.836V27.2984H153.389V26.9678Z" fill="#263238"/>
<path d="M151.211 19.042L149 20.3398L149.163 20.6262L151.374 19.3283L151.211 19.042Z" fill="#263238"/>
<path d="M145.443 13.3026L144.168 15.5498L144.449 15.7146L145.724 13.4674L145.443 13.3026Z" fill="#263238"/>
<path d="M138.018 12.4302L138.572 28.2905L136.977 28.2681L137.583 12.4258L138.018 12.4302Z" fill="#455A64"/>
<path d="M147.736 21.6016L137.241 28.4103L136.477 26.9851L147.529 21.2129L147.736 21.6016Z" fill="#263238"/>
<path d="M138.324 27.1331C138.324 27.4414 138.078 27.6871 137.779 27.6871C137.48 27.6871 137.234 27.4369 137.234 27.1331C137.234 26.8293 137.48 26.5791 137.779 26.5791C138.078 26.5791 138.324 26.8293 138.324 27.1331Z" fill="#E8CC76"/>
<path d="M127.687 95.4883H45.5859V98.0706H127.687V95.4883Z" fill="#455A64"/>
<path d="M125.533 156.455H47.7344V159.037H125.533V156.455Z" fill="#455A64"/>
<path d="M123.094 98.0752H50.1738V103.459H123.094V98.0752Z" fill="#37474F"/>
<path d="M42.5752 197.553H40.7031L53.8871 103.459H59.0728L42.5752 197.553Z" fill="#455A64"/>
<path d="M130.697 197.553H132.569L119.385 103.459H114.199L130.697 197.553Z" fill="#455A64"/>
<path d="M146.137 98.0752L228.238 98.0752V95.4929L146.137 95.4929V98.0752Z" fill="#455A64"/>
<path d="M148.287 159.036H226.086V156.454H148.287V159.036Z" fill="#455A64"/>
<path d="M150.728 103.454L223.648 103.454V98.0706L150.728 98.0706V103.454Z" fill="#37474F"/>
<path d="M231.251 197.552H233.124L219.94 103.458H214.754L231.251 197.552Z" fill="#455A64"/>
<path d="M143.126 197.552H141.254L154.438 103.458H159.624L143.126 197.552Z" fill="#455A64"/>
<path d="M113.729 95.4875H89.1719V93.8836L110.227 92.7845L103.063 66.6531H100.049V63.9502H105.085L113.729 95.4875Z" fill="#DBDBDB"/>
<path d="M102.683 63.9502L101.733 66.6576H100.055V63.9502H102.683Z" fill="#C7C7C7"/>
<path d="M101.136 36.7641L98.4375 36.2666L89.1361 88.4026L91.8344 88.9001L101.136 36.7641Z" fill="#C7C7C7"/>
<path d="M103.957 49.7879L98.9777 77.6974L91.832 88.9023L101.136 36.7646L103.957 49.7879Z" fill="#DBDBDB"/>
<path d="M84.1003 95.4883V92.6514L59.543 93.8844V95.4883H84.1003Z" fill="#DBDBDB"/>
<path d="M160.094 95.4875H184.655V93.8836L163.596 92.7845L170.76 66.6531H173.774V63.9502H168.742L160.094 95.4875Z" fill="#DBDBDB"/>
<path d="M171.141 63.9502L172.09 66.6576H173.773V63.9502H171.141Z" fill="#C7C7C7"/>
<path d="M181.993 88.9077L184.691 88.4102L175.39 36.2742L172.692 36.7717L181.993 88.9077Z" fill="#C7C7C7"/>
<path d="M169.871 49.7879L174.85 77.6974L181.992 88.9023L172.692 36.7646L169.871 49.7879Z" fill="#DBDBDB"/>
<path d="M189.723 95.4874V92.6504L214.28 93.8835V95.4874H189.723Z" fill="#DBDBDB"/>
<path d="M159.803 95.5186H175.422V91.8863H159.803V95.5186Z" fill="#263238"/>
<path d="M151.288 95.5186H159.805V91.8863H151.288V95.5186Z" fill="#263238"/>
<path d="M159.803 95.1436H175.422V92.2664H159.803V95.1436Z" fill="white"/>
<path d="M174.413 94.5492C173.195 94.5627 171.978 94.5761 170.761 94.5806L167.109 94.5896L163.457 94.5806C162.239 94.5761 161.022 94.5627 159.805 94.5492C161.022 94.5357 162.239 94.5223 163.457 94.5178L167.109 94.5088L170.761 94.5178C171.978 94.5223 173.195 94.5357 174.413 94.5492Z" fill="#DBDBDB"/>
<path d="M174.413 93.9867C173.195 94.0002 171.978 94.0137 170.761 94.0181L167.109 94.0271L163.457 94.0181C162.239 94.0137 161.022 94.0002 159.805 93.9867C161.022 93.9732 162.239 93.9598 163.457 93.9553L167.109 93.9463L170.761 93.9553C171.978 93.9598 173.195 93.9732 174.413 93.9867Z" fill="#DBDBDB"/>
<path d="M174.413 93.4193C173.195 93.4328 171.978 93.4463 170.761 93.4508L167.109 93.4597L163.457 93.4508C162.239 93.4463 161.022 93.4328 159.805 93.4193C161.022 93.4059 162.239 93.3924 163.457 93.3879L167.109 93.3789L170.761 93.3879C171.978 93.3924 173.195 93.4059 174.413 93.4193Z" fill="#DBDBDB"/>
<path d="M174.413 92.8558C173.195 92.8693 171.978 92.8828 170.761 92.8873L167.109 92.8963L163.457 92.8873C162.239 92.8828 161.022 92.8693 159.805 92.8558C161.022 92.8424 162.239 92.8289 163.457 92.8244L167.109 92.8154L170.761 92.8244C171.978 92.8289 173.195 92.8424 174.413 92.8558Z" fill="#DBDBDB"/>
<path d="M172.774 93.2038V95.6253L171.355 94.419L169.935 95.6253V93.2038C169.935 92.9983 169.772 92.833 169.57 92.833H172.414C172.616 92.833 172.778 92.9983 172.778 93.2038H172.774Z" fill="#E8CC76"/>
<path d="M175.5 89.2871H149.527V91.8918H175.5V89.2871Z" fill="#37474F"/>
<path d="M172.746 89.2861H170.324V91.8908H172.746V89.2861Z" fill="#455A64"/>
<path d="M168.737 89.2861H167.797V91.8908H168.737V89.2861Z" fill="#455A64"/>
<path d="M162.649 89.2861H178.812V85.2652H162.649V89.2861Z" fill="#E8CC76"/>
<path d="M150.308 89.2861H162.652V85.2652H150.308V89.2861Z" fill="#E8CC76"/>
<path opacity="0.2" d="M150.308 89.2861H162.652V85.2652H150.308V89.2861Z" fill="black"/>
<path d="M163.185 88.8662H178.816V85.6808H163.185V88.8662Z" fill="white"/>
<path d="M177.801 88.2103C176.584 88.2328 175.367 88.2508 174.145 88.2597L170.488 88.2732L166.832 88.2597C165.615 88.2508 164.397 88.2373 163.176 88.2103C164.393 88.1879 165.61 88.1699 166.832 88.1609L170.488 88.1475L174.145 88.1609C175.362 88.1699 176.579 88.1834 177.801 88.2103Z" fill="#DBDBDB"/>
<path d="M177.801 87.5844C176.584 87.6068 175.367 87.6248 174.145 87.6338L170.488 87.6472L166.832 87.6338C165.615 87.6248 164.397 87.6113 163.176 87.5844C164.393 87.5619 165.61 87.5439 166.832 87.535L170.488 87.5215L174.145 87.535C175.362 87.5439 176.579 87.5574 177.801 87.5844Z" fill="#DBDBDB"/>
<path d="M177.801 86.9584C176.584 86.9808 175.367 86.9988 174.145 87.0078L170.488 87.0213L166.832 87.0078C165.615 86.9988 164.397 86.9853 163.176 86.9584C164.393 86.9359 165.61 86.918 166.832 86.909L170.488 86.8955L174.145 86.909C175.362 86.918 176.579 86.9314 177.801 86.9584Z" fill="#DBDBDB"/>
<path d="M177.801 86.3334C176.584 86.3558 175.367 86.3738 174.145 86.3828L170.488 86.3963L166.832 86.3828C165.615 86.3738 164.397 86.3558 163.176 86.3334C164.393 86.3109 165.61 86.293 166.832 86.284L170.488 86.2705L174.145 86.284C175.362 86.293 176.579 86.3064 177.801 86.3334Z" fill="#DBDBDB"/>
<path d="M166.147 81.2402H151.961V85.2611H166.147V81.2402Z" fill="#455A64"/>
<path d="M174.183 81.2402H166.141V85.2611H174.183V81.2402Z" fill="#455A64"/>
<path d="M166.147 81.6553H151.961V84.8407H166.147V81.6553Z" fill="white"/>
<path d="M152.879 82.3129C153.986 82.2904 155.089 82.2725 156.197 82.2635L159.515 82.25L162.833 82.2635C163.94 82.2725 165.043 82.2859 166.151 82.3129C165.043 82.3353 163.94 82.3533 162.833 82.3623L159.515 82.3757L156.197 82.3623C155.089 82.3533 153.986 82.3398 152.879 82.3129Z" fill="#DBDBDB"/>
<path d="M152.879 82.9379C153.986 82.9154 155.089 82.8975 156.197 82.8885L159.515 82.875L162.833 82.8885C163.94 82.8975 165.043 82.9109 166.151 82.9379C165.043 82.9603 163.94 82.9783 162.833 82.9873L159.515 83.0007L156.197 82.9873C155.089 82.9783 153.986 82.9648 152.879 82.9379Z" fill="#DBDBDB"/>
<path d="M152.879 83.5638C153.986 83.5414 155.089 83.5234 156.197 83.5144L159.515 83.501L162.833 83.5144C163.94 83.5234 165.043 83.5369 166.151 83.5638C165.043 83.5863 163.94 83.6043 162.833 83.6133L159.515 83.6267L156.197 83.6133C155.089 83.6043 153.986 83.5908 152.879 83.5638Z" fill="#DBDBDB"/>
<path d="M152.879 84.1888C153.986 84.1664 155.089 84.1484 156.197 84.1394L159.515 84.126L162.833 84.1394C163.94 84.1484 165.043 84.1664 166.151 84.1888C165.043 84.2113 163.94 84.2293 162.833 84.2383L159.515 84.2517L156.197 84.2383C155.089 84.2293 153.986 84.2158 152.879 84.1888Z" fill="#DBDBDB"/>
<path d="M154.875 82.6833V86.2843L156.295 85.078L157.714 86.2843V82.6833C157.714 82.4778 157.877 82.3125 158.079 82.3125H155.236C155.034 82.3125 154.871 82.4778 154.871 82.6833H154.875Z" fill="#263238"/>
<path d="M86.9193 47.6172H66.2645H59.3165V51.1064H55.6602L59.3165 54.8235V64.0001H86.9193V61.7261V47.6172Z" fill="white"/>
<path d="M86.9184 47.6171C86.9096 47.559 58.8541 47.9075 59.4254 47.6171L59.4562 51.1064V51.2493H59.3112L55.6548 51.2717L55.7691 50.9902L59.443 54.6894L59.4957 54.743V54.8235L59.5177 64.0045L59.3068 63.7901C66.1844 63.7811 80.0364 63.8079 86.9096 63.8258L86.7382 64C86.7558 59.9166 86.8569 51.6961 86.9096 47.6126L86.9184 47.6171ZM86.9184 47.6171C86.9711 51.7899 87.0722 60.0015 87.0942 64.1788C80.1199 64.1966 66.2855 64.2234 59.3155 64.219H59.1046V64.0045L59.1266 54.8235L59.1793 54.9575L55.5405 51.2225L55.2637 50.9366H55.6592L59.3155 50.9589L59.1705 51.1064L59.2013 47.6171V47.5009C59.2716 47.4652 86.8305 47.6394 86.9184 47.6171Z" fill="#263238"/>
<path d="M77.752 55.8065C77.752 56.4945 78.3013 57.0485 78.9737 57.0485C79.6461 57.0485 80.1954 56.49 80.1954 55.8065C80.1954 55.1229 79.6461 54.5645 78.9737 54.5645C78.3013 54.5645 77.752 55.1229 77.752 55.8065Z" fill="#263238"/>
<path d="M71.6484 55.8065C71.6484 56.4945 72.1978 57.0485 72.8702 57.0485C73.5425 57.0485 74.0919 56.49 74.0919 55.8065C74.0919 55.1229 73.5425 54.5645 72.8702 54.5645C72.1978 54.5645 71.6484 55.1229 71.6484 55.8065Z" fill="#263238"/>
<path d="M65.5391 55.8065C65.5391 56.4945 66.0884 57.0485 66.7608 57.0485C67.4332 57.0485 67.9825 56.49 67.9825 55.8065C67.9825 55.1229 67.4332 54.5645 66.7608 54.5645C66.0884 54.5645 65.5391 55.1229 65.5391 55.8065Z" fill="#263238"/>
</svg>
