<svg width="32" height="32" viewBox="0 0 32 32" fill="none" xmlns="http://www.w3.org/2000/svg">
<g clip-path="url(#clip0_2989_51586)">
<rect width="32" height="32" rx="16" fill="#EF4444"/>
<g filter="url(#filter0_f_2989_51586)">
<circle cx="27.2046" cy="23.5688" r="8.72727" transform="rotate(13.1063 27.2046 23.5688)" fill="#8554C5"/>
</g>
<g filter="url(#filter1_f_2989_51586)">
<circle cx="7.56784" cy="9.02579" r="8.72727" transform="rotate(13.1063 7.56784 9.02579)" fill="#156374"/>
</g>
<path d="M10.8175 8.94253L8.31754 11.4425C8.20026 11.5598 8.0412 11.6257 7.87535 11.6257C7.7095 11.6257 7.55044 11.5598 7.43316 11.4425C7.31588 11.3253 7.25 11.1662 7.25 11.0003C7.25 10.8345 7.31588 10.6754 7.43316 10.5582L9.93316 8.05816C10.0504 7.94088 10.2095 7.875 10.3753 7.875C10.5412 7.875 10.7003 7.94088 10.8175 8.05816C10.9348 8.17544 11.0007 8.33449 11.0007 8.50035C11.0007 8.6662 10.9348 8.82526 10.8175 8.94253ZM24.5675 10.5582L22.0675 8.05816C21.9503 7.94088 21.7912 7.875 21.6253 7.875C21.4595 7.875 21.3004 7.94088 21.1832 8.05816C21.0659 8.17544 21 8.33449 21 8.50035C21 8.6662 21.0659 8.82526 21.1832 8.94253L23.6832 11.4425C23.7412 11.5006 23.8102 11.5467 23.886 11.5781C23.9619 11.6095 24.0432 11.6257 24.1253 11.6257C24.2075 11.6257 24.2888 11.6095 24.3647 11.5781C24.4405 11.5467 24.5095 11.5006 24.5675 11.4425C24.6256 11.3845 24.6717 11.3155 24.7031 11.2397C24.7345 11.1638 24.7507 11.0825 24.7507 11.0003C24.7507 10.9182 24.7345 10.8369 24.7031 10.761C24.6717 10.6852 24.6256 10.6162 24.5675 10.5582ZM23.5003 16.6253C23.5003 18.1087 23.0605 19.5588 22.2364 20.7921C21.4123 22.0255 20.2409 22.9868 18.8705 23.5544C17.5 24.1221 15.992 24.2706 14.5372 23.9812C13.0823 23.6918 11.7459 22.9775 10.697 21.9286C9.64815 20.8798 8.93385 19.5434 8.64446 18.0885C8.35507 16.6337 8.50359 15.1257 9.07125 13.7552C9.63891 12.3848 10.6002 11.2134 11.8336 10.3893C13.0669 9.56521 14.517 9.12535 16.0003 9.12535C17.9888 9.12762 19.8951 9.91853 21.3011 11.3246C22.7072 12.7306 23.4981 14.6369 23.5003 16.6253ZM21.0003 16.6253C21.0003 16.4596 20.9345 16.3006 20.8173 16.1834C20.7001 16.0662 20.5411 16.0003 20.3753 16.0003H16.6253V12.2503C16.6253 12.0846 16.5595 11.9256 16.4423 11.8084C16.3251 11.6912 16.1661 11.6253 16.0003 11.6253C15.8346 11.6253 15.6756 11.6912 15.5584 11.8084C15.4412 11.9256 15.3753 12.0846 15.3753 12.2503V16.6253C15.3753 16.7911 15.4412 16.9501 15.5584 17.0673C15.6756 17.1845 15.8346 17.2503 16.0003 17.2503H20.3753C20.5411 17.2503 20.7001 17.1845 20.8173 17.0673C20.9345 16.9501 21.0003 16.7911 21.0003 16.6253Z" fill="#FFE082"/>
</g>
<defs>
<filter id="filter0_f_2989_51586" x="3.93111" y="0.29439" width="46.5479" height="46.5499" filterUnits="userSpaceOnUse" color-interpolation-filters="sRGB">
<feFlood flood-opacity="0" result="BackgroundImageFix"/>
<feBlend mode="normal" in="SourceGraphic" in2="BackgroundImageFix" result="shape"/>
<feGaussianBlur stdDeviation="7.27273" result="effect1_foregroundBlur_2989_51586"/>
</filter>
<filter id="filter1_f_2989_51586" x="-15.7056" y="-14.2486" width="46.5479" height="46.5499" filterUnits="userSpaceOnUse" color-interpolation-filters="sRGB">
<feFlood flood-opacity="0" result="BackgroundImageFix"/>
<feBlend mode="normal" in="SourceGraphic" in2="BackgroundImageFix" result="shape"/>
<feGaussianBlur stdDeviation="7.27273" result="effect1_foregroundBlur_2989_51586"/>
</filter>
<clipPath id="clip0_2989_51586">
<rect width="32" height="32" rx="16" fill="white"/>
</clipPath>
</defs>
</svg>
