<svg width="70" height="45" viewBox="0 0 70 45" fill="none" xmlns="http://www.w3.org/2000/svg">
<path d="M65 -0.959375V-10.5C65 -11.8261 64.4732 -13.0979 63.5355 -14.0355C62.5979 -14.9732 61.3261 -15.5 60 -15.5H5C3.67392 -15.5 2.40215 -14.9732 1.46447 -14.0355C0.526784 -13.0979 0 -11.8261 0 -10.5V29.5C0 30.8261 0.526784 32.0979 1.46447 33.0355C2.40215 33.9732 3.67392 34.5 5 34.5H42.5V42C42.496 42.4407 42.6087 42.8747 42.8265 43.2579C43.0443 43.6411 43.3595 43.9599 43.7402 44.1819C44.1209 44.404 44.5536 44.5215 44.9944 44.5225C45.4351 44.5235 45.8683 44.4079 46.25 44.1875L53.75 39.8937L61.25 44.1875C61.6317 44.4079 62.0649 44.5235 62.5056 44.5225C62.9464 44.5215 63.3791 44.404 63.7598 44.1819C64.1405 43.9599 64.4557 43.6411 64.6735 43.2579C64.8913 42.8747 65.004 42.4407 65 42V22.4594C66.5804 20.946 67.838 19.1284 68.6972 17.116C69.5564 15.1036 69.9993 12.9381 69.9993 10.75C69.9993 8.56188 69.5564 6.39641 68.6972 4.38403C67.838 2.37165 66.5804 0.554013 65 -0.959375ZM32.5 17H15C14.337 17 13.7011 16.7366 13.2322 16.2678C12.7634 15.7989 12.5 15.163 12.5 14.5C12.5 13.837 12.7634 13.2011 13.2322 12.7322C13.7011 12.2634 14.337 12 15 12H32.5C33.163 12 33.7989 12.2634 34.2678 12.7322C34.7366 13.2011 35 13.837 35 14.5C35 15.163 34.7366 15.7989 34.2678 16.2678C33.7989 16.7366 33.163 17 32.5 17ZM32.5 7H15C14.337 7 13.7011 6.73661 13.2322 6.26777C12.7634 5.79893 12.5 5.16304 12.5 4.5C12.5 3.83696 12.7634 3.20107 13.2322 2.73223C13.7011 2.26339 14.337 2 15 2H32.5C33.163 2 33.7989 2.26339 34.2678 2.73223C34.7366 3.20107 35 3.83696 35 4.5C35 5.16304 34.7366 5.79893 34.2678 6.26777C33.7989 6.73661 33.163 7 32.5 7ZM60 37.6906L55 34.8281C54.6222 34.6122 54.1946 34.4986 53.7594 34.4986C53.3242 34.4986 52.8966 34.6122 52.5187 34.8281L47.5187 37.6906V25.75C49.4986 26.5772 51.623 27.0031 53.7687 27.0031C55.9145 27.0031 58.0389 26.5772 60.0187 25.75L60 37.6906ZM53.75 22C51.525 22 49.3499 21.3402 47.4998 20.104C45.6498 18.8679 44.2078 17.1109 43.3564 15.0552C42.5049 12.9995 42.2821 10.7375 42.7162 8.55523C43.1502 6.37295 44.2217 4.36839 45.795 2.79505C47.3684 1.22171 49.3729 0.150248 51.5552 -0.283835C53.7375 -0.717919 55.9995 -0.495132 58.0552 0.356354C60.1109 1.20784 61.8679 2.64978 63.104 4.49984C64.3402 6.34989 65 8.52496 65 10.75C65 12.2274 64.709 13.6903 64.1436 15.0552C63.5783 16.4201 62.7496 17.6603 61.705 18.705C60.6603 19.7496 59.4201 20.5783 58.0552 21.1436C56.6903 21.709 55.2274 22 53.75 22Z" fill="#93B7BF"/>
</svg>
