<svg width="80" height="42" viewBox="0 0 80 42" fill="none" xmlns="http://www.w3.org/2000/svg">
<path d="M79.4662 5.72144L71.4912 -10.2348C71.1974 -10.8221 70.7908 -11.3458 70.2946 -11.7759C69.7984 -12.206 69.2223 -12.5342 68.5993 -12.7417C67.9763 -12.9492 67.3184 -13.0319 66.6634 -12.9852C66.0084 -12.9384 65.369 -12.7631 64.7818 -12.4692L57.0099 -8.58481L40.638 -12.9161C40.218 -13.0254 39.7769 -13.0254 39.3568 -12.9161L22.9849 -8.58481L15.213 -12.4692C14.6258 -12.7631 13.9864 -12.9384 13.3314 -12.9852C12.6764 -13.0319 12.0186 -12.9492 11.3956 -12.7417C10.7725 -12.5342 10.1965 -12.206 9.70026 -11.7759C9.20407 -11.3458 8.79746 -10.8221 8.50367 -10.2348L0.528672 5.71832C0.234784 6.30556 0.059454 6.94495 0.012693 7.59996C-0.034068 8.25497 0.0486565 8.91277 0.256142 9.53581C0.463628 10.1588 0.79181 10.7349 1.22195 11.2311C1.65209 11.7273 2.17575 12.1339 2.76305 12.4277L11.2005 16.6496L28.5412 29.0339C28.7967 29.2157 29.0839 29.3482 29.388 29.4246L49.388 34.4246C49.8069 34.5296 50.2458 34.5244 50.662 34.4094C51.0782 34.2944 51.4576 34.0735 51.763 33.7683L64.263 21.2683L68.9755 16.5558L77.2318 12.4277C78.4171 11.8343 79.3182 10.7946 79.7372 9.5371C80.1562 8.27957 80.0587 6.90712 79.4662 5.72144ZM62.313 16.1496L51.5599 7.53707C51.0782 7.15128 50.4708 6.95731 49.8546 6.99251C49.2385 7.0277 48.6571 7.28956 48.2224 7.72769C42.6568 13.3339 36.4537 12.6246 32.4974 10.1246L46.0099 -3.00043H55.9505L64.4537 14.0027L62.313 16.1496ZM49.2287 29.2308L31.0662 24.6902L15.6912 13.7089L24.4412 -3.79106L39.9974 -7.91293L43.0599 -7.10356L28.9974 6.54644L28.9724 6.57457C28.4431 7.10392 28.0393 7.74539 27.791 8.45163C27.5427 9.15787 27.4561 9.91085 27.5377 10.655C27.6193 11.3992 27.867 12.1155 28.2624 12.7512C28.6578 13.3868 29.1909 13.9256 29.8224 14.3277C36.2474 18.4308 44.0005 17.7652 50.1068 12.7652L58.7474 19.7058L49.2287 29.2308ZM41.1912 40.1058C41.0561 40.6461 40.7445 41.1259 40.3057 41.469C39.867 41.812 39.3263 41.9988 38.7693 41.9996C38.5639 41.9993 38.3593 41.9741 38.1599 41.9246L25.1255 38.6652C24.821 38.59 24.5335 38.4575 24.2787 38.2746L16.0443 32.3933C15.538 31.9958 15.2045 31.4183 15.1134 30.781C15.0222 30.1438 15.1804 29.496 15.5549 28.9724C15.9294 28.4489 16.4915 28.09 17.124 27.9705C17.7565 27.8509 18.4108 27.98 18.9505 28.3308L26.7974 33.9371L39.3724 37.0746C40.0155 37.2354 40.5684 37.6452 40.9095 38.2136C41.2505 38.782 41.3519 39.4627 41.1912 40.1058Z" fill="#93B7BF"/>
</svg>
