<svg width="60" height="42" viewBox="0 0 60 42" fill="none" xmlns="http://www.w3.org/2000/svg">
<path d="M55 -18H5C3.67392 -18 2.40215 -17.4732 1.46447 -16.5355C0.526784 -15.5979 0 -14.3261 0 -13V37C0 38.3261 0.526784 39.5979 1.46447 40.5355C2.40215 41.4732 3.67392 42 5 42H55C56.3261 42 57.5979 41.4732 58.5355 40.5355C59.4732 39.5979 60 38.3261 60 37V-13C60 -14.3261 59.4732 -15.5979 58.5355 -16.5355C57.5979 -17.4732 56.3261 -18 55 -18ZM26.7688 18.7688L16.7688 28.7688C16.5366 29.0012 16.2608 29.1856 15.9574 29.3114C15.6539 29.4372 15.3285 29.502 15 29.502C14.6715 29.502 14.3461 29.4372 14.0426 29.3114C13.7392 29.1856 13.4634 29.0012 13.2312 28.7688L8.23125 23.7688C7.76215 23.2996 7.49861 22.6634 7.49861 22C7.49861 21.3366 7.76215 20.7004 8.23125 20.2312C8.70035 19.7621 9.33659 19.4986 10 19.4986C10.6634 19.4986 11.2996 19.7621 11.7688 20.2312L15 23.4656L23.2312 15.2312C23.7004 14.7621 24.3366 14.4986 25 14.4986C25.6634 14.4986 26.2996 14.7621 26.7688 15.2312C27.2379 15.7004 27.5014 16.3366 27.5014 17C27.5014 17.6634 27.2379 18.2996 26.7688 18.7688ZM26.7688 -1.23125L16.7688 8.76875C16.5366 9.00119 16.2608 9.18559 15.9574 9.3114C15.6539 9.43721 15.3285 9.50197 15 9.50197C14.6715 9.50197 14.3461 9.43721 14.0426 9.3114C13.7392 9.18559 13.4634 9.00119 13.2312 8.76875L8.23125 3.76875C7.99897 3.53648 7.81472 3.26072 7.68902 2.95724C7.56331 2.65376 7.49861 2.32849 7.49861 2C7.49861 1.33659 7.76215 0.700351 8.23125 0.231249C8.70035 -0.237853 9.33659 -0.50139 10 -0.50139C10.6634 -0.50139 11.2996 -0.237853 11.7688 0.231249L15 3.46563L23.2312 -4.76875C23.7004 -5.23785 24.3366 -5.50139 25 -5.50139C25.6634 -5.50139 26.2996 -5.23785 26.7688 -4.76875C27.2379 -4.29965 27.5014 -3.66341 27.5014 -3C27.5014 -2.33659 27.2379 -1.70035 26.7688 -1.23125ZM50 24.5H35C34.337 24.5 33.7011 24.2366 33.2322 23.7678C32.7634 23.2989 32.5 22.663 32.5 22C32.5 21.337 32.7634 20.7011 33.2322 20.2322C33.7011 19.7634 34.337 19.5 35 19.5H50C50.663 19.5 51.2989 19.7634 51.7678 20.2322C52.2366 20.7011 52.5 21.337 52.5 22C52.5 22.663 52.2366 23.2989 51.7678 23.7678C51.2989 24.2366 50.663 24.5 50 24.5ZM50 4.5H35C34.337 4.5 33.7011 4.23661 33.2322 3.76777C32.7634 3.29893 32.5 2.66304 32.5 2C32.5 1.33696 32.7634 0.701074 33.2322 0.232234C33.7011 -0.236607 34.337 -0.5 35 -0.5H50C50.663 -0.5 51.2989 -0.236607 51.7678 0.232234C52.2366 0.701074 52.5 1.33696 52.5 2C52.5 2.66304 52.2366 3.29893 51.7678 3.76777C51.2989 4.23661 50.663 4.5 50 4.5Z" fill="#93B7BF"/>
</svg>
