<svg width="63" height="42" viewBox="0 0 63 42" fill="none" xmlns="http://www.w3.org/2000/svg">
<path d="M61.0375 -5.07263L47.0719 -19.0351C46.6076 -19.4995 46.0563 -19.8679 45.4496 -20.1193C44.8429 -20.3706 44.1927 -20.5 43.536 -20.5C42.8793 -20.5 42.229 -20.3706 41.6223 -20.1193C41.0156 -19.8679 40.4643 -19.4995 40 -19.0351L1.46565 19.4992C0.999336 19.9619 0.62963 20.5125 0.378022 21.1193C0.126415 21.7261 -0.00207325 22.3768 2.52967e-05 23.0336V36.9992C2.52967e-05 38.3253 0.526809 39.5971 1.46449 40.5348C2.40217 41.4725 3.67394 41.9992 5.00002 41.9992H18.9656C19.6225 42.0013 20.2732 41.8729 20.88 41.6212C21.4867 41.3696 22.0374 40.9999 22.5 40.5336L48.6469 14.3899L49.7344 18.7336L38.2344 30.2305C37.7653 30.6992 37.5016 31.335 37.5013 31.9981C37.501 32.6613 37.7641 33.2973 38.2328 33.7664C38.7015 34.2355 39.3374 34.4992 40.0005 34.4995C40.6636 34.4998 41.2997 34.2367 41.7688 33.768L54.2688 21.268C54.5745 20.9628 54.7959 20.5836 54.9115 20.1674C55.0271 19.7512 55.0328 19.3121 54.9281 18.893L52.7719 10.2649L61.0375 1.99924C61.5019 1.53494 61.8703 0.98369 62.1217 0.376987C62.373 -0.229715 62.5024 -0.879988 62.5024 -1.53669C62.5024 -2.1934 62.373 -2.84367 62.1217 -3.45037C61.8703 -4.05708 61.5019 -4.60832 61.0375 -5.07263ZM50 5.96487L36.0375 -8.00076L43.5375 -15.5008L57.5 -1.53513L50 5.96487Z" fill="#B6CFD4"/>
</svg>
