<svg width="80" height="52" viewBox="0 0 80 52" fill="none" xmlns="http://www.w3.org/2000/svg">
<g filter="url(#filter0_n_1974_5367)">
<path d="M70 -13V37C70 38.3261 69.4732 39.5979 68.5355 40.5355C67.5979 41.4732 66.3261 42 65 42H50C48.6739 42 47.4021 41.4732 46.4645 40.5355C45.5268 39.5979 45 38.3261 45 37V28.25C45 27.9185 45.1317 27.6005 45.3661 27.3661C45.6005 27.1317 45.9185 27 46.25 27H57.5C57.8427 27.0008 58.1819 26.931 58.4966 26.7952C58.8112 26.6593 59.0946 26.4602 59.329 26.2102C59.5635 25.9602 59.744 25.6647 59.8594 25.342C59.9749 25.0193 60.0227 24.6764 60 24.3344C59.9441 23.6918 59.6473 23.0941 59.1691 22.6612C58.691 22.2282 58.0668 21.9921 57.4219 22H46.25C45.9185 22 45.6005 21.8683 45.3661 21.6339C45.1317 21.3995 45 21.0815 45 20.75V15.75C45 15.4185 45.1317 15.1005 45.3661 14.8661C45.6005 14.6317 45.9185 14.5 46.25 14.5H57.5C57.8427 14.5008 58.1819 14.431 58.4966 14.2952C58.8112 14.1593 59.0946 13.9602 59.329 13.7102C59.5635 13.4602 59.744 13.1647 59.8594 12.842C59.9749 12.5193 60.0227 12.1764 60 11.8344C59.9441 11.1918 59.6473 10.5941 59.1691 10.1612C58.691 9.72824 58.0668 9.49206 57.4219 9.50001H46.25C45.9185 9.50001 45.6005 9.36832 45.3661 9.1339C45.1317 8.89948 45 8.58153 45 8.25001V3.25001C45 2.91849 45.1317 2.60055 45.3661 2.36613C45.6005 2.13171 45.9185 2.00001 46.25 2.00001H57.5C57.8427 2.00077 58.1819 1.93105 58.4966 1.79518C58.8112 1.65932 59.0946 1.46021 59.329 1.21023C59.5635 0.960247 59.744 0.66473 59.8594 0.342034C59.9749 0.0193383 60.0227 -0.323644 60 -0.665611C59.944 -1.30929 59.6463 -1.90789 59.1668 -2.34098C58.6874 -2.77407 58.0617 -3.00953 57.4156 -2.99999H46.25C45.9185 -2.99999 45.6005 -3.13168 45.3661 -3.3661C45.1317 -3.60052 45 -3.91847 45 -4.24999V-13C45 -14.3261 45.5268 -15.5978 46.4645 -16.5355C47.4021 -17.4732 48.6739 -18 50 -18H65C66.3261 -18 67.5979 -17.4732 68.5355 -16.5355C69.4732 -15.5978 70 -14.3261 70 -13ZM34.2688 -9.76874C34.5008 -9.53639 34.6849 -9.2606 34.8103 -8.95711C34.9358 -8.65362 35.0003 -8.32839 35 -7.99999V37C35 38.3261 34.4732 39.5979 33.5355 40.5355C32.5979 41.4732 31.3261 42 30 42H15C13.6739 42 12.4021 41.4732 11.4645 40.5355C10.5268 39.5979 10 38.3261 10 37V-7.99999C9.99974 -8.32839 10.0642 -8.65362 10.1897 -8.95711C10.3151 -9.2606 10.4992 -9.53639 10.7313 -9.76874L20.7313 -19.7687C20.9634 -20.0012 21.2392 -20.1856 21.5427 -20.3114C21.8461 -20.4372 22.1715 -20.502 22.5 -20.502C22.8285 -20.502 23.1539 -20.4372 23.4574 -20.3114C23.7608 -20.1856 24.0366 -20.0012 24.2688 -19.7687L34.2688 -9.76874ZM15 -2.99999V29.5H20V-2.99999H15ZM25 -2.99999V29.5H30V-2.99999H25ZM16.0344 -7.99999H28.9656L22.5 -14.4656L16.0344 -7.99999Z" fill="#93B7BF"/>
</g>
<defs>
<filter id="filter0_n_1974_5367" x="0" y="-28" width="80" height="80" filterUnits="userSpaceOnUse" color-interpolation-filters="sRGB">
<feFlood flood-opacity="0" result="BackgroundImageFix"/>
<feBlend mode="normal" in="SourceGraphic" in2="BackgroundImageFix" result="shape"/>
<feTurbulence type="fractalNoise" baseFrequency="1 1" stitchTiles="stitch" numOctaves="3" result="noise" seed="7210" />
<feColorMatrix in="noise" type="luminanceToAlpha" result="alphaNoise" />
<feComponentTransfer in="alphaNoise" result="coloredNoise1">
<feFuncA type="discrete" tableValues="1 1 1 1 1 1 1 1 1 1 1 1 1 1 1 1 1 1 1 1 1 1 1 1 1 1 1 1 1 1 1 1 1 1 1 1 1 1 1 1 1 1 1 1 1 1 1 1 1 1 1 0 0 0 0 0 0 0 0 0 0 0 0 0 0 0 0 0 0 0 0 0 0 0 0 0 0 0 0 0 0 0 0 0 0 0 0 0 0 0 0 0 0 0 0 0 0 0 0 0 "/>
</feComponentTransfer>
<feComposite operator="in" in2="shape" in="coloredNoise1" result="noise1Clipped" />
<feComponentTransfer in="alphaNoise" result="coloredNoise2">
<feFuncA type="discrete" tableValues="0 0 0 0 0 0 0 0 0 0 0 0 0 0 0 0 0 0 0 0 0 0 0 0 0 0 0 0 0 0 0 0 0 0 0 0 0 0 0 0 0 0 0 0 0 0 0 0 0 1 1 1 1 1 1 1 1 1 1 1 1 1 1 1 1 1 1 1 1 1 1 1 1 1 1 1 1 1 1 1 1 1 1 1 1 1 1 1 1 1 1 1 1 1 1 1 1 1 1 1 "/>
</feComponentTransfer>
<feComposite operator="in" in2="shape" in="coloredNoise2" result="noise2Clipped" />
<feFlood flood-color="rgba(249, 229, 131, 0.1)" result="color1Flood" />
<feComposite operator="in" in2="noise1Clipped" in="color1Flood" result="color1" />
<feFlood flood-color="rgba(255, 255, 255, 0.25)" result="color2Flood" />
<feComposite operator="in" in2="noise2Clipped" in="color2Flood" result="color2" />
<feMerge result="effect1_noise_1974_5367">
<feMergeNode in="shape" />
<feMergeNode in="color1" />
<feMergeNode in="color2" />
</feMerge>
</filter>
</defs>
</svg>
